<svg id="Image_1" data-name="Image 1" xmlns="http://www.w3.org/2000/svg" xmlns:xlink="http://www.w3.org/1999/xlink" width="247.195" height="247.194" viewBox="0 0 247.195 247.194">
  <defs>
    <linearGradient id="linear-gradient" x1="0.763" y1="0.185" x2="-0.998" y2="1.919" gradientUnits="objectBoundingBox">
      <stop offset="0.004" stop-color="#e38ddd"/>
      <stop offset="1" stop-color="#9571f6"/>
    </linearGradient>
    <linearGradient id="linear-gradient-2" x1="-0.535" y1="0.601" x2="3.066" y2="-0.133" gradientUnits="objectBoundingBox">
      <stop offset="0" stop-color="#ffc444"/>
      <stop offset="0.996" stop-color="#f36f56"/>
    </linearGradient>
    <clipPath id="clip-path">
      <path id="Path_187" data-name="Path 187" d="M2190.95,1814.508l-22.743-3.669c-.875-3.263-1.736-9.16,3.226-9.779,6.9-.86,8.6-11.895,7.323-16.087-1.578-5.188-5-17.334,5.644-18.825,8.857-1.241,14.894-.311,16.932-10.589s8.914-15.83,18.756-13.687c10.358,2.255,20.759-9.6,28.705-3.879,13.847,9.971-2.845,30.747-21.9,34.58s-9.517,11.623-10.208,20.185c-.944,11.689-17.135,6.671-22.136,10.552C2190.625,1806.35,2190.575,1811.372,2190.95,1814.508Z" transform="translate(-2167.534 -1736.414)" fill="#d8dee8"/>
    </clipPath>
    <clipPath id="clip-path-2">
      <path id="Path_195" data-name="Path 195" d="M736.266,788.347c24.545-17.707,28.306-55.934,16.618-66.354-6.079-5.42-13.823-1.074-19.346-7.558-6.119-7.183.361-16.069-.447-35.724-.417-10.155-1.174-28.572-11.847-35.191-10.584-6.564-20.366,5.018-32.144-1.415-11.137-6.083-6.622-18.75-20.182-30.648-1.261-1.107-15.6-13.387-27.211-8.667-11.791,4.795-16.593,25.443-10.656,38.55,5.394,11.907,18.067,14.09,17.25,21.042-.9,7.661-16.585,7.52-18.266,15.3-2.43,11.248,28.568,19.748,29.074,37.574.3,10.482-10.288,12.242-12.79,25.445-3.23,17.041,10.435,35.031,22.4,44.078C686.054,797.891,714.991,803.695,736.266,788.347Z" transform="translate(-628.504 -601.714)" fill="url(#linear-gradient)"/>
    </clipPath>
    <clipPath id="clip-path-3">
      <path id="Path_203" data-name="Path 203" d="M1552.108,637.966c-22.712-16.88-25.72-52.667-14.654-62.254,5.756-4.986,12.937-.821,18.186-6.809,5.816-6.635-.124-15.027.893-33.392.525-9.489,1.477-26.7,11.542-32.742,9.982-6,18.973,4.962,30.07-.9,10.492-5.539,6.44-17.441,19.276-28.384,1.194-1.018,14.766-12.308,25.554-7.741,10.96,4.639,15.174,24.007,9.45,36.181-5.2,11.06-17.078,12.933-16.406,19.443.74,7.174,15.406,7.251,16.874,14.548,2.122,10.548-26.97,18.083-27.68,34.741-.417,9.8,9.455,11.581,11.62,23.958,2.794,15.974-10.221,32.612-21.525,40.91C1598.924,647.556,1571.794,652.6,1552.108,637.966Z" transform="translate(-1531.236 -464.665)" fill="url(#linear-gradient-2)"/>
    </clipPath>
    <linearGradient id="linear-gradient-5" x1="-1.083" y1="0.584" x2="3.821" y2="-0.101" xlink:href="#linear-gradient-2"/>
    <linearGradient id="linear-gradient-6" x1="-25.817" y1="1.17" x2="40.551" y2="-1.515" xlink:href="#linear-gradient-2"/>
    <linearGradient id="linear-gradient-7" x1="-5.898" y1="0.629" x2="16.265" y2="-1.154" xlink:href="#linear-gradient-2"/>
    <linearGradient id="linear-gradient-8" x1="-1.906" y1="0.343" x2="10.358" y2="-1.527" xlink:href="#linear-gradient-2"/>
    <linearGradient id="linear-gradient-9" x1="-1.84" y1="1.395" x2="4.395" y2="-2.405" xlink:href="#linear-gradient-2"/>
    <linearGradient id="linear-gradient-10" x1="-1.528" y1="0.8" x2="5.238" y2="-2.216" xlink:href="#linear-gradient-2"/>
    <linearGradient id="linear-gradient-11" y1="0.5" x2="1" y2="0.5" gradientUnits="objectBoundingBox">
      <stop offset="0" stop-color="#444b8c"/>
      <stop offset="0.996" stop-color="#26264f"/>
    </linearGradient>
    <clipPath id="clip-path-4">
      <circle id="Ellipse_5" data-name="Ellipse 5" cx="22.619" cy="22.619" r="22.619" fill="none" stroke="#d8dee8" stroke-width="1"/>
    </clipPath>
    <linearGradient id="linear-gradient-12" x1="-9.299" y1="-3.183" x2="-10.215" y2="-0.992" xlink:href="#linear-gradient-2"/>
    <linearGradient id="linear-gradient-13" x1="0.247" y1="-1.673" x2="-1.609" y2="-0.178" gradientUnits="objectBoundingBox">
      <stop offset="0" stop-color="#ff9085"/>
      <stop offset="1" stop-color="#fb6fbb"/>
    </linearGradient>
    <linearGradient id="linear-gradient-14" x1="0.58" y1="-9.43" x2="1.848" y2="1.04" gradientUnits="objectBoundingBox">
      <stop offset="0" stop-color="#311944"/>
      <stop offset="1" stop-color="#893976"/>
    </linearGradient>
    <linearGradient id="linear-gradient-15" x1="5.832" y1="-1.747" x2="5.894" y2="-6.044" xlink:href="#linear-gradient-2"/>
    <linearGradient id="linear-gradient-16" x1="3.923" y1="-11.36" x2="5.192" y2="-0.891" xlink:href="#linear-gradient-14"/>
    <linearGradient id="linear-gradient-17" x1="17.762" y1="-2.812" x2="17.824" y2="-7.109" xlink:href="#linear-gradient-2"/>
    <linearGradient id="linear-gradient-18" x1="1.151" y1="0.314" x2="2.088" y2="0.314" xlink:href="#linear-gradient-11"/>
    <linearGradient id="linear-gradient-19" x1="1.265" y1="0.314" x2="2.295" y2="0.314" xlink:href="#linear-gradient-11"/>
    <linearGradient id="linear-gradient-20" x1="2.096" y1="0.307" x2="3.305" y2="0.307" xlink:href="#linear-gradient-11"/>
    <linearGradient id="linear-gradient-21" x1="2.231" y1="1.241" x2="1.028" y2="0.008" xlink:href="#linear-gradient-13"/>
    <linearGradient id="linear-gradient-22" x1="2.463" y1="1.285" x2="1.135" y2="-0.176" xlink:href="#linear-gradient-13"/>
    <linearGradient id="linear-gradient-23" x1="7.169" y1="-4.119" x2="8.171" y2="-4.119" xlink:href="#linear-gradient-2"/>
    <linearGradient id="linear-gradient-24" x1="2.062" y1="1.44" x2="0.28" y2="0.221" xlink:href="#linear-gradient-13"/>
    <linearGradient id="linear-gradient-25" x1="0.54" y1="-0.071" x2="0.454" y2="1.869" xlink:href="#linear-gradient-2"/>
    <linearGradient id="linear-gradient-26" x1="3.663" y1="0.26" x2="2.946" y2="-1.327" gradientUnits="objectBoundingBox">
      <stop offset="0" stop-color="#444b8c"/>
      <stop offset="0.996" stop-color="#3e4177"/>
    </linearGradient>
    <linearGradient id="linear-gradient-27" x1="-28.209" y1="-8.077" x2="-27.657" y2="-17.315" xlink:href="#linear-gradient-2"/>
    <linearGradient id="linear-gradient-28" x1="0.383" y1="-2.504" x2="0.584" y2="1.901" xlink:href="#linear-gradient-11"/>
    <linearGradient id="linear-gradient-29" x1="11.557" y1="1.12" x2="11.557" y2="-0.094" xlink:href="#linear-gradient-11"/>
    <filter id="button_bg" x="91.2" y="165.597" width="142.229" height="68.004" filterUnits="userSpaceOnUse">
      <feOffset dy="3" input="SourceAlpha"/>
      <feGaussianBlur stdDeviation="4" result="blur"/>
      <feFlood flood-opacity="0.212"/>
      <feComposite operator="in" in2="blur"/>
      <feComposite in="SourceGraphic"/>
    </filter>
  </defs>
  <path id="Path_179" data-name="Path 179" d="M693.8,560.585c-6.7-44.1-34.171-98.283-88.442-103.953,0,0-41.205-5.04-81.824,2.6-24.107,4.534-45.246,18.029-58.622,37.425a81.535,81.535,0,0,0-12.421,65.6c3.522,14.646,5.9,29.8,5.248,44.852-1.137,26.192-.483,50.64,24.794,66.259,22.569,13.947,50.973,26.247,78.07,28.4,18.415,1.464,39.067-.905,56.815-5.727C707.867,671.468,700.5,604.686,693.8,560.585Z" transform="translate(-450.238 -455)" fill="#f4f7fa"/>
  <g id="Group_247" data-name="Group 247" transform="translate(150.431 113.377)">
    <path id="Path_180" data-name="Path 180" d="M2181.075,1833.676c-.957-.273.966-5.132-.884-12.013-.462-1.719-2.331-11.271-9.52-12.637l-4.187-.8c-.724-3.337-.787-6.617,3.656-7.171,6.9-.86,8.6-11.895,7.323-16.087-1.579-5.189-5-17.334,5.643-18.825,8.858-1.241,14.894-.311,16.932-10.59s8.914-15.83,18.757-13.687c10.358,2.255,20.758-9.6,28.705-3.88,13.847,9.971-2.845,30.748-21.905,34.58s-9.516,11.623-10.208,20.185a14.858,14.858,0,0,1-.884,3.4c-3.354,8.534-12.817,8.641-20.528,14.867C2183.459,1819.509,2182.687,1834.137,2181.075,1833.676Z" transform="translate(-2166.115 -1736.414)" fill="#fff"/>
    <g id="Group_246" data-name="Group 246" transform="translate(0.126)">
      <path id="Path_181" data-name="Path 181" d="M2190.95,1814.508l-22.743-3.669c-.875-3.263-1.736-9.16,3.226-9.779,6.9-.86,8.6-11.895,7.323-16.087-1.578-5.188-5-17.334,5.644-18.825,8.857-1.241,14.894-.311,16.932-10.589s8.914-15.83,18.756-13.687c10.358,2.255,20.759-9.6,28.705-3.879,13.847,9.971-2.845,30.747-21.9,34.58s-9.517,11.623-10.208,20.185c-.944,11.689-17.135,6.671-22.136,10.552C2190.625,1806.35,2190.575,1811.372,2190.95,1814.508Z" transform="translate(-2167.534 -1736.414)" fill="#d8dee8"/>
      <g id="Group_245" data-name="Group 245" clip-path="url(#clip-path)">
        <g id="Group_244" data-name="Group 244" transform="translate(11.981 3.563)" opacity="0.5" style="mix-blend-mode: soft-light;isolation: isolate">
          <path id="Path_182" data-name="Path 182" d="M2311.957,1854.256l-.47-.168c11.9-32.356,40.427-58.586,74.448-68.455l.157.453C2352.215,1795.914,2323.808,1822.035,2311.957,1854.256Z" transform="translate(-2310.732 -1784.841)" fill="#fcfdfe"/>
          <path id="Path_183" data-name="Path 183" d="M2312.271,2097.584l-.493-.077c1.917-13.419-8.718-25.785-8.826-25.908l.379-.3C2303.44,2071.428,2314.218,2083.953,2312.271,2097.584Z" transform="translate(-2302.952 -2045.236)" fill="#fcfdfe"/>
          <path id="Path_184" data-name="Path 184" d="M2339.349,2401.891l-.4-.29c8.53-10.9,34.871-8.5,35.136-8.472l-.035.471C2373.786,2393.575,2347.718,2391.2,2339.349,2401.891Z" transform="translate(-2335.762 -2338.366)" fill="#fcfdfe"/>
          <path id="Path_185" data-name="Path 185" d="M2648.757,1802.716l-.426-.257c5.949-9.189,1.3-25.5,1.255-25.66l.479-.114C2650.113,1776.851,2654.816,1793.357,2648.757,1802.716Z" transform="translate(-2617.773 -1776.685)" fill="#fcfdfe"/>
          <path id="Path_186" data-name="Path 186" d="M2854.286,1898.15l-.2-.438c11.981-4.7,28.606,1.546,28.773,1.61l-.174.439C2882.52,1899.7,2866.081,1893.522,2854.286,1898.15Z" transform="translate(-2805.321 -1885.407)" fill="#fcfdfe"/>
        </g>
      </g>
    </g>
  </g>
  <g id="Group_251" data-name="Group 251" transform="translate(15.773 12.981)">
    <g id="Group_250" data-name="Group 250">
      <path id="Path_188" data-name="Path 188" d="M736.266,788.347c24.545-17.707,28.306-55.934,16.618-66.354-6.079-5.42-13.823-1.074-19.346-7.558-6.119-7.183.361-16.069-.447-35.724-.417-10.155-1.174-28.572-11.847-35.191-10.584-6.564-20.366,5.018-32.144-1.415-11.137-6.083-6.622-18.75-20.182-30.648-1.261-1.107-15.6-13.387-27.211-8.667-11.791,4.795-16.593,25.443-10.656,38.55,5.394,11.907,18.067,14.09,17.25,21.042-.9,7.661-16.585,7.52-18.266,15.3-2.43,11.248,28.568,19.748,29.074,37.574.3,10.482-10.288,12.242-12.79,25.445-3.23,17.041,10.435,35.031,22.4,44.078C686.054,797.891,714.991,803.695,736.266,788.347Z" transform="translate(-628.504 -601.714)" fill="url(#linear-gradient)"/>
      <g id="Group_249" data-name="Group 249" clip-path="url(#clip-path-2)">
        <g id="Group_248" data-name="Group 248" transform="translate(-13.415 -11.473)" opacity="0.8" style="mix-blend-mode: soft-light;isolation: isolate">
          <path id="Path_189" data-name="Path 189" d="M742.329,732.52l.93-.233a819.938,819.938,0,0,0-31.313-99.428,518.792,518.792,0,0,0-30.289-64.744c-18.233-32.377-31.823-45.626-31.958-45.756l-.665.691c.134.13,13.65,13.317,31.822,45.6C697.628,598.442,721.908,651.059,742.329,732.52Z" transform="translate(-633.803 -517.907)" fill="#fff"/>
          <path id="Path_190" data-name="Path 190" d="M984.871,525.42a105.59,105.59,0,0,0-4.1-53.374l-.889.359a104.581,104.581,0,0,1,4.046,52.839Z" transform="translate(-935.378 -472.046)" fill="#fff"/>
          <path id="Path_191" data-name="Path 191" d="M1371.423,995.807c15.551-28.413,20.15-48.6,21.269-60.524,1.219-12.993-1.238-19.162-1.343-19.418l-.888.364c.025.061,2.483,6.275,1.266,19.071-1.125,11.824-5.707,31.84-21.146,60.047Z" transform="translate(-1291.51 -876.597)" fill="#fff"/>
          <path id="Path_192" data-name="Path 192" d="M1611.89,1768.448c37.656-42.291,39.205-75.643,39.217-75.975l-.959-.032c0,.083-.431,8.728-5.71,22.627-4.649,12.239-14.194,31.325-33.264,52.742Z" transform="translate(-1510.814 -1584.463)" fill="#fff"/>
          <path id="Path_193" data-name="Path 193" d="M542.677,1326.786a87.7,87.7,0,0,0,10.062,1.179l.056-.958c-22.436-1.3-41.689-11.5-53.887-19.83a130.6,130.6,0,0,1-21.307-17.934l-.713.642a131.666,131.666,0,0,0,21.479,18.084C508.8,1315.092,524.362,1323.574,542.677,1326.786Z" transform="translate(-476.887 -1216.939)" fill="#fff"/>
          <path id="Path_194" data-name="Path 194" d="M850.619,1917.98q2.649.464,5.405.75l.1-.954c-23.309-2.388-40.81-15.17-51.389-25.472a108.048,108.048,0,0,1-17.55-22.008l-.839.466a109.122,109.122,0,0,0,17.719,22.23C813.918,1902.588,829.728,1914.317,850.619,1917.98Z" transform="translate(-758.965 -1746.581)" fill="#fff"/>
        </g>
      </g>
    </g>
  </g>
  <g id="Group_255" data-name="Group 255" transform="translate(94.258 0.855)">
    <g id="Group_254" data-name="Group 254">
      <path id="Path_196" data-name="Path 196" d="M1552.108,637.966c-22.712-16.88-25.72-52.667-14.654-62.254,5.756-4.986,12.937-.821,18.186-6.809,5.816-6.635-.124-15.027.893-33.392.525-9.489,1.477-26.7,11.542-32.742,9.982-6,18.973,4.962,30.07-.9,10.492-5.539,6.44-17.441,19.276-28.384,1.194-1.018,14.766-12.308,25.554-7.741,10.96,4.639,15.174,24.007,9.45,36.181-5.2,11.06-17.078,12.933-16.406,19.443.74,7.174,15.406,7.251,16.874,14.548,2.122,10.548-26.97,18.083-27.68,34.741-.417,9.8,9.455,11.581,11.62,23.958,2.794,15.974-10.221,32.612-21.525,40.91C1598.924,647.556,1571.794,652.6,1552.108,637.966Z" transform="translate(-1531.236 -464.665)" fill="url(#linear-gradient-2)"/>
      <g id="Group_253" data-name="Group 253" clip-path="url(#clip-path-3)">
        <g id="Group_252" data-name="Group 252" transform="translate(4.198 -10.897)" style="mix-blend-mode: soft-light;isolation: isolate">
          <path id="Path_197" data-name="Path 197" d="M1889.407,588.209l-.867-.23a766.624,766.624,0,0,1,30.595-92.537,484.99,484.99,0,0,1,29.177-60.125c17.476-30.027,30.356-42.233,30.484-42.352l.613.655c-.127.119-12.938,12.268-30.355,42.2C1932.978,463.456,1909.579,512.324,1889.407,588.209Z" transform="translate(-1861.125 -388.41)" fill="url(#linear-gradient-5)"/>
          <path id="Path_198" data-name="Path 198" d="M2532.442,391.343a98.724,98.724,0,0,1,4.542-49.844l.827.348a97.768,97.768,0,0,0-4.485,49.344Z" transform="translate(-2446.829 -341.499)" fill="url(#linear-gradient-6)"/>
          <path id="Path_199" data-name="Path 199" d="M2016.037,823.244c-14.161-26.769-18.192-45.7-19.08-56.865-.967-12.163,1.412-17.9,1.514-18.136l.825.352c-.024.057-2.4,5.833-1.437,17.813.895,11.069,4.912,29.842,18.971,56.417Z" transform="translate(-1959.739 -712.255)" fill="url(#linear-gradient-7)"/>
          <path id="Path_200" data-name="Path 200" d="M1614.341,1539.886c-34.642-40.037-35.648-71.238-35.654-71.548l.9-.018c0,.078.287,8.165,5.038,21.229,4.184,11.5,12.854,29.474,30.4,49.75Z" transform="translate(-1578.687 -1368.621)" fill="url(#linear-gradient-8)"/>
          <path id="Path_201" data-name="Path 201" d="M2268.15,1146.423a82,82,0,0,1-9.423.969l-.039-.9c20.993-.922,39.126-10.2,50.642-17.823a122.126,122.126,0,0,0,20.158-16.483l.658.61a123.115,123.115,0,0,1-20.321,16.621C2299.975,1135.94,2285.315,1143.664,2268.15,1146.423Z" transform="translate(-2198.523 -1044)" fill="url(#linear-gradient-9)"/>
          <path id="Path_202" data-name="Path 202" d="M2030.124,1695.012q-2.483.4-5.063.629l-.078-.893c21.823-1.923,38.354-13.64,48.38-23.131a101.032,101.032,0,0,0,16.7-20.342l.778.447a102.013,102.013,0,0,1-16.86,20.547C2064.639,1681.109,2049.7,1691.864,2030.124,1695.012Z" transform="translate(-1985.495 -1535.388)" fill="url(#linear-gradient-10)"/>
        </g>
      </g>
    </g>
  </g>
  <g id="Group_266" data-name="Group 266" transform="translate(53.571 17.348)">
    <path id="Path_204" data-name="Path 204" d="M1190.125,848.793l-121.733-7.7c-2.8-.15-5.328,3.2-5.328,6.007v171.467c0,3.9,3.639,4.682,6.443,4.369l120.618-13.475a4.873,4.873,0,0,0,3.982-4.927V853.488A4.536,4.536,0,0,0,1190.125,848.793Z" transform="translate(-1063.064 -824.273)" fill="#97a6b7"/>
    <path id="Path_205" data-name="Path 205" d="M1212.754,845.115l-121.974-6.563a4.794,4.794,0,0,0-5.087,4.854v172.806a4.478,4.478,0,0,0,5.087,4.555l121.974-13.733a4.9,4.9,0,0,0,3.982-4.965V849.847A4.56,4.56,0,0,0,1212.754,845.115Z" transform="translate(-1083.691 -821.957)" fill="#d8dee8"/>
    <path id="Path_206" data-name="Path 206" d="M1114.9,1042.6a2.424,2.424,0,0,1-2.746-2.465V867.7a2.6,2.6,0,0,1,2.746-2.626l121.973,6.3a2.468,2.468,0,0,1,2.158,2.559v152.509a2.653,2.653,0,0,1-2.158,2.686Z" transform="translate(-1107.813 -846.138)" fill="#fff" opacity="0.74"/>
    <path id="Path_207" data-name="Path 207" d="M1358.136,1147.4,1253.811,1158.4V999.308l104.325,4.3Z" transform="translate(-1236.934 -968.497)" fill="#fff"/>
    <path id="Path_208" data-name="Path 208" d="M1531.769,882.025l-41.694.571.935-10.285a2.714,2.714,0,0,1,2.117-2.629l7.061-1.187a2.584,2.584,0,0,0,1.911-1.6l.766-1.819,18.469,1.248Z" transform="translate(-1452.294 -846.138)" fill="#97a6b7" opacity="0.3" style="mix-blend-mode: multiply;isolation: isolate"/>
    <path id="Path_209" data-name="Path 209" d="M1554.034,680.289a2.308,2.308,0,0,0-2.124-2.033l-6.662-.326c-3.024-.148-5.241-2.836-5.13-6.239l.257-7.887a2.486,2.486,0,0,0-2.214-2.713l-2.189-.143a2.983,2.983,0,0,1-2.546-3.58c.409-3.253-1.628-6.059-4.581-6.279-2.976-.222-5.753,2.265-6.2,5.559a3.891,3.891,0,0,1-.463,1.4,3.359,3.359,0,0,1-3.073,1.794l-2.258-.148a3.039,3.039,0,0,0-3.015,2.439l-1.878,8.006a7.285,7.285,0,0,1-7.127,5.805l-7.308-.358a3.147,3.147,0,0,0-2.923,1.9l-4.4,9.559a1.109,1.109,0,0,0,.87,1.657l63.377,2.3a1.256,1.256,0,0,0,1.155-1.483Zm-26.087-22.375a1.558,1.558,0,0,1-1.352-1.854,1.806,1.806,0,0,1,1.811-1.634,1.559,1.559,0,0,1,1.347,1.854A1.807,1.807,0,0,1,1527.947,657.915Z" transform="translate(-1452.294 -651.075)" fill="url(#linear-gradient-11)"/>
    <path id="Path_210" data-name="Path 210" d="M1558.277,682.705a2.308,2.308,0,0,0-2.124-2.033l-6.662-.327c-3.024-.148-5.241-2.836-5.13-6.239l.257-7.887a2.486,2.486,0,0,0-2.213-2.713l-2.189-.143a2.982,2.982,0,0,1-2.547-3.58c.409-3.252-1.628-6.059-4.581-6.279-2.976-.222-5.753,2.265-6.2,5.559a3.886,3.886,0,0,1-.463,1.4,3.358,3.358,0,0,1-3.072,1.794l-2.258-.147a3.039,3.039,0,0,0-3.015,2.439l-1.877,8.006a7.286,7.286,0,0,1-7.127,5.805l-7.308-.358a3.146,3.146,0,0,0-2.923,1.9l-4.4,9.559a1.109,1.109,0,0,0,.869,1.657l63.377,2.3a1.256,1.256,0,0,0,1.154-1.483Zm-26.087-22.375a1.558,1.558,0,0,1-1.352-1.854,1.807,1.807,0,0,1,1.811-1.634A1.559,1.559,0,0,1,1534,658.7,1.808,1.808,0,0,1,1532.19,660.331Z" transform="translate(-1456.162 -653.277)" fill="#97a6b7"/>
    <g id="Group_256" data-name="Group 256" transform="translate(38.157 12.605)">
      <path id="Path_211" data-name="Path 211" d="M1547.431,814.76c-5.653-3.818-9.991-1.111-13.515-5.417-3.772-4.609-1.228-10.677-5.13-13.541-2.5-1.833-4.727-.216-7.633-.713a7.652,7.652,0,0,1-3.379-1.546l-1.566,6.677a7.286,7.286,0,0,1-7.127,5.805l-7.308-.358a3.147,3.147,0,0,0-2.923,1.9l-4.4,9.559a1.109,1.109,0,0,0,.869,1.657l57.6,2.093A18.121,18.121,0,0,0,1547.431,814.76Z" transform="translate(-1494.318 -793.544)" fill="#fff" opacity="0.5" style="mix-blend-mode: soft-light;isolation: isolate"/>
    </g>
    <g id="Group_265" data-name="Group 265" transform="translate(28.673 44.699)">
      <g id="Group_257" data-name="Group 257" transform="translate(3.207 59.527)">
        <path id="Path_213" data-name="Path 213" d="M1649.759,1839.538l-79.93,2.473v-11.143l79.93-1.8Z" transform="translate(-1569.829 -1829.067)" fill="#d8dee8"/>
      </g>
      <g id="Group_258" data-name="Group 258" transform="translate(3.207 74.785)">
        <path id="Path_215" data-name="Path 215" d="M1649.759,2011.984l-79.93,3.451v-11.143l79.93-2.78Z" transform="translate(-1569.829 -2001.512)" fill="#d8dee8"/>
      </g>
      <g id="Group_259" data-name="Group 259" transform="translate(3.207 90.042)">
        <path id="Path_217" data-name="Path 217" d="M1649.759,2184.429l-79.93,4.43v-11.143l79.93-3.758Z" transform="translate(-1569.829 -2173.958)" fill="#d8dee8"/>
      </g>
      <g id="Group_260" data-name="Group 260" transform="translate(3.207 105.3)">
        <path id="Path_219" data-name="Path 219" d="M1649.759,2356.875l-79.93,5.407v-11.143l79.93-4.736Z" transform="translate(-1569.829 -2346.403)" fill="#d8dee8"/>
      </g>
      <path id="Path_221" data-name="Path 221" d="M1992.509,1163.66l-32.447-.747v-6.637l32.447.947Z" transform="translate(-1909.37 -1156.277)" fill="#d8dee8"/>
      <path id="Path_222" data-name="Path 222" d="M1992.509,1364.092l-32.447-.3v-3.318l32.447.4Z" transform="translate(-1909.37 -1342.404)" fill="#d8dee8"/>
      <path id="Path_223" data-name="Path 223" d="M1992.509,1425.741l-32.447-.137v-3.318l32.447.238Z" transform="translate(-1909.37 -1398.749)" fill="#d8dee8"/>
      <path id="Path_224" data-name="Path 224" d="M1992.509,1487.39l-32.447.027V1484.1l32.447.073Z" transform="translate(-1909.37 -1455.094)" fill="#d8dee8"/>
      <g id="Mask_Group_10" data-name="Mask Group 10" transform="translate(0 2.579)" clip-path="url(#clip-path-4)">
        <g id="Group_264" data-name="Group 264" transform="translate(3.208 5.282)">
          <path id="Path_225" data-name="Path 225" d="M1423.389,1493.312v-20.2l6.183-.976,26.411-.281,6.682,1.2v19.633Z" transform="translate(-1423.389 -1451.792)" fill="#d8dee8"/>
          <g id="Group_261" data-name="Group 261" transform="translate(6.029 6.979)">
            <path id="Path_226" data-name="Path 226" d="M1511.346,1329.366q.458,4.653.916,9.3a1.708,1.708,0,0,0,1.5,1.573c3.095.288,6.494,1.815,9.554,2.1l-14.031,4.381-12.38-4.1a46.66,46.66,0,0,0,8.221-2.372,1.73,1.73,0,0,0,1.158-1.474l.637-5.76Z" transform="translate(-1496.425 -1328.891)" fill="#fff"/>
            <path id="Path_227" data-name="Path 227" d="M1504.387,1342.3a.472.472,0,0,1-.149-.024l-12.38-4.1a.475.475,0,0,1,.078-.92,33.245,33.245,0,0,0,6.351-1.739c.616-.217,1.2-.422,1.795-.615a1.258,1.258,0,0,0,.833-1.075l.637-5.76a.475.475,0,0,1,.17-.314l4.43-3.647a.475.475,0,0,1,.774.32l.916,9.3a1.235,1.235,0,0,0,1.067,1.147,28.515,28.515,0,0,1,4.883,1.069,27.608,27.608,0,0,0,4.671,1.028.475.475,0,0,1,.1.926l-14.032,4.381A.466.466,0,0,1,1504.387,1342.3Zm-10.491-4.449,10.495,3.476,11.967-3.736c-.94-.206-1.891-.472-2.823-.733a27.894,27.894,0,0,0-4.715-1.037,2.186,2.186,0,0,1-1.924-2l-.828-8.417-3.594,2.958-.616,5.568a2.207,2.207,0,0,1-1.483,1.874c-.586.19-1.162.393-1.773.608A41,41,0,0,1,1493.9,1337.852Z" transform="translate(-1491.533 -1323.998)" fill="#d8dee8"/>
          </g>
          <g id="Group_263" data-name="Group 263" transform="translate(12.941)">
            <g id="Group_262" data-name="Group 262">
              <path id="Path_228" data-name="Path 228" d="M1585.9,1257.18c0,4.537-2.418,9.843-5.415,9.825-3.013-.018-5.468-5.4-5.468-9.987s2.455-6.587,5.468-6.525C1583.48,1250.556,1585.9,1252.643,1585.9,1257.18Z" transform="translate(-1574.54 -1250.017)" fill="#fff"/>
              <path id="Path_229" data-name="Path 229" d="M1575.605,1262.588h-.019c-3.345-.02-5.94-5.64-5.94-10.462a7.5,7.5,0,0,1,1.9-5.5,5.476,5.476,0,0,1,4.051-1.5c4.335.091,5.88,3.759,5.88,7.161,0,3.452-1.312,7.168-3.192,9.036A3.806,3.806,0,0,1,1575.605,1262.588Zm-.152-16.513a4.507,4.507,0,0,0-3.24,1.227,6.6,6.6,0,0,0-1.616,4.824c0,4.268,2.305,9.5,5,9.512a2.872,2.872,0,0,0,2.026-.987c1.687-1.677,2.911-5.194,2.911-8.362,0-3.825-1.85-6.147-4.95-6.212Z" transform="translate(-1569.647 -1245.125)" fill="#d8dee8"/>
            </g>
          </g>
        </g>
      </g>
    </g>
  </g>
  <g id="Group_272" data-name="Group 272" transform="translate(18.617 88.188)">
    <path id="Path_248" data-name="Path 248" d="M1589.651,1458.071s.058-2.937,1.414-3.392,5.972-4.027,5.7-2.634-2.293,2.464-2.293,2.464,1.7,2.116-.464,3.355S1587.73,1463.248,1589.651,1458.071Z" transform="translate(-1507.002 -1451.724)" fill="url(#linear-gradient-12)"/>
    <path id="Path_249" data-name="Path 249" d="M1153.358,1514.173l3.087,3.737a41.332,41.332,0,0,1-4.189,10.948,42.171,42.171,0,0,1-10.318,12.183c-8.183,6.529-23.621,13.452-28.938,8-4.745-4.864.743-17.353,1.76-19.6,2.639.91-.811-1.959,12.285,1.836,1.685.488,6.311-.272,11.245-2.383C1147.421,1524.989,1151.882,1517.109,1153.358,1514.173Z" transform="translate(-1071.24 -1508.647)" fill="url(#linear-gradient-13)"/>
    <path id="Path_250" data-name="Path 250" d="M1173.829,3121.406a24.634,24.634,0,0,0-.34,3.241c.049.85,9.487,1.285,9.582.647s-1.56-1.65-2.725-2.008-4.575-1.312-4.575-1.312Z" transform="translate(-1128.111 -2973.675)" fill="url(#linear-gradient-14)"/>
    <path id="Path_251" data-name="Path 251" d="M1173.949,3093.475l-.3,2.971a2.146,2.146,0,0,1-2.062.165l-.483-3.234Z" transform="translate(-1125.94 -2948.126)" fill="url(#linear-gradient-15)"/>
    <path id="Path_252" data-name="Path 252" d="M983.521,3165.188a24.64,24.64,0,0,0-.341,3.24c.05.851,9.487,1.286,9.582.648s-1.56-1.65-2.725-2.008-4.575-1.312-4.575-1.312Z" transform="translate(-954.64 -3013.584)" fill="url(#linear-gradient-16)"/>
    <path id="Path_253" data-name="Path 253" d="M983.642,3137.257l-.3,2.971a2.146,2.146,0,0,1-2.062.166l-.483-3.234Z" transform="translate(-952.471 -2988.035)" fill="url(#linear-gradient-17)"/>
    <path id="Path_254" data-name="Path 254" d="M1055.8,2204.737l3.273,6.635c.877,12.621,1.313,26.345,1.033,41.022-.208,10.919-.792,21.264-1.63,30.973l-4.437-.2a44.257,44.257,0,0,1-4.9-18.614c-.242-8.28,2.268-9.379,2.109-17.308-.206-10.275-4.515-13.017-6.811-25.378a66.19,66.19,0,0,1-.766-18.392Z" transform="translate(-1009.499 -2136.959)" fill="url(#linear-gradient-18)"/>
    <path id="Path_255" data-name="Path 255" d="M1043.67,2203.472l6.549.683c3.929,6.838,5.026,13.956,4.337,17.1-.976,4.454-3.556,5.881-3.414,10.353.14,4.425,2.747,5.573,4.4,10.788,1.145,3.611.843,6.931.192,13.424-1.312,13.079-4.47,17.078-1.824,21.366a9.653,9.653,0,0,0,4.76,3.777c-.065.8-.129,1.606-.2,2.4l-4.437-.2a44.263,44.263,0,0,1-4.9-18.614c-.242-8.28,2.268-9.38,2.109-17.308-.206-10.276-4.515-13.017-6.811-25.378A66.19,66.19,0,0,1,1043.67,2203.472Z" transform="translate(-1009.499 -2136.959)" opacity="0.3" fill="url(#linear-gradient-19)" style="mix-blend-mode: multiply;isolation: isolate"/>
    <path id="Path_256" data-name="Path 256" d="M913.655,2230.55c-2.048,11.166-3.856,23.116-5.268,35.791-1.7,15.3-2.613,29.73-2.971,43.125l-4.87.138c-6.4-12.655-6.788-21.235-5.865-26.821a80.786,80.786,0,0,0,1.541-12.681,89.2,89.2,0,0,0-.477-11.767c-.768-8.82-1.7-10.746-1.834-17.492-.126-6.331-.152-9.535,1.656-11.405C900.328,2224.51,912.716,2230.114,913.655,2230.55Z" transform="translate(-873.227 -2158.79)" fill="url(#linear-gradient-20)"/>
    <path id="Path_257" data-name="Path 257" d="M826.766,1729.591c1.555-2.581-.4-5.07-.843-9.959-.5-5.542,1.631-6.465,3.742-15.649,1.4-6.108,2.752-11.971,1.143-18.835-.771-3.29-2.078-8.869-6.7-11.564-2.383-1.391-5.637-1.252-12.046-.917-7.927.415-11.89.622-14.845,2.178-.433.228-9.425,5.119-10.043,13.092-.63,8.114,8.207,9.2,9.385,20.025.529,4.858-.414,12.328-1.026,17.174-.587,4.653-.991,5.844-.073,7.252,2.213,3.4,8.988,2.427,22.538.493C823.318,1732.122,825.605,1731.517,826.766,1729.591Z" transform="translate(-775.954 -1652.914)" fill="url(#linear-gradient-21)"/>
    <path id="Path_258" data-name="Path 258" d="M806.149,1806.273c-.573,2.109-2.634,3.685-4.068,8.814-.31,1.108-2.515,8.994.346,10.936,1.653,1.121,3.136-1,7.147-1.28,6.951-.481,10.262,5.361,14.8,3.765a6.216,6.216,0,0,0,2.866-2.223,4.588,4.588,0,0,1-.476,3.358c-1.161,1.926-3.448,2.531-8.764,3.29-13.55,1.935-20.326,2.9-22.539-.493-.918-1.409-.514-2.6.073-7.253.612-4.846,1.555-12.317,1.026-17.174-1.179-10.821-10.015-11.912-9.385-20.026a12.587,12.587,0,0,1,2.033-5.782C800.421,1786.742,807.95,1799.645,806.149,1806.273Z" transform="translate(-775.954 -1752.965)" opacity="0.2" fill="url(#linear-gradient-22)" style="mix-blend-mode: multiply;isolation: isolate"/>
    <path id="Path_259" data-name="Path 259" d="M841.9,2230.371l2.243,1.432a5.252,5.252,0,0,1,2.791-1.724c1.64-.361,3.523.156,3.567.68.035.419-1.111.842-1.289.908-1.431.528-2.493.089-3.071.665a4.382,4.382,0,0,1-1.046.933,3.165,3.165,0,0,1-.4.206c-.955.371-2.593-1.291-2.734-1.437Z" transform="translate(-825.868 -2161.103)" fill="url(#linear-gradient-23)"/>
    <path id="Path_260" data-name="Path 260" d="M683.319,1710.146c1.623-3.886,2.869-9.8.307-18.637-16.886,6.654-25.62,22.393-22.257,34.9,2.772,10.308,12.856,15.328,15.106,16.385l1.57-3.574c-2.607-2.9-5.545-7.2-5.129-12.094C673.491,1720.332,680.034,1718.013,683.319,1710.146Z" transform="translate(-660.657 -1670.294)" fill="url(#linear-gradient-24)"/>
    <path id="Path_261" data-name="Path 261" d="M988.913,1584.627a18.076,18.076,0,0,1-1.05,5.166c-.828,2-5.187,3.256-6.07,3.7s1.655,1.751,4.2,2.007,9.83-.322,11.142-1.289-1.054-.894-2.874-1.562-2.872-4.227-2.55-5.842S988.913,1584.627,988.913,1584.627Z" transform="translate(-953.215 -1572.868)" fill="url(#linear-gradient-25)"/>
    <path id="Path_262" data-name="Path 262" d="M1036.352,1500.92c1.323-1.3,1.507-1.452,1.651-1.9a4.328,4.328,0,0,0-2.655-4.88c-.1-.031-1.326-.425-1.8.109-.4.453.188,1.079-.091,1.952-.261.818-.97.879-2.284,1.952-1.082.883-1.755,1.432-1.91,2.2-.32,1.592,1.607,3.9,3.314,3.837C1033.2,1504.17,1033.362,1503.857,1036.352,1500.92Z" transform="translate(-996.622 -1490.232)" fill="url(#linear-gradient-26)"/>
    <g id="Group_270" data-name="Group 270" transform="translate(34.61 9.538)">
      <path id="Path_263" data-name="Path 263" d="M1053.342,1564.189a3.757,3.757,0,0,0,3.548,1.066c1.918-.471,1.429-4.873.025-5.576a2.488,2.488,0,0,0-1.959.093c-.378.182-.483.371-1.106.657-.575.263-.757.227-.912.412-.193.232-.276.731.329,1.936a1.072,1.072,0,0,0-1.195-.169.671.671,0,0,0-.214.3C1051.676,1563.45,1052.243,1564,1053.342,1564.189Z" transform="translate(-1051.825 -1559.52)" fill="url(#linear-gradient-27)"/>
    </g>
    <g id="Group_271" data-name="Group 271" transform="translate(35.447 22.337)">
      <path id="Path_264" data-name="Path 264" d="M1065.65,1704.183q-.39.885-.886,1.825c-.152.286-.3.565-.457.835l-1.886.26c-.378-.857-.755-1.72-1.133-2.581.441-.016.9-.038,1.381-.07.26.006.533,0,.816-.016a12.157,12.157,0,0,0,1.4-.168C1065.146,1704.243,1065.4,1704.211,1065.65,1704.183Z" transform="translate(-1061.289 -1704.183)" fill="url(#linear-gradient-28)"/>
      <path id="Path_265" data-name="Path 265" d="M1066.692,1732.274s2.162,21.163,8.821,24.469c-.161.681.081,6.19.081,6.19s-6.19-1.777-6.54-1.649-7.619-11.575-4.228-28.575Z" transform="translate(-1063.693 -1729.789)" fill="url(#linear-gradient-29)"/>
    </g>
  </g>
  <g id="Filled_button" data-name="Filled button" transform="matrix(0.998, -0.07, 0.07, 0.998, 103.2, 182.689)">
    <g transform="matrix(1, 0.07, -0.07, 1, -90.2, -189.44)" filter="url(#button_bg)">
      <rect id="button_bg-2" data-name="button bg" width="116" height="36" rx="18" transform="matrix(1, -0.07, 0.07, 1, 103.2, 182.69)" fill="#9173ff"/>
    </g>
    <text id="Quick_Apply" data-name="Quick Apply" transform="translate(58 25)" fill="#fff" font-size="18" font-family="BarlowCondensed-Medium, Barlow Condensed" font-weight="500"><tspan x="-39.807" y="0">QUICK APPLY</tspan></text>
  </g>
</svg>
