<svg width="48" height="48" viewBox="0 0 48 48" fill="none" xmlns="http://www.w3.org/2000/svg">
<rect width="48" height="48" rx="24" fill="#F2F4F7"/>
<path d="M30 19H28C27.7348 19 27.4804 19.1054 27.2929 19.2929C27.1054 19.4804 27 19.7348 27 20C27 20.2652 27.1054 20.5196 27.2929 20.7071C27.4804 20.8946 27.7348 21 28 21H30C30.7956 21 31.5587 21.3161 32.1213 21.8787C32.6839 22.4413 33 23.2044 33 24C33 24.7956 32.6839 25.5587 32.1213 26.1213C31.5587 26.6839 30.7956 27 30 27H26C25.2044 27 24.4413 26.6839 23.8787 26.1213C23.3161 25.5587 23 24.7956 23 24C22.9953 23.7864 22.9209 23.5803 22.788 23.413C22.7645 23.3705 22.7384 23.3294 22.71 23.29C22.6654 23.2555 22.6179 23.2251 22.568 23.199C22.4005 23.0662 22.1919 22.9959 21.9782 23.0003C21.7644 23.0047 21.5589 23.0834 21.397 23.223C21.3598 23.2428 21.3241 23.2652 21.29 23.29C21.2604 23.3306 21.2334 23.3731 21.209 23.417C21.0778 23.5834 21.0044 23.7881 21 24C21.0016 25.3256 21.5289 26.5964 22.4662 27.5338C23.4036 28.4711 24.6744 28.9984 26 29H30C31.3261 29 32.5979 28.4732 33.5355 27.5355C34.4732 26.5979 35 25.3261 35 24C35 22.6739 34.4732 21.4021 33.5355 20.4645C32.5979 19.5268 31.3261 19 30 19Z" fill="#1D2939"/>
<path d="M20 27H18C17.2044 27 16.4413 26.6839 15.8787 26.1213C15.3161 25.5587 15 24.7956 15 24C15 23.2044 15.3161 22.4413 15.8787 21.8787C16.4413 21.3161 17.2044 21 18 21H22C22.7956 21 23.5587 21.3161 24.1213 21.8787C24.6839 22.4413 25 23.2044 25 24C25 24.2652 25.1054 24.5196 25.2929 24.7071C25.4804 24.8946 25.7348 25 26 25C26.2652 25 26.5196 24.8946 26.7071 24.7071C26.8946 24.5196 27 24.2652 27 24C26.9984 22.6744 26.4711 21.4036 25.5338 20.4662C24.5964 19.5289 23.3256 19.0016 22 19H18C16.6739 19 15.4021 19.5268 14.4645 20.4645C13.5268 21.4021 13 22.6739 13 24C13 25.3261 13.5268 26.5979 14.4645 27.5355C15.4021 28.4732 16.6739 29 18 29H20C20.2652 29 20.5196 28.8946 20.7071 28.7071C20.8946 28.5196 21 28.2652 21 28C21 27.7348 20.8946 27.4804 20.7071 27.2929C20.5196 27.1054 20.2652 27 20 27Z" fill="#1D2939"/>
</svg>
