<svg width="48" height="48" viewBox="0 0 48 48" fill="none" xmlns="http://www.w3.org/2000/svg">
<rect width="48" height="48" rx="24" fill="#F2F4F7"/>
<g clip-path="url(#clip0_3444_64504)">
<path d="M36 24C36 29.9897 31.6116 34.9542 25.875 35.8542V27.4688H28.6711L29.2031 24H25.875V21.7491C25.875 20.7998 26.34 19.875 27.8306 19.875H29.3438V16.9219C29.3438 16.9219 27.9703 16.6875 26.6573 16.6875C23.9166 16.6875 22.125 18.3488 22.125 21.3563V24H19.0781V27.4688H22.125V35.8542C16.3884 34.9542 12 29.9897 12 24C12 17.3728 17.3728 12 24 12C30.6272 12 36 17.3728 36 24Z" fill="#1877F2"/>
<path d="M28.6711 27.4688L29.2031 24H25.875V21.749C25.875 20.8 26.3399 19.875 27.8306 19.875H29.3438V16.9219C29.3438 16.9219 27.9705 16.6875 26.6576 16.6875C23.9165 16.6875 22.125 18.3488 22.125 21.3563V24H19.0781V27.4688H22.125V35.8542C22.736 35.95 23.3621 36 24 36C24.6379 36 25.264 35.95 25.875 35.8542V27.4688H28.6711Z" fill="white"/>
</g>
<defs>
<clipPath id="clip0_3444_64504">
<rect width="24" height="24" fill="white" transform="translate(12 12)"/>
</clipPath>
</defs>
</svg>
