<svg width="48" height="48" viewBox="0 0 48 48" fill="none" xmlns="http://www.w3.org/2000/svg">
<rect width="48" height="48" rx="24" fill="#F2F4F7"/>
<g clip-path="url(#clip0_3444_64519)">
<path d="M13.4997 13.633C11.6137 15.592 11.9997 17.673 11.9997 23.995C11.9997 29.245 11.0837 34.508 15.8777 35.747C17.3747 36.132 30.6387 36.132 32.1337 35.745C34.1297 35.23 35.7537 33.611 35.9757 30.788C36.0067 30.394 36.0067 17.603 35.9747 17.201C35.7387 14.194 33.8877 12.461 31.4487 12.11C30.8897 12.029 30.7777 12.005 27.9097 12C17.7367 12.005 15.5067 11.552 13.4997 13.633Z" fill="url(#paint0_linear_3444_64519)"/>
<path d="M23.9978 15.139C20.3668 15.139 16.9188 14.816 15.6018 18.196C15.0578 19.592 15.1368 21.405 15.1368 24.001C15.1368 26.279 15.0638 28.42 15.6018 29.805C16.9158 33.187 20.3918 32.863 23.9958 32.863C27.4728 32.863 31.0578 33.225 32.3908 29.805C32.9358 28.395 32.8558 26.609 32.8558 24.001C32.8558 20.539 33.0468 18.304 31.3678 16.626C29.6678 14.926 27.3688 15.139 23.9938 15.139H23.9978ZM23.2038 16.736C30.7778 16.724 31.7418 15.882 31.2098 27.579C31.0208 31.716 27.8708 31.262 23.9988 31.262C16.9388 31.262 16.7358 31.06 16.7358 23.997C16.7358 16.852 17.2958 16.74 23.2038 16.734V16.736ZM28.7278 18.207C28.1408 18.207 27.6648 18.683 27.6648 19.27C27.6648 19.857 28.1408 20.333 28.7278 20.333C29.3148 20.333 29.7908 19.857 29.7908 19.27C29.7908 18.683 29.3148 18.207 28.7278 18.207ZM23.9978 19.45C21.4848 19.45 19.4478 21.488 19.4478 24.001C19.4478 26.514 21.4848 28.551 23.9978 28.551C26.5108 28.551 28.5468 26.514 28.5468 24.001C28.5468 21.488 26.5108 19.45 23.9978 19.45ZM23.9978 21.047C27.9028 21.047 27.9078 26.955 23.9978 26.955C20.0938 26.955 20.0878 21.047 23.9978 21.047Z" fill="white"/>
</g>
<defs>
<linearGradient id="paint0_linear_3444_64519" x1="13.5457" y1="34.4671" x2="35.8512" y2="15.162" gradientUnits="userSpaceOnUse">
<stop stop-color="#FFDD55"/>
<stop offset="0.5" stop-color="#FF543E"/>
<stop offset="1" stop-color="#C837AB"/>
</linearGradient>
<clipPath id="clip0_3444_64519">
<rect width="24" height="24" fill="white" transform="translate(12 12)"/>
</clipPath>
</defs>
</svg>
