<svg width="32" height="32" viewBox="0 0 32 32" fill="none" xmlns="http://www.w3.org/2000/svg">
<path d="M0 16C0 24.8366 7.16344 32 16 32C24.8366 32 32 24.8366 32 16C32 7.16344 24.8366 0 16 0C7.16344 0 0 7.16344 0 16Z" fill="#F7F5FF"/>
<path d="M15.9998 9.2002C18.1998 9.2002 18.4998 9.2002 19.3998 9.2002C20.1998 9.2002 20.5998 9.4002 20.8998 9.5002C21.2998 9.7002 21.5998 9.8002 21.8998 10.1002C22.1998 10.4002 22.3998 10.7002 22.4998 11.1002C22.5998 11.4002 22.6998 11.8002 22.7998 12.6002C22.7998 13.5002 22.7998 13.7002 22.7998 16.0002C22.7998 18.3002 22.7998 18.5002 22.7998 19.4002C22.7998 20.2002 22.5998 20.6002 22.4998 20.9002C22.2998 21.3002 22.1998 21.6002 21.8998 21.9002C21.5998 22.2002 21.2998 22.4002 20.8998 22.5002C20.5998 22.6002 20.1998 22.7002 19.3998 22.8002C18.4998 22.8002 18.2998 22.8002 15.9998 22.8002C13.6998 22.8002 13.4998 22.8002 12.5998 22.8002C11.7998 22.8002 11.3998 22.6002 11.0998 22.5002C10.6998 22.3002 10.3998 22.2002 10.0998 21.9002C9.79977 21.6002 9.59977 21.3002 9.49977 20.9002C9.39977 20.6002 9.29977 20.2002 9.19977 19.4002C9.19977 18.5002 9.19977 18.3002 9.19977 16.0002C9.19977 13.7002 9.19977 13.5002 9.19977 12.6002C9.19977 11.8002 9.39977 11.4002 9.49977 11.1002C9.69977 10.7002 9.79977 10.4002 10.0998 10.1002C10.3998 9.8002 10.6998 9.6002 11.0998 9.5002C11.3998 9.4002 11.7998 9.3002 12.5998 9.2002C13.4998 9.2002 13.7998 9.2002 15.9998 9.2002ZM15.9998 7.7002C13.6998 7.7002 13.4998 7.7002 12.5998 7.7002C11.6998 7.7002 11.0998 7.9002 10.5998 8.1002C10.0998 8.3002 9.59977 8.6002 9.09977 9.1002C8.59977 9.6002 8.39977 10.0002 8.09977 10.6002C7.89977 11.1002 7.79977 11.7002 7.69977 12.6002C7.69977 13.5002 7.69977 13.8002 7.69977 16.0002C7.69977 18.3002 7.69977 18.5002 7.69977 19.4002C7.69977 20.3002 7.89977 20.9002 8.09977 21.4002C8.29977 21.9002 8.59977 22.4002 9.09977 22.9002C9.59977 23.4002 9.99977 23.6002 10.5998 23.9002C11.0998 24.1002 11.6998 24.2002 12.5998 24.3002C13.4998 24.3002 13.7998 24.3002 15.9998 24.3002C18.1998 24.3002 18.4998 24.3002 19.3998 24.3002C20.2998 24.3002 20.8998 24.1002 21.3998 23.9002C21.8998 23.7002 22.3998 23.4002 22.8998 22.9002C23.3998 22.4002 23.5998 22.0002 23.8998 21.4002C24.0998 20.9002 24.1998 20.3002 24.2998 19.4002C24.2998 18.5002 24.2998 18.2002 24.2998 16.0002C24.2998 13.8002 24.2998 13.5002 24.2998 12.6002C24.2998 11.7002 24.0998 11.1002 23.8998 10.6002C23.6998 10.1002 23.3998 9.6002 22.8998 9.1002C22.3998 8.6002 21.9998 8.4002 21.3998 8.1002C20.8998 7.9002 20.2998 7.8002 19.3998 7.7002C18.4998 7.7002 18.2998 7.7002 15.9998 7.7002Z" fill="#6648FF"/>
<path d="M15.9998 11.7002C13.5998 11.7002 11.6998 13.6002 11.6998 16.0002C11.6998 18.4002 13.5998 20.3002 15.9998 20.3002C18.3998 20.3002 20.2998 18.4002 20.2998 16.0002C20.2998 13.6002 18.3998 11.7002 15.9998 11.7002ZM15.9998 18.8002C14.4998 18.8002 13.1998 17.6002 13.1998 16.0002C13.1998 14.5002 14.3998 13.2002 15.9998 13.2002C17.4998 13.2002 18.7998 14.4002 18.7998 16.0002C18.7998 17.5002 17.4998 18.8002 15.9998 18.8002Z" fill="#6648FF"/>
<path d="M20.3998 12.6002C20.9521 12.6002 21.3998 12.1525 21.3998 11.6002C21.3998 11.0479 20.9521 10.6002 20.3998 10.6002C19.8475 10.6002 19.3998 11.0479 19.3998 11.6002C19.3998 12.1525 19.8475 12.6002 20.3998 12.6002Z" fill="#6648FF"/>
</svg>
