<svg width="48" height="48" viewBox="0 0 48 48" fill="none" xmlns="http://www.w3.org/2000/svg">
<rect width="48" height="48" rx="24" fill="#F2F4F7"/>
<g clip-path="url(#clip0_3444_64511)">
<path d="M24 35.9995C30.6274 35.9995 36 30.6269 36 23.9995C36 17.3721 30.6274 11.9995 24 11.9995C17.3726 11.9995 12 17.3721 12 23.9995C12 30.6269 17.3726 35.9995 24 35.9995Z" fill="#007AB9"/>
<path d="M31.1707 24.9653V29.9127H28.3024V25.2969C28.3024 24.1379 27.8883 23.3465 26.8497 23.3465C26.0572 23.3465 25.5864 23.8793 25.3785 24.3953C25.3029 24.5797 25.2835 24.8357 25.2835 25.0943V29.9125H22.4149C22.4149 29.9125 22.4534 22.0949 22.4149 21.2856H25.2837V22.5081C25.2779 22.5178 25.2698 22.5272 25.2647 22.5364H25.2837V22.5081C25.6649 21.9216 26.3447 21.0831 27.8688 21.0831C29.7559 21.0831 31.1707 22.316 31.1707 24.9653ZM19.4142 17.1272C18.433 17.1272 17.791 17.7713 17.791 18.6175C17.791 19.4458 18.4144 20.1085 19.3765 20.1085H19.3951C20.3956 20.1085 21.0177 19.4458 21.0177 18.6175C20.9986 17.7713 20.3956 17.1272 19.4142 17.1272ZM17.9615 29.9127H20.829V21.2856H17.9615V29.9127Z" fill="#F1F2F2"/>
</g>
<defs>
<clipPath id="clip0_3444_64511">
<rect width="24" height="24" fill="white" transform="translate(12 12)"/>
</clipPath>
</defs>
</svg>
