<svg width="56" height="56" viewBox="0 0 56 56" fill="none" xmlns="http://www.w3.org/2000/svg">
<path d="M0 28C0 43.464 12.536 56 28 56C43.464 56 56 43.464 56 28C56 12.536 43.464 0 28 0C12.536 0 0 12.536 0 28Z" fill="#F7F5FF"/>
<path d="M28 42C35.732 42 42 35.732 42 28C42 20.268 35.732 14 28 14C20.268 14 14 20.268 14 28C14 35.732 20.268 42 28 42Z" fill="#6648FF"/>
<path fill-rule="evenodd" clip-rule="evenodd" d="M20.3372 27.8522C24.4185 26.0741 27.14 24.9018 28.5017 24.3354C32.3896 22.7183 33.1975 22.4374 33.7241 22.4281C33.8399 22.4261 34.0988 22.4548 34.2666 22.5909C34.4082 22.7058 34.4472 22.861 34.4658 22.97C34.4845 23.079 34.5077 23.3272 34.4892 23.5211C34.2785 25.7349 33.3669 31.107 32.9031 33.5864C32.7068 34.6356 32.3204 34.9873 31.9463 35.0218C31.1333 35.0966 30.516 34.4845 29.7285 33.9683C28.4963 33.1606 27.8002 32.6578 26.6042 31.8696C25.222 30.9587 26.118 30.4581 26.9057 29.6399C27.1119 29.4258 30.694 26.1676 30.7633 25.872C30.772 25.835 30.7801 25.6973 30.6982 25.6245C30.6163 25.5517 30.4955 25.5766 30.4083 25.5964C30.2848 25.6245 28.3163 26.9255 24.5031 29.4996C23.9443 29.8832 23.4382 30.0702 22.9848 30.0604C22.4849 30.0496 21.5234 29.7777 20.8086 29.5454C19.9318 29.2604 19.235 29.1097 19.2957 28.6257C19.3273 28.3736 19.6745 28.1158 20.3372 27.8522Z" fill="white"/>
</svg>
