<svg width="49" height="48" viewBox="0 0 49 48" fill="none" xmlns="http://www.w3.org/2000/svg">
<rect x="0.5" width="48" height="48" rx="24" fill="#F2F4F7"/>
<g clip-path="url(#clip0_3444_66613)">
<path d="M24.5 36C31.1274 36 36.5 30.6274 36.5 24C36.5 17.3726 31.1274 12 24.5 12C17.8726 12 12.5 17.3726 12.5 24C12.5 30.6274 17.8726 36 24.5 36Z" fill="#039BE5"/>
<path d="M17.991 23.74L29.561 19.279C30.098 19.085 30.567 19.41 30.393 20.222L30.394 20.221L28.424 29.502C28.278 30.16 27.887 30.32 27.34 30.01L24.34 27.799L22.893 29.193C22.733 29.353 22.598 29.488 22.288 29.488L22.501 26.435L28.061 21.412C28.303 21.199 28.007 21.079 27.688 21.291L20.817 25.617L17.855 24.693C17.212 24.489 17.198 24.05 17.991 23.74Z" fill="white"/>
</g>
<defs>
<clipPath id="clip0_3444_66613">
<rect width="24" height="24" fill="white" transform="translate(12.5 12)"/>
</clipPath>
</defs>
</svg>
