<svg width="49" height="48" viewBox="0 0 49 48" fill="none" xmlns="http://www.w3.org/2000/svg">
<rect x="0.5" width="48" height="48" rx="24" fill="#F2F4F7"/>
<g clip-path="url(#clip0_3444_66620)">
<path d="M24.5 36C31.1274 36 36.5 30.6274 36.5 24C36.5 17.3726 31.1274 12 24.5 12C17.8726 12 12.5 17.3726 12.5 24C12.5 30.6274 17.8726 36 24.5 36Z" fill="#3D5A70"/>
<path d="M22.0195 22.8521H20.6142C20.6142 22.7937 20.6142 21.7105 20.6142 21.2163C20.607 21.1744 20.6161 21.1313 20.6396 21.0958C20.663 21.0603 20.6991 21.0351 20.7405 21.0253C22.3763 20.5374 23.1563 18.1184 23.1642 17.8421C23.1642 17.7332 23.2289 17.6842 23.3347 17.6842C23.8316 17.6842 24.33 17.6842 24.83 17.6842C24.9484 17.6842 24.9768 17.7253 24.9753 17.8421V20.8737H27.9563V22.8505H25.0132C25.0132 22.89 24.9832 27.1137 25.0132 27.311C25.0387 27.4586 25.0977 27.5983 25.1856 27.7195C25.2734 27.8407 25.3878 27.9403 25.52 28.0105C25.9937 28.2947 26.4989 28.3121 27.0216 28.2189C27.4558 28.1432 28.3289 27.7042 28.3858 27.6726V29.4979C28.3899 29.5404 28.3793 29.5831 28.3558 29.6187C28.3322 29.6544 28.2971 29.6808 28.2563 29.6937C27.2793 30.1651 26.1966 30.3746 25.1142 30.3016C24.1779 30.24 23.3237 29.9716 22.6416 29.2816C22.2879 28.9216 22.0195 28.5189 22.0195 27.99V22.8521Z" fill="white"/>
</g>
<defs>
<clipPath id="clip0_3444_66620">
<rect width="24" height="24" fill="white" transform="translate(12.5 12)"/>
</clipPath>
</defs>
</svg>
