<svg width="57" height="56" viewBox="0 0 57 56" fill="none" xmlns="http://www.w3.org/2000/svg">
<path d="M0.5 28C0.5 43.464 13.036 56 28.5 56C43.964 56 56.5 43.464 56.5 28C56.5 12.536 43.964 0 28.5 0C13.036 0 0.5 12.536 0.5 28Z" fill="#F7F5FF"/>
<path fill-rule="evenodd" clip-rule="evenodd" d="M29.6103 14V21.0761H36.5279V25.472H29.6103V32.6518C29.6103 34.2768 29.6994 35.319 29.8777 35.7767C30.056 36.241 30.3886 36.6081 30.879 36.883C31.5219 37.2551 32.2591 37.4395 33.0905 37.4395C34.5667 37.4395 36.0342 36.9769 37.4949 36.0566V40.4754C36.2485 41.0352 35.1221 41.432 34.1123 41.6592C33.1008 41.888 32.0087 42 30.8361 42C29.5006 42 28.3228 41.8387 27.2993 41.516C26.2758 41.19 25.4014 40.7323 24.6796 40.133C23.9562 39.5354 23.4521 38.8966 23.1744 38.2232C22.8949 37.5498 22.7561 36.5735 22.7561 35.2926V25.472H19.5312V21.5091C20.6799 21.1519 21.6588 20.6382 22.4766 19.9731C23.291 19.3063 23.9493 18.5045 24.4413 17.5677C24.9351 16.6342 25.2762 15.4439 25.4631 14H29.6103" fill="#6648FF"/>
</svg>
