<svg width="48" height="48" viewBox="0 0 48 48" fill="none" xmlns="http://www.w3.org/2000/svg">
<rect width="48" height="48" rx="24" fill="#F2F4F7"/>
<g clip-path="url(#clip0_3444_64525)">
<path d="M24 36C30.6274 36 36 30.6274 36 24C36 17.3726 30.6274 12 24 12C17.3726 12 12 17.3726 12 24C12 30.6274 17.3726 36 24 36Z" fill="#03A9F4"/>
<path d="M31.774 19.1795C31.1893 19.4349 30.5708 19.6045 29.9377 19.6832C30.6051 19.2874 31.104 18.6604 31.3398 17.9211C30.7151 18.2919 30.0315 18.553 29.3187 18.6932C28.8819 18.2261 28.3147 17.9012 27.6908 17.7608C27.0668 17.6204 26.4151 17.6711 25.8203 17.9061C25.2255 18.1412 24.7152 18.5497 24.3558 19.0787C23.9964 19.6077 23.8045 20.2326 23.8051 20.8721C23.8028 21.1163 23.8277 21.3599 23.8793 21.5985C22.6113 21.5362 21.3708 21.2071 20.2387 20.6328C19.1066 20.0584 18.1084 19.2517 17.3093 18.2653C16.8985 18.967 16.7713 19.7991 16.9535 20.5915C17.1358 21.3839 17.6138 22.0767 18.2898 22.5285C17.7852 22.5149 17.2913 22.38 16.8498 22.1353V22.17C16.8512 22.9056 17.1058 23.6182 17.5708 24.1881C18.0357 24.758 18.6827 25.1505 19.4029 25.2995C19.1304 25.3711 18.8495 25.4062 18.5677 25.4037C18.3648 25.4075 18.162 25.3895 17.9629 25.35C18.1693 25.9826 18.5666 26.5357 19.1001 26.9332C19.6337 27.3308 20.2773 27.5532 20.9424 27.57C19.8152 28.4511 18.4257 28.9296 16.9951 28.9295C16.7401 28.9317 16.4854 28.9169 16.2324 28.8853C17.6912 29.8258 19.3915 30.3228 21.1272 30.3158C26.9929 30.3158 30.1998 25.4574 30.1998 21.2464C30.1998 21.1058 30.1998 20.97 30.1887 20.8342C30.8133 20.3835 31.3505 19.8228 31.774 19.1795Z" fill="white"/>
</g>
<defs>
<clipPath id="clip0_3444_64525">
<rect width="24" height="24" fill="white" transform="translate(12 12)"/>
</clipPath>
</defs>
</svg>
