<svg width="57" height="56" viewBox="0 0 57 56" fill="none" xmlns="http://www.w3.org/2000/svg">
<path d="M0.5 28C0.5 43.464 13.036 56 28.5 56C43.964 56 56.5 43.464 56.5 28C56.5 12.536 43.964 0 28.5 0C13.036 0 0.5 12.536 0.5 28Z" fill="#F7F5FF"/>
<path d="M42.5 19.25C41.45 19.775 40.4 19.95 39.175 20.125C40.4 19.425 41.275 18.375 41.625 16.975C40.575 17.675 39.35 18.025 37.95 18.375C36.9 17.325 35.325 16.625 33.75 16.625C30.075 16.625 27.275 20.125 28.15 23.625C23.425 23.45 19.225 21.175 16.25 17.675C14.675 20.3 15.55 23.625 18 25.375C17.125 25.375 16.25 25.025 15.375 24.675C15.375 27.3 17.3 29.75 19.925 30.45C19.05 30.625 18.175 30.8 17.3 30.625C18 32.9 20.1 34.65 22.725 34.65C20.625 36.225 17.475 37.1 14.5 36.75C17.125 38.325 20.1 39.375 23.25 39.375C33.925 39.375 39.875 30.45 39.525 22.225C40.75 21.525 41.8 20.475 42.5 19.25Z" fill="#6648FF"/>
</svg>
