<svg width="48" height="48" viewBox="0 0 48 48" fill="none" xmlns="http://www.w3.org/2000/svg">
<rect width="48" height="48" rx="24" fill="#F2F4F7"/>
<g clip-path="url(#clip0_3444_66628)">
<path d="M24 36C30.6274 36 36 30.6274 36 24C36 17.3726 30.6274 12 24 12C17.3726 12 12 17.3726 12 24C12 30.6274 17.3726 36 24 36Z" fill="#29A71A"/>
<path d="M29.2909 18.7091C28.0424 17.4482 26.3844 16.6749 24.616 16.5287C22.8475 16.3826 21.0851 16.8731 19.6465 17.912C18.2079 18.9509 17.1879 20.4696 16.7705 22.1943C16.3531 23.919 16.5657 25.7361 17.37 27.3178L16.5805 31.151C16.5723 31.1891 16.572 31.2285 16.5798 31.2668C16.5875 31.305 16.6031 31.3413 16.6255 31.3732C16.6583 31.4217 16.7051 31.4591 16.7596 31.4803C16.8142 31.5015 16.874 31.5055 16.9309 31.4919L20.6877 30.6014C22.265 31.3854 24.0692 31.5843 25.7794 31.1629C27.4896 30.7414 28.9948 29.7269 30.0272 28.2998C31.0596 26.8727 31.5522 25.1257 31.4174 23.3695C31.2826 21.6133 30.529 19.9619 29.2909 18.7091ZM28.1196 28.0582C27.2557 28.9196 26.1434 29.4883 24.9392 29.684C23.7351 29.8797 22.4999 29.6926 21.4077 29.1491L20.8841 28.89L18.5809 29.4355L18.5877 29.4069L19.065 27.0887L18.8086 26.5828C18.2506 25.4868 18.0537 24.2423 18.2463 23.0276C18.4388 21.8128 19.0108 20.6902 19.8805 19.8205C20.9731 18.7282 22.4549 18.1145 24 18.1145C25.5451 18.1145 27.0269 18.7282 28.1196 19.8205C28.1289 19.8312 28.1389 19.8412 28.1496 19.8505C29.2287 20.9457 29.8311 22.423 29.8255 23.9605C29.8199 25.498 29.2067 26.971 28.1196 28.0582Z" fill="white"/>
<path d="M27.915 26.3578C27.6327 26.8024 27.1868 27.3465 26.6264 27.4815C25.6445 27.7187 24.1377 27.4896 22.2627 25.7415L22.2395 25.721C20.5909 24.1924 20.1627 22.9201 20.2664 21.911C20.3236 21.3383 20.8009 20.8201 21.2032 20.4819C21.2668 20.4276 21.3422 20.389 21.4234 20.3691C21.5046 20.3491 21.5893 20.3485 21.6708 20.3672C21.7523 20.3859 21.8283 20.4234 21.8928 20.4767C21.9572 20.53 22.0082 20.5976 22.0418 20.6742L22.6486 22.0378C22.6881 22.1262 22.7027 22.2237 22.6909 22.3198C22.6791 22.4159 22.6414 22.507 22.5818 22.5833L22.275 22.9815C22.2092 23.0637 22.1694 23.1637 22.1609 23.2687C22.1524 23.3737 22.1755 23.4788 22.2273 23.5706C22.3991 23.8719 22.8109 24.3151 23.2677 24.7256C23.7805 25.1892 24.3491 25.6133 24.7091 25.7578C24.8054 25.7972 24.9113 25.8068 25.0132 25.7854C25.115 25.764 25.2081 25.7126 25.2805 25.6378L25.6364 25.2792C25.705 25.2115 25.7904 25.1632 25.8839 25.1392C25.9773 25.1153 26.0754 25.1165 26.1682 25.1428L27.6095 25.5519C27.6891 25.5763 27.7619 25.6186 27.8226 25.6754C27.8833 25.7323 27.9302 25.8023 27.9596 25.8801C27.9891 25.9578 28.0004 26.0413 27.9927 26.1241C27.9849 26.2069 27.9584 26.2869 27.915 26.3578Z" fill="white"/>
</g>
<defs>
<clipPath id="clip0_3444_66628">
<rect width="24" height="24" fill="white" transform="translate(12 12)"/>
</clipPath>
</defs>
</svg>
