<?xml version="1.0" standalone="no"?><!DOCTYPE svg PUBLIC "-//W3C//DTD SVG 1.1//EN" "http://www.w3.org/Graphics/SVG/1.1/DTD/svg11.dtd"><svg t="1660545868559" class="icon" viewBox="0 0 1024 1024" version="1.1" xmlns="http://www.w3.org/2000/svg" p-id="1817" width="128" height="128" xmlns:xlink="http://www.w3.org/1999/xlink"><defs><style type="text/css">@font-face { font-family: feedback-iconfont; src: url("//at.alicdn.com/t/font_1031158_u69w8yhxdu.woff2?t=1630033759944") format("woff2"), url("//at.alicdn.com/t/font_1031158_u69w8yhxdu.woff?t=1630033759944") format("woff"), url("//at.alicdn.com/t/font_1031158_u69w8yhxdu.ttf?t=1630033759944") format("truetype"); }
</style></defs><path d="M0 512C0 229.226667 229.226667 0 512 0s512 229.226667 512 512-229.226667 512-512 512S0 794.773333 0 512z" fill="#FFFFFF" p-id="1818"></path><path d="M624.362667 204.8c5.354667 36.416-9.450667 72.085333-29.013334 97.301333-20.906667 27.072-56.96 48.021333-91.882666 46.912-6.378667-34.858667 9.941333-70.762667 29.802666-94.912 21.802667-26.645333 59.136-47.082667 91.093334-49.301333z m104.917333 512.469333c18.005333-27.605333 24.746667-41.536 38.72-72.682666-101.674667-38.656-117.952-183.210667-17.344-238.677334-30.677333-38.485333-73.813333-60.8-114.517333-60.8-29.333333 0-49.429333 7.658667-67.712 14.613334-15.232 5.802667-29.184 11.114667-46.144 11.114666-18.346667 0-34.602667-5.824-51.605334-11.925333-18.688-6.698667-38.314667-13.738667-62.656-13.738667-45.674667 0-94.314667 27.925333-125.141333 75.648-43.328 67.2-35.946667 193.557333 34.346667 301.205334 25.109333 38.506667 58.666667 81.792 102.570666 82.176 18.218667 0.192 30.336-5.248 43.456-11.136 15.018667-6.72 31.317333-14.037333 59.584-14.208 28.416-0.170667 44.48 7.253333 59.285334 14.08 12.778667 5.888 24.64 11.370667 42.688 11.157333 43.946667-0.341333 79.36-48.32 104.469333-86.826667z" fill="#0B0B0A" p-id="1819"></path></svg>