<svg width="72" height="72" viewBox="0 0 72 72" fill="none" xmlns="http://www.w3.org/2000/svg">
<circle cx="36" cy="36" r="36" fill="#F7F5FF"/>
<circle cx="36" cy="36" r="28" fill="#E6E1FF"/>
<path opacity="0.4" d="M36.0001 22.6667C32.5067 22.6667 29.6667 25.5067 29.6667 29.0001C29.6667 32.4267 32.3467 35.2001 35.8401 35.3201C35.9467 35.3067 36.0534 35.3067 36.1334 35.3201C36.1601 35.3201 36.1734 35.3201 36.2001 35.3201C36.2134 35.3201 36.2134 35.3201 36.2267 35.3201C39.6401 35.2001 42.3201 32.4267 42.3334 29.0001C42.3334 25.5067 39.4934 22.6667 36.0001 22.6667Z" fill="#6648FF"/>
<path d="M42.7733 38.8667C39.0533 36.3867 32.9866 36.3867 29.2399 38.8667C27.5466 40 26.6133 41.5333 26.6133 43.1733C26.6133 44.8133 27.5466 46.3333 29.2266 47.4533C31.0933 48.7067 33.5466 49.3333 35.9999 49.3333C38.4533 49.3333 40.9066 48.7067 42.7733 47.4533C44.4533 46.32 45.3866 44.8 45.3866 43.1467C45.3733 41.5067 44.4533 39.9867 42.7733 38.8667Z" fill="#6648FF"/>
</svg>
