<svg width="72" height="72" viewBox="0 0 72 72" fill="none" xmlns="http://www.w3.org/2000/svg">
<circle cx="36" cy="36" r="36" fill="#FEF3F2"/>
<circle cx="36" cy="36" r="28" fill="#FEE4E2"/>
<path opacity="0.4" d="M36.0003 49.3334C43.3641 49.3334 49.3337 43.3639 49.3337 36.0001C49.3337 28.6363 43.3641 22.6667 36.0003 22.6667C28.6365 22.6667 22.667 28.6363 22.667 36.0001C22.667 43.3639 28.6365 49.3334 36.0003 49.3334Z" fill="#F97066"/>
<path d="M36 38.3334C36.5467 38.3334 37 37.8801 37 37.3334V30.6667C37 30.1201 36.5467 29.6667 36 29.6667C35.4533 29.6667 35 30.1201 35 30.6667V37.3334C35 37.8801 35.4533 38.3334 36 38.3334Z" fill="#F97066"/>
<path d="M37.227 40.8266C37.1603 40.6666 37.067 40.5199 36.947 40.3866C36.8137 40.2666 36.667 40.1733 36.507 40.1066C36.187 39.9733 35.8137 39.9733 35.4937 40.1066C35.3337 40.1733 35.187 40.2666 35.0537 40.3866C34.9337 40.5199 34.8403 40.6666 34.7737 40.8266C34.707 40.9866 34.667 41.1599 34.667 41.3333C34.667 41.5066 34.707 41.6799 34.7737 41.8399C34.8403 42.0133 34.9337 42.1466 35.0537 42.2799C35.187 42.3999 35.3337 42.4933 35.4937 42.5599C35.6537 42.6266 35.827 42.6666 36.0003 42.6666C36.1737 42.6666 36.347 42.6266 36.507 42.5599C36.667 42.4933 36.8137 42.3999 36.947 42.2799C37.067 42.1466 37.1603 42.0133 37.227 41.8399C37.2937 41.6799 37.3337 41.5066 37.3337 41.3333C37.3337 41.1599 37.2937 40.9866 37.227 40.8266Z" fill="#F97066"/>
</svg>
