<svg width="72" height="72" viewBox="0 0 72 72" fill="none" xmlns="http://www.w3.org/2000/svg">
<circle cx="36" cy="36" r="36" fill="#F7F5FF"/>
<circle cx="36" cy="36" r="28" fill="#E6E1FF"/>
<ellipse opacity="0.4" cx="33.3333" cy="42.6666" rx="9.33333" ry="5.33333" fill="#6648FF"/>
<ellipse cx="33.3353" cy="29.3333" rx="5.33333" ry="5.33333" fill="#6648FF"/>
<path fill-rule="evenodd" clip-rule="evenodd" d="M44.3346 37.3333C44.3346 37.8856 44.7824 38.3333 45.3346 38.3333C45.8869 38.3333 46.3346 37.8856 46.3346 37.3333V35.6666H48.0013C48.5536 35.6666 49.0013 35.2189 49.0013 34.6666C49.0013 34.1143 48.5536 33.6666 48.0013 33.6666H46.3346V31.9999C46.3346 31.4477 45.8869 30.9999 45.3346 30.9999C44.7824 30.9999 44.3346 31.4477 44.3346 31.9999L44.3346 33.6666H42.668C42.1157 33.6666 41.668 34.1143 41.668 34.6666C41.668 35.2189 42.1157 35.6666 42.668 35.6666H44.3346L44.3346 37.3333Z" fill="#6648FF"/>
</svg>
