<svg width="72" height="72" viewBox="0 0 72 72" fill="none" xmlns="http://www.w3.org/2000/svg">
<circle cx="36" cy="36" r="36" fill="#F7F5FF"/>
<circle cx="36" cy="36" r="28" fill="#E6E1FF"/>
<path opacity="0.4" d="M36.0003 49.3334C43.3641 49.3334 49.3337 43.3639 49.3337 36.0001C49.3337 28.6363 43.3641 22.6667 36.0003 22.6667C28.6365 22.6667 22.667 28.6363 22.667 36.0001C22.667 43.3639 28.6365 49.3334 36.0003 49.3334Z" fill="#6648FF"/>
<path d="M34.1064 40.7733C33.8398 40.7733 33.5864 40.6667 33.3998 40.48L29.6264 36.7067C29.2398 36.32 29.2398 35.68 29.6264 35.2933C30.0131 34.9067 30.6531 34.9067 31.0398 35.2933L34.1064 38.36L40.9598 31.5067C41.3464 31.12 41.9864 31.12 42.3731 31.5067C42.7598 31.8933 42.7598 32.5333 42.3731 32.92L34.8131 40.48C34.6264 40.6667 34.3731 40.7733 34.1064 40.7733Z" fill="#6648FF"/>
</svg>
