<svg width="72" height="72" viewBox="0 0 72 72" fill="none" xmlns="http://www.w3.org/2000/svg">
<circle cx="36" cy="36" r="36" fill="#F7F5FF"/>
<circle cx="36" cy="36" r="28" fill="#E6E1FF"/>
<path opacity="0.4" d="M37.2727 24H34.7273C33.3214 24 32.1818 25.0745 32.1818 26.4C32.1818 27.9168 30.5589 28.8812 29.2267 28.156L29.0914 28.0823C27.8739 27.4196 26.3171 27.8129 25.6142 28.9608L24.3415 31.0392C23.6385 32.1871 24.0557 33.6549 25.2732 34.3177C26.606 35.0432 26.606 36.9568 25.2732 37.6823C24.0557 38.3451 23.6385 39.8129 24.3415 40.9608L25.6142 43.0392C26.3171 44.1871 27.8739 44.5804 29.0914 43.9177L29.2267 43.844C30.5589 43.1188 32.1818 44.0832 32.1818 45.6C32.1818 46.9255 33.3214 48 34.7273 48H37.2727C38.6786 48 39.8182 46.9255 39.8182 45.6C39.8182 44.0832 41.4411 43.1188 42.7734 43.844L42.9087 43.9177C44.1261 44.5804 45.6829 44.1871 46.3858 43.0392L47.6585 40.9608C48.3615 39.8129 47.9443 38.345 46.7268 37.6823C45.394 36.9568 45.394 35.0432 46.7268 34.3177C47.9443 33.655 48.3615 32.1871 47.6585 31.0392L46.3858 28.9608C45.6829 27.8129 44.1261 27.4196 42.9086 28.0823L42.7733 28.156C41.4411 28.8812 39.8182 27.9168 39.8182 26.4C39.8182 25.0745 38.6786 24 37.2727 24Z" fill="#6648FF"/>
<circle cx="36" cy="36" r="4" fill="#6648FF"/>
</svg>
