<svg width="48" height="48" viewBox="0 0 48 48" fill="none" xmlns="http://www.w3.org/2000/svg">
<rect width="48" height="48" rx="6" fill="#F7F5FF"/>
<path d="M36.12 17.3067C34.9867 16.0533 33.0933 15.4267 30.3467 15.4267H30.0267V15.3733C30.0267 13.1333 30.0267 10.36 25.0133 10.36H22.9867C17.9733 10.36 17.9733 13.1467 17.9733 15.3733V15.44H17.6533C14.8933 15.44 13.0133 16.0667 11.88 17.32C10.56 18.7867 10.6 20.76 10.7333 22.1067L10.7467 22.2L10.88 23.6C10.8933 23.6133 10.92 23.64 10.9467 23.6533C11.3867 23.9467 11.84 24.24 12.32 24.5067C12.5067 24.6267 12.7067 24.7333 12.9067 24.84C15.1867 26.0933 17.6933 26.9333 20.24 27.3467C20.36 28.6 20.9067 30.0667 23.8267 30.0667C26.7467 30.0667 27.32 28.6133 27.4133 27.32C30.1333 26.88 32.76 25.9333 35.1333 24.5467C35.2133 24.5067 35.2667 24.4667 35.3333 24.4267C35.9467 24.08 36.52 23.7067 37.08 23.2933C37.1067 23.28 37.1333 23.2533 37.1467 23.2267L37.2 22.7467L37.2667 22.12C37.28 22.04 37.28 21.9733 37.2933 21.88C37.4 20.5333 37.3733 18.6933 36.12 17.3067ZM25.4533 26.44C25.4533 27.8533 25.4533 28.0667 23.8133 28.0667C22.1733 28.0667 22.1733 27.8133 22.1733 26.4533V24.7733H25.4533V26.44ZM19.88 15.4267V15.3733C19.88 13.1067 19.88 12.2667 22.9867 12.2667H25.0133C28.12 12.2667 28.12 13.12 28.12 15.3733V15.44H19.88V15.4267Z" fill="#6648FF"/>
<path opacity="0.4" d="M35.3333 24.4C35.2667 24.44 35.2 24.48 35.1333 24.52C32.76 25.9066 30.1333 26.84 27.4133 27.2933C27.3067 28.5733 26.7467 30.04 23.8267 30.04C20.9067 30.04 20.3467 28.5866 20.24 27.32C17.6933 26.92 15.1867 26.08 12.9067 24.8133C12.7067 24.7066 12.5067 24.6 12.32 24.48C11.84 24.2133 11.3867 23.92 10.9467 23.6266C10.92 23.6133 10.8933 23.5866 10.88 23.5733L11.6933 32.2533C11.9733 34.9066 13.0667 37.6399 18.9333 37.6399H29.0933C34.96 37.6399 36.0533 34.9066 36.3333 32.24L37.1733 23.2C37.16 23.2266 37.1333 23.2533 37.1067 23.2666C36.5333 23.68 35.9467 24.0666 35.3333 24.4Z" fill="#A391FF"/>
</svg>
