<svg width="159" height="40" viewBox="0 0 159 40" fill="none" xmlns="http://www.w3.org/2000/svg">
<path d="M18.8286 29.0087L26.0384 33.4325C26.2051 33.5335 26.3956 33.5885 26.5905 33.5918C26.7854 33.5951 26.9777 33.5466 27.1478 33.4513C27.3178 33.3559 27.4594 33.2171 27.5582 33.049C27.657 32.8809 27.7094 32.6897 27.71 32.4947V25.4888L18.8761 28.9883L18.8286 29.0087Z" fill="#4D36BF"/>
<path d="M32.6175 8.76539V22.7908C32.6189 23.0092 32.5549 23.2229 32.4338 23.4045C32.3127 23.5862 32.14 23.7274 31.938 23.8101L27.7113 25.4818L18.8774 28.9949V18.802C19.8913 18.8018 20.8898 18.5533 21.7857 18.0783C22.6815 17.6033 23.4474 16.9162 24.0164 16.0769C24.5855 15.2377 24.9405 14.272 25.0503 13.264C25.1602 12.256 25.0216 11.2364 24.6466 10.2943L31.1089 7.77328C31.2736 7.70755 31.4517 7.68256 31.628 7.70043C31.8044 7.7183 31.9738 7.7785 32.122 7.8759C32.2701 7.97331 32.3925 8.10505 32.4787 8.25991C32.565 8.41477 32.6126 8.58818 32.6175 8.76539V8.76539Z" fill="#6648FF"/>
<path d="M24.5991 10.3218C24.1818 9.27335 23.4868 8.3584 22.5886 7.67524C21.6905 6.99208 20.6232 6.56652 19.5014 6.44427C18.3796 6.32202 17.2456 6.50771 16.2214 6.98139C15.1972 7.45507 14.3214 8.19883 13.6881 9.13279C13.0547 10.0667 12.6878 11.1556 12.6267 12.2824C12.5656 13.4092 12.8127 14.5313 13.3413 15.5283C13.87 16.5252 14.6603 17.3593 15.6273 17.9409C16.5943 18.5226 17.7015 18.8297 18.8299 18.8295V12.605L24.5991 10.3218Z" fill="#F9B019"/>
<path d="M32.6175 8.76539V22.7908C32.6189 23.0092 32.5549 23.2229 32.4338 23.4045C32.3127 23.5862 32.14 23.7274 31.938 23.8101L27.7113 25.4818L18.8774 28.9949V18.802C19.8913 18.8018 20.8898 18.5533 21.7857 18.0783C22.6815 17.6033 23.4474 16.9162 24.0164 16.0769C24.5855 15.2377 24.9405 14.272 25.0503 13.264C25.1602 12.256 25.0216 11.2364 24.6466 10.2943L31.1089 7.77328C31.2736 7.70755 31.4517 7.68256 31.628 7.70043C31.8044 7.7183 31.9738 7.7785 32.122 7.8759C32.2701 7.97331 32.3925 8.10505 32.4787 8.25991C32.565 8.41477 32.6126 8.58818 32.6175 8.76539V8.76539Z" fill="#6648FF"/>
<path d="M24.5991 10.3218C24.1818 9.27335 23.4868 8.3584 22.5886 7.67524C21.6905 6.99208 20.6232 6.56652 19.5014 6.44427C18.3796 6.32202 17.2456 6.50771 16.2214 6.98139C15.1972 7.45507 14.3214 8.19883 13.6881 9.13279C13.0547 10.0667 12.6878 11.1556 12.6267 12.2824C12.5656 13.4092 12.8127 14.5313 13.3413 15.5283C13.87 16.5252 14.6603 17.3593 15.6273 17.9409C16.5943 18.5226 17.7015 18.8297 18.8299 18.8295V12.605L24.5991 10.3218Z" fill="#F9B019"/>
<path d="M25.0395 12.6254C25.0359 14.2709 24.3801 15.8479 23.2159 17.0108C22.0518 18.1737 20.4741 18.8277 18.8286 18.8295V12.605L24.5978 10.3218C24.8908 11.0544 25.0407 11.8363 25.0395 12.6254V12.6254Z" fill="#59EDF7"/>
<path d="M32.6175 8.76539V22.7908C32.6188 23.0092 32.5549 23.2229 32.4338 23.4045C32.3127 23.5862 32.14 23.7274 31.938 23.8101L27.7113 25.4818L18.8774 28.9949V18.802C19.8913 18.8018 20.8898 18.5533 21.7857 18.0783C22.6815 17.6033 23.4474 16.9162 24.0164 16.0769C24.5855 15.2377 24.9405 14.272 25.0503 13.264C25.1602 12.256 25.0216 11.2364 24.6466 10.2943L31.1089 7.77328C31.2736 7.70755 31.4516 7.68256 31.628 7.70043C31.8044 7.7183 31.9738 7.7785 32.122 7.8759C32.2701 7.97331 32.3925 8.10505 32.4787 8.25991C32.565 8.41477 32.6126 8.58818 32.6175 8.76539Z" fill="#6648FF"/>
<path d="M24.5991 10.3218C24.1818 9.27335 23.4868 8.3584 22.5886 7.67524C21.6905 6.99208 20.6232 6.56652 19.5014 6.44427C18.3796 6.32202 17.2456 6.50771 16.2214 6.98139C15.1972 7.45507 14.3214 8.19883 13.6881 9.13279C13.0547 10.0667 12.6878 11.1556 12.6267 12.2824C12.5656 13.4092 12.8127 14.5313 13.3413 15.5283C13.87 16.5252 14.6603 17.3593 15.6273 17.9409C16.5943 18.5226 17.7015 18.8297 18.8299 18.8295V12.605L24.5991 10.3218Z" fill="#F9B019"/>
<path d="M25.0395 12.6254C25.0359 14.2709 24.3801 15.8479 23.2159 17.0108C22.0518 18.1737 20.4741 18.8277 18.8286 18.8295V12.605L24.5978 10.3218C24.8908 11.0544 25.0407 11.8363 25.0395 12.6254V12.6254Z" fill="#59EDF7"/>
<path d="M49.0289 25.5V23.3971H43.4772V20.8567H48.9112V18.7538H43.4772V16.3817H49.0289V14.2788H41.0883V25.5H49.0289ZM55.321 25.5C58.8371 25.5 61.2765 23.2793 61.2765 19.8978C61.2765 16.5163 58.8371 14.2788 55.321 14.2788H50.8965V25.5H55.321ZM55.321 23.3971H53.2854V16.3817H55.321C57.6258 16.3817 58.8371 17.9126 58.8371 19.8978C58.8371 21.7988 57.5417 23.3971 55.321 23.3971ZM68.0357 25.7019C71.4509 25.7019 73.0996 23.8008 73.0996 21.0081V14.2788H70.6602V20.9408C70.6602 22.5054 69.7686 23.5821 68.0357 23.5821C66.3029 23.5821 65.3945 22.5054 65.3945 20.9408V14.2788H62.9719V21.025C62.9719 23.784 64.6206 25.7019 68.0357 25.7019ZM82.0035 25.5V21.5128H84.8635C87.2861 21.5128 88.632 19.8473 88.632 17.8958C88.632 15.9275 87.3029 14.2788 84.8635 14.2788H79.6146V25.5H82.0035ZM84.5439 19.4099H82.0035V16.3817H84.5439C85.486 16.3817 86.1926 16.9537 86.1926 17.8958C86.1926 18.8211 85.486 19.4099 84.5439 19.4099ZM96.7492 25.5V20.2511C96.7492 17.9126 95.05 17.1724 93.1994 17.1724C91.9208 17.1724 90.6422 17.5762 89.6497 18.451L90.4572 19.881C91.1469 19.2417 91.9545 18.922 92.8293 18.922C93.906 18.922 94.6126 19.4604 94.6126 20.2847V21.3783C94.0742 20.739 93.1153 20.3857 92.0386 20.3857C90.7432 20.3857 89.2123 21.1091 89.2123 23.0101C89.2123 24.8271 90.7432 25.7019 92.0386 25.7019C93.0985 25.7019 94.0574 25.3149 94.6126 24.6588V25.5H96.7492ZM92.8966 24.2551C92.0554 24.2551 91.3657 23.8177 91.3657 23.0606C91.3657 22.2699 92.0554 21.8325 92.8966 21.8325C93.5863 21.8325 94.2593 22.068 94.6126 22.5391V23.5485C94.2593 24.0195 93.5863 24.2551 92.8966 24.2551ZM101.796 25.7019C104.05 25.7019 105.312 24.5747 105.312 23.0942C105.312 19.8137 100.5 20.8231 100.5 19.6118C100.5 19.1576 101.005 18.8043 101.779 18.8043C102.771 18.8043 103.697 19.2249 104.185 19.7464L105.043 18.2827C104.235 17.6434 103.142 17.1724 101.762 17.1724C99.6254 17.1724 98.431 18.3669 98.431 19.7296C98.431 22.926 103.259 21.8325 103.259 23.1784C103.259 23.6831 102.822 24.0532 101.897 24.0532C100.887 24.0532 99.6759 23.498 99.0871 22.9428L98.1618 24.4401C99.0198 25.2308 100.382 25.7019 101.796 25.7019ZM109.813 25.7019C112.067 25.7019 113.329 24.5747 113.329 23.0942C113.329 19.8137 108.518 20.8231 108.518 19.6118C108.518 19.1576 109.022 18.8043 109.796 18.8043C110.789 18.8043 111.714 19.2249 112.202 19.7464L113.06 18.2827C112.252 17.6434 111.159 17.1724 109.779 17.1724C107.643 17.1724 106.448 18.3669 106.448 19.7296C106.448 22.926 111.277 21.8325 111.277 23.1784C111.277 23.6831 110.839 24.0532 109.914 24.0532C108.905 24.0532 107.693 23.498 107.105 22.9428L106.179 24.4401C107.037 25.2308 108.4 25.7019 109.813 25.7019ZM119.547 25.7019C121.633 25.7019 123.147 24.1373 123.147 21.4287C123.147 18.7201 121.633 17.1724 119.547 17.1724C118.554 17.1724 117.662 17.6098 117.04 18.4005V17.3743H114.903V28.5955H117.04V24.4569C117.696 25.2981 118.588 25.7019 119.547 25.7019ZM118.874 23.8008C118.184 23.8008 117.393 23.3802 117.04 22.8755V19.9987C117.393 19.4772 118.184 19.0734 118.874 19.0734C120.102 19.0734 120.926 20.0324 120.926 21.4287C120.926 22.8419 120.102 23.8008 118.874 23.8008ZM128.48 25.7019C131.172 25.7019 132.787 23.7504 132.787 21.4287C132.787 19.1239 131.172 17.1724 128.48 17.1724C125.805 17.1724 124.19 19.1239 124.19 21.4287C124.19 23.7504 125.805 25.7019 128.48 25.7019ZM128.48 23.8008C127.151 23.8008 126.411 22.7073 126.411 21.4287C126.411 20.167 127.151 19.0734 128.48 19.0734C129.809 19.0734 130.566 20.167 130.566 21.4287C130.566 22.7073 129.809 23.8008 128.48 23.8008ZM136.508 25.5V20.1333C136.862 19.6118 137.804 19.208 138.51 19.208C138.746 19.208 138.948 19.2249 139.099 19.2585V17.1724C138.09 17.1724 137.08 17.7612 136.508 18.4846V17.3743H134.372V25.5H136.508ZM143.16 25.7019C144.051 25.7019 144.623 25.4664 144.943 25.1804L144.489 23.5653C144.371 23.6831 144.068 23.8008 143.748 23.8008C143.277 23.8008 143.008 23.4139 143.008 22.9092V19.2417H144.657V17.3743H143.008V15.1536H140.855V17.3743H139.509V19.2417H140.855V23.4812C140.855 24.928 141.662 25.7019 143.16 25.7019Z" fill="white"/>
</svg>
