<svg width="28" height="28" viewBox="0 0 28 28" fill="none" xmlns="http://www.w3.org/2000/svg">
<path opacity="0.4" d="M0.666626 6C0.666626 3.05448 3.05444 0.666667 5.99996 0.666667H22C24.9455 0.666667 27.3333 3.05448 27.3333 6V22C27.3333 24.9455 24.9455 27.3333 22 27.3333H5.99996C3.05444 27.3333 0.666626 24.9455 0.666626 22V6Z" fill="#6648FF"/>
<path d="M23.4146 13.8452L27.3333 16.6666V22C27.3333 24.9455 24.9455 27.3333 22 27.3333H5.99996C3.05444 27.3333 0.666626 24.9455 0.666626 22V16.6666L4.5853 19.4881C6.62155 20.9542 9.40438 20.8027 11.2694 19.1241L16.7305 14.2091C18.5955 12.5306 21.3784 12.3791 23.4146 13.8452Z" fill="#6648FF"/>
<circle cx="9.33333" cy="9.33333" r="3.33333" fill="#6648FF"/>
<path fill-rule="evenodd" clip-rule="evenodd" d="M23.3333 9.66667C23.8856 9.66667 24.3333 9.21895 24.3333 8.66667V3.08088L25.2929 4.04044C25.6834 4.43097 26.3165 4.43097 26.7071 4.04044C27.0976 3.64992 27.0976 3.01675 26.7071 2.62623L24.9832 0.90237C24.072 -0.00885356 22.5946 -0.00885356 21.6834 0.90237L19.9595 2.62623C19.569 3.01675 19.569 3.64992 19.9595 4.04044C20.35 4.43097 20.9832 4.43097 21.3737 4.04044L22.3333 3.08088V8.66667C22.3333 9.21895 22.781 9.66667 23.3333 9.66667Z" fill="#6648FF"/>
</svg>
