<svg width="16" height="16" viewBox="0 0 16 16" fill="none" xmlns="http://www.w3.org/2000/svg">
<g id="Job Favourites Card/vuesax/bulk/Property 33">
<g id="vuesax/bulk/bank">
<g id="bank">
<path id="Vector" d="M14.6666 12.6667V14.6667H1.33325V12.6667C1.33325 12.3 1.63325 12 1.99992 12H13.9999C14.3666 12 14.6666 12.3 14.6666 12.6667Z" fill="#856DFF" stroke="#856DFF" stroke-width="1.5" stroke-miterlimit="10" stroke-linecap="round" stroke-linejoin="round"/>
<path id="Vector_2" opacity="0.6" d="M5.33341 7.33331H2.66675V12H5.33341V7.33331Z" fill="#856DFF"/>
<path id="Vector_3" opacity="0.4" d="M7.99992 7.33331H5.33325V12H7.99992V7.33331Z" fill="#856DFF"/>
<path id="Vector_4" opacity="0.6" d="M10.6667 7.33331H8V12H10.6667V7.33331Z" fill="#856DFF"/>
<path id="Vector_5" opacity="0.4" d="M13.3334 7.33331H10.6667V12H13.3334V7.33331Z" fill="#856DFF"/>
<path id="Vector_6" d="M15.3334 15.1667H0.666748C0.393415 15.1667 0.166748 14.94 0.166748 14.6667C0.166748 14.3934 0.393415 14.1667 0.666748 14.1667H15.3334C15.6067 14.1667 15.8334 14.3934 15.8334 14.6667C15.8334 14.94 15.6067 15.1667 15.3334 15.1667Z" fill="#856DFF"/>
<path id="Vector_7" d="M14.2466 3.83336L8.24658 1.43337C8.11325 1.38004 7.88659 1.38004 7.75325 1.43337L1.75326 3.83336C1.51992 3.92669 1.33325 4.20002 1.33325 4.45335V6.66669C1.33325 7.03335 1.63325 7.33336 1.99992 7.33336H13.9999C14.3666 7.33336 14.6666 7.03335 14.6666 6.66669V4.45335C14.6666 4.20002 14.4799 3.92669 14.2466 3.83336ZM7.99992 5.66669C7.44658 5.66669 6.99992 5.22002 6.99992 4.66669C6.99992 4.11336 7.44658 3.66669 7.99992 3.66669C8.55325 3.66669 8.99992 4.11336 8.99992 4.66669C8.99992 5.22002 8.55325 5.66669 7.99992 5.66669Z" fill="#856DFF"/>
</g>
</g>
</g>
</svg>
