<svg width="237" height="182" viewBox="0 0 237 182" fill="none" xmlns="http://www.w3.org/2000/svg">
<path d="M175.207 59.0061V21H234.793V59.0061H175.207Z" fill="#FF9201"/>
<path d="M234.793 59.0059L209.906 39.7319C206.865 37.6409 202.838 37.6299 199.785 39.7021C191.233 45.5074 175.207 59.0059 175.207 59.0059H234.793Z" fill="#BCDCFF"/>
<path d="M200.761 39.1441H200.586L175.206 21.0063L175.207 59.0062C175.207 59.0062 191.233 45.5077 199.784 39.7025C200.099 39.4895 200.428 39.3129 200.761 39.1441Z" fill="#A7D0FE"/>
<path d="M209.414 39.1441H208.892C209.237 39.3207 209.579 39.5083 209.905 39.7323L234.793 59.0062V21.0063L209.414 39.1441Z" fill="#A7D0FE"/>
<path d="M234.793 21.0063L209.906 40.2803C206.864 42.3713 202.838 42.3823 199.785 40.3101C191.233 34.5048 175.207 21.0063 175.207 21.0063H234.793Z" fill="white"/>
<g clip-path="url(#clip0_4759_4770)">
<path d="M196.639 60.603H196.576L160.654 75.942L111.505 96.9289C111.313 97.0097 111.107 97.0519 110.898 97.0529C110.69 97.054 110.484 97.014 110.291 96.9352L59.5834 75.8981L22.7787 60.628L22.7225 60.603H22.6598C22.0791 60.6037 21.5223 60.8347 21.1117 61.2453C20.7011 61.6559 20.4701 62.2127 20.4695 62.7934V157.919C20.4701 158.499 20.7011 159.056 21.1117 159.467C21.5223 159.877 22.0791 160.108 22.6598 160.109H196.639C197.219 160.108 197.776 159.877 198.187 159.467C198.597 159.056 198.828 158.499 198.829 157.919V62.7934C198.828 62.2127 198.597 61.6559 198.187 61.2453C197.776 60.8347 197.219 60.6037 196.639 60.603Z" fill="#F9FAFB"/>
<path d="M196.795 61.2289C196.731 61.229 196.669 61.2094 196.616 61.1728L110.078 0.904955C109.814 0.722398 109.501 0.624836 109.181 0.625382C108.861 0.625928 108.548 0.724554 108.285 0.908008L22.3701 61.1722C22.3021 61.2198 22.2181 61.2384 22.1364 61.224C22.0547 61.2096 21.9821 61.1634 21.9345 61.0955C21.8868 61.0276 21.8681 60.9436 21.8824 60.8619C21.8967 60.7802 21.9428 60.7075 22.0106 60.6598L107.926 0.395575C108.294 0.138784 108.731 0.000740217 109.18 2.96853e-06C109.629 -0.00073428 110.067 0.135869 110.435 0.39145L196.974 60.6592C197.029 60.6973 197.07 60.7518 197.091 60.8149C197.113 60.8779 197.113 60.9462 197.094 61.0098C197.074 61.0733 197.034 61.1289 196.98 61.1683C196.926 61.2077 196.861 61.229 196.795 61.2289Z" fill="#3F3D56"/>
<path d="M27.2794 63.3652L109.266 2.60303L191.875 67.6887L113.49 114.156L70.9342 104.456L27.2794 63.3652Z" fill="#FFDC81"/>
<path d="M74.5266 142.857H34.0232C33.7745 142.858 33.5281 142.809 33.298 142.715C33.068 142.62 32.8589 142.481 32.6827 142.305C32.5064 142.13 32.3665 141.921 32.2709 141.692C32.1753 141.462 32.1259 141.216 32.1255 140.967C32.1252 140.719 32.1738 140.472 32.2687 140.242C32.3637 140.013 32.503 139.804 32.6787 139.628C32.8544 139.452 33.0631 139.312 33.2929 139.217C33.5226 139.121 33.7689 139.072 34.0176 139.072H74.5266C74.7753 139.072 75.0217 139.12 75.2517 139.214C75.4818 139.309 75.6909 139.448 75.8671 139.624C76.0434 139.799 76.1833 140.008 76.2789 140.237C76.3745 140.467 76.4239 140.713 76.4242 140.962C76.4246 141.21 76.3759 141.457 76.281 141.687C76.1861 141.917 76.0468 142.126 75.8711 142.302C75.6953 142.478 75.4866 142.617 75.2569 142.712C75.0271 142.808 74.7809 142.857 74.5322 142.857H74.5266Z" fill="#FFB800"/>
<path d="M48.5549 134.721H34.0232C33.7745 134.722 33.5281 134.673 33.298 134.579C33.068 134.484 32.8589 134.345 32.6827 134.17C32.5064 133.994 32.3665 133.786 32.2709 133.556C32.1753 133.327 32.1259 133.08 32.1255 132.832C32.1252 132.583 32.1738 132.337 32.2687 132.107C32.3637 131.877 32.503 131.668 32.6787 131.492C32.8544 131.316 33.0631 131.176 33.2929 131.081C33.5226 130.986 33.7689 130.937 34.0176 130.937H48.5549C49.0563 130.936 49.5373 131.135 49.8921 131.49C50.247 131.844 50.4467 132.325 50.4474 132.826C50.4482 133.327 50.2499 133.809 49.8961 134.164C49.5423 134.519 49.0619 134.72 48.5605 134.721H48.5549Z" fill="#FFB800"/>
<path d="M110.419 97.2091C110.111 97.2094 109.806 97.1496 109.521 97.0332L58.9576 76.0528V10.3808C58.9583 9.8001 59.1892 9.24336 59.5999 8.83274C60.0105 8.42211 60.5672 8.19111 61.1479 8.19043H158.151C158.731 8.19111 159.288 8.42211 159.699 8.83274C160.109 9.24336 160.34 9.8001 160.341 10.3808V76.0987L160.246 76.1393L111.344 97.0229C111.051 97.146 110.737 97.2093 110.419 97.2091Z" fill="#FFB800"/>
<path d="M196.169 60.603H196.107L160.184 75.9419L111.035 96.9289C110.843 97.0097 110.637 97.0519 110.429 97.0529C110.221 97.054 110.014 97.014 109.821 96.9352L59.114 75.8981L22.3093 60.628L22.253 60.603H22.1904C21.6096 60.6037 21.0529 60.8347 20.6423 61.2453C20.2316 61.6559 20.0006 62.2127 20 62.7934V157.919C20.0006 158.499 20.2316 159.056 20.6423 159.467C21.0529 159.877 21.6096 160.108 22.1904 160.109H196.169C196.75 160.108 197.307 159.877 197.717 159.467C198.128 159.056 198.359 158.499 198.36 157.919V62.7934C198.359 62.2127 198.128 61.6559 197.717 61.2453C197.307 60.8347 196.75 60.6037 196.169 60.603ZM197.734 157.919C197.734 158.333 197.569 158.731 197.275 159.025C196.982 159.318 196.584 159.483 196.169 159.483H22.1904C21.7755 159.483 21.3776 159.318 21.0842 159.025C20.7908 158.731 20.626 158.333 20.6258 157.919V62.7934C20.6264 62.3888 20.7833 62.0001 21.0638 61.7085C21.3443 61.4169 21.7266 61.2451 22.1309 61.2289L59.114 76.574L109.58 97.5141C110.127 97.7364 110.739 97.733 111.283 97.5047L160.184 76.621L196.232 61.2289C196.635 61.2463 197.017 61.4186 197.297 61.71C197.576 62.0014 197.733 62.3895 197.734 62.7934L197.734 157.919Z" fill="#3F3D56"/>
<path d="M102.547 32.7385H68.1268C67.4636 32.7374 66.828 32.4731 66.3595 32.0038C65.891 31.5344 65.6279 30.8984 65.6279 30.2352C65.6279 29.5721 65.891 28.936 66.3595 28.4667C66.828 27.9973 67.4636 27.7331 68.1268 27.7319H102.547C103.21 27.7331 103.846 27.9973 104.314 28.4667C104.783 28.936 105.046 29.5721 105.046 30.2352C105.046 30.8984 104.783 31.5344 104.314 32.0038C103.846 32.4731 103.21 32.7374 102.547 32.7385Z" fill="#2EC5CE"/>
<path d="M84.7111 22.0999H68.1268C67.4629 22.0999 66.8262 21.8361 66.3567 21.3666C65.8872 20.8972 65.6235 20.2605 65.6235 19.5966C65.6235 18.9326 65.8872 18.2959 66.3567 17.8265C66.8262 17.357 67.4629 17.0933 68.1268 17.0933H84.7111C85.375 17.0933 86.0117 17.357 86.4812 17.8265C86.9507 18.2959 87.2144 18.9326 87.2144 19.5966C87.2144 20.2605 86.9507 20.8972 86.4812 21.3666C86.0117 21.8361 85.375 22.0999 84.7111 22.0999Z" fill="#2EC5CE"/>
<path d="M135.393 57.7717H82.8238C82.1599 57.7717 81.5231 57.508 81.0537 57.0385C80.5842 56.5691 80.3205 55.9323 80.3205 55.2684C80.3205 54.6045 80.5842 53.9678 81.0537 53.4983C81.5231 53.0289 82.1599 52.7651 82.8238 52.7651H135.393C136.057 52.7651 136.694 53.0289 137.163 53.4983C137.633 53.9678 137.896 54.6045 137.896 55.2684C137.896 55.9323 137.633 56.5691 137.163 57.0385C136.694 57.508 136.057 57.7717 135.393 57.7717Z" fill="#F9FAFB"/>
<path d="M135.393 69.3494H82.8238C82.4947 69.3499 82.1687 69.2856 81.8645 69.1601C81.5602 69.0345 81.2838 68.8502 81.0509 68.6177C80.8179 68.3852 80.6332 68.1091 80.5071 67.8051C80.381 67.5011 80.3161 67.1752 80.3161 66.8461C80.3161 66.517 80.381 66.1911 80.5071 65.8871C80.6332 65.5831 80.8179 65.3069 81.0509 65.0744C81.2838 64.8419 81.5602 64.6576 81.8645 64.5321C82.1687 64.4065 82.4947 64.3422 82.8238 64.3428H135.393C135.722 64.3422 136.048 64.4065 136.352 64.5321C136.656 64.6576 136.933 64.8419 137.166 65.0744C137.399 65.3069 137.584 65.5831 137.71 65.8871C137.836 66.1911 137.901 66.517 137.901 66.8461C137.901 67.1752 137.836 67.5011 137.71 67.8051C137.584 68.1091 137.399 68.3852 137.166 68.6177C136.933 68.8502 136.656 69.0345 136.352 69.1601C136.048 69.2856 135.722 69.3499 135.393 69.3494Z" fill="#F9FAFB"/>
</g>
<path d="M2.20651 169.006V131H61.7927V169.006H2.20651Z" fill="#FF9201"/>
<path d="M61.7932 169.006L36.906 149.732C33.8649 147.641 29.8384 147.63 26.7852 149.702C18.2335 155.507 2.20697 169.006 2.20697 169.006H61.7932Z" fill="#BCDCFF"/>
<path d="M27.7606 149.144H27.5863L2.20599 131.006L2.20697 169.006C2.20697 169.006 18.2335 155.508 26.7841 149.702C27.0986 149.489 27.4285 149.313 27.7606 149.144Z" fill="#A7D0FE"/>
<path d="M36.4139 149.144H35.8919C36.2373 149.321 36.5794 149.508 36.9049 149.732L61.7932 169.006V131.006L36.4139 149.144Z" fill="#A7D0FE"/>
<path d="M61.7927 131.006L36.9055 150.28C33.8644 152.371 29.838 152.382 26.7847 150.31C18.233 144.505 2.20651 131.006 2.20651 131.006H61.7927Z" fill="white"/>
<defs>
<clipPath id="clip0_4759_4770">
<rect width="178.711" height="160" fill="white" transform="translate(20)"/>
</clipPath>
</defs>
</svg>
