<svg width="18" height="18" viewBox="0 0 18 18" fill="none" xmlns="http://www.w3.org/2000/svg">
<path fill-rule="evenodd" clip-rule="evenodd" d="M1.6875 12.75C1.6875 14.7175 3.28249 16.3125 5.25 16.3125L12.75 16.3125C14.7175 16.3125 16.3125 14.7175 16.3125 12.75L16.3125 9.75C16.3125 7.78248 14.7175 6.1875 12.75 6.1875L12.375 6.1875C12.0643 6.1875 11.8125 6.43934 11.8125 6.75C11.8125 7.06066 12.0643 7.3125 12.375 7.3125L12.75 7.3125C14.0962 7.3125 15.1875 8.4038 15.1875 9.75L15.1875 12.75C15.1875 14.0962 14.0962 15.1875 12.75 15.1875L5.25 15.1875C3.90381 15.1875 2.8125 14.0962 2.8125 12.75L2.8125 9.75C2.8125 8.4038 3.90381 7.3125 5.25 7.3125L5.625 7.3125C5.93566 7.3125 6.1875 7.06066 6.1875 6.75C6.1875 6.43934 5.93566 6.1875 5.625 6.1875L5.25 6.1875C3.28248 6.1875 1.6875 7.78249 1.6875 9.75L1.6875 12.75ZM6.35225 9.39775C6.13258 9.17808 6.13258 8.82192 6.35225 8.60225C6.57192 8.38258 6.92808 8.38258 7.14775 8.60225L8.4375 9.892L8.4375 2.25C8.4375 1.93934 8.68934 1.6875 9 1.6875C9.31066 1.6875 9.5625 1.93934 9.5625 2.25L9.5625 9.892L10.8523 8.60225C11.0719 8.38258 11.4281 8.38258 11.6477 8.60225C11.8674 8.82192 11.8674 9.17808 11.6477 9.39775L9.39775 11.6477C9.17808 11.8674 8.82192 11.8674 8.60225 11.6477L6.35225 9.39775Z" fill="#6648FF"/>
</svg>
