<svg width="159" height="40" viewBox="0 0 159 40" fill="none" xmlns="http://www.w3.org/2000/svg">
<rect width="158.595" height="40" rx="6.30879" fill="white"/>
<path d="M18.8286 29.0088L26.0384 33.4326C26.2051 33.5337 26.3957 33.5887 26.5906 33.592C26.7855 33.5953 26.9778 33.5468 27.1478 33.4514C27.3179 33.356 27.4595 33.2172 27.5583 33.0491C27.6571 32.8811 27.7095 32.6898 27.7101 32.4948V25.4889L18.8762 28.9885L18.8286 29.0088Z" fill="#4D36BF"/>
<path d="M32.6176 8.76551V22.791C32.6189 23.0093 32.5549 23.223 32.4338 23.4046C32.3127 23.5863 32.1401 23.7276 31.938 23.8103L27.7113 25.4819L18.8774 28.9951V18.8021C19.8914 18.8019 20.8899 18.5534 21.7857 18.0784C22.6815 17.6034 23.4474 16.9163 24.0165 16.0771C24.5856 15.2379 24.9406 14.2721 25.0504 13.2641C25.1602 12.2561 25.0216 11.2365 24.6467 10.2944L31.109 7.7734C31.2736 7.70768 31.4517 7.68268 31.6281 7.70055C31.8045 7.71842 31.9739 7.77862 32.122 7.87603C32.2701 7.97343 32.3925 8.10517 32.4788 8.26003C32.5651 8.4149 32.6127 8.5883 32.6176 8.76551Z" fill="#6648FF"/>
<path d="M24.5992 10.3217C24.1819 9.27323 23.4868 8.35828 22.5887 7.67512C21.6905 6.99196 20.6232 6.56639 19.5014 6.44415C18.3796 6.3219 17.2457 6.50759 16.2215 6.98127C15.1973 7.45494 14.3215 8.19871 13.6881 9.13267C13.0548 10.0666 12.6879 11.1555 12.6268 12.2823C12.5657 13.4091 12.8128 14.5312 13.3414 15.5281C13.8701 16.5251 14.6603 17.3592 15.6273 17.9408C16.5943 18.5224 17.7015 18.8296 18.83 18.8294V12.6049L24.5992 10.3217Z" fill="#F9B019"/>
<path d="M32.6176 8.76551V22.791C32.6189 23.0093 32.5549 23.223 32.4338 23.4046C32.3127 23.5863 32.1401 23.7276 31.938 23.8103L27.7113 25.4819L18.8774 28.9951V18.8021C19.8914 18.8019 20.8899 18.5534 21.7857 18.0784C22.6815 17.6034 23.4474 16.9163 24.0165 16.0771C24.5856 15.2379 24.9406 14.2721 25.0504 13.2641C25.1602 12.2561 25.0216 11.2365 24.6467 10.2944L31.109 7.7734C31.2736 7.70768 31.4517 7.68268 31.6281 7.70055C31.8045 7.71842 31.9739 7.77862 32.122 7.87603C32.2701 7.97343 32.3925 8.10517 32.4788 8.26003C32.5651 8.4149 32.6127 8.5883 32.6176 8.76551Z" fill="#6648FF"/>
<path d="M24.5992 10.3217C24.1819 9.27323 23.4868 8.35828 22.5887 7.67512C21.6905 6.99196 20.6232 6.56639 19.5014 6.44415C18.3796 6.3219 17.2457 6.50759 16.2215 6.98127C15.1973 7.45494 14.3215 8.19871 13.6881 9.13267C13.0548 10.0666 12.6879 11.1555 12.6268 12.2823C12.5657 13.4091 12.8128 14.5312 13.3414 15.5281C13.8701 16.5251 14.6603 17.3592 15.6273 17.9408C16.5943 18.5224 17.7015 18.8296 18.83 18.8294V12.6049L24.5992 10.3217Z" fill="#F9B019"/>
<path d="M25.0395 12.625C25.0359 14.2705 24.3802 15.8475 23.216 17.0104C22.0518 18.1733 20.4741 18.8273 18.8286 18.8291V12.6046L24.5978 10.3214C24.8908 11.054 25.0408 11.836 25.0395 12.625Z" fill="#59EDF7"/>
<path d="M32.6176 8.76551V22.791C32.6189 23.0093 32.5549 23.223 32.4338 23.4046C32.3127 23.5863 32.1401 23.7276 31.938 23.8103L27.7113 25.4819L18.8774 28.9951V18.8021C19.8914 18.8019 20.8899 18.5534 21.7857 18.0784C22.6815 17.6034 23.4474 16.9163 24.0165 16.0771C24.5856 15.2379 24.9406 14.2721 25.0504 13.2641C25.1602 12.2561 25.0216 11.2365 24.6467 10.2944L31.109 7.7734C31.2736 7.70768 31.4517 7.68268 31.6281 7.70055C31.8045 7.71842 31.9739 7.77862 32.122 7.87603C32.2701 7.97343 32.3925 8.10517 32.4788 8.26003C32.5651 8.4149 32.6127 8.5883 32.6176 8.76551Z" fill="#6648FF"/>
<path d="M24.5992 10.3217C24.1819 9.27323 23.4868 8.35828 22.5887 7.67512C21.6905 6.99196 20.6232 6.56639 19.5014 6.44415C18.3796 6.3219 17.2457 6.50759 16.2215 6.98127C15.1973 7.45494 14.3215 8.19871 13.6881 9.13267C13.0548 10.0666 12.6879 11.1555 12.6268 12.2823C12.5657 13.4091 12.8128 14.5312 13.3414 15.5281C13.8701 16.5251 14.6603 17.3592 15.6273 17.9408C16.5943 18.5224 17.7015 18.8296 18.83 18.8294V12.6049L24.5992 10.3217Z" fill="#F9B019"/>
<path d="M25.0395 12.625C25.0359 14.2705 24.3802 15.8475 23.216 17.0104C22.0518 18.1733 20.4741 18.8273 18.8286 18.8291V12.6046L24.5978 10.3214C24.8908 11.054 25.0408 11.836 25.0395 12.625Z" fill="#59EDF7"/>
<path d="M49.0288 25.5V23.3971H43.4771V20.8567H48.911V18.7538H43.4771V16.3817H49.0288V14.2788H41.0881V25.5H49.0288ZM55.3209 25.5C58.837 25.5 61.2764 23.2793 61.2764 19.8978C61.2764 16.5163 58.837 14.2788 55.3209 14.2788H50.8963V25.5H55.3209ZM55.3209 23.3971H53.2853V16.3817H55.3209C57.6257 16.3817 58.837 17.9126 58.837 19.8978C58.837 21.7988 57.5416 23.3971 55.3209 23.3971ZM68.0356 25.7019C71.4508 25.7019 73.0995 23.8008 73.0995 21.0081V14.2788H70.6601V20.9408C70.6601 22.5054 69.7684 23.5821 68.0356 23.5821C66.3028 23.5821 65.3943 22.5054 65.3943 20.9408V14.2788H62.9718V21.025C62.9718 23.784 64.6205 25.7019 68.0356 25.7019ZM82.0034 25.5V21.5128H84.8634C87.286 21.5128 88.6319 19.8473 88.6319 17.8958C88.6319 15.9275 87.3028 14.2788 84.8634 14.2788H79.6145V25.5H82.0034ZM84.5438 19.4099H82.0034V16.3817H84.5438C85.4859 16.3817 86.1925 16.9537 86.1925 17.8958C86.1925 18.8211 85.4859 19.4099 84.5438 19.4099ZM96.749 25.5V20.2511C96.749 17.9126 95.0499 17.1724 93.1993 17.1724C91.9207 17.1724 90.6421 17.5762 89.6495 18.451L90.4571 19.881C91.1468 19.2417 91.9544 18.922 92.8292 18.922C93.9059 18.922 94.6125 19.4604 94.6125 20.2847V21.3783C94.0741 20.739 93.1152 20.3857 92.0385 20.3857C90.7431 20.3857 89.2121 21.1091 89.2121 23.0101C89.2121 24.8271 90.7431 25.7019 92.0385 25.7019C93.0983 25.7019 94.0573 25.3149 94.6125 24.6588V25.5H96.749ZM92.8965 24.2551C92.0553 24.2551 91.3655 23.8177 91.3655 23.0606C91.3655 22.2699 92.0553 21.8325 92.8965 21.8325C93.5862 21.8325 94.2592 22.068 94.6125 22.5391V23.5485C94.2592 24.0195 93.5862 24.2551 92.8965 24.2551ZM101.796 25.7019C104.05 25.7019 105.312 24.5747 105.312 23.0942C105.312 19.8137 100.5 20.8231 100.5 19.6118C100.5 19.1576 101.005 18.8043 101.779 18.8043C102.771 18.8043 103.697 19.2249 104.184 19.7464L105.042 18.2827C104.235 17.6434 103.141 17.1724 101.762 17.1724C99.6253 17.1724 98.4309 18.3669 98.4309 19.7296C98.4309 22.926 103.259 21.8325 103.259 23.1784C103.259 23.6831 102.822 24.0532 101.896 24.0532C100.887 24.0532 99.6758 23.498 99.087 22.9428L98.1617 24.4401C99.0197 25.2308 100.382 25.7019 101.796 25.7019ZM109.813 25.7019C112.067 25.7019 113.329 24.5747 113.329 23.0942C113.329 19.8137 108.518 20.8231 108.518 19.6118C108.518 19.1576 109.022 18.8043 109.796 18.8043C110.789 18.8043 111.714 19.2249 112.202 19.7464L113.06 18.2827C112.252 17.6434 111.159 17.1724 109.779 17.1724C107.643 17.1724 106.448 18.3669 106.448 19.7296C106.448 22.926 111.277 21.8325 111.277 23.1784C111.277 23.6831 110.839 24.0532 109.914 24.0532C108.905 24.0532 107.693 23.498 107.104 22.9428L106.179 24.4401C107.037 25.2308 108.4 25.7019 109.813 25.7019ZM119.546 25.7019C121.632 25.7019 123.147 24.1373 123.147 21.4287C123.147 18.7201 121.632 17.1724 119.546 17.1724C118.554 17.1724 117.662 17.6098 117.04 18.4005V17.3743H114.903V28.5955H117.04V24.4569C117.696 25.2981 118.587 25.7019 119.546 25.7019ZM118.873 23.8008C118.184 23.8008 117.393 23.3802 117.04 22.8755V19.9987C117.393 19.4772 118.184 19.0734 118.873 19.0734C120.102 19.0734 120.926 20.0324 120.926 21.4287C120.926 22.8419 120.102 23.8008 118.873 23.8008ZM128.48 25.7019C131.172 25.7019 132.787 23.7504 132.787 21.4287C132.787 19.1239 131.172 17.1724 128.48 17.1724C125.805 17.1724 124.19 19.1239 124.19 21.4287C124.19 23.7504 125.805 25.7019 128.48 25.7019ZM128.48 23.8008C127.151 23.8008 126.41 22.7073 126.41 21.4287C126.41 20.167 127.151 19.0734 128.48 19.0734C129.809 19.0734 130.566 20.167 130.566 21.4287C130.566 22.7073 129.809 23.8008 128.48 23.8008ZM136.508 25.5V20.1333C136.862 19.6118 137.804 19.208 138.51 19.208C138.746 19.208 138.948 19.2249 139.099 19.2585V17.1724C138.09 17.1724 137.08 17.7612 136.508 18.4846V17.3743H134.372V25.5H136.508ZM143.159 25.7019C144.051 25.7019 144.623 25.4664 144.943 25.1804L144.488 23.5653C144.371 23.6831 144.068 23.8008 143.748 23.8008C143.277 23.8008 143.008 23.4139 143.008 22.9092V19.2417H144.657V17.3743H143.008V15.1536H140.855V17.3743H139.509V19.2417H140.855V23.4812C140.855 24.928 141.662 25.7019 143.159 25.7019Z" fill="#231F20"/>
</svg>
