<svg width="24" height="24" viewBox="0 0 24 24" fill="none" xmlns="http://www.w3.org/2000/svg">
<circle opacity="0.12" cx="12" cy="12" r="12" fill="#027A48"/>
<path d="M10.0039 13.398C10.0039 14.172 10.5979 14.796 11.3359 14.796H12.8419C13.4839 14.796 14.0059 14.25 14.0059 13.578C14.0059 12.846 13.6879 12.588 13.2139 12.42L10.7959 11.58C10.3219 11.412 10.0039 11.154 10.0039 10.422C10.0039 9.74998 10.5259 9.20398 11.1679 9.20398H12.6739C13.4119 9.20398 14.0059 9.82798 14.0059 10.602" stroke="#027A48" stroke-linecap="round" stroke-linejoin="round"/>
<path d="M12.0007 8.40002V15.6" stroke="#027A48" stroke-linecap="round" stroke-linejoin="round"/>
<path d="M12.0007 18C15.3144 18 18.0007 15.3137 18.0007 12C18.0007 8.68629 15.3144 6 12.0007 6C8.68702 6 6.00073 8.68629 6.00073 12C6.00073 15.3137 8.68702 18 12.0007 18Z" stroke="#027A48" stroke-linecap="round" stroke-linejoin="round"/>
</svg>
