<svg width="72" height="72" viewBox="0 0 72 72" fill="none" xmlns="http://www.w3.org/2000/svg">
<circle cx="36" cy="36" r="36" fill="#EAECF0"/>
<path opacity="0.4" d="M35.9987 19.3333C31.632 19.3333 28.082 22.8833 28.082 27.2499C28.082 31.5333 31.432 34.9999 35.7987 35.1499C35.932 35.1333 36.0654 35.1333 36.1654 35.1499C36.1987 35.1499 36.2154 35.1499 36.2487 35.1499C36.2654 35.1499 36.2654 35.1499 36.282 35.1499C40.5487 34.9999 43.8987 31.5333 43.9154 27.2499C43.9154 22.8833 40.3654 19.3333 35.9987 19.3333Z" fill="#667085"/>
<path d="M44.4656 39.5833C39.8156 36.4833 32.2323 36.4833 27.549 39.5833C25.4323 41 24.2656 42.9166 24.2656 44.9666C24.2656 47.0166 25.4323 48.9166 27.5323 50.3166C29.8656 51.8833 32.9323 52.6666 35.999 52.6666C39.0656 52.6666 42.1323 51.8833 44.4656 50.3166C46.5656 48.9 47.7323 47 47.7323 44.9333C47.7156 42.8833 46.5656 40.9833 44.4656 39.5833Z" fill="#667085"/>
</svg>
