<svg width="72" height="72" viewBox="0 0 72 72" fill="none" xmlns="http://www.w3.org/2000/svg">
<circle cx="36" cy="36" r="36" fill="#EAECF0"/>
<path opacity="0.4" d="M19.332 26.0002C19.332 22.3183 22.3168 19.3335 25.9987 19.3335H45.9987C49.6806 19.3335 52.6654 22.3183 52.6654 26.0002V46.0002C52.6654 49.6821 49.6806 52.6668 45.9987 52.6668H25.9987C22.3168 52.6668 19.332 49.6821 19.332 46.0002V26.0002Z" fill="#667085"/>
<path d="M25.9987 52.6664H45.9987C49.6806 52.6664 52.6654 49.6817 52.6654 45.9998V39.3331L47.767 35.8063C45.2217 33.9736 41.7432 34.1631 39.4119 36.2612L32.5855 42.405C30.2542 44.5031 26.7757 44.6925 24.2304 42.8599L19.332 39.3331V45.9998C19.332 49.6817 22.3168 52.6664 25.9987 52.6664Z" fill="#667085"/>
<circle cx="30.1667" cy="30.1667" r="4.16667" fill="#667085"/>
</svg>
