<svg width="40" height="40" viewBox="0 0 40 40" fill="none" xmlns="http://www.w3.org/2000/svg">
<circle cx="20" cy="20" r="20" fill="#F2F4F7"/>
<path fill-rule="evenodd" clip-rule="evenodd" d="M13.5 23.3333C13.5 25.0822 14.9178 26.5 16.6667 26.5L23.3333 26.5C25.0822 26.5 26.5 25.0822 26.5 23.3333L26.5 20.6667C26.5 18.9178 25.0822 17.5 23.3333 17.5L23 17.5C22.7239 17.5 22.5 17.7239 22.5 18C22.5 18.2761 22.7239 18.5 23 18.5L23.3333 18.5C24.5299 18.5 25.5 19.47 25.5 20.6667L25.5 23.3333C25.5 24.5299 24.53 25.5 23.3333 25.5L16.6667 25.5C15.47 25.5 14.5 24.53 14.5 23.3333L14.5 20.6667C14.5 19.47 15.47 18.5 16.6667 18.5L17 18.5C17.2761 18.5 17.5 18.2761 17.5 18C17.5 17.7239 17.2761 17.5 17 17.5L16.6667 17.5C14.9178 17.5 13.5 18.9178 13.5 20.6667L13.5 23.3333ZM17.6464 15.6464C17.4512 15.8417 17.4512 16.1583 17.6464 16.3536C17.8417 16.5488 18.1583 16.5488 18.3536 16.3536L19.5 15.2071L19.5 22C19.5 22.2761 19.7239 22.5 20 22.5C20.2761 22.5 20.5 22.2761 20.5 22L20.5 15.2071L21.6464 16.3536C21.8417 16.5488 22.1583 16.5488 22.3536 16.3536C22.5488 16.1583 22.5488 15.8417 22.3536 15.6464L20.3536 13.6464C20.1583 13.4512 19.8417 13.4512 19.6464 13.6464L17.6464 15.6464Z" fill="#28303F"/>
</svg>
