<svg width="48" height="48" viewBox="0 0 48 48" fill="none" xmlns="http://www.w3.org/2000/svg">
<circle cx="24" cy="24" r="24" fill="#E6E1FF"/>
<path fill-rule="evenodd" clip-rule="evenodd" d="M24 20H31C32.6569 20 34 21.3431 34 23V31C34 32.6569 32.6569 34 31 34H24V20ZM26.25 24C26.25 23.5858 26.5858 23.25 27 23.25H31C31.4142 23.25 31.75 23.5858 31.75 24C31.75 24.4142 31.4142 24.75 31 24.75H27C26.5858 24.75 26.25 24.4142 26.25 24ZM27 26.25C26.5858 26.25 26.25 26.5858 26.25 27C26.25 27.4142 26.5858 27.75 27 27.75H31C31.4142 27.75 31.75 27.4142 31.75 27C31.75 26.5858 31.4142 26.25 31 26.25H27Z" fill="#6648FF"/>
<path opacity="0.4" d="M14 17C14 15.3431 15.3431 14 17 14H21C22.6569 14 24 15.3431 24 17V34H17C15.3431 34 14 32.6569 14 31V17Z" fill="#6648FF"/>
<path fill-rule="evenodd" clip-rule="evenodd" d="M16.25 18C16.25 17.5858 16.5858 17.25 17 17.25H21C21.4142 17.25 21.75 17.5858 21.75 18C21.75 18.4142 21.4142 18.75 21 18.75H17C16.5858 18.75 16.25 18.4142 16.25 18Z" fill="#6648FF"/>
<path fill-rule="evenodd" clip-rule="evenodd" d="M16.25 21C16.25 20.5858 16.5858 20.25 17 20.25H21C21.4142 20.25 21.75 20.5858 21.75 21C21.75 21.4142 21.4142 21.75 21 21.75H17C16.5858 21.75 16.25 21.4142 16.25 21Z" fill="#6648FF"/>
</svg>
