<svg width="48" height="48" viewBox="0 0 48 48" fill="none" xmlns="http://www.w3.org/2000/svg">
<rect width="48" height="48" rx="24" fill="#E6E1FF"/>
<path fill-rule="evenodd" clip-rule="evenodd" d="M20 20.2221V21.9999C20 24.209 21.7909 25.9999 24 25.9999C26.2091 25.9999 28 24.209 28 21.9999V20.2221L25.2184 21.4584C24.4427 21.8031 23.5573 21.8031 22.7816 21.4584L20 20.2221ZM30.5 19.111V23.4999C30.5 23.9141 30.8358 24.2499 31.25 24.2499C31.6642 24.2499 32 23.9141 32 23.4999V18.4434C31.9909 18.4481 31.9815 18.4525 31.972 18.4568L30.5 19.111Z" fill="#6648FF"/>
<path opacity="0.4" d="M16.0274 17.5431L22.7809 14.5415C23.5566 14.1968 24.4421 14.1968 25.2178 14.5415L31.9713 17.5431C32.3672 17.7191 32.3672 18.281 31.9713 18.4569L25.2178 21.4585C24.4421 21.8032 23.5566 21.8032 22.7809 21.4585L16.0274 18.4569C15.6315 18.281 15.6315 17.7191 16.0274 17.5431Z" fill="#6648FF"/>
<path opacity="0.4" d="M26.2996 27.3996L24.711 29.0059C24.3196 29.4017 23.6804 29.4017 23.289 29.0059L21.7004 27.3996C21.4551 27.1515 21.0968 27.0457 20.762 27.1442C17.9569 27.9691 16 29.8329 16 32.0001C16 33.1046 16.8954 34.0001 18 34.0001H30C31.1046 34.0001 32 33.1046 32 32.0001C32 29.8329 30.0431 27.9691 27.238 27.1442C26.9032 27.0457 26.5449 27.1515 26.2996 27.3996Z" fill="#6648FF" stroke="#6648FF" stroke-width="1.5" stroke-linecap="round" stroke-linejoin="round"/>
</svg>
