<svg width="48" height="48" viewBox="0 0 48 48" fill="none" xmlns="http://www.w3.org/2000/svg">
<rect width="48" height="48" rx="24" fill="#F2F4F7"/>
<path d="M32 17V22.5" stroke="#344054" stroke-width="1.5" stroke-linecap="round"/>
<path d="M28.75 19V18.25H27.25V19H28.75ZM20.75 19V18.25H19.25V19H20.75ZM24 14L24.2633 13.2978C24.0936 13.2341 23.9064 13.2341 23.7367 13.2978L24 14ZM16 17L15.7367 16.2978C15.4439 16.4075 15.25 16.6874 15.25 17C15.25 17.3126 15.4439 17.5925 15.7367 17.7022L16 17ZM24 20L23.7367 20.7022C23.9064 20.7659 24.0936 20.7659 24.2633 20.7022L24 20ZM32 17L32.2633 17.7022C32.5561 17.5925 32.75 17.3126 32.75 17C32.75 16.6874 32.5561 16.4075 32.2633 16.2978L32 17ZM24.711 29.0059L24.1778 28.4785V28.4785L24.711 29.0059ZM26.2996 27.3996L26.8328 27.927L26.8328 27.927L26.2996 27.3996ZM27.238 27.1441L27.4496 26.4246L27.238 27.1441ZM21.7004 27.3996L22.2337 26.8722L21.7004 27.3996ZM23.289 29.0059L23.8222 28.4785L23.289 29.0059ZM20.762 27.1441L20.5504 26.4246L20.762 27.1441ZM31.25 34C31.25 34.4142 31.5858 34.75 32 34.75C32.4142 34.75 32.75 34.4142 32.75 34H31.25ZM15.25 34C15.25 34.4142 15.5858 34.75 16 34.75C16.4142 34.75 16.75 34.4142 16.75 34H15.25ZM27.25 19V21H28.75V19H27.25ZM20.75 21V19H19.25V21H20.75ZM24 24.25C22.2051 24.25 20.75 22.7949 20.75 21H19.25C19.25 23.6234 21.3766 25.75 24 25.75V24.25ZM27.25 21C27.25 22.7949 25.7949 24.25 24 24.25V25.75C26.6234 25.75 28.75 23.6234 28.75 21H27.25ZM23.7367 13.2978L15.7367 16.2978L16.2633 17.7022L24.2633 14.7022L23.7367 13.2978ZM24.2633 20.7022L32.2633 17.7022L31.7367 16.2978L23.7367 19.2978L24.2633 20.7022ZM23.7367 14.7022L31.7367 17.7022L32.2633 16.2978L24.2633 13.2978L23.7367 14.7022ZM24.2633 19.2978L16.2633 16.2978L15.7367 17.7022L23.7367 20.7022L24.2633 19.2978ZM25.2443 29.5332L26.8328 27.927L25.7663 26.8722L24.1778 28.4785L25.2443 29.5332ZM27.0264 27.8637C29.6994 28.6497 31.25 30.3265 31.25 32H32.75C32.75 29.3393 30.3869 27.2884 27.4496 26.4246L27.0264 27.8637ZM21.1672 27.927L22.7557 29.5332L23.8222 28.4785L22.2337 26.8722L21.1672 27.927ZM16.75 32C16.75 30.3265 18.3006 28.6497 20.9736 27.8637L20.5504 26.4246C17.6131 27.2884 15.25 29.3393 15.25 32H16.75ZM31.25 32V34H32.75V32H31.25ZM15.25 32V34H16.75V32H15.25ZM22.2337 26.8722C21.8103 26.444 21.1711 26.2421 20.5504 26.4246L20.9736 27.8637C21.0226 27.8493 21.0998 27.8589 21.1672 27.927L22.2337 26.8722ZM26.8328 27.927C26.9002 27.8589 26.9774 27.8493 27.0264 27.8637L27.4496 26.4246C26.8289 26.2421 26.1897 26.444 25.7663 26.8722L26.8328 27.927ZM24.1778 28.4785C24.0799 28.5774 23.9201 28.5774 23.8222 28.4785L22.7557 29.5332C23.4407 30.2259 24.5593 30.2259 25.2443 29.5332L24.1778 28.4785Z" fill="#344054"/>
</svg>
