<svg width="48" height="48" viewBox="0 0 48 48" fill="none" xmlns="http://www.w3.org/2000/svg">
<circle cx="24" cy="24" r="24" fill="#F2F4F7"/>
<path d="M27.439 23.8278V22.7842L28.649 23.3283C29.179 23.5667 29.7865 23.5627 30.3134 23.3175L31.5586 22.7378V23.8278C31.5586 24.9654 30.6364 25.8876 29.4988 25.8876C28.3612 25.8877 27.439 24.9654 27.439 23.8278Z" stroke="#28303F" stroke-width="1.5" stroke-linecap="round"/>
<path d="M33.5214 21.4107L30.1 19.89C29.707 19.7154 29.2584 19.7154 28.8655 19.89L25.444 21.4107C25.2434 21.4998 25.2434 21.7845 25.444 21.8736L28.8655 23.3943C29.2584 23.5689 29.707 23.5689 30.1 23.3943L33.5214 21.8736C33.722 21.7845 33.722 21.4998 33.5214 21.4107Z" stroke="#28303F" stroke-width="1.5" stroke-linecap="round" stroke-linejoin="round"/>
<path d="M27.4704 27.4524C27.5734 27.4161 27.6791 27.3825 27.7872 27.3518C27.9625 27.3019 28.1501 27.3555 28.2786 27.4812L29.1104 28.2949C29.3154 28.4954 29.6501 28.4954 29.8551 28.2949L30.6869 27.4812C30.8154 27.3555 31.003 27.3019 31.1783 27.3518C32.6472 27.7697 33.6719 28.7139 33.6719 29.8118C33.6719 30.3714 33.203 30.825 32.6246 30.825H28.6627" stroke="#28303F" stroke-width="1.5" stroke-linecap="round" stroke-linejoin="round"/>
<line x1="25.6445" y1="22.3921" x2="25.6445" y2="24.0584" stroke="#28303F" stroke-width="1.5" stroke-linecap="round"/>
<path d="M17.4968 21.8382V20.2022L19.7687 21.0489C20.2192 21.2167 20.7151 21.2167 21.1656 21.0489L23.4375 20.2022V21.8382C23.4375 23.4787 22.1076 24.8086 20.4671 24.8086C18.8267 24.8086 17.4968 23.4787 17.4968 21.8382Z" stroke="#28303F" stroke-width="1.5" stroke-linecap="round"/>
<path d="M26.3889 18.0745L21.3738 15.8456C20.7977 15.5896 20.1402 15.5896 19.5642 15.8456L14.5491 18.0745C14.2551 18.2052 14.2551 18.6224 14.5491 18.7531L19.5642 20.982C20.1402 21.238 20.7977 21.238 21.3738 20.982L26.3889 18.7531C26.6829 18.6224 26.6829 18.2052 26.3889 18.0745Z" stroke="#28303F" stroke-width="1.5" stroke-linecap="round" stroke-linejoin="round"/>
<path d="M18.704 26.991L19.9232 28.1838C20.2237 28.4777 20.7143 28.4777 21.0147 28.1838L22.234 26.991C22.4224 26.8067 22.6973 26.7282 22.9543 26.8013C25.1074 27.4138 26.6094 28.7979 26.6094 30.4072C26.6094 31.2274 25.9221 31.8924 25.0743 31.8924H15.8637C15.0159 31.8924 14.3286 31.2274 14.3286 30.4072C14.3286 28.7979 15.8306 27.4138 17.9837 26.8013C18.2406 26.7282 18.5156 26.8067 18.704 26.991Z" stroke="#28303F" stroke-width="1.5" stroke-linecap="round" stroke-linejoin="round"/>
<line x1="15.1992" y1="19.2812" x2="15.1992" y2="22.3051" stroke="#28303F" stroke-width="1.5" stroke-linecap="round"/>
</svg>
