<svg width="48" height="48" viewBox="0 0 48 48" fill="none" xmlns="http://www.w3.org/2000/svg">
<rect width="48" height="48" rx="24" fill="#F2F4F7"/>
<path d="M19 19V17C19 15.8954 19.8954 15 21 15H32C33.1046 15 34 15.8954 34 17V26C34 27.1046 33.1046 28 32 28H27M23 19.5H30M26 23.5H30M17.5858 28.5858C18.3668 29.3668 19.6332 29.3668 20.4142 28.5858C20.7893 28.2107 21.298 28 21.8284 28H22C23.1046 28 24 28.8954 24 30V31C24 32.1046 23.1046 33 22 33H16C14.8954 33 14 32.1046 14 31V30C14 28.8954 14.8954 28 16 28H16.1716C16.702 28 17.2107 28.2107 17.5858 28.5858ZM21 24C21 25.1046 20.1046 26 19 26C17.8954 26 17 25.1046 17 24C17 22.8954 17.8954 22 19 22C20.1046 22 21 22.8954 21 24Z" stroke="#28303F" stroke-width="1.5" stroke-linecap="round"/>
</svg>
