<svg xmlns="http://www.w3.org/2000/svg" xmlns:xlink="http://www.w3.org/1999/xlink" width="306" height="305.999" viewBox="0 0 306 305.999">
  <defs>
    <linearGradient id="linear-gradient" x1="1.003" y1="1.087" x2="0.095" y2="0.056" gradientUnits="objectBoundingBox">
      <stop offset="0" stop-color="#dae3fe"/>
      <stop offset="1" stop-color="#e9effd"/>
    </linearGradient>
    <linearGradient id="linear-gradient-2" x1="3.614" y1="-3.257" x2="-0.159" y2="2.36" gradientUnits="objectBoundingBox">
      <stop offset="0" stop-color="#fdf53f"/>
      <stop offset="1" stop-color="#d93c65"/>
    </linearGradient>
    <linearGradient id="linear-gradient-3" x1="2.711" y1="-4.664" x2="0.627" y2="1.782" xlink:href="#linear-gradient-2"/>
    <linearGradient id="linear-gradient-4" x1="7.173" y1="-5.873" x2="3.287" y2="0.341" gradientUnits="objectBoundingBox">
      <stop offset="0" stop-color="#a737d5"/>
      <stop offset="1" stop-color="#ef497a"/>
    </linearGradient>
    <linearGradient id="linear-gradient-5" x1="8.221" y1="-6.977" x2="4.335" y2="-0.764" xlink:href="#linear-gradient-4"/>
    <linearGradient id="linear-gradient-6" x1="9.156" y1="-6.941" x2="4.042" y2="-0.262" xlink:href="#linear-gradient-4"/>
    <linearGradient id="linear-gradient-7" x1="10.317" y1="-9.187" x2="6.43" y2="-2.973" xlink:href="#linear-gradient-4"/>
    <linearGradient id="linear-gradient-8" x1="-2.509" y1="-3.677" x2="-7.471" y2="1.65" xlink:href="#linear-gradient-4"/>
    <linearGradient id="linear-gradient-9" x1="0.5" y1="0.941" x2="0.429" y2="-0.71" gradientUnits="objectBoundingBox">
      <stop offset="0" stop-color="#09005d"/>
      <stop offset="1" stop-color="#1a0f91"/>
    </linearGradient>
    <linearGradient id="linear-gradient-10" x1="-0.196" y1="-0.712" x2="2.177" y2="3.418" gradientUnits="objectBoundingBox">
      <stop offset="0" stop-color="#ff928e"/>
      <stop offset="1" stop-color="#fe7062"/>
    </linearGradient>
    <linearGradient id="linear-gradient-11" x1="-0.196" y1="-2.376" x2="1.09" y2="3.529" xlink:href="#linear-gradient-10"/>
    <linearGradient id="linear-gradient-12" x1="-0.897" y1="-0.736" x2="7.16" y2="6.41" gradientUnits="objectBoundingBox">
      <stop offset="0" stop-color="#4f52ff"/>
      <stop offset="1" stop-color="#4042e2"/>
    </linearGradient>
    <linearGradient id="linear-gradient-13" x1="-3.047" y1="-2.642" x2="5.01" y2="4.503" xlink:href="#linear-gradient-12"/>
    <linearGradient id="linear-gradient-14" x1="2.578" y1="-2.211" x2="-1.787" y2="3.403" xlink:href="#linear-gradient-12"/>
    <linearGradient id="linear-gradient-15" x1="3.377" y1="-3.239" x2="-0.988" y2="2.375" xlink:href="#linear-gradient-12"/>
    <linearGradient id="linear-gradient-16" x1="4.049" y1="-3.235" x2="-1.695" y2="2.799" xlink:href="#linear-gradient-12"/>
    <linearGradient id="linear-gradient-17" x1="4.975" y1="-5.294" x2="0.61" y2="0.32" xlink:href="#linear-gradient-12"/>
    <linearGradient id="linear-gradient-18" x1="1.519" y1="-0.775" x2="-1.484" y2="2.907" gradientUnits="objectBoundingBox">
      <stop offset="0" stop-color="#2b3582"/>
      <stop offset="1" stop-color="#150e42"/>
    </linearGradient>
    <linearGradient id="linear-gradient-19" x1="1.004" y1="-2.464" x2="-0.074" y2="4.125" xlink:href="#linear-gradient-18"/>
    <linearGradient id="linear-gradient-20" x1="-0.301" y1="1.165" x2="2.009" y2="-0.739" xlink:href="#linear-gradient-10"/>
    <linearGradient id="linear-gradient-21" x1="0.727" y1="-2.869" x2="0.282" y2="3.71" xlink:href="#linear-gradient-12"/>
    <linearGradient id="linear-gradient-22" x1="-6.599" y1="-30.48" x2="-7.046" y2="-23.882" xlink:href="#linear-gradient-9"/>
    <linearGradient id="linear-gradient-23" x1="-39.416" y1="0.5" x2="-38.416" y2="0.5" gradientUnits="objectBoundingBox">
      <stop offset="0" stop-color="#ff928e"/>
      <stop offset="1" stop-color="#feb3b1"/>
    </linearGradient>
    <linearGradient id="linear-gradient-24" x1="-0.648" y1="0.989" x2="1.73" y2="-0.23" xlink:href="#linear-gradient-9"/>
    <linearGradient id="linear-gradient-25" x1="-23.12" y1="-36.334" x2="-24.228" y2="-28.607" xlink:href="#linear-gradient-9"/>
    <linearGradient id="linear-gradient-26" x1="-54.159" y1="0.5" x2="-53.159" y2="0.5" xlink:href="#linear-gradient-23"/>
    <linearGradient id="linear-gradient-27" x1="-0.337" y1="1.024" x2="1.338" y2="-0.173" xlink:href="#linear-gradient-9"/>
    <linearGradient id="linear-gradient-28" x1="-0.146" y1="-1.249" x2="0.583" y2="0.385" xlink:href="#linear-gradient-10"/>
    <linearGradient id="linear-gradient-29" x1="-5.3" y1="0.5" x2="-4.3" y2="0.5" xlink:href="#linear-gradient-23"/>
    <linearGradient id="linear-gradient-30" x1="3.591" y1="2.672" x2="-0.018" y2="0.239" xlink:href="#linear-gradient-23"/>
    <linearGradient id="linear-gradient-31" x1="-30.416" y1="0.706" x2="-28.397" y2="-1.072" xlink:href="#linear-gradient-23"/>
    <linearGradient id="linear-gradient-32" x1="-1.477" y1="-3.81" x2="0.352" y2="0.37" xlink:href="#linear-gradient-10"/>
    <linearGradient id="linear-gradient-33" x1="-0.264" y1="0.488" x2="0.951" y2="0.502" xlink:href="#linear-gradient-23"/>
    <linearGradient id="linear-gradient-34" x1="-4.777" y1="0.545" x2="-4.259" y2="3.03" gradientUnits="objectBoundingBox">
      <stop offset="0" stop-color="#4042e2"/>
      <stop offset="1" stop-color="#4f52ff"/>
    </linearGradient>
    <linearGradient id="linear-gradient-35" x1="2.827" y1="-4.496" x2="1.357" y2="-1.332" xlink:href="#linear-gradient-23"/>
    <linearGradient id="linear-gradient-36" x1="0.359" y1="-0.083" x2="0.702" y2="1.525" xlink:href="#linear-gradient-23"/>
    <linearGradient id="linear-gradient-37" x1="-52.58" y1="-13.721" x2="-52.048" y2="-15.265" xlink:href="#linear-gradient-23"/>
    <linearGradient id="linear-gradient-38" x1="-39.187" y1="-14.416" x2="-38.982" y2="-13.237" xlink:href="#linear-gradient-9"/>
    <linearGradient id="linear-gradient-39" x1="-174.522" y1="-69.503" x2="-172.789" y2="-76.984" xlink:href="#linear-gradient-23"/>
  </defs>
  <g id="Image_2" data-name="Image 2" transform="translate(0 0)">
    <path id="Path_266" data-name="Path 266" d="M756.393,717.791c-55.313,58.865-140.277,41.451-152.835,38.652-15.822-3.526-53.465-11.913-81.556-45.031-43.007-50.7-38.664-129.944-5.45-183.368,9.664-15.545,42.188-61.741,103.264-71.785,3.57-.587,67.347-10.017,118.663,33.4a141.316,141.316,0,0,1,27.875,31.895C796.717,569.447,811.087,659.585,756.393,717.791Z" transform="translate(-487.291 -455)" fill="url(#linear-gradient)"/>
    <g id="Group_291" data-name="Group 291" transform="translate(101.358 11.671)">
      <path id="Path_267" data-name="Path 267" d="M1444.963,564.537a5.177,5.177,0,0,1,6.81-3.841c19.673,7.015,87.525,30.186,146.036,37.9a4.787,4.787,0,0,1,4.113,5.481l-34.039,218.39a5.509,5.509,0,0,1-6.259,4.6c-24.519-3.671-125.418-19.15-160.206-30.373a4.364,4.364,0,0,1-2.93-5.032Z" transform="translate(-1398.399 -560.393)" fill="#91b3fa"/>
      <path id="Path_268" data-name="Path 268" d="M1470.286,619.2a4.982,4.982,0,0,1,6.554-3.7c18.933,6.75,84.229,29.05,140.537,36.474a4.607,4.607,0,0,1,3.958,5.275l-32.757,210.166a5.3,5.3,0,0,1-6.023,4.428c-23.6-3.532-120.7-18.429-154.173-29.229a4.2,4.2,0,0,1-2.82-4.842Z" transform="translate(-1422.477 -609.145)" fill="#fff" opacity="0.6"/>
      <path id="Path_269" data-name="Path 269" d="M1907.251,807.026a3.078,3.078,0,0,0-3.778,2.493l-7.321,44.995a2.9,2.9,0,0,0,2.18,3.282c8.2,1.972,33.785,8.019,48.464,10.322a3.233,3.233,0,0,0,3.641-2.427c2.038-8.3,7.77-32.492,8.009-43.061a3.648,3.648,0,0,0-2.777-3.618Z" transform="translate(-1840.999 -779.634)" fill="#fff" opacity="0.78"/>
      <circle id="Ellipse_6" data-name="Ellipse 6" cx="9.789" cy="9.789" r="9.789" transform="matrix(0.361, -0.932, 0.932, 0.361, 74.519, 57.323)" fill="url(#linear-gradient-2)"/>
      <path id="Path_270" data-name="Path 270" d="M1984.7,1168.912l30.516,6.432a2.415,2.415,0,0,0,2.752-3.224c-1.737-4.6-5.9-11.7-15.354-13.414a21.741,21.741,0,0,0-19.118,5.894A2.524,2.524,0,0,0,1984.7,1168.912Z" transform="translate(-1917.993 -1092.124)" fill="url(#linear-gradient-3)"/>
      <g id="Group_279" data-name="Group 279" transform="translate(129.437 44.175)" opacity="0.6">
        <path id="Path_271" data-name="Path 271" d="M2621.53,974.62a1.613,1.613,0,0,0,2.009-1.138,1.769,1.769,0,0,0-1.459-1.9l-53.287-12.226a1.154,1.154,0,0,0-1.5,1.364l.1.781a2.693,2.693,0,0,0,1.969,2.127Z" transform="translate(-2567.278 -959.311)" fill="#fff"/>
      </g>
      <g id="Group_280" data-name="Group 280" transform="translate(127.686 52.481)" opacity="0.6">
        <path id="Path_272" data-name="Path 272" d="M2552.983,1034.369a1.154,1.154,0,0,0-1.5,1.364l.1.781a2.693,2.693,0,0,0,1.969,2.127l52.164,10.994a1.613,1.613,0,0,0,2.009-1.138,1.768,1.768,0,0,0-1.459-1.9Z" transform="translate(-2551.469 -1034.325)" fill="#fff"/>
      </g>
      <g id="Group_281" data-name="Group 281" transform="translate(125.91 60.909)" opacity="0.6">
        <path id="Path_273" data-name="Path 273" d="M2536.943,1110.473a1.154,1.154,0,0,0-1.5,1.363l.1.781a2.693,2.693,0,0,0,1.969,2.127l52.163,10.994a1.613,1.613,0,0,0,2.009-1.138,1.769,1.769,0,0,0-1.46-1.9Z" transform="translate(-2535.428 -1110.429)" fill="#fff"/>
      </g>
      <g id="Group_282" data-name="Group 282" transform="translate(51.017 87.468)" opacity="0.6">
        <path id="Path_274" data-name="Path 274" d="M1984.88,1380.758a1.544,1.544,0,0,0,1.954-1.149,1.827,1.827,0,0,0-1.518-1.9l-125.1-27.4c-.954-.209-1.377.334-.939,1.208l.753,1.5a4.182,4.182,0,0,0,2.534,1.954Z" transform="translate(-1859.105 -1350.271)" fill="#fff"/>
      </g>
      <g id="Group_283" data-name="Group 283" transform="translate(49.266 95.775)" opacity="0.6">
        <path id="Path_275" data-name="Path 275" d="M1844.407,1425.33c-.954-.209-1.376.334-.939,1.208l.753,1.5a4.181,4.181,0,0,0,2.534,1.954l122.315,25.779a1.544,1.544,0,0,0,1.954-1.149,1.827,1.827,0,0,0-1.518-1.9Z" transform="translate(-1843.296 -1425.285)" fill="#fff"/>
      </g>
      <path id="Path_276" data-name="Path 276" d="M1793.047,1549.716c3.062.4,8.726,1.486,11.841,2.1a2.877,2.877,0,0,1,2.325,2.738,46.889,46.889,0,0,1-1.074,11.65,2.555,2.555,0,0,1-3.038,1.916l-11.435-2.539a2.813,2.813,0,0,1-2.185-3.067l1.265-10.994A2.049,2.049,0,0,1,1793.047,1549.716Z" transform="translate(-1746.158 -1440.147)" fill="#fff" opacity="0.6"/>
      <g id="Group_284" data-name="Group 284" transform="translate(65.211 118.41)" opacity="0.6">
        <path id="Path_277" data-name="Path 277" d="M1989.222,1629.75a1.413,1.413,0,0,0-1.825,1.334l-.112,1.906a2.133,2.133,0,0,0,1.634,2.139l27.835,5.866a1.754,1.754,0,0,0,2.082-1.376l.093-.471a1.9,1.9,0,0,0-1.376-2.181Z" transform="translate(-1987.282 -1629.697)" fill="#fff"/>
      </g>
      <path id="Path_278" data-name="Path 278" d="M2356.891,1668.55c3.062.4,8.726,1.486,11.841,2.1a2.877,2.877,0,0,1,2.325,2.738,46.893,46.893,0,0,1-1.075,11.65,2.554,2.554,0,0,1-3.038,1.916l-11.435-2.539a2.812,2.812,0,0,1-2.185-3.067l1.265-10.994A2.049,2.049,0,0,1,2356.891,1668.55Z" transform="translate(-2247.564 -1545.821)" fill="#fff" opacity="0.6"/>
      <g id="Group_285" data-name="Group 285" transform="translate(127.648 131.57)" opacity="0.6">
        <path id="Path_279" data-name="Path 279" d="M2553.066,1748.584a1.413,1.413,0,0,0-1.825,1.334l-.112,1.906a2.133,2.133,0,0,0,1.634,2.139l27.834,5.866a1.755,1.755,0,0,0,2.083-1.376l.093-.471a1.9,1.9,0,0,0-1.376-2.181Z" transform="translate(-2551.126 -1748.531)" fill="#fff"/>
      </g>
      <g id="Group_290" data-name="Group 290" transform="translate(26.725 137.714)">
        <path id="Path_280" data-name="Path 280" d="M1782.143,1836.273l-.029-.006-10.554-2.33a2.905,2.905,0,0,1-2.392-3.03l.94-9.069a1.971,1.971,0,0,1,.761-1.354,2.374,2.374,0,0,1,1.787-.458h0c.9.127,2.181.284,3.533.451,2.847.351,6.391.789,8.355,1.177a3.021,3.021,0,0,1,2.525,2.7c.122,2.153-.739,6-1.71,10.084A2.671,2.671,0,0,1,1782.143,1836.273Zm-9.6-15.425a1.537,1.537,0,0,0-1.16.289,1.146,1.146,0,0,0-.447.786l-.941,9.069a2.079,2.079,0,0,0,1.745,2.134l10.554,2.33.021,0a1.841,1.841,0,0,0,2.237-1.219c.956-4.024,1.8-7.8,1.689-9.846a2.23,2.23,0,0,0-1.857-1.928c-1.935-.383-5.462-.818-8.3-1.167-1.356-.167-2.636-.325-3.547-.453Z" transform="translate(-1754.823 -1818.232)" fill="#fff"/>
        <path id="Path_281" data-name="Path 281" d="M1788.828,1837.947c2.254.317,7.186.844,9.482,1.3a2.092,2.092,0,0,1,1.75,1.848c.1,1.727-.647,4.973-1.358,7.963a1.8,1.8,0,0,1-2.2,1.218l-8.434-1.862a2,2,0,0,1-1.653-2.063l.751-7.247A1.4,1.4,0,0,1,1788.828,1837.947Z" transform="translate(-1770.165 -1834.175)" fill="#fff" opacity="0.6"/>
        <g id="Group_286" data-name="Group 286" transform="translate(37.847 11.287)" opacity="0.6">
          <path id="Path_282" data-name="Path 282" d="M1981.515,1908.768a2.684,2.684,0,0,0,2.149,2.5l98.027,19.789a2.029,2.029,0,0,0,.829-3.973l-97.76-21.07A2.684,2.684,0,0,0,1981.515,1908.768Z" transform="translate(-1981.512 -1905.949)" fill="#fff"/>
        </g>
        <path id="Path_283" data-name="Path 283" d="M1800.171,1809.278h0a1.659,1.659,0,0,1,2.111,1.081l1.3,4.179a.533.533,0,0,0,.939.156l7.6-10.428a.59.59,0,0,1,1.052.482,23.241,23.241,0,0,1-9.953,14.432s-2.848-1.86-4.19-7.872A1.74,1.74,0,0,1,1800.171,1809.278Z" transform="translate(-1781.352 -1804.02)" fill="url(#linear-gradient-4)"/>
        <path id="Path_284" data-name="Path 284" d="M1739,2040.961l-.029-.006-10.554-2.33a2.905,2.905,0,0,1-2.392-3.029l.941-9.069a1.97,1.97,0,0,1,.761-1.354,2.373,2.373,0,0,1,1.786-.458h0c.9.127,2.181.285,3.533.452,2.847.351,6.391.789,8.355,1.177l.043.009a3.014,3.014,0,0,1,2.482,2.687c.122,2.153-.739,6-1.71,10.084A2.671,2.671,0,0,1,1739,2040.961Zm-9.6-15.425a1.537,1.537,0,0,0-1.16.289,1.147,1.147,0,0,0-.447.786l-.94,9.069a2.079,2.079,0,0,0,1.745,2.134l10.554,2.33.021,0a1.841,1.841,0,0,0,2.238-1.218c.956-4.024,1.8-7.8,1.689-9.846a2.219,2.219,0,0,0-1.857-1.928c-1.934-.382-5.461-.818-8.3-1.167-1.356-.167-2.637-.325-3.547-.453Z" transform="translate(-1716.46 -2000.254)" fill="#fff"/>
        <path id="Path_285" data-name="Path 285" d="M1745.688,2042.636c2.254.316,7.186.844,9.482,1.3a2.093,2.093,0,0,1,1.751,1.848c.1,1.727-.648,4.973-1.358,7.963a1.8,1.8,0,0,1-2.2,1.217l-8.434-1.862a2,2,0,0,1-1.653-2.063l.751-7.247A1.4,1.4,0,0,1,1745.688,2042.636Z" transform="translate(-1731.802 -2016.198)" fill="#fff" opacity="0.6"/>
        <g id="Group_287" data-name="Group 287" transform="translate(33.07 33.954)" opacity="0.6">
          <path id="Path_286" data-name="Path 286" d="M1938.375,2113.457a2.683,2.683,0,0,0,2.149,2.5l98.027,19.789a2.029,2.029,0,0,0,.829-3.973l-97.759-21.07A2.684,2.684,0,0,0,1938.375,2113.457Z" transform="translate(-1938.372 -2110.637)" fill="#fff"/>
        </g>
        <path id="Path_287" data-name="Path 287" d="M1757.032,2013.967h0a1.659,1.659,0,0,1,2.111,1.081l1.3,4.179a.533.533,0,0,0,.939.156l7.6-10.428a.59.59,0,0,1,1.052.482,23.24,23.24,0,0,1-9.953,14.432s-2.848-1.86-4.19-7.873A1.74,1.74,0,0,1,1757.032,2013.967Z" transform="translate(-1742.99 -1986.043)" fill="url(#linear-gradient-5)"/>
        <path id="Path_288" data-name="Path 288" d="M1695.863,2245.65l-.029-.006-10.554-2.331a2.9,2.9,0,0,1-2.392-3.029l.94-9.069a1.971,1.971,0,0,1,.761-1.354,2.374,2.374,0,0,1,1.786-.458h0c.9.127,2.181.285,3.533.451,2.847.351,6.391.789,8.355,1.177l.043.009a3.014,3.014,0,0,1,2.482,2.687c.122,2.153-.739,6-1.71,10.084A2.67,2.67,0,0,1,1695.863,2245.65Zm-9.6-15.425a1.537,1.537,0,0,0-1.16.289,1.147,1.147,0,0,0-.447.786l-.941,9.069a2.078,2.078,0,0,0,1.745,2.133l10.554,2.331.021,0a1.841,1.841,0,0,0,2.237-1.219c.956-4.024,1.8-7.8,1.689-9.846a2.214,2.214,0,0,0-1.857-1.928c-1.934-.382-5.461-.818-8.3-1.167-1.356-.167-2.636-.325-3.547-.453Z" transform="translate(-1678.097 -2182.276)" fill="#fff"/>
        <path id="Path_289" data-name="Path 289" d="M1702.548,2247.325c2.254.316,7.186.844,9.482,1.3a2.092,2.092,0,0,1,1.751,1.847c.1,1.728-.647,4.973-1.358,7.963a1.8,1.8,0,0,1-2.2,1.218l-8.434-1.862a2,2,0,0,1-1.653-2.063l.751-7.248A1.4,1.4,0,0,1,1702.548,2247.325Z" transform="translate(-1693.44 -2198.22)" fill="#fff" opacity="0.6"/>
        <g id="Group_288" data-name="Group 288" transform="translate(28.293 56.62)" opacity="0.6">
          <path id="Path_290" data-name="Path 290" d="M1895.236,2318.146a2.683,2.683,0,0,0,2.149,2.5l98.027,19.789a2.029,2.029,0,0,0,.829-3.973l-97.76-21.07A2.683,2.683,0,0,0,1895.236,2318.146Z" transform="translate(-1895.233 -2315.326)" fill="#fff"/>
        </g>
        <path id="Path_291" data-name="Path 291" d="M1713.892,2218.656h0a1.659,1.659,0,0,1,2.111,1.081l1.3,4.179a.532.532,0,0,0,.939.156l7.6-10.428a.59.59,0,0,1,1.052.482,23.239,23.239,0,0,1-9.953,14.432s-2.848-1.86-4.19-7.872A1.74,1.74,0,0,1,1713.892,2218.656Z" transform="translate(-1704.627 -2168.065)" fill="url(#linear-gradient-6)"/>
        <path id="Path_292" data-name="Path 292" d="M1652.723,2450.338l-.029-.006L1642.14,2448a2.9,2.9,0,0,1-2.392-3.029l.941-9.069a1.969,1.969,0,0,1,.761-1.354,2.372,2.372,0,0,1,1.786-.458h0c.9.127,2.181.284,3.533.451,2.847.351,6.391.789,8.355,1.177l.043.008a3.015,3.015,0,0,1,2.482,2.687c.122,2.153-.74,6-1.71,10.084A2.671,2.671,0,0,1,1652.723,2450.338Zm-9.6-15.425a1.537,1.537,0,0,0-1.16.289,1.146,1.146,0,0,0-.447.786l-.94,9.069a2.078,2.078,0,0,0,1.745,2.133l10.554,2.331.021,0a1.841,1.841,0,0,0,2.237-1.219c.956-4.023,1.8-7.8,1.689-9.846a2.211,2.211,0,0,0-1.857-1.928c-1.934-.382-5.461-.818-8.3-1.167-1.356-.167-2.637-.325-3.547-.453Z" transform="translate(-1639.734 -2364.298)" fill="#fff"/>
        <path id="Path_293" data-name="Path 293" d="M1659.409,2452.014c2.254.316,7.186.844,9.482,1.3a2.092,2.092,0,0,1,1.751,1.848c.1,1.727-.648,4.973-1.358,7.963a1.8,1.8,0,0,1-2.2,1.218l-8.434-1.862a2,2,0,0,1-1.653-2.063l.751-7.248A1.4,1.4,0,0,1,1659.409,2452.014Z" transform="translate(-1655.078 -2380.243)" fill="#fff" opacity="0.6"/>
        <g id="Group_289" data-name="Group 289" transform="translate(23.516 79.286)" opacity="0.6">
          <path id="Path_294" data-name="Path 294" d="M1852.1,2522.834h0a2.683,2.683,0,0,0,2.149,2.5l98.027,19.789a2.029,2.029,0,0,0,.829-3.973l-97.76-21.07A2.684,2.684,0,0,0,1852.1,2522.834Z" transform="translate(-1852.092 -2520.015)" fill="#fff"/>
        </g>
        <path id="Path_295" data-name="Path 295" d="M1670.752,2423.345h0a1.659,1.659,0,0,1,2.111,1.081l1.3,4.179a.533.533,0,0,0,.939.156l7.6-10.428a.59.59,0,0,1,1.052.482,23.24,23.24,0,0,1-9.953,14.432s-2.848-1.86-4.19-7.872A1.74,1.74,0,0,1,1670.752,2423.345Z" transform="translate(-1666.265 -2350.087)" fill="url(#linear-gradient-7)"/>
      </g>
    </g>
    <g id="Group_304" data-name="Group 304" transform="translate(2.898 15.692)">
      <path id="Path_296" data-name="Path 296" d="M486.252,626.29a5.177,5.177,0,0,1,4.726-6.229c20.842-1.369,92.317-7.029,149.085-23.168a4.787,4.787,0,0,1,5.951,3.4l55.428,213.964a5.509,5.509,0,0,1-3.919,6.707c-23.962,6.361-122.719,32.2-159.1,35.7a4.365,4.365,0,0,1-4.687-3.456Z" transform="translate(-486.141 -596.709)" fill="#91b3fa"/>
      <path id="Path_297" data-name="Path 297" d="M517.8,679.8a4.982,4.982,0,0,1,4.549-5.994c20.057-1.318,88.841-6.764,143.471-22.3a4.607,4.607,0,0,1,5.727,3.27L724.89,860.689a5.3,5.3,0,0,1-3.771,6.455c-23.06,6.122-118.1,30.985-153.112,34.357a4.2,4.2,0,0,1-4.51-3.326Z" transform="translate(-514.201 -645.285)" fill="#fff" opacity="0.6"/>
      <path id="Path_298" data-name="Path 298" d="M710.518,923.407l11.137,44.205a2.9,2.9,0,0,0,3.3,2.147c8.312-1.445,34.193-6.048,48.581-9.76a3.233,3.233,0,0,0,2.379-3.672c-1.422-8.425-5.763-32.907-9.739-42.7a3.648,3.648,0,0,0-3.985-2.219L713,919.619A3.078,3.078,0,0,0,710.518,923.407Z" transform="translate(-685.588 -876.513)" fill="#fff" opacity="0.78"/>
      <circle id="Ellipse_7" data-name="Ellipse 7" cx="9.789" cy="9.789" r="9.789" transform="matrix(0.068, -0.998, 0.998, 0.068, 45.849, 66.241)" fill="#91b3fa"/>
      <path id="Path_299" data-name="Path 299" d="M890.125,1257.1l30.563-6.208a2.415,2.415,0,0,0,1.247-4.052c-3.421-3.535-10.065-8.4-19.417-6.219a21.741,21.741,0,0,0-15.208,13A2.523,2.523,0,0,0,890.125,1257.1Z" transform="translate(-842.696 -1168.836)" fill="#91b3fa"/>
      <g id="Group_292" data-name="Group 292" transform="translate(92.415 22.914)" opacity="0.6">
        <path id="Path_300" data-name="Path 300" d="M1376.218,806.676a1.613,1.613,0,0,0,1.393-1.842,1.768,1.768,0,0,0-2.094-1.166l-53.762,9.925a1.154,1.154,0,0,0-.835,1.846l.4.676a2.693,2.693,0,0,0,2.652,1.171Z" transform="translate(-1320.697 -803.635)" fill="#fff"/>
      </g>
      <g id="Group_293" data-name="Group 293" transform="translate(94.105 31.234)" opacity="0.6">
        <path id="Path_301" data-name="Path 301" d="M1337.013,888.723a1.154,1.154,0,0,0-.835,1.846l.4.676a2.693,2.693,0,0,0,2.652,1.171l52.243-10.611a1.613,1.613,0,0,0,1.393-1.842,1.768,1.768,0,0,0-2.094-1.166Z" transform="translate(-1335.956 -878.763)" fill="#fff"/>
      </g>
      <g id="Group_294" data-name="Group 294" transform="translate(95.819 39.674)" opacity="0.6">
        <path id="Path_302" data-name="Path 302" d="M1352.494,964.942a1.154,1.154,0,0,0-.835,1.847l.4.676a2.693,2.693,0,0,0,2.652,1.171l52.243-10.611a1.613,1.613,0,0,0,1.392-1.842,1.768,1.768,0,0,0-2.094-1.166Z" transform="translate(-1351.437 -954.982)" fill="#fff"/>
      </g>
      <g id="Group_295" data-name="Group 295" transform="translate(37.456 79.356)" opacity="0.6">
        <path id="Path_303" data-name="Path 303" d="M951.745,1316.339a1.544,1.544,0,0,0,1.337-1.83,1.828,1.828,0,0,0-2.146-1.137l-125.7,24.5c-.959.187-1.131.853-.382,1.481l1.287,1.08a4.182,4.182,0,0,0,3.1.788Z" transform="translate(-824.391 -1313.333)" fill="#fff"/>
      </g>
      <g id="Group_296" data-name="Group 296" transform="translate(39.146 87.675)" opacity="0.6">
        <path id="Path_304" data-name="Path 304" d="M840.5,1413c-.959.187-1.131.853-.383,1.481l1.287,1.08a4.182,4.182,0,0,0,3.1.788L967,1391.467a1.545,1.545,0,0,0,1.338-1.83,1.828,1.828,0,0,0-2.146-1.137Z" transform="translate(-839.649 -1388.46)" fill="#fff"/>
      </g>
      <path id="Path_305" data-name="Path 305" d="M855.739,1713.722c2.971-.844,8.6-2.1,11.7-2.774a2.877,2.877,0,0,1,3.221,1.591,46.889,46.889,0,0,1,3.637,11.12,2.555,2.555,0,0,1-2.028,2.964l-11.5,2.208a2.813,2.813,0,0,1-3.223-1.948l-3.2-10.593A2.049,2.049,0,0,1,855.739,1713.722Z" transform="translate(-813.49 -1587.502)" fill="#fff" opacity="0.6"/>
      <g id="Group_297" data-name="Group 297" transform="translate(63.129 121.702)" opacity="0.6">
        <path id="Path_306" data-name="Path 306" d="M1057.473,1700.377a1.413,1.413,0,0,0-1.146,1.949l.654,1.794a2.134,2.134,0,0,0,2.348,1.315l27.877-5.662a1.754,1.754,0,0,0,1.365-2.089l-.1-.47a1.9,1.9,0,0,0-2.129-1.455Z" transform="translate(-1056.226 -1695.737)" fill="#fff"/>
      </g>
      <path id="Path_307" data-name="Path 307" d="M1420.439,1599.026c2.971-.844,8.6-2.1,11.7-2.774a2.877,2.877,0,0,1,3.221,1.591,46.888,46.888,0,0,1,3.637,11.12,2.554,2.554,0,0,1-2.028,2.964l-11.5,2.208a2.812,2.812,0,0,1-3.223-1.948l-3.2-10.593A2.049,2.049,0,0,1,1420.439,1599.026Z" transform="translate(-1315.657 -1485.507)" fill="#fff" opacity="0.6"/>
      <g id="Group_298" data-name="Group 298" transform="translate(125.662 109.001)" opacity="0.6">
        <path id="Path_308" data-name="Path 308" d="M1622.174,1585.682a1.413,1.413,0,0,0-1.145,1.949l.654,1.794a2.133,2.133,0,0,0,2.348,1.315l27.877-5.662a1.754,1.754,0,0,0,1.365-2.089l-.1-.47a1.9,1.9,0,0,0-2.129-1.455Z" transform="translate(-1620.926 -1581.042)" fill="#fff"/>
      </g>
      <g id="Group_303" data-name="Group 303" transform="translate(50.282 134.665)">
        <path id="Path_309" data-name="Path 309" d="M957.075,1977.707l-.029.006-10.612,2.05a2.906,2.906,0,0,1-3.4-1.832l-2.736-8.7a1.97,1.97,0,0,1,.161-1.545,2.372,2.372,0,0,1,1.458-1.129h0c.88-.242,2.115-.6,3.422-.988,2.753-.808,6.179-1.812,8.136-2.235a3.021,3.021,0,0,1,3.387,1.472c.966,1.928,1.7,5.8,2.433,9.934A2.671,2.671,0,0,1,957.075,1977.707ZM942.14,1967.36a1.536,1.536,0,0,0-.95.726,1.146,1.146,0,0,0-.1.9l2.736,8.7a2.079,2.079,0,0,0,2.449,1.266l10.612-2.05.021,0a1.841,1.841,0,0,0,1.57-2.006c-.72-4.073-1.441-7.879-2.357-9.708a2.23,2.23,0,0,0-2.47-1.032c-1.927.417-5.337,1.417-8.077,2.221-1.311.385-2.549.748-3.436.992Z" transform="translate(-940.211 -1946.6)" fill="#fff"/>
        <path id="Path_310" data-name="Path 310" d="M960.594,1985.383c2.194-.6,6.931-2.077,9.218-2.572a2.092,2.092,0,0,1,2.34,1c.775,1.547,1.379,4.821,1.914,7.848a1.8,1.8,0,0,1-1.535,1.99l-8.481,1.638a2,2,0,0,1-2.336-1.237l-2.187-6.951A1.4,1.4,0,0,1,960.594,1985.383Z" transform="translate(-957.339 -1963.937)" fill="#fff" opacity="0.6"/>
        <g id="Group_299" data-name="Group 299" transform="translate(24.69)" opacity="0.6">
          <path id="Path_311" data-name="Path 311" d="M1163.454,1836.12a2.684,2.684,0,0,0,2.963,1.438l97.83-20.74a2.029,2.029,0,0,0-.816-3.976l-98.093,19.458A2.684,2.684,0,0,0,1163.454,1836.12Z" transform="translate(-1163.175 -1812.803)" fill="#fff"/>
        </g>
        <path id="Path_312" data-name="Path 312" d="M998.712,2182.683l-.029.006-10.612,2.05a2.905,2.905,0,0,1-3.4-1.832l-2.736-8.7a1.97,1.97,0,0,1,.161-1.545,2.374,2.374,0,0,1,1.458-1.129h0c.88-.242,2.115-.6,3.422-.988,2.753-.808,6.179-1.812,8.136-2.236l.043-.009a3.014,3.014,0,0,1,3.345,1.481c.966,1.928,1.7,5.8,2.432,9.935A2.671,2.671,0,0,1,998.712,2182.683Zm-14.935-10.347a1.539,1.539,0,0,0-.95.726,1.147,1.147,0,0,0-.1.9l2.736,8.7a2.079,2.079,0,0,0,2.449,1.266l10.612-2.05.021,0a1.841,1.841,0,0,0,1.57-2.006c-.72-4.072-1.441-7.879-2.358-9.708a2.219,2.219,0,0,0-2.47-1.032c-1.927.417-5.337,1.417-8.077,2.221-1.311.384-2.549.748-3.436.992Z" transform="translate(-977.237 -2128.875)" fill="#fff"/>
        <path id="Path_313" data-name="Path 313" d="M1002.231,2190.383c2.194-.6,6.931-2.077,9.218-2.572a2.093,2.093,0,0,1,2.34,1c.775,1.547,1.379,4.821,1.914,7.848a1.8,1.8,0,0,1-1.535,1.99l-8.481,1.638a2,2,0,0,1-2.336-1.237l-2.187-6.95A1.4,1.4,0,0,1,1002.231,2190.383Z" transform="translate(-994.365 -2146.236)" fill="#fff" opacity="0.6"/>
        <g id="Group_300" data-name="Group 300" transform="translate(29.301 22.701)" opacity="0.6">
          <path id="Path_314" data-name="Path 314" d="M1205.091,2041.12a2.684,2.684,0,0,0,2.963,1.438l97.83-20.74a2.029,2.029,0,0,0-.816-3.976l-98.093,19.458A2.684,2.684,0,0,0,1205.091,2041.12Z" transform="translate(-1204.812 -2017.803)" fill="#fff"/>
        </g>
        <path id="Path_315" data-name="Path 315" d="M1040.35,2387.682l-.029.006-10.612,2.05a2.9,2.9,0,0,1-3.4-1.831l-2.736-8.7a1.971,1.971,0,0,1,.161-1.545,2.374,2.374,0,0,1,1.458-1.129h0c.88-.242,2.115-.6,3.422-.988,2.753-.808,6.179-1.812,8.136-2.235l.043-.009a3.015,3.015,0,0,1,3.345,1.481c.966,1.928,1.7,5.8,2.432,9.935A2.671,2.671,0,0,1,1040.35,2387.682Zm-14.935-10.347a1.537,1.537,0,0,0-.95.725,1.148,1.148,0,0,0-.1.9l2.736,8.7a2.078,2.078,0,0,0,2.448,1.266l10.613-2.05.021,0a1.841,1.841,0,0,0,1.57-2.006c-.72-4.073-1.441-7.879-2.358-9.707a2.215,2.215,0,0,0-2.47-1.033c-1.927.417-5.337,1.417-8.077,2.221-1.311.385-2.549.748-3.436.992Z" transform="translate(-1014.264 -2311.173)" fill="#fff"/>
        <path id="Path_316" data-name="Path 316" d="M1043.868,2395.382c2.194-.6,6.93-2.077,9.218-2.572a2.092,2.092,0,0,1,2.34,1c.775,1.547,1.379,4.822,1.914,7.848a1.8,1.8,0,0,1-1.535,1.99l-8.481,1.638a2,2,0,0,1-2.336-1.237l-2.187-6.951A1.4,1.4,0,0,1,1043.868,2395.382Z" transform="translate(-1031.391 -2328.534)" fill="#fff" opacity="0.6"/>
        <g id="Group_301" data-name="Group 301" transform="translate(33.912 45.402)" opacity="0.6">
          <path id="Path_317" data-name="Path 317" d="M1246.728,2246.119a2.684,2.684,0,0,0,2.963,1.438l97.83-20.74a2.029,2.029,0,0,0-.816-3.976l-98.093,19.458A2.684,2.684,0,0,0,1246.728,2246.119Z" transform="translate(-1246.449 -2222.802)" fill="#fff"/>
        </g>
        <path id="Path_318" data-name="Path 318" d="M1081.987,2592.682l-.029.006-10.612,2.05a2.9,2.9,0,0,1-3.4-1.831l-2.736-8.7a1.969,1.969,0,0,1,.161-1.545,2.374,2.374,0,0,1,1.458-1.129h0c.88-.242,2.115-.6,3.422-.988,2.753-.808,6.179-1.812,8.136-2.236l.043-.009a3.014,3.014,0,0,1,3.345,1.481c.966,1.928,1.7,5.8,2.433,9.935A2.671,2.671,0,0,1,1081.987,2592.682Zm-14.935-10.347a1.536,1.536,0,0,0-.95.726,1.147,1.147,0,0,0-.1.9l2.736,8.7a2.079,2.079,0,0,0,2.448,1.265l10.612-2.05.021,0a1.841,1.841,0,0,0,1.57-2.006c-.72-4.072-1.441-7.879-2.358-9.708a2.211,2.211,0,0,0-2.47-1.032c-1.927.417-5.337,1.417-8.077,2.22-1.311.385-2.549.748-3.436.992Z" transform="translate(-1051.291 -2493.472)" fill="#fff"/>
        <path id="Path_319" data-name="Path 319" d="M1085.5,2600.382c2.194-.6,6.931-2.077,9.218-2.572a2.093,2.093,0,0,1,2.34,1c.775,1.547,1.379,4.822,1.914,7.848a1.8,1.8,0,0,1-1.535,1.99l-8.481,1.638a2,2,0,0,1-2.336-1.237l-2.187-6.951A1.4,1.4,0,0,1,1085.5,2600.382Z" transform="translate(-1068.418 -2510.834)" fill="#fff" opacity="0.6"/>
        <g id="Group_302" data-name="Group 302" transform="translate(38.522 68.103)" opacity="0.6">
          <path id="Path_320" data-name="Path 320" d="M1288.365,2451.119h0a2.683,2.683,0,0,0,2.963,1.438l97.83-20.74a2.029,2.029,0,0,0-.816-3.976L1290.25,2447.3A2.684,2.684,0,0,0,1288.365,2451.119Z" transform="translate(-1288.087 -2427.802)" fill="#fff"/>
        </g>
        <path id="Path_321" data-name="Path 321" d="M1096.522,2554.5h0a1.659,1.659,0,0,1,2.366.155l2.85,3.321a.533.533,0,0,0,.924-.23l2.839-12.588a.59.59,0,0,1,1.157.025,23.24,23.24,0,0,1-3.408,17.2s-3.352-.577-6.97-5.563A1.74,1.74,0,0,1,1096.522,2554.5Z" transform="translate(-1078.701 -2463.651)" fill="url(#linear-gradient-8)"/>
      </g>
    </g>
    <g id="Group_307" data-name="Group 307" transform="translate(0 135.385)">
      <g id="Group_305" data-name="Group 305" transform="translate(6.487)">
        <path id="Path_322" data-name="Path 322" d="M578.524,1772.6a283.262,283.262,0,0,0,5.993,35.284h1.721a192.535,192.535,0,0,1-5.846-55.332c.969-22.311,6.433-49.4-3.756-62.34-8.48-10.77-44.465-12.38-56.3-12.617a1.746,1.746,0,0,0-1.4,2.831c4.536,5.708,14.036,18.927,14.863,30.471,1.091,15.215,12.916,27.157,24.666,32.128S576.541,1751.788,578.524,1772.6Z" transform="translate(-518.552 -1677.594)" fill="#91b3fa"/>
        <path id="Path_323" data-name="Path 323" d="M665.687,1762.464a56.735,56.735,0,0,1,20.186,9.716,44.4,44.4,0,0,1,8.11,7.9,38.4,38.4,0,0,1,5.652,9.853l.5,1.335c.165.446.288.906.433,1.359s.286.912.405,1.363l.36,1.352q.725,2.7,1.414,5.415,1.377,5.425,2.582,10.892c1.611,7.288,3,14.624,3.931,22.042a.325.325,0,0,1-.642.1l0-.01c-.664-3.651-1.4-7.3-2.2-10.933q-1.181-5.452-2.489-10.876l-1.324-5.419-1.385-5.4q-.69-2.7-1.426-5.393l-.363-1.347c-.12-.449-.265-.875-.4-1.314s-.252-.877-.408-1.3l-.476-1.282a38.114,38.114,0,0,0-5.357-9.5,42.123,42.123,0,0,0-3.625-4.12l-.483-.49-.5-.471c-.336-.312-.664-.633-1.006-.939-.693-.6-1.38-1.212-2.106-1.777a56.882,56.882,0,0,0-9.274-5.994,59.16,59.16,0,0,0-10.235-4.241l-.016,0a.261.261,0,0,1,.14-.5Z" transform="translate(-649.105 -1753.059)" fill="#fff" opacity="0.5"/>
      </g>
      <g id="Group_306" data-name="Group 306" transform="translate(0 71.192)">
        <path id="Path_324" data-name="Path 324" d="M526.768,2358.11c6.154,9.036,5.364,14.091,5.553,18.373.033.76.075,1.835.163,3.1h1.681a36.836,36.836,0,0,1-.674-5.224c-.6-11.826-3.266-32.011-13.465-44.085s-21.367-13.176-35.439-2.2c-11.727,9.147-19.042,13.763-23.333,14.622a1.621,1.621,0,0,0-1.087,2.364c2.752,5.067,10.531,16.706,23.593,15.887C500.421,2359.906,520.613,2349.075,526.768,2358.11Z" transform="translate(-459.969 -2320.49)" fill="#91b3fa"/>
        <path id="Path_325" data-name="Path 325" d="M724.675,2449.684a33.522,33.522,0,0,1,2.906-2.431c1.007-.761,2.045-1.485,3.126-2.146a31.332,31.332,0,0,1,6.9-3.247,21.656,21.656,0,0,1,3.775-.849A16.13,16.13,0,0,1,745.3,2441c.325.053.654.084.976.156s.651.137.961.226l1.837.57,1.8.7,1.742.837a21.931,21.931,0,0,1,6.068,4.744,27.261,27.261,0,0,1,4.2,6.39l.419.857c.144.283.248.584.374.875.237.588.492,1.168.713,1.761L765,2459.9c.219.593.359,1.21.536,1.815a66.08,66.08,0,0,1,1.595,7.368.253.253,0,0,1-.5.1l0-.008c-.587-2.424-1.151-4.852-1.958-7.2-.366-1.187-.83-2.334-1.262-3.493-.233-.572-.5-1.129-.745-1.694-.13-.279-.24-.569-.387-.839l-.429-.817a27.757,27.757,0,0,0-4.163-6.005,21.348,21.348,0,0,0-5.748-4.386l-1.643-.779-1.7-.651-1.749-.532c-.29-.083-.575-.137-.863-.208s-.583-.1-.874-.146a14.658,14.658,0,0,0-3.566-.009,20.383,20.383,0,0,0-3.549.72,34.1,34.1,0,0,0-6.758,2.879c-1.079.6-2.147,1.227-3.185,1.906s-2.056,1.4-3.03,2.151l-.006,0a.263.263,0,0,1-.343-.4Z" transform="translate(-695.29 -2427.552)" fill="#fff" opacity="0.5"/>
      </g>
    </g>
    <g id="Group_321" data-name="Group 321" transform="translate(65.762 19.136)">
      <path id="Path_326" data-name="Path 326" d="M1066.328,927.249a16.763,16.763,0,0,1,16.763-16.764h142.557A14.769,14.769,0,0,1,1240.4,924.5l10.523,206.681a10.891,10.891,0,0,1-10.679,11.443l-163.388,2.969a10.338,10.338,0,0,1-10.526-10.336Z" transform="translate(-1066.328 -879.183)" fill="url(#linear-gradient-9)"/>
      <g id="Group_320" data-name="Group 320" transform="translate(11.679 29.582)">
        <path id="Path_327" data-name="Path 327" d="M1171.794,899.851a4.869,4.869,0,0,1,5.523-4.857c19.468,2.64,86.411,10.8,141.759,6.556a4.5,4.5,0,0,1,4.849,4.247l11.034,207.6a5.181,5.181,0,0,1-4.868,5.449c-23.279,1.378-119.146,6.7-153.341,3.121a4.1,4.1,0,0,1-3.673-4.063Z" transform="translate(-1171.794 -894.949)" fill="#91b3fa"/>
        <path id="Path_328" data-name="Path 328" d="M1192.5,948.314a4.686,4.686,0,0,1,5.315-4.674c18.734,2.54,83.157,10.4,136.421,6.309a4.333,4.333,0,0,1,4.666,4.087l10.618,199.785a4.986,4.986,0,0,1-4.685,5.244c-22.4,1.326-114.66,6.451-147.567,3a3.951,3.951,0,0,1-3.535-3.91Z" transform="translate(-1190.209 -938.21)" fill="#fff" opacity="0.6"/>
        <path id="Path_329" data-name="Path 329" d="M1349.092,1100.962l1.99,42.832a2.723,2.723,0,0,0,2.642,2.6c7.932.224,32.651.827,46.608.1a3.041,3.041,0,0,0,2.88-2.94c.266-8.032.849-31.412-.982-41.185a3.432,3.432,0,0,0-3.258-2.792l-46.887-1.64A2.9,2.9,0,0,0,1349.092,1100.962Z" transform="translate(-1329.456 -1075.455)" fill="#fff" opacity="0.78"/>
        <circle id="Ellipse_8" data-name="Ellipse 8" cx="9.208" cy="9.208" r="9.208" transform="translate(35.539 47.666) rotate(-76.717)" fill="url(#linear-gradient-10)"/>
        <path id="Path_330" data-name="Path 330" d="M1447.371,1404.286H1476.7a2.271,2.271,0,0,0,1.908-3.5c-2.492-3.9-7.7-9.627-16.733-9.368a20.45,20.45,0,0,0-16.452,9.133A2.374,2.374,0,0,0,1447.371,1404.286Z" transform="translate(-1414.741 -1336.432)" fill="url(#linear-gradient-11)"/>
        <g id="Group_308" data-name="Group 308" transform="translate(84.236 25.416)" opacity="0.6">
          <path id="Path_331" data-name="Path 331" d="M1985.193,1128.285a1.517,1.517,0,0,0,1.628-1.437,1.663,1.663,0,0,0-1.712-1.467l-51.415-.916a1.085,1.085,0,0,0-1.115,1.546l.246.7a2.533,2.533,0,0,0,2.225,1.575Z" transform="translate(-1932.49 -1124.465)" fill="#fff"/>
        </g>
        <g id="Group_309" data-name="Group 309" transform="translate(84.236 33.4)" opacity="0.6">
          <path id="Path_332" data-name="Path 332" d="M1933.694,1196.572a1.085,1.085,0,0,0-1.115,1.546l.246.7a2.533,2.533,0,0,0,2.225,1.576h50.142a1.518,1.518,0,0,0,1.628-1.437,1.663,1.663,0,0,0-1.712-1.467Z" transform="translate(-1932.49 -1196.572)" fill="#fff"/>
        </g>
        <g id="Group_310" data-name="Group 310" transform="translate(84.236 41.501)" opacity="0.6">
          <path id="Path_333" data-name="Path 333" d="M1933.694,1269.728a1.085,1.085,0,0,0-1.115,1.546l.246.7a2.532,2.532,0,0,0,2.225,1.576h50.142a1.517,1.517,0,0,0,1.628-1.437,1.663,1.663,0,0,0-1.712-1.467Z" transform="translate(-1932.49 -1269.728)" fill="#fff"/>
        </g>
        <g id="Group_311" data-name="Group 311" transform="translate(20.367 80.552)" opacity="0.6">
          <path id="Path_334" data-name="Path 334" d="M1477.283,1626.21a1.453,1.453,0,0,0,1.575-1.437,1.719,1.719,0,0,0-1.765-1.45l-120.451-.949c-.919-.007-1.2.575-.63,1.293l.984,1.236a3.934,3.934,0,0,0,2.711,1.307Z" transform="translate(-1355.716 -1622.373)" fill="#fff"/>
        </g>
        <g id="Group_312" data-name="Group 312" transform="translate(20.367 88.537)" opacity="0.6">
          <path id="Path_335" data-name="Path 335" d="M1356.642,1694.48c-.919-.007-1.2.575-.63,1.294l.984,1.236a3.934,3.934,0,0,0,2.711,1.307h117.576a1.453,1.453,0,0,0,1.575-1.437,1.719,1.719,0,0,0-1.765-1.45Z" transform="translate(-1355.716 -1694.48)" fill="#fff"/>
        </g>
        <path id="Path_336" data-name="Path 336" d="M1344.9,1811.929c2.9-.222,8.32-.325,11.3-.367a2.706,2.706,0,0,1,2.671,2.069,44.1,44.1,0,0,1,1.271,10.931,2.4,2.4,0,0,1-2.424,2.353l-11.017-.119a2.645,2.645,0,0,1-2.606-2.4l-.969-10.364A1.927,1.927,0,0,1,1344.9,1811.929Z" transform="translate(-1324.147 -1710.06)" fill="url(#linear-gradient-12)"/>
        <g id="Group_313" data-name="Group 313" transform="translate(39.683 106.123)" opacity="0.6">
          <path id="Path_337" data-name="Path 337" d="M1531.589,1853.3a1.329,1.329,0,0,0-1.421,1.582l.267,1.776a2.007,2.007,0,0,0,1.918,1.652h26.756a1.65,1.65,0,0,0,1.65-1.67l-.006-.452a1.789,1.789,0,0,0-1.69-1.74Z" transform="translate(-1530.15 -1853.294)" fill="#fff"/>
        </g>
        <path id="Path_338" data-name="Path 338" d="M1886.893,1811.929c2.9-.222,8.319-.325,11.3-.367a2.706,2.706,0,0,1,2.671,2.069,44.108,44.108,0,0,1,1.271,10.931,2.4,2.4,0,0,1-2.424,2.353l-11.017-.119a2.645,2.645,0,0,1-2.605-2.4l-.969-10.364A1.927,1.927,0,0,1,1886.893,1811.929Z" transform="translate(-1806.125 -1710.06)" fill="url(#linear-gradient-13)"/>
        <g id="Group_314" data-name="Group 314" transform="translate(99.702 106.123)" opacity="0.6">
          <path id="Path_339" data-name="Path 339" d="M2073.586,1853.3a1.329,1.329,0,0,0-1.421,1.582l.267,1.776a2.007,2.007,0,0,0,1.918,1.652h26.757a1.65,1.65,0,0,0,1.649-1.67l-.006-.452a1.789,1.789,0,0,0-1.69-1.74Z" transform="translate(-2072.147 -1853.294)" fill="#fff"/>
        </g>
        <g id="Group_319" data-name="Group 319" transform="translate(22.407 125.613)">
          <path id="Path_340" data-name="Path 340" d="M1388.025,2074.422H1388l-10.166-.1a2.732,2.732,0,0,1-2.789-2.324l-.894-8.53a1.854,1.854,0,0,1,.438-1.394,2.232,2.232,0,0,1,1.555-.768h0c.856-.058,2.063-.161,3.34-.27,2.689-.229,6.035-.513,7.918-.537a2.842,2.842,0,0,1,2.847,1.991c.53,1.958.483,5.665.382,9.613A2.512,2.512,0,0,1,1388.025,2074.422Zm-11.83-12.334a1.446,1.446,0,0,0-1.011.491,1.078,1.078,0,0,0-.259.81l.894,8.53a1.956,1.956,0,0,0,2.02,1.625l10.166.1h.02a1.732,1.732,0,0,0,1.823-1.555c.1-3.889.146-7.532-.356-9.389a2.1,2.1,0,0,0-2.083-1.414c-1.855.023-5.185.307-7.861.535-1.28.109-2.49.212-3.353.271Z" transform="translate(-1374.139 -2057.046)" fill="#fff"/>
          <path id="Path_341" data-name="Path 341" d="M1392.065,2077.6c2.135-.146,6.777-.617,8.979-.645a1.968,1.968,0,0,1,1.97,1.361c.425,1.571.369,4.7.295,7.593a1.691,1.691,0,0,1-1.788,1.547l-8.124-.078a1.877,1.877,0,0,1-1.922-1.578l-.714-6.816A1.32,1.32,0,0,1,1392.065,2077.6Z" transform="translate(-1388.915 -2071.677)" fill="#fff" opacity="0.6"/>
          <g id="Group_315" data-name="Group 315" transform="translate(22.73 8.544)" opacity="0.6">
            <path id="Path_342" data-name="Path 342" d="M1579.491,2109.623a2.524,2.524,0,0,0,2.462,1.88l94.06-.8a1.909,1.909,0,0,0-.008-3.817l-94.062-.429A2.524,2.524,0,0,0,1579.491,2109.623Z" transform="translate(-1579.406 -2106.455)" fill="#fff"/>
          </g>
          <path id="Path_343" data-name="Path 343" d="M1400.029,2036.557h0a1.56,1.56,0,0,1,2.152.586l2.005,3.594a.5.5,0,0,0,.895-.039l4.973-11.072a.555.555,0,0,1,1.062.24,21.859,21.859,0,0,1-6.361,15.213s-2.982-1.159-5.384-6.433A1.637,1.637,0,0,1,1400.029,2036.557Z" transform="translate(-1396.446 -2029.297)" fill="url(#linear-gradient-14)"/>
          <path id="Path_344" data-name="Path 344" d="M1388.025,2271.177H1388l-10.166-.1a2.732,2.732,0,0,1-2.789-2.324l-.894-8.529a1.854,1.854,0,0,1,.438-1.394,2.23,2.23,0,0,1,1.555-.768h0c.856-.059,2.063-.161,3.34-.27,2.689-.229,6.035-.514,7.918-.537h.041a2.835,2.835,0,0,1,2.806,1.992c.53,1.958.483,5.664.382,9.613A2.512,2.512,0,0,1,1388.025,2271.177Zm-11.83-12.334a1.446,1.446,0,0,0-1.011.491,1.078,1.078,0,0,0-.259.81l.894,8.53a1.955,1.955,0,0,0,2.02,1.625l10.166.1h.02a1.732,1.732,0,0,0,1.823-1.555c.1-3.889.146-7.533-.356-9.39a2.087,2.087,0,0,0-2.083-1.414c-1.855.023-5.185.307-7.861.535-1.28.109-2.49.212-3.353.271Z" transform="translate(-1374.139 -2232.013)" fill="#fff"/>
          <path id="Path_345" data-name="Path 345" d="M1392.065,2274.357c2.135-.146,6.777-.617,8.979-.645a1.968,1.968,0,0,1,1.97,1.36c.425,1.571.369,4.7.295,7.593a1.692,1.692,0,0,1-1.788,1.547l-8.124-.078a1.877,1.877,0,0,1-1.922-1.578l-.714-6.816A1.319,1.319,0,0,1,1392.065,2274.357Z" transform="translate(-1388.915 -2246.647)" fill="#fff" opacity="0.6"/>
          <g id="Group_316" data-name="Group 316" transform="translate(22.73 30.332)" opacity="0.6">
            <path id="Path_346" data-name="Path 346" d="M1579.491,2306.381a2.524,2.524,0,0,0,2.462,1.88l94.06-.8a1.909,1.909,0,0,0-.008-3.817l-94.062-.429A2.524,2.524,0,0,0,1579.491,2306.381Z" transform="translate(-1579.406 -2303.213)" fill="#fff"/>
          </g>
          <path id="Path_347" data-name="Path 347" d="M1400.029,2233.315h0a1.56,1.56,0,0,1,2.152.585l2.005,3.594a.5.5,0,0,0,.895-.039l4.973-11.072a.555.555,0,0,1,1.062.24,21.86,21.86,0,0,1-6.361,15.213s-2.982-1.159-5.384-6.433A1.636,1.636,0,0,1,1400.029,2233.315Z" transform="translate(-1396.446 -2204.267)" fill="url(#linear-gradient-15)"/>
          <path id="Path_348" data-name="Path 348" d="M1388.025,2467.934H1388l-10.166-.1a2.732,2.732,0,0,1-2.789-2.324l-.894-8.529a1.855,1.855,0,0,1,.438-1.395,2.233,2.233,0,0,1,1.555-.768h0c.856-.058,2.063-.161,3.34-.27,2.689-.229,6.035-.514,7.918-.537h.041a2.835,2.835,0,0,1,2.806,1.992c.53,1.958.483,5.664.382,9.613A2.512,2.512,0,0,1,1388.025,2467.934ZM1376.2,2455.6a1.446,1.446,0,0,0-1.011.491,1.079,1.079,0,0,0-.259.81l.894,8.53a1.955,1.955,0,0,0,2.02,1.625l10.166.1h.02a1.732,1.732,0,0,0,1.823-1.556c.1-3.889.146-7.532-.356-9.39a2.083,2.083,0,0,0-2.083-1.414c-1.855.023-5.185.307-7.861.535-1.28.109-2.49.212-3.353.271Z" transform="translate(-1374.139 -2406.982)" fill="#fff"/>
          <path id="Path_349" data-name="Path 349" d="M1392.065,2471.114c2.135-.146,6.777-.617,8.979-.645a1.969,1.969,0,0,1,1.97,1.361c.425,1.571.369,4.7.295,7.593a1.691,1.691,0,0,1-1.788,1.547l-8.124-.078a1.877,1.877,0,0,1-1.922-1.578l-.714-6.816A1.319,1.319,0,0,1,1392.065,2471.114Z" transform="translate(-1388.915 -2421.615)" fill="#fff" opacity="0.6"/>
          <g id="Group_317" data-name="Group 317" transform="translate(22.73 52.121)" opacity="0.6">
            <path id="Path_350" data-name="Path 350" d="M1579.491,2503.139a2.524,2.524,0,0,0,2.462,1.88l94.06-.8a1.909,1.909,0,0,0-.008-3.817l-94.062-.429A2.524,2.524,0,0,0,1579.491,2503.139Z" transform="translate(-1579.406 -2499.971)" fill="#fff"/>
          </g>
          <path id="Path_351" data-name="Path 351" d="M1400.029,2430.073h0a1.56,1.56,0,0,1,2.152.586l2.005,3.594a.5.5,0,0,0,.895-.039l4.973-11.072a.555.555,0,0,1,1.062.24,21.859,21.859,0,0,1-6.361,15.213s-2.982-1.159-5.384-6.433A1.637,1.637,0,0,1,1400.029,2430.073Z" transform="translate(-1396.446 -2379.237)" fill="url(#linear-gradient-16)"/>
          <path id="Path_352" data-name="Path 352" d="M1388.025,2664.692H1388l-10.166-.1a2.732,2.732,0,0,1-2.789-2.324l-.894-8.529a1.854,1.854,0,0,1,.438-1.394,2.234,2.234,0,0,1,1.555-.768h0c.856-.058,2.063-.161,3.34-.27,2.689-.229,6.035-.514,7.918-.538h.041a2.835,2.835,0,0,1,2.806,1.992c.53,1.958.483,5.664.382,9.613A2.512,2.512,0,0,1,1388.025,2664.692Zm-11.83-12.334a1.446,1.446,0,0,0-1.011.491,1.08,1.08,0,0,0-.259.811l.894,8.53a1.955,1.955,0,0,0,2.02,1.625l10.166.1h.02a1.732,1.732,0,0,0,1.823-1.556c.1-3.889.146-7.532-.356-9.389a2.079,2.079,0,0,0-2.083-1.414c-1.855.023-5.185.307-7.861.535-1.28.109-2.49.212-3.353.271Z" transform="translate(-1374.139 -2581.951)" fill="#fff"/>
          <path id="Path_353" data-name="Path 353" d="M1392.065,2667.872c2.135-.146,6.777-.617,8.979-.645a1.968,1.968,0,0,1,1.97,1.361c.425,1.571.369,4.7.295,7.592a1.692,1.692,0,0,1-1.788,1.547l-8.124-.078a1.877,1.877,0,0,1-1.922-1.578l-.714-6.816A1.32,1.32,0,0,1,1392.065,2667.872Z" transform="translate(-1388.915 -2596.585)" fill="#fff" opacity="0.6"/>
          <g id="Group_318" data-name="Group 318" transform="translate(22.73 73.909)" opacity="0.6">
            <path id="Path_354" data-name="Path 354" d="M1579.491,2699.9h0a2.524,2.524,0,0,0,2.462,1.88l94.06-.8a1.909,1.909,0,0,0-.008-3.817l-94.062-.429A2.524,2.524,0,0,0,1579.491,2699.9Z" transform="translate(-1579.406 -2696.729)" fill="#fff"/>
          </g>
          <path id="Path_355" data-name="Path 355" d="M1400.029,2626.831h0a1.56,1.56,0,0,1,2.152.585l2.005,3.594a.5.5,0,0,0,.895-.039l4.973-11.072a.555.555,0,0,1,1.062.24,21.859,21.859,0,0,1-6.361,15.213s-2.982-1.159-5.384-6.433A1.637,1.637,0,0,1,1400.029,2626.831Z" transform="translate(-1396.446 -2554.206)" fill="url(#linear-gradient-17)"/>
        </g>
      </g>
      <path id="Path_356" data-name="Path 356" d="M1802.543,630.932c-5.149-3.582-9.627-3.511-12.779-2.581a6.287,6.287,0,0,0-4.465,6.61l1.359,14.837,16.175,1.435S1812.641,637.957,1802.543,630.932Zm-7.113,11.97a4.033,4.033,0,1,1,4.033-4.033A4.033,4.033,0,0,1,1795.43,642.9Z" transform="translate(-1705.659 -627.809)" fill="url(#linear-gradient-18)"/>
      <path id="Path_357" data-name="Path 357" d="M1804.331,661a.39.39,0,0,1-.388-.355l-.216-2.363a.39.39,0,1,1,.777-.071l.216,2.363a.39.39,0,0,1-.353.424Zm-.424-4.63a.391.391,0,0,1-.388-.355l-.164-1.794a6,6,0,0,1,4.255-6.3,12.089,12.089,0,0,1,5.912-.243.39.39,0,1,1-.157.765,11.33,11.33,0,0,0-5.534.227,5.219,5.219,0,0,0-3.7,5.477l.164,1.794a.39.39,0,0,1-.353.424Z" transform="translate(-1721.716 -645.255)" fill="#fff"/>
      <path id="Path_358" data-name="Path 358" d="M1598.432,816.495v-7.459a4.552,4.552,0,0,1,4.708-4.549l51.429,1.762a4.427,4.427,0,0,1,4.268,4.159l.43,7.167Z" transform="translate(-1539.509 -784.919)" fill="url(#linear-gradient-19)"/>
      <path id="Path_359" data-name="Path 359" d="M1750.71,823.621H1748.5a.39.39,0,1,1,0-.781h2.212a.39.39,0,0,1,0,.781Z" transform="translate(-1672.611 -801.243)" fill="#fff"/>
      <path id="Path_360" data-name="Path 360" d="M1620.435,830.476a.39.39,0,0,1-.39-.39v-3.018a4.233,4.233,0,0,1,4.228-4.228h8.131a.39.39,0,0,1,0,.781h-8.131a3.452,3.452,0,0,0-3.448,3.448v3.018A.39.39,0,0,1,1620.435,830.476Z" transform="translate(-1558.729 -801.243)" fill="#fff"/>
      <path id="Path_361" data-name="Path 361" d="M2076.295,1007.931l-12.107-9.872-12.107,9.872a207.406,207.406,0,0,0,.9-30.888q-.244-5.371-.736-10.4a1.532,1.532,0,0,1,1.527-1.679h21.066a1.532,1.532,0,0,1,1.531,1.451q.4,7.715.5,15.957C2076.971,991.332,2076.747,999.866,2076.295,1007.931Z" transform="translate(-1942.923 -927.631)" fill="url(#linear-gradient-20)"/>
      <path id="Path_362" data-name="Path 362" d="M1407.569,892.89a4.846,4.846,0,0,1,4.841-4.614l89.933,0a6.647,6.647,0,0,1,6.55,5.513l.076.44a5.708,5.708,0,0,1-5.625,6.682h-92.266a3.711,3.711,0,0,1-3.707-3.89Z" transform="translate(-1369.6 -859.431)" fill="url(#linear-gradient-21)"/>
    </g>
    <g id="Group_325" data-name="Group 325" transform="translate(43.385 109.795)">
      <path id="Path_383" data-name="Path 383" d="M1055.582,1447.055l-1.744,2.209-.007.008a.371.371,0,0,1-.583-.46l.005-.007,1.81-2.182a.337.337,0,0,1,.525.424Z" transform="translate(-1030.865 -1446.501)" fill="#fff"/>
      <path id="Path_384" data-name="Path 384" d="M990.271,1518.351l-2.957,4.718-.014.022a.511.511,0,0,1-.866-.543l.005-.008,3.076-4.7a.457.457,0,0,1,.77.492Z" transform="translate(-971.451 -1509.755)" fill="#fff"/>
      <path id="Path_385" data-name="Path 385" d="M935.276,1616.592l-2.372,5.03-.014.03a.625.625,0,1,1-1.13-.533l0-.01,2.489-5.045a.575.575,0,0,1,1.035.5Z" transform="translate(-922.848 -1597.004)" fill="#fff"/>
      <path id="Path_386" data-name="Path 386" d="M893.233,1721.22l-1.721,5.279-.013.04a.738.738,0,1,1-1.4-.458l0-.012,1.841-5.324a.688.688,0,0,1,1.3.438Z" transform="translate(-885.817 -1689.965)" fill="#fff"/>
      <path id="Path_387" data-name="Path 387" d="M865.761,1830.927l-1.027,5.449-.009.048a.821.821,0,1,1-1.614-.3l0-.009,1.1-5.531a.791.791,0,0,1,1.553.3Z" transform="translate(-861.84 -1787.483)" fill="#fff"/>
      <path id="Path_388" data-name="Path 388" d="M853.807,1944.263l-.272,5.533,0,.054a.891.891,0,0,1-1.779-.087v-.01l.338-5.635a.86.86,0,0,1,1.718.093Z" transform="translate(-851.752 -1888.294)" fill="#fff"/>
      <path id="Path_389" data-name="Path 389" d="M854.2,2058.929l.491,5.515.005.057a.96.96,0,0,1-1.913.17v-.01l-.44-5.633a.929.929,0,0,1,1.852-.155Z" transform="translate(-852.276 -1990.308)" fill="#fff"/>
      <path id="Path_390" data-name="Path 390" d="M867.707,2172.743l1.239,5.393.014.06a1.03,1.03,0,0,1-2.007.461l0-.011-1.207-5.524a1,1,0,0,1,1.949-.437Z" transform="translate(-864.175 -2091.581)" fill="#fff"/>
      <path id="Path_391" data-name="Path 391" d="M896.631,2283.558l1.933,5.183.022.058a1.082,1.082,0,0,1-2.028.757l0-.005-1.95-5.309a1.068,1.068,0,1,1,2.005-.737Z" transform="translate(-889.802 -2190.196)" fill="#fff"/>
      <path id="Path_392" data-name="Path 392" d="M940.365,2389.874l2.584,4.891.029.054a1.105,1.105,0,0,1-1.955,1.033l0,0-2.624-5.009a1.1,1.1,0,1,1,1.94-1.016Z" transform="translate(-928.692 -2284.841)" fill="#fff"/>
      <path id="Path_393" data-name="Path 393" d="M997.427,2489.717l3.179,4.528.035.051a1.128,1.128,0,0,1-1.847,1.3l0,0-3.232-4.64a1.118,1.118,0,1,1,1.835-1.278Z" transform="translate(-979.456 -2373.728)" fill="#fff"/>
      <path id="Path_394" data-name="Path 394" d="M1066.563,2581.6l3.719,4.093.043.047a1.151,1.151,0,0,1-1.7,1.548l0,0-3.789-4.2a1.141,1.141,0,0,1,1.695-1.529Z" transform="translate(-1040.972 -2455.527)" fill="#fff"/>
      <path id="Path_395" data-name="Path 395" d="M1146.732,2663.984l4.216,3.568.054.046a1.174,1.174,0,0,1-1.517,1.792l0,0-4.31-3.674a1.164,1.164,0,0,1,1.511-1.771Z" transform="translate(-1112.317 -2528.88)" fill="#fff"/>
      <path id="Path_396" data-name="Path 396" d="M1237.2,2734.834l2.338,1.458,1.168.729c.392.239.773.5,1.175.718a1.2,1.2,0,1,1-1.157,2.1l0,0-.032-.018c-.414-.23-.806-.5-1.209-.744l-1.2-.755-2.4-1.511a1.187,1.187,0,1,1,1.264-2.009Z" transform="translate(-1192.848 -2591.973)" fill="#fff"/>
      <path id="Path_397" data-name="Path 397" d="M1337.7,2791.043q2.5,1.144,5.084,2.117a1.2,1.2,0,0,1-.847,2.255q-2.657-.995-5.243-2.171a1.21,1.21,0,0,1,1.006-2.2Z" transform="translate(-1282.365 -2642.056)" fill="#fff"/>
      <path id="Path_398" data-name="Path 398" d="M1445.666,2830.577l5.354,1.328.072.018a1.188,1.188,0,0,1-.568,2.306l-5.5-1.35a1.195,1.195,0,1,1,.569-2.321h0Z" transform="translate(-1378.514 -2677.262)" fill="#fff"/>
      <path id="Path_399" data-name="Path 399" d="M1558.651,2853.9l5.495.584.066.007a1.169,1.169,0,0,1-.244,2.326l-5.63-.58a1.179,1.179,0,0,1,.241-2.345h0Z" transform="translate(-1479.153 -2698.037)" fill="#fff"/>
      <path id="Path_400" data-name="Path 400" d="M1673.909,2861.416l5.533-.09h.058a1.122,1.122,0,0,1,.045,2.243l-5.65.134a1.143,1.143,0,1,1-.054-2.285h.068Z" transform="translate(-1581.814 -2704.653)" fill="#fff"/>
      <path id="Path_401" data-name="Path 401" d="M1789.435,2850.753l5.5-.712.05-.006a1.072,1.072,0,0,1,.284,2.125l-5.592.769a1.094,1.094,0,0,1-.3-2.168h.009Z" transform="translate(-1684.706 -2694.604)" fill="#fff"/>
      <path id="Path_402" data-name="Path 402" d="M1903.83,2828.359l5.4-1.259.041-.01a.978.978,0,0,1,.458,1.9l-5.469,1.359a1.02,1.02,0,0,1-.492-1.979l.01,0Z" transform="translate(-1786.588 -2674.187)" fill="#fff"/>
      <path id="Path_403" data-name="Path 403" d="M2015.959,2795l5.265-1.773.034-.011a.884.884,0,0,1,.577,1.672l-5.308,1.875a.926.926,0,1,1-.617-1.746l.008,0Z" transform="translate(-1886.447 -2644.044)" fill="#fff"/>
      <path id="Path_404" data-name="Path 404" d="M2124.8,2751.671l5.09-2.242.028-.012a.79.79,0,0,1,.648,1.441l-5.113,2.343a.831.831,0,1,1-.693-1.512l.007,0Z" transform="translate(-1983.361 -2605.077)" fill="#fff"/>
      <path id="Path_405" data-name="Path 405" d="M2229.848,2699.7l4.9-2.648.021-.011a.647.647,0,0,1,.628,1.13l-4.876,2.79a.714.714,0,1,1-.709-1.24l.012-.007Z" transform="translate(-2076.889 -2558.489)" fill="#fff"/>
      <path id="Path_406" data-name="Path 406" d="M2330.7,2639.556l4.673-3.041.014-.009a.493.493,0,0,1,.548.819l-4.629,3.173a.56.56,0,1,1-.634-.924l.009-.006Z" transform="translate(-2166.683 -2504.658)" fill="#fff"/>
      <path id="Path_407" data-name="Path 407" d="M2426.933,2585.684l2.258-1.691,0,0a.338.338,0,0,1,.413.534l-2.212,1.771a.383.383,0,1,1-.479-.6l.008-.007Z" transform="translate(-2252.362 -2457.968)" fill="#fff"/>
    </g>
    <g id="Group_346" data-name="Group 346" transform="translate(203.149 121.913)">
      <path id="Path_445" data-name="Path 445" d="M2643.892,3127.6s.568,3.216.846,6.4a2.193,2.193,0,0,1-2.1,2.376c-4.239.177-13.307.52-16.561.375a.714.714,0,0,1-.628-.978h0a1.6,1.6,0,0,1,.817-.861l14.978-6.884Z" transform="translate(-2593.932 -2973.481)" fill="url(#linear-gradient-22)"/>
      <path id="Path_446" data-name="Path 446" d="M2776.262,3102.453l-.457,3.847s-2.624,1.221-4.416-.154l1.087-4.287Z" transform="translate(-2725.837 -2950.224)" fill="url(#linear-gradient-23)"/>
      <path id="Path_447" data-name="Path 447" d="M2778.873,2358.441c.2,1,1.058,50.126-4.193,72.139a.747.747,0,0,0,.438.869,13.007,13.007,0,0,0,4.276.869,1.287,1.287,0,0,0,1.277-.924c1.5-5.107,8.693-30.7,9.631-55.142,1.048-27.314,0-.93,0-.93l-.615-16.884Z" transform="translate(-2728.791 -2278.527)" fill="url(#linear-gradient-24)"/>
      <path id="Path_448" data-name="Path 448" d="M2939.38,3144.99a23.145,23.145,0,0,1,1.779,5.937,1.338,1.338,0,0,1-1.177,1.6c-1.4.138-3.555.315-5.281.3a1.334,1.334,0,0,1-1.321-1.488,11.253,11.253,0,0,1,2.627-6.172Z" transform="translate(-2872.19 -2989.194)" fill="url(#linear-gradient-25)"/>
      <path id="Path_449" data-name="Path 449" d="M2964.495,3091.593l-1.067,5.817a3.761,3.761,0,0,1-3.14.216l.509-6.259Z" transform="translate(-2896.511 -2940.744)" fill="url(#linear-gradient-26)"/>
      <path id="Path_450" data-name="Path 450" d="M2835.05,2348.625c4.294,25.917-.932,64.056-2.694,71.521a1.165,1.165,0,0,1-.94.884,7.817,7.817,0,0,1-3.359-.134,1.067,1.067,0,0,1-.767-.982c-.237-6.035.189-43.084-3.812-57.726a3.327,3.327,0,0,0-1.283-1.835l-7.766-5.521-.6-8.925Z" transform="translate(-2764.185 -2267.203)" fill="url(#linear-gradient-27)"/>
      <g id="Group_342" data-name="Group 342" transform="translate(5.487 12.383)">
        <path id="Path_451" data-name="Path 451" d="M2576.132,1845.374c12.87-.213,27.07,3.379,27.07,3.379,3.836,22.384.671,48.2.671,48.2-9.963,2.613-21.2-1.6-21.2-1.6-1.656-9.356-9.382-35.686-9.382-35.686a42.4,42.4,0,0,1-15.734-4.993,27.594,27.594,0,0,0,5.454-11.408A43.185,43.185,0,0,0,2576.132,1845.374Z" transform="translate(-2538.118 -1825.442)" fill="url(#linear-gradient-28)"/>
        <path id="Path_452" data-name="Path 452" d="M2356.093,1659.459a2.463,2.463,0,0,1,2.865-.8c1.894,8,11.824,14.486,22.026,17.657a27.594,27.594,0,0,1-5.454,11.408C2358.6,1678.2,2356.093,1659.459,2356.093,1659.459Z" transform="translate(-2356.093 -1658.484)" fill="url(#linear-gradient-29)"/>
      </g>
      <g id="Group_343" data-name="Group 343">
        <path id="Path_453" data-name="Path 453" d="M2305.018,1543.881c-.132.421,1.4,1.061,2.3-.659.031-.824.533-4.356.04-5.027a65.759,65.759,0,0,0-7.709-8.06,1.21,1.21,0,0,0-.151,1.681l2.467,2.57a11.948,11.948,0,0,0-1.441,2.848,3.458,3.458,0,0,0,.345,2.545c.433.78,1.024,1.795,1.583,2.588A3.414,3.414,0,0,0,2305.018,1543.881Z" transform="translate(-2299.225 -1530.135)" fill="url(#linear-gradient-30)"/>
        <path id="Path_454" data-name="Path 454" d="M2334.171,1591.491l2.249,1.906.706,1.9-2,2.224a25.866,25.866,0,0,0-1.175-4.58C2333.445,1592.123,2333.7,1591.729,2334.171,1591.491Z" transform="translate(-2330.35 -1585.572)" fill="url(#linear-gradient-31)"/>
      </g>
      <path id="Path_455" data-name="Path 455" d="M2979.532,1912.563l4.936-12.462s12.021,8.168,14,18.523a28.448,28.448,0,0,0-10.45,2.8C2987.127,1916.535,2979.532,1912.563,2979.532,1912.563Z" transform="translate(-2913.898 -1864.408)" fill="url(#linear-gradient-32)"/>
      <path id="Path_456" data-name="Path 456" d="M2853.92,2097.763s13.5,7.627,18.05,1.115a5.118,5.118,0,0,0,.939-3.978,28.441,28.441,0,0,1,10.45-2.8,14.291,14.291,0,0,1-1.553,9.8c-7.977,14.592-29.671-.806-29.671-.806Z" transform="translate(-2798.791 -2037.883)" fill="url(#linear-gradient-33)"/>
      <g id="Group_344" data-name="Group 344" transform="translate(23.426 41.67)">
        <path id="Path_457" data-name="Path 457" d="M2575.363,1989.909,2568,1964.186a.749.749,0,0,0-.634-.54c-1.335-.156-5.2-.593-9.667-.971a124.537,124.537,0,0,0-14.283-.579,1.447,1.447,0,0,0-1.222,2.092c2.67,5.37,10.38,20.626,14.539,26.25a1.457,1.457,0,0,0,1.187.586l16.729-.156A.753.753,0,0,0,2575.363,1989.909Z" transform="translate(-2542.038 -1962.049)" fill="url(#linear-gradient-34)"/>
        <path id="Path_458" data-name="Path 458" d="M2783.762,2104.274s1.026-4.219.612-5.716-1.216-3.421-3.889-2.994a39.123,39.123,0,0,0-5.826,1.554,1.53,1.53,0,0,0,2.191,1.321l-1.26.975s.18,1.561,1.9.727l-1.171,1.293a1.365,1.365,0,0,0,2,.46C2779.577,2101.071,2780.182,2104.782,2783.762,2104.274Z" transform="translate(-2752.217 -2082.629)" fill="url(#linear-gradient-35)"/>
      </g>
      <path id="Path_459" data-name="Path 459" d="M2807.177,1756.78l4.095,11.842a.427.427,0,0,1-.194.514,9.626,9.626,0,0,1-9.984-.672,2.009,2.009,0,0,1-.925-1.435l-1.326-10.25Z" transform="translate(-2750.64 -1734.914)" fill="url(#linear-gradient-36)"/>
      <g id="Group_345" data-name="Group 345" transform="translate(43.656 4.745)">
        <path id="Path_460" data-name="Path 460" d="M2755.691,1643.115s-4.5,8.464-3.92,11.884,6.149,3.174,11.016.4l3.4-9.14Z" transform="translate(-2751.72 -1636.961)" fill="url(#linear-gradient-37)"/>
        <path id="Path_461" data-name="Path 461" d="M2778.2,1593.27a.349.349,0,0,1-.152-.511,9.1,9.1,0,0,0,1.251-2.656s.808-.518-2.057-1.2-7.139-1.751-8.038-4.19c-.876-2.378,1.425-8.359,5.1-3.594a.349.349,0,0,0,.553,0,3.6,3.6,0,0,1,4.381-1.423,3.3,3.3,0,0,1,2.259,3.188.347.347,0,0,0,.411.355,4.024,4.024,0,0,1,4.7,2.19c.959,2.107.336,3.3-.232,3.884a.348.348,0,0,0,.149.578,2.094,2.094,0,0,1,1.477,2.389c-.122,2.212-2.6,2.017-3.3,1.917a.349.349,0,0,0-.31.11c-.6.668-3.324,3.506-6.269,3.848a.352.352,0,0,1-.369-.465l1.274-3.7a.35.35,0,0,0-.189-.434Z" transform="translate(-2767.351 -1579.323)" fill="url(#linear-gradient-38)"/>
        <path id="Path_462" data-name="Path 462" d="M2849.6,1719.141s3.2-2.2,3.436-.347-2.883,2.679-4.427,1.99Z" transform="translate(-2839.263 -1704.669)" fill="url(#linear-gradient-39)"/>
      </g>
    </g>
  </g>
</svg>
