<svg xmlns="http://www.w3.org/2000/svg" width="129.363" height="36.016" viewBox="0 0 129.363 36.016">
  <g id="status_-_interested" data-name="status - interested" transform="translate(-804 -17)">
    <g id="label_nofill" transform="translate(801.9 14)" fill="#42b0b8">
      <path d="M 120.7350006103516 38.01593780517578 L 4.994349956512451 38.00000762939453 C 4.448116779327393 38.00000762939453 4.016016960144043 37.83238983154297 3.6343834400177 37.47248840332031 C 3.269800186157227 37.1286735534668 3.100000143051147 36.74675750732422 3.100000143051147 36.27058792114258 L 3.100000143051147 5.729405879974365 C 3.100000143051147 5.253255844116211 3.269800186157227 4.871339321136475 3.634400129318237 4.527522563934326 C 4.016016960144043 4.167622566223145 4.448116779327393 4.000006198883057 4.994216918945312 4.000006198883057 L 120.734733581543 4.015955924987793 C 121.3018493652344 4.015955924987793 121.8143157958984 4.145272731781006 122.3015670776367 4.411289215087891 C 122.7787170410156 4.671815395355225 123.1750106811523 5.013773441314697 123.5104293823242 5.454868316650391 L 130.003173828125 19.82762336730957 L 130.0521240234375 19.93595695495605 L 130.1250762939453 20.02978897094727 C 130.3558959960938 20.32662200927734 130.4633941650391 20.63250541687012 130.4633941650391 20.99242210388184 C 130.4633941650391 21.35900688171387 130.3466339111328 21.69737243652344 130.1064300537109 22.0268726348877 L 130.045654296875 22.11023902893066 L 130.003173828125 22.20427322387695 L 123.5235443115234 36.54799270629883 C 123.1532897949219 36.975830078125 122.7254028320312 37.33344650268555 122.2500839233398 37.61209106445312 C 121.7865142822266 37.88383865356445 121.290885925293 38.01593780517578 120.73486328125 38.01593780517578 L 120.7350006103516 38.01593780517578 Z" stroke="none"/>
      <path d="M 120.7351379394531 37.01595306396484 L 120.7349014282227 37.01595306396484 C 121.1133575439453 37.01594543457031 121.4341354370117 36.93125152587891 121.7443542480469 36.7493896484375 C 122.0916748046875 36.54577255249023 122.3979187011719 36.29850006103516 122.6750106811523 35.99732971191406 L 129.1767883300781 21.60453605651855 L 129.2983551025391 21.43779182434082 C 129.4437866210938 21.23830032348633 129.4633941650391 21.10070037841797 129.4633941650391 20.99242782592773 C 129.4633941650391 20.87851905822754 129.4420318603516 20.78044509887695 129.3356628417969 20.64366340637207 L 129.1897125244141 20.45599174499512 L 122.6492080688477 5.9774489402771 C 122.4147415161133 5.690163612365723 122.1428604125977 5.463997364044189 121.8223876953125 5.289009094238281 C 121.4858474731445 5.105281829833984 121.1300964355469 5.015954494476318 120.7345886230469 5.015954494476318 L 4.994209289550781 5.000009059906006 C 4.703972816467285 5.000009059906006 4.515081882476807 5.071517944335938 4.320499897003174 5.254991054534912 C 4.135154724121094 5.429809093475342 4.100009441375732 5.556591033935547 4.100009441375732 5.729409217834473 L 4.100009441375732 36.27059173583984 C 4.100009441375732 36.44340896606445 4.135154724121094 36.5701904296875 4.32046365737915 36.74495315551758 C 4.515081882476807 36.92850112915039 4.703990936279297 37.00000762939453 4.994482040405273 37.00000762939453 L 120.7351379394531 37.01595306396484 M 120.73486328125 39.01595306396484 L 4.994209289550781 39.00000762939453 C 4.195809364318848 39.00000762939453 3.513845682144165 38.73333740234375 2.948300123214722 38.20000839233398 C 2.382772922515869 37.66666412353516 2.100009202957153 37.02353668212891 2.100009202957153 36.27059173583984 L 2.100009202957153 5.729409217834473 C 2.100009202957153 4.976463794708252 2.382772922515869 4.333336353302002 2.948300123214722 3.799990892410278 C 3.513845682144165 3.266663551330566 4.195809364318848 3.000009059906006 4.994209289550781 3.000009059906006 L 120.73486328125 3.015954494476318 C 121.4667358398438 3.015954494476318 122.148681640625 3.188499927520752 122.7807693481445 3.533590793609619 C 123.412841796875 3.878700017929077 123.9450988769531 4.349281787872314 124.377571105957 4.945354461669922 L 130.9145050048828 19.41595458984375 C 131.2804260253906 19.88653564453125 131.4633941650391 20.41202735900879 131.4633941650391 20.99242782592773 C 131.4633941650391 21.57280921936035 131.2804260253906 22.11399078369141 130.9145050048828 22.6159553527832 L 124.377571105957 37.0865364074707 C 123.9118423461914 37.6512451171875 123.3712463378906 38.11399078369141 122.7558059692383 38.47477340698242 C 122.1403884887695 38.83555603027344 121.4667358398438 39.01595306396484 120.73486328125 39.01595306396484 Z" stroke="none" fill="#42b0b8"/>
    </g>
    <text id="If_interested" data-name="If interested" transform="translate(814 42)" fill="#fff" font-size="20" font-family="Barlow-Medium, Barlow" font-weight="500"><tspan x="0" y="0">if interested</tspan></text>
  </g>
</svg>
