<svg xmlns="http://www.w3.org/2000/svg" width="80.828" height="36.8" viewBox="0 0 80.828 36.8">
  <g id="status_-_sent" data-name="status - sent" transform="translate(-837.172 -16.2)">
    <g id="label_nofill" transform="translate(801.9 14)" fill="#6650b3">
      <path d="M 105.377326965332 37.99999618530273 L 38.17832565307617 37.20006561279297 L 38.17238235473633 37.20000076293945 L 38.16642761230469 37.20000076293945 C 37.62032699584961 37.20000076293945 37.18823623657227 37.03237915039062 36.80661392211914 36.67248916625977 C 36.44202423095703 36.32865524291992 36.272216796875 35.94674301147461 36.272216796875 35.47058868408203 L 36.272216796875 4.9294114112854 C 36.272216796875 4.453256130218506 36.44202423095703 4.07134485244751 36.80661392211914 3.727522611618042 C 37.18688583374023 3.368896722793579 37.61731338500977 3.201189756393433 38.16067504882812 3.20000696182251 L 105.3595581054688 3.99993371963501 L 105.3655014038086 4.000000476837158 L 105.3714599609375 4.000000476837158 C 105.9384384155273 4.000000476837158 106.4509048461914 4.129322528839111 106.9381484985352 4.395344734191895 C 107.4153518676758 4.655887603759766 107.8116455078125 4.997855186462402 108.1470565795898 5.438982486724854 L 114.6397705078125 19.81167793273926 L 114.6887054443359 19.92001152038574 L 114.7616729736328 20.01385688781738 C 114.9924926757812 20.31068992614746 115.0999908447266 20.61655616760254 115.0999908447266 20.97646713256836 C 115.0999908447266 21.34305572509766 114.9832229614258 21.68142318725586 114.7430267333984 22.01091194152832 L 114.6822509765625 22.09428977966309 L 114.6397705078125 22.18832206726074 L 108.1601638793945 36.53201293945312 C 107.789924621582 36.95986938476562 107.3620529174805 37.31745910644531 106.8866958618164 37.59613418579102 C 106.4247589111328 37.86693954467773 105.9309539794922 37.99906158447266 105.377326965332 37.99999618530273 Z" stroke="none"/>
      <path d="M 105.3816223144531 36.99998092651367 C 105.7557067871094 36.99847030639648 106.0735092163086 36.91367340087891 106.3809661865234 36.73343658447266 C 106.728271484375 36.52983093261719 107.0344924926758 36.2825813293457 107.3115844726562 35.98140335083008 L 113.8133850097656 21.58858871459961 L 113.9349365234375 21.42183494567871 C 114.0803833007812 21.22233009338379 114.0999984741211 21.08474159240723 114.0999984741211 20.97647094726562 C 114.0999984741211 20.86257743835449 114.0786361694336 20.76450538635254 113.9722595214844 20.62770652770996 L 113.8263168334961 20.44002342224121 L 107.2857894897461 5.961490154266357 C 107.0513381958008 5.67419958114624 106.7794647216797 5.448043823242188 106.4589767456055 5.273059368133545 C 106.1224212646484 5.089317798614502 105.7666931152344 5.000000476837158 105.3714599609375 5.000000476837158 L 105.3476486206055 4.99985933303833 L 38.15676116943359 4.200027465820312 C 37.87200546264648 4.201611995697021 37.68514251708984 4.273556232452393 37.49269104003906 4.455047607421875 C 37.30735015869141 4.629823684692383 37.27222061157227 4.756600379943848 37.27222061157227 4.929412364959717 L 37.27222061157227 35.47058868408203 C 37.27222061157227 35.64340209960938 37.30735015869141 35.77017593383789 37.49271392822266 35.94496536254883 C 37.68731689453125 36.12849426269531 37.8762092590332 36.20000076293945 38.16643142700195 36.20000076293945 L 38.19024658203125 36.20014190673828 L 105.3816223144531 36.99998092651367 M 105.3714599609375 39 L 38.16643142700195 38.20000076293945 C 37.36803436279297 38.20000076293945 36.68605804443359 37.93333053588867 36.12052917480469 37.40000152587891 C 35.55498504638672 36.86667251586914 35.27222061157227 36.22352981567383 35.27222061157227 35.47058868408203 L 35.27222061157227 4.929412364959717 C 35.27222061157227 4.176470756530762 35.55498504638672 3.533329725265503 36.12052917480469 3.000000476837158 C 36.68605804443359 2.466670989990234 37.36803436279297 2.200000286102295 38.16643142700195 2.200000286102295 L 105.3714599609375 3.000000476837158 C 106.1033401489258 3.000000476837158 106.7852783203125 3.172553300857544 107.417366027832 3.517647504806519 C 108.049446105957 3.862741470336914 108.5816955566406 4.333329677581787 109.01416015625 4.929412364959717 L 115.5510940551758 19.39999961853027 C 115.9170227050781 19.8705883026123 116.0999984741211 20.39608192443848 116.0999984741211 20.97647094726562 C 116.0999984741211 21.55685997009277 115.9170227050781 22.09803581237793 115.5510940551758 22.60000038146973 L 109.01416015625 37.07058715820312 C 108.5484313964844 37.63530731201172 108.0078430175781 38.09804916381836 107.3924102783203 38.45882415771484 C 106.7769775390625 38.81961059570312 106.1033401489258 39 105.3714599609375 39 Z" stroke="none" fill="#6650b3"/>
    </g>
    <text id="Sent" transform="translate(855 40)" fill="#fff" font-size="20" font-family="Barlow-Medium, Barlow" font-weight="500"><tspan x="0" y="0">sent</tspan></text>
  </g>
</svg>
