<svg id="Image_1" data-name="Image 1" xmlns="http://www.w3.org/2000/svg" xmlns:xlink="http://www.w3.org/1999/xlink" width="306" height="306" viewBox="0 0 306 306">
  <defs>
    <linearGradient id="linear-gradient" x1="0.763" y1="0.185" x2="-0.998" y2="1.919" gradientUnits="objectBoundingBox">
      <stop offset="0.004" stop-color="#e38ddd"/>
      <stop offset="1" stop-color="#9571f6"/>
    </linearGradient>
    <linearGradient id="linear-gradient-2" x1="-0.535" y1="0.601" x2="3.066" y2="-0.133" gradientUnits="objectBoundingBox">
      <stop offset="0" stop-color="#ffc444"/>
      <stop offset="0.996" stop-color="#f36f56"/>
    </linearGradient>
    <clipPath id="clip-path">
      <path id="Path_187" data-name="Path 187" d="M2196.52,1833.085l-28.153-4.542c-1.083-4.039-2.149-11.339,3.994-12.105,8.541-1.065,10.645-14.724,9.066-19.914-1.954-6.423-6.184-21.458,6.986-23.3,10.964-1.536,18.437-.385,20.959-13.109s11.034-19.6,23.219-16.943c12.822,2.792,25.7-11.886,35.534-4.8,17.141,12.343-3.521,38.062-27.116,42.806s-11.781,14.388-12.636,24.987c-1.168,14.469-21.211,8.258-27.4,13.062C2196.118,1822.987,2196.057,1829.2,2196.52,1833.085Z" transform="translate(-2167.534 -1736.414)" fill="#d8dee8"/>
    </clipPath>
    <clipPath id="clip-path-2">
      <path id="Path_195" data-name="Path 195" d="M761.9,832.745c30.384-21.92,35.04-69.24,20.571-82.139-7.526-6.709-17.111-1.33-23.948-9.356-7.575-8.892.447-19.891-.553-44.223-.517-12.571-1.454-35.369-14.665-43.562-13.1-8.126-25.211,6.212-39.791-1.752-13.786-7.53-8.2-23.211-24.984-37.939-1.561-1.37-19.317-16.572-33.684-10.729-14.6,5.936-20.54,31.5-13.19,47.72,6.677,14.74,22.365,17.442,21.353,26.048-1.115,9.484-20.531,9.309-22.611,18.942-3.008,13.923,35.364,24.446,35.99,46.512.368,12.976-12.735,15.154-15.833,31.5-4,21.094,12.918,43.365,27.727,54.564C699.744,844.56,735.566,851.744,761.9,832.745Z" transform="translate(-628.504 -601.714)" fill="url(#linear-gradient)"/>
    </clipPath>
    <clipPath id="clip-path-3">
      <path id="Path_203" data-name="Path 203" d="M1557.073,679.193c-28.114-20.9-31.838-65.2-18.14-77.063,7.125-6.172,16.014-1.016,22.513-8.429,7.2-8.213-.154-18.6,1.1-41.336.65-11.746,1.829-33.046,14.289-40.531,12.356-7.422,23.487,6.142,37.223-1.109,12.988-6.856,7.972-21.59,23.861-35.136,1.478-1.26,18.279-15.236,31.633-9.583,13.567,5.743,18.784,29.718,11.7,44.788-6.438,13.691-21.14,16.009-20.309,24.068.916,8.881,19.07,8.976,20.888,18.009,2.627,13.057-33.386,22.384-34.265,43.006-.517,12.126,11.7,14.336,14.384,29.657,3.458,19.774-12.652,40.37-26.646,50.643C1615.026,691.064,1581.442,697.3,1557.073,679.193Z" transform="translate(-1531.236 -464.665)" fill="url(#linear-gradient-2)"/>
    </clipPath>
    <linearGradient id="linear-gradient-5" x1="-1.083" y1="0.584" x2="3.821" y2="-0.101" xlink:href="#linear-gradient-2"/>
    <linearGradient id="linear-gradient-6" x1="-25.817" y1="1.17" x2="40.551" y2="-1.515" xlink:href="#linear-gradient-2"/>
    <linearGradient id="linear-gradient-7" x1="-5.898" y1="0.629" x2="16.265" y2="-1.154" xlink:href="#linear-gradient-2"/>
    <linearGradient id="linear-gradient-8" x1="-1.906" y1="0.343" x2="10.358" y2="-1.527" xlink:href="#linear-gradient-2"/>
    <linearGradient id="linear-gradient-9" x1="-1.84" y1="1.395" x2="4.395" y2="-2.405" xlink:href="#linear-gradient-2"/>
    <linearGradient id="linear-gradient-10" x1="-1.528" y1="0.8" x2="5.238" y2="-2.216" xlink:href="#linear-gradient-2"/>
    <linearGradient id="linear-gradient-11" y1="0.5" x2="1" y2="0.5" gradientUnits="objectBoundingBox">
      <stop offset="0" stop-color="#444b8c"/>
      <stop offset="0.996" stop-color="#26264f"/>
    </linearGradient>
    <clipPath id="clip-path-4">
      <circle id="Ellipse_5" data-name="Ellipse 5" cx="28" cy="28" r="28" fill="none" stroke="#d8dee8" stroke-width="1"/>
    </clipPath>
    <linearGradient id="linear-gradient-12" x1="-9.299" y1="-3.183" x2="-10.215" y2="-0.992" xlink:href="#linear-gradient-2"/>
    <linearGradient id="linear-gradient-13" x1="0.247" y1="-1.673" x2="-1.609" y2="-0.178" gradientUnits="objectBoundingBox">
      <stop offset="0" stop-color="#ff9085"/>
      <stop offset="1" stop-color="#fb6fbb"/>
    </linearGradient>
    <linearGradient id="linear-gradient-14" x1="0.58" y1="-9.43" x2="1.848" y2="1.04" gradientUnits="objectBoundingBox">
      <stop offset="0" stop-color="#311944"/>
      <stop offset="1" stop-color="#893976"/>
    </linearGradient>
    <linearGradient id="linear-gradient-15" x1="5.832" y1="-1.747" x2="5.894" y2="-6.044" xlink:href="#linear-gradient-2"/>
    <linearGradient id="linear-gradient-16" x1="3.923" y1="-11.36" x2="5.192" y2="-0.891" xlink:href="#linear-gradient-14"/>
    <linearGradient id="linear-gradient-17" x1="17.762" y1="-2.812" x2="17.824" y2="-7.109" xlink:href="#linear-gradient-2"/>
    <linearGradient id="linear-gradient-18" x1="1.151" y1="0.314" x2="2.088" y2="0.314" xlink:href="#linear-gradient-11"/>
    <linearGradient id="linear-gradient-19" x1="1.265" y1="0.314" x2="2.295" y2="0.314" xlink:href="#linear-gradient-11"/>
    <linearGradient id="linear-gradient-20" x1="2.096" y1="0.307" x2="3.305" y2="0.307" xlink:href="#linear-gradient-11"/>
    <linearGradient id="linear-gradient-21" x1="2.231" y1="1.241" x2="1.028" y2="0.008" xlink:href="#linear-gradient-13"/>
    <linearGradient id="linear-gradient-22" x1="2.463" y1="1.285" x2="1.135" y2="-0.176" xlink:href="#linear-gradient-13"/>
    <linearGradient id="linear-gradient-23" x1="7.169" y1="-4.119" x2="8.171" y2="-4.119" xlink:href="#linear-gradient-2"/>
    <linearGradient id="linear-gradient-24" x1="2.062" y1="1.44" x2="0.28" y2="0.221" xlink:href="#linear-gradient-13"/>
    <linearGradient id="linear-gradient-25" x1="0.54" y1="-0.071" x2="0.454" y2="1.869" xlink:href="#linear-gradient-2"/>
    <linearGradient id="linear-gradient-26" x1="3.663" y1="0.26" x2="2.946" y2="-1.327" gradientUnits="objectBoundingBox">
      <stop offset="0" stop-color="#444b8c"/>
      <stop offset="0.996" stop-color="#3e4177"/>
    </linearGradient>
    <linearGradient id="linear-gradient-27" x1="-28.209" y1="-8.077" x2="-27.657" y2="-17.315" xlink:href="#linear-gradient-2"/>
    <linearGradient id="linear-gradient-28" x1="0.383" y1="-2.504" x2="0.584" y2="1.901" xlink:href="#linear-gradient-11"/>
    <linearGradient id="linear-gradient-29" x1="11.557" y1="1.12" x2="11.557" y2="-0.094" xlink:href="#linear-gradient-11"/>
    <filter id="button_bg" x="113.538" y="204.748" width="160.464" height="73.25" filterUnits="userSpaceOnUse">
      <feOffset dy="3" input="SourceAlpha"/>
      <feGaussianBlur stdDeviation="4" result="blur"/>
      <feFlood flood-opacity="0.212"/>
      <feComposite operator="in" in2="blur"/>
      <feComposite in="SourceGraphic"/>
    </filter>
  </defs>
  <path id="Path_179" data-name="Path 179" d="M751.738,585.7c-8.294-54.593-42.3-121.664-109.481-128.683,0,0-51.007-6.239-101.289,3.217-29.842,5.612-56.01,22.318-72.567,46.329a100.932,100.932,0,0,0-15.376,81.2c4.36,18.13,7.306,36.893,6.5,55.522-1.407,32.422-.6,62.686,30.692,82.022,27.938,17.265,63.1,32.491,96.642,35.158,22.8,1.813,48.36-1.12,70.331-7.089C769.155,722.964,760.032,640.295,751.738,585.7Z" transform="translate(-450.238 -455)" fill="#f4f7fa"/>
  <g id="Group_247" data-name="Group 247" transform="translate(186.217 140.348)">
    <path id="Path_180" data-name="Path 180" d="M2184.634,1856.813c-1.184-.338,1.2-6.353-1.094-14.871-.572-2.128-2.886-13.952-11.785-15.643l-5.183-.984c-.9-4.132-.975-8.191,4.525-8.877,8.541-1.065,10.644-14.724,9.065-19.914-1.954-6.423-6.184-21.458,6.986-23.3,10.964-1.536,18.437-.385,20.959-13.109s11.034-19.6,23.219-16.943c12.822,2.792,25.7-11.886,35.534-4.8,17.141,12.343-3.521,38.062-27.116,42.806s-11.78,14.389-12.636,24.987a18.38,18.38,0,0,1-1.094,4.2c-4.152,10.564-15.866,10.7-25.411,18.4C2187.585,1839.277,2186.629,1857.384,2184.634,1856.813Z" transform="translate(-2166.115 -1736.414)" fill="#fff"/>
    <g id="Group_246" data-name="Group 246" transform="translate(0.155)">
      <path id="Path_181" data-name="Path 181" d="M2196.52,1833.085l-28.153-4.542c-1.083-4.039-2.149-11.339,3.994-12.105,8.541-1.065,10.645-14.724,9.066-19.914-1.954-6.423-6.184-21.458,6.986-23.3,10.964-1.536,18.437-.385,20.959-13.109s11.034-19.6,23.219-16.943c12.822,2.792,25.7-11.886,35.534-4.8,17.141,12.343-3.521,38.062-27.116,42.806s-11.781,14.388-12.636,24.987c-1.168,14.469-21.211,8.258-27.4,13.062C2196.118,1822.987,2196.057,1829.2,2196.52,1833.085Z" transform="translate(-2167.534 -1736.414)" fill="#d8dee8"/>
      <g id="Group_245" data-name="Group 245" clip-path="url(#clip-path)">
        <g id="Group_244" data-name="Group 244" transform="translate(14.832 4.411)" opacity="0.5" style="mix-blend-mode: soft-light;isolation: isolate">
          <path id="Path_182" data-name="Path 182" d="M2312.069,1870.581l-.582-.208c14.731-40.053,50.044-72.523,92.159-84.74l.2.561C2361.9,1798.359,2326.74,1830.695,2312.069,1870.581Z" transform="translate(-2310.552 -1784.653)" fill="#fcfdfe"/>
          <path id="Path_183" data-name="Path 183" d="M2314.488,2103.837l-.61-.1c2.373-16.612-10.792-31.919-10.926-32.071l.469-.366C2303.556,2071.458,2316.9,2086.963,2314.488,2103.837Z" transform="translate(-2302.952 -2039.035)" fill="#fcfdfe"/>
          <path id="Path_184" data-name="Path 184" d="M2339.445,2404.033l-.5-.359c10.56-13.5,43.167-10.519,43.5-10.487l-.044.583C2382.074,2393.739,2349.8,2390.793,2339.445,2404.033Z" transform="translate(-2335.005 -2325.396)" fill="#fcfdfe"/>
          <path id="Path_185" data-name="Path 185" d="M2648.858,1808.908l-.527-.318c7.364-11.375,1.612-31.562,1.553-31.765l.593-.141C2650.537,1776.89,2656.359,1797.323,2648.858,1808.908Z" transform="translate(-2610.503 -1776.685)" fill="#fcfdfe"/>
          <path id="Path_186" data-name="Path 186" d="M2854.334,1898.671l-.25-.543c14.832-5.821,35.411,1.914,35.618,1.994l-.215.543C2889.284,1900.587,2868.935,1892.941,2854.334,1898.671Z" transform="translate(-2793.721 -1882.897)" fill="#fcfdfe"/>
        </g>
      </g>
    </g>
  </g>
  <g id="Group_251" data-name="Group 251" transform="translate(19.525 16.069)">
    <g id="Group_250" data-name="Group 250">
      <path id="Path_188" data-name="Path 188" d="M761.9,832.745c30.384-21.92,35.04-69.24,20.571-82.139-7.526-6.709-17.111-1.33-23.948-9.356-7.575-8.892.447-19.891-.553-44.223-.517-12.571-1.454-35.369-14.665-43.562-13.1-8.126-25.211,6.212-39.791-1.752-13.786-7.53-8.2-23.211-24.984-37.939-1.561-1.37-19.317-16.572-33.684-10.729-14.6,5.936-20.54,31.5-13.19,47.72,6.677,14.74,22.365,17.442,21.353,26.048-1.115,9.484-20.531,9.309-22.611,18.942-3.008,13.923,35.364,24.446,35.99,46.512.368,12.976-12.735,15.154-15.833,31.5-4,21.094,12.918,43.365,27.727,54.564C699.744,844.56,735.566,851.744,761.9,832.745Z" transform="translate(-628.504 -601.714)" fill="url(#linear-gradient)"/>
      <g id="Group_249" data-name="Group 249" clip-path="url(#clip-path-2)">
        <g id="Group_248" data-name="Group 248" transform="translate(-16.606 -14.202)" opacity="0.8" style="mix-blend-mode: soft-light;isolation: isolate">
          <path id="Path_189" data-name="Path 189" d="M764.523,782.516l1.152-.289c-11.181-44.6-24.222-86.012-38.762-123.081A642.207,642.207,0,0,0,689.418,579c-22.571-40.079-39.393-56.48-39.56-56.641l-.823.856c.166.16,16.9,16.484,39.391,56.443C709.188,616.541,739.244,681.675,764.523,782.516Z" transform="translate(-630.179 -516.848)" fill="#fff"/>
          <path id="Path_190" data-name="Path 190" d="M986.058,538.117c6.749-36.182-4.956-65.776-5.075-66.071l-1.1.445c.118.292,11.691,29.581,5.008,65.408Z" transform="translate(-924.791 -472.046)" fill="#fff"/>
          <path id="Path_191" data-name="Path 191" d="M1371.624,1014.825c19.25-35.172,24.943-60.156,26.329-74.922,1.509-16.084-1.533-23.72-1.663-24.037l-1.1.45c.031.076,3.074,7.767,1.567,23.608-1.393,14.637-7.064,39.414-26.176,74.331Z" transform="translate(-1272.699 -867.255)" fill="#fff"/>
          <path id="Path_192" data-name="Path 192" d="M1612.061,1786.53c46.613-52.351,48.532-93.638,48.546-94.048l-1.187-.04c0,.1-.533,10.8-7.068,28.01-5.755,15.151-17.571,38.777-41.177,65.289Z" transform="translate(-1486.94 -1558.776)" fill="#fff"/>
          <path id="Path_193" data-name="Path 193" d="M558.327,1335.717a108.564,108.564,0,0,0,12.456,1.459l.069-1.186c-27.774-1.615-51.606-14.241-66.707-24.548a161.66,161.66,0,0,1-26.376-22.2l-.883.795a163,163,0,0,0,26.589,22.386C516.393,1321.241,535.655,1331.742,558.327,1335.717Z" transform="translate(-476.887 -1199.739)" fill="#fff"/>
          <path id="Path_194" data-name="Path 194" d="M865.909,1929.324q3.28.575,6.691.928l.121-1.181c-28.854-2.956-50.519-18.779-63.613-31.532a133.742,133.742,0,0,1-21.724-27.244l-1.038.577a135.08,135.08,0,0,0,21.934,27.518C820.478,1910.27,840.048,1924.789,865.909,1929.324Z" transform="translate(-752.451 -1717.15)" fill="#fff"/>
        </g>
      </g>
    </g>
  </g>
  <g id="Group_255" data-name="Group 255" transform="translate(116.681 1.059)">
    <g id="Group_254" data-name="Group 254">
      <path id="Path_196" data-name="Path 196" d="M1557.073,679.193c-28.114-20.9-31.838-65.2-18.14-77.063,7.125-6.172,16.014-1.016,22.513-8.429,7.2-8.213-.154-18.6,1.1-41.336.65-11.746,1.829-33.046,14.289-40.531,12.356-7.422,23.487,6.142,37.223-1.109,12.988-6.856,7.972-21.59,23.861-35.136,1.478-1.26,18.279-15.236,31.633-9.583,13.567,5.743,18.784,29.718,11.7,44.788-6.438,13.691-21.14,16.009-20.309,24.068.916,8.881,19.07,8.976,20.888,18.009,2.627,13.057-33.386,22.384-34.265,43.006-.517,12.126,11.7,14.336,14.384,29.657,3.458,19.774-12.652,40.37-26.646,50.643C1615.026,691.064,1581.442,697.3,1557.073,679.193Z" transform="translate(-1531.236 -464.665)" fill="url(#linear-gradient-2)"/>
      <g id="Group_253" data-name="Group 253" clip-path="url(#clip-path-3)">
        <g id="Group_252" data-name="Group 252" transform="translate(5.197 -13.49)" style="mix-blend-mode: soft-light;isolation: isolate">
          <path id="Path_197" data-name="Path 197" d="M1889.613,634.656l-1.073-.285c11.045-41.549,23.787-80.089,37.873-114.551a600.45,600.45,0,0,1,36.118-74.429c21.634-37.17,37.578-52.279,37.737-52.427l.759.811c-.157.148-16.016,15.187-37.576,52.245C1943.549,480.225,1914.585,540.718,1889.613,634.656Z" transform="translate(-1854.603 -387.327)" fill="url(#linear-gradient-5)"/>
          <path id="Path_198" data-name="Path 198" d="M2532.762,403.2c-5.829-33.916,5.507-61.427,5.622-61.7l1.023.43c-.114.271-11.323,27.5-5.551,61.083Z" transform="translate(-2426.783 -341.499)" fill="url(#linear-gradient-6)"/>
          <path id="Path_199" data-name="Path 199" d="M2020.631,841.086c-17.53-33.137-22.52-56.57-23.619-70.393-1.2-15.056,1.748-22.155,1.874-22.45l1.021.436c-.03.07-2.977,7.221-1.778,22.05,1.108,13.7,6.081,36.941,23.484,69.838Z" transform="translate(-1950.94 -703.694)" fill="url(#linear-gradient-7)"/>
          <path id="Path_200" data-name="Path 200" d="M1622.823,1556.911c-42.883-49.562-44.128-88.185-44.135-88.569l1.11-.022c0,.1.355,10.107,6.236,26.28,5.179,14.241,15.912,36.485,37.629,61.585Z" transform="translate(-1578.687 -1344.904)" fill="url(#linear-gradient-8)"/>
          <path id="Path_201" data-name="Path 201" d="M2270.4,1154.567a101.522,101.522,0,0,1-11.664,1.2l-.049-1.109c25.987-1.141,48.435-12.628,62.689-22.063a151.136,151.136,0,0,0,24.953-20.4l.814.755a152.4,152.4,0,0,1-25.155,20.575C2309.8,1141.59,2291.649,1151.151,2270.4,1154.567Z" transform="translate(-2184.21 -1027.778)" fill="url(#linear-gradient-9)"/>
          <path id="Path_202" data-name="Path 202" d="M2031.347,1705.416q-3.074.494-6.268.779l-.1-1.106c27.014-2.38,47.478-16.885,59.89-28.634a125.034,125.034,0,0,0,20.672-25.181l.963.553a126.28,126.28,0,0,1-20.872,25.435C2074.073,1688.207,2055.584,1701.52,2031.347,1705.416Z" transform="translate(-1976.101 -1507.82)" fill="url(#linear-gradient-10)"/>
        </g>
      </g>
    </g>
  </g>
  <g id="Group_266" data-name="Group 266" transform="translate(66.315 21.475)">
    <path id="Path_204" data-name="Path 204" d="M1220.351,850.627l-150.692-9.536c-3.471-.185-6.595,3.958-6.595,7.436v212.257c0,4.824,4.505,5.8,7.976,5.408l149.311-16.68c2.728-.3,4.93-3.035,4.93-6.1V856.439C1225.281,853.374,1223.079,850.773,1220.351,850.627Z" transform="translate(-1063.064 -820.274)" fill="#97a6b7"/>
    <path id="Path_205" data-name="Path 205" d="M1242.98,846.678l-150.99-8.125a5.934,5.934,0,0,0-6.3,6.009v213.915a5.543,5.543,0,0,0,6.3,5.639l150.99-17c2.727-.307,4.929-3.058,4.929-6.147V852.535C1247.91,849.447,1245.708,846.825,1242.98,846.678Z" transform="translate(-1083.215 -818.012)" fill="#d8dee8"/>
    <path id="Path_206" data-name="Path 206" d="M1115.555,1084.838a3,3,0,0,1-3.4-3.051V868.328a3.213,3.213,0,0,1,3.4-3.25l150.99,7.8a3.056,3.056,0,0,1,2.671,3.168v188.79a3.284,3.284,0,0,1-2.671,3.325Z" transform="translate(-1106.779 -841.634)" fill="#fff" opacity="0.74"/>
    <path id="Path_207" data-name="Path 207" d="M1382.954,1182.632l-129.142,13.611V999.308l129.142,5.32Z" transform="translate(-1232.919 -961.167)" fill="#fff"/>
    <path id="Path_208" data-name="Path 208" d="M1541.687,886.058l-51.612.706,1.158-12.732a3.36,3.36,0,0,1,2.62-3.254l8.741-1.469a3.2,3.2,0,0,0,2.365-1.985l.948-2.252,22.863,1.544Z" transform="translate(-1443.306 -841.634)" fill="#97a6b7" opacity="0.3" style="mix-blend-mode: multiply;isolation: isolate"/>
    <path id="Path_209" data-name="Path 209" d="M1569.249,687.239a2.857,2.857,0,0,0-2.629-2.517l-8.247-.4c-3.743-.184-6.487-3.51-6.35-7.723l.318-9.764a3.078,3.078,0,0,0-2.74-3.358l-2.709-.177c-2.066-.135-3.442-2.127-3.152-4.431.507-4.026-2.015-7.5-5.67-7.773-3.684-.275-7.122,2.8-7.67,6.882a4.813,4.813,0,0,1-.573,1.739,4.157,4.157,0,0,1-3.8,2.22l-2.8-.183a3.762,3.762,0,0,0-3.732,3.019l-2.324,9.911c-1.005,4.286-4.8,7.383-8.822,7.186l-9.047-.443a3.9,3.9,0,0,0-3.618,2.353l-5.452,11.833a1.373,1.373,0,0,0,1.076,2.051l78.454,2.85a1.555,1.555,0,0,0,1.429-1.836Zm-32.292-27.7a1.928,1.928,0,0,1-1.673-2.3,2.236,2.236,0,0,1,2.242-2.023,1.929,1.929,0,0,1,1.667,2.295A2.237,2.237,0,0,1,1536.956,659.542Z" transform="translate(-1443.306 -651.075)" fill="url(#linear-gradient-11)"/>
    <path id="Path_210" data-name="Path 210" d="M1573.492,689.655a2.857,2.857,0,0,0-2.629-2.517l-8.247-.4c-3.743-.184-6.487-3.51-6.35-7.723l.318-9.764a3.078,3.078,0,0,0-2.74-3.358l-2.71-.177c-2.066-.135-3.442-2.127-3.152-4.431.507-4.026-2.015-7.5-5.67-7.773-3.684-.275-7.122,2.8-7.67,6.882a4.815,4.815,0,0,1-.573,1.739,4.157,4.157,0,0,1-3.8,2.22l-2.8-.183a3.763,3.763,0,0,0-3.732,3.019l-2.324,9.911c-1.005,4.286-4.8,7.383-8.822,7.186l-9.047-.444a3.9,3.9,0,0,0-3.618,2.353l-5.452,11.833a1.373,1.373,0,0,0,1.076,2.051l78.454,2.851a1.555,1.555,0,0,0,1.429-1.836Zm-32.292-27.7a1.928,1.928,0,0,1-1.673-2.3,2.236,2.236,0,0,1,2.242-2.023,1.929,1.929,0,0,1,1.667,2.295A2.237,2.237,0,0,1,1541.2,661.958Z" transform="translate(-1447.085 -653.226)" fill="#97a6b7"/>
    <g id="Group_256" data-name="Group 256" transform="translate(47.234 15.604)">
      <path id="Path_211" data-name="Path 211" d="M1560.066,819.807c-7-4.726-12.368-1.375-16.73-6.7-4.669-5.706-1.52-13.217-6.351-16.762-3.093-2.269-5.852-.268-9.449-.882a9.475,9.475,0,0,1-4.183-1.914l-1.938,8.266c-1.005,4.286-4.8,7.383-8.822,7.186l-9.047-.443a3.9,3.9,0,0,0-3.618,2.353l-5.451,11.833a1.373,1.373,0,0,0,1.076,2.051l71.3,2.59A22.431,22.431,0,0,0,1560.066,819.807Z" transform="translate(-1494.318 -793.544)" fill="#fff" opacity="0.5" style="mix-blend-mode: soft-light;isolation: isolate"/>
    </g>
    <g id="Group_265" data-name="Group 265" transform="translate(35.495 55.333)">
      <g id="Group_257" data-name="Group 257" transform="translate(3.97 73.688)">
        <path id="Path_213" data-name="Path 213" d="M1668.774,1842.03l-98.945,3.061V1831.3l98.945-2.23Z" transform="translate(-1569.829 -1829.067)" fill="#d8dee8"/>
      </g>
      <g id="Group_258" data-name="Group 258" transform="translate(3.97 92.575)">
        <path id="Path_215" data-name="Path 215" d="M1668.774,2014.475l-98.945,4.272v-13.794l98.945-3.441Z" transform="translate(-1569.829 -2001.513)" fill="#d8dee8"/>
      </g>
      <g id="Group_259" data-name="Group 259" transform="translate(3.97 111.463)">
        <path id="Path_217" data-name="Path 217" d="M1668.774,2186.92l-98.945,5.483V2178.61l98.945-4.652Z" transform="translate(-1569.829 -2173.958)" fill="#d8dee8"/>
      </g>
      <g id="Group_260" data-name="Group 260" transform="translate(3.97 130.35)">
        <path id="Path_219" data-name="Path 219" d="M1668.774,2359.366l-98.945,6.694v-13.793l98.945-5.863Z" transform="translate(-1569.829 -2346.403)" fill="#d8dee8"/>
      </g>
      <path id="Path_221" data-name="Path 221" d="M2000.228,1165.417l-40.166-.924v-8.216l40.166,1.172Z" transform="translate(-1897.312 -1156.277)" fill="#d8dee8"/>
      <path id="Path_222" data-name="Path 222" d="M2000.228,1364.953l-40.166-.374v-4.108l40.166.5Z" transform="translate(-1897.312 -1338.107)" fill="#d8dee8"/>
      <path id="Path_223" data-name="Path 223" d="M2000.228,1426.563l-40.166-.17v-4.108l40.166.294Z" transform="translate(-1897.312 -1393.15)" fill="#d8dee8"/>
      <path id="Path_224" data-name="Path 224" d="M2000.228,1488.173l-40.166.034V1484.1l40.166.09Z" transform="translate(-1897.312 -1448.194)" fill="#d8dee8"/>
      <g id="Mask_Group_10" data-name="Mask Group 10" transform="translate(0 3.192)" clip-path="url(#clip-path-4)">
        <g id="Group_264" data-name="Group 264" transform="translate(3.971 6.539)">
          <path id="Path_225" data-name="Path 225" d="M1423.389,1498.417v-25.009l7.654-1.208,32.694-.348,8.271,1.485v24.3Z" transform="translate(-1423.389 -1447.02)" fill="#d8dee8"/>
          <g id="Group_261" data-name="Group 261" transform="translate(7.464 8.639)">
            <path id="Path_226" data-name="Path 226" d="M1514.783,1329.366q.567,5.761,1.133,11.516a2.115,2.115,0,0,0,1.852,1.947c3.831.356,8.038,2.247,11.827,2.6l-17.37,5.423-15.325-5.075c4.134-.63,7.143-1.951,10.177-2.936a2.142,2.142,0,0,0,1.434-1.825l.788-7.13Z" transform="translate(-1496.312 -1328.778)" fill="#fff"/>
            <path id="Path_227" data-name="Path 227" d="M1507.445,1346.655a.585.585,0,0,1-.185-.03l-15.324-5.075a.588.588,0,0,1,.1-1.139,41.13,41.13,0,0,0,7.862-2.152c.762-.268,1.483-.522,2.222-.762a1.556,1.556,0,0,0,1.031-1.331l.788-7.131a.588.588,0,0,1,.211-.389l5.484-4.514a.588.588,0,0,1,.958.4l1.133,11.516a1.529,1.529,0,0,0,1.321,1.42,35.335,35.335,0,0,1,6.044,1.323,34.162,34.162,0,0,0,5.782,1.273.588.588,0,0,1,.121,1.146l-17.37,5.423A.589.589,0,0,1,1507.445,1346.655Zm-12.987-5.508,12.992,4.3,14.814-4.625c-1.164-.255-2.34-.584-3.495-.907a34.52,34.52,0,0,0-5.837-1.284,2.7,2.7,0,0,1-2.382-2.475l-1.025-10.419-4.449,3.662-.762,6.893a2.733,2.733,0,0,1-1.836,2.32c-.725.235-1.439.486-2.194.753A50.758,50.758,0,0,1,1494.459,1341.147Z" transform="translate(-1491.533 -1323.998)" fill="#d8dee8"/>
          </g>
          <g id="Group_263" data-name="Group 263" transform="translate(16.019)">
            <g id="Group_262" data-name="Group 262">
              <path id="Path_228" data-name="Path 228" d="M1588.487,1258.771c0,5.617-2.993,12.184-6.7,12.162-3.73-.022-6.769-6.691-6.769-12.363s3.039-8.155,6.769-8.077C1585.494,1250.571,1588.487,1253.155,1588.487,1258.771Z" transform="translate(-1574.427 -1249.904)" fill="#fff"/>
              <path id="Path_229" data-name="Path 229" d="M1577.023,1266.742H1577c-4.141-.024-7.353-6.982-7.353-12.95,0-2.948.814-5.3,2.354-6.811a6.778,6.778,0,0,1,5.015-1.853c5.367.112,7.279,4.653,7.279,8.865,0,4.274-1.625,8.873-3.951,11.186A4.712,4.712,0,0,1,1577.023,1266.742Zm-.189-20.441a5.579,5.579,0,0,0-4.011,1.519c-1.309,1.282-2,3.347-2,5.971,0,5.284,2.854,11.755,6.184,11.775a3.554,3.554,0,0,0,2.508-1.222c2.088-2.076,3.6-6.429,3.6-10.352,0-4.735-2.29-7.609-6.127-7.69Z" transform="translate(-1569.647 -1245.125)" fill="#d8dee8"/>
            </g>
          </g>
        </g>
      </g>
    </g>
  </g>
  <g id="Group_272" data-name="Group 272" transform="translate(23.046 109.167)">
    <path id="Path_248" data-name="Path 248" d="M1589.769,1459.581s.071-3.636,1.75-4.2,7.393-4.984,7.051-3.261-2.839,3.05-2.839,3.05,2.1,2.619-.575,4.153S1587.391,1465.989,1589.769,1459.581Z" transform="translate(-1487.459 -1451.724)" fill="url(#linear-gradient-12)"/>
    <path id="Path_249" data-name="Path 249" d="M1163.412,1514.173l3.821,4.626a51.172,51.172,0,0,1-5.186,13.553,52.2,52.2,0,0,1-12.773,15.081c-10.13,8.082-29.24,16.652-35.823,9.9-5.873-6.021.92-21.481,2.178-24.26,3.267,1.127-1-2.425,15.207,2.273,2.085.6,7.812-.336,13.921-2.95C1156.063,1527.563,1161.585,1517.808,1163.412,1514.173Z" transform="translate(-1061.759 -1507.333)" fill="url(#linear-gradient-13)"/>
    <path id="Path_250" data-name="Path 250" d="M1173.912,3121.406a30.49,30.49,0,0,0-.422,4.011c.061,1.053,11.744,1.591,11.862.8s-1.931-2.043-3.373-2.485-5.663-1.624-5.663-1.624Z" transform="translate(-1117.317 -2938.532)" fill="url(#linear-gradient-14)"/>
    <path id="Path_251" data-name="Path 251" d="M1174.627,3093.5l-.373,3.678a2.656,2.656,0,0,1-2.553.2l-.6-4Z" transform="translate(-1115.196 -2913.573)" fill="url(#linear-gradient-15)"/>
    <path id="Path_252" data-name="Path 252" d="M983.6,3165.189a30.507,30.507,0,0,0-.422,4.011c.061,1.053,11.744,1.591,11.862.8s-1.931-2.043-3.373-2.485-5.663-1.624-5.663-1.624Z" transform="translate(-947.852 -2977.52)" fill="url(#linear-gradient-16)"/>
    <path id="Path_253" data-name="Path 253" d="M984.32,3137.28l-.373,3.678a2.657,2.657,0,0,1-2.553.2l-.6-4Z" transform="translate(-945.732 -2952.56)" fill="url(#linear-gradient-17)"/>
    <path id="Path_254" data-name="Path 254" d="M1058.754,2205.038l4.051,8.213c1.086,15.624,1.626,32.612,1.279,50.781-.258,13.517-.98,26.322-2.018,38.342l-5.493-.252a54.787,54.787,0,0,1-6.061-23.042c-.3-10.25,2.808-11.611,2.611-21.426-.256-12.72-5.59-16.114-8.432-31.415a81.938,81.938,0,0,1-.949-22.767Z" transform="translate(-1001.443 -2121.136)" fill="url(#linear-gradient-18)"/>
    <path id="Path_255" data-name="Path 255" d="M1043.744,2203.472l8.107.846c4.864,8.465,6.222,17.276,5.369,21.172-1.208,5.514-4.4,7.28-4.226,12.816.174,5.478,3.4,6.9,5.448,13.354,1.417,4.47,1.043,8.58.237,16.617-1.624,16.19-5.533,21.141-2.258,26.449a11.95,11.95,0,0,0,5.892,4.676c-.08.993-.16,1.989-.245,2.971l-5.493-.252a54.792,54.792,0,0,1-6.061-23.042c-.3-10.25,2.807-11.611,2.61-21.426-.255-12.72-5.589-16.114-8.431-31.415A81.937,81.937,0,0,1,1043.744,2203.472Z" transform="translate(-1001.443 -2121.136)" opacity="0.3" fill="url(#linear-gradient-19)" style="mix-blend-mode: multiply;isolation: isolate"/>
    <path id="Path_256" data-name="Path 256" d="M918.365,2231.294c-2.535,13.823-4.774,28.616-6.521,44.305-2.109,18.944-3.235,36.8-3.678,53.384l-6.029.171c-7.919-15.666-8.4-26.287-7.261-33.2a100.005,100.005,0,0,0,1.908-15.7,110.417,110.417,0,0,0-.591-14.566c-.951-10.918-2.105-13.3-2.271-21.653-.156-7.837-.188-11.8,2.049-14.118C901.866,2223.818,917.2,2230.754,918.365,2231.294Z" transform="translate(-868.319 -2142.463)" fill="url(#linear-gradient-20)"/>
    <path id="Path_257" data-name="Path 257" d="M836.191,1743.186c1.925-3.195-.493-6.276-1.043-12.329-.624-6.86,2.019-8,4.632-19.371,1.738-7.561,3.406-14.82,1.415-23.316-.954-4.072-2.573-10.979-8.289-14.315-2.95-1.722-6.977-1.55-14.912-1.134-9.812.513-14.718.77-18.377,2.7-.536.282-11.667,6.337-12.433,16.206-.78,10.044,10.159,11.395,11.618,24.789.655,6.013-.513,15.261-1.27,21.26-.727,5.76-1.227,7.234-.091,8.978,2.739,4.2,11.126,3,27.9.61C831.923,1746.319,834.755,1745.57,836.191,1743.186Z" transform="translate(-773.291 -1648.268)" fill="url(#linear-gradient-21)"/>
    <path id="Path_258" data-name="Path 258" d="M810.67,1812c-.709,2.611-3.26,4.561-5.036,10.911-.383,1.371-3.114,11.135.428,13.538,2.046,1.388,3.883-1.242,8.848-1.585,8.6-.6,12.7,6.636,18.323,4.661a7.7,7.7,0,0,0,3.548-2.752,5.679,5.679,0,0,1-.59,4.157c-1.437,2.384-4.269,3.133-10.848,4.073-16.774,2.4-25.161,3.593-27.9-.61-1.137-1.744-.636-3.219.091-8.978.757-6,1.925-15.247,1.27-21.26-1.459-13.4-12.4-14.745-11.618-24.789a15.581,15.581,0,0,1,2.517-7.157C803.579,1787.821,812.9,1803.794,810.67,1812Z" transform="translate(-773.291 -1746.01)" opacity="0.2" fill="url(#linear-gradient-22)" style="mix-blend-mode: multiply;isolation: isolate"/>
    <path id="Path_259" data-name="Path 259" d="M841.905,2230.469l2.776,1.773a6.5,6.5,0,0,1,3.455-2.134c2.03-.446,4.361.194,4.415.842.043.519-1.376,1.043-1.6,1.124-1.771.654-3.086.111-3.8.823a5.422,5.422,0,0,1-1.295,1.154,3.95,3.95,0,0,1-.5.256c-1.182.46-3.21-1.6-3.385-1.778Z" transform="translate(-822.054 -2144.723)" fill="url(#linear-gradient-23)"/>
    <path id="Path_260" data-name="Path 260" d="M688.71,1714.58c2.009-4.81,3.552-12.133.38-23.07-20.9,8.236-31.714,27.719-27.552,43.2,3.431,12.76,15.915,18.975,18.7,20.282l1.944-4.424c-3.227-3.594-6.864-8.907-6.349-14.971C676.545,1727.188,684.644,1724.319,688.71,1714.58Z" transform="translate(-660.657 -1665.247)" fill="url(#linear-gradient-24)"/>
    <path id="Path_261" data-name="Path 261" d="M990.649,1584.627a22.374,22.374,0,0,1-1.3,6.395c-1.026,2.475-6.421,4.031-7.514,4.583s2.049,2.167,5.2,2.484,12.168-.4,13.792-1.6-1.305-1.106-3.558-1.933-3.555-5.232-3.157-7.231S990.649,1584.627,990.649,1584.627Z" transform="translate(-946.46 -1570.071)" fill="url(#linear-gradient-25)"/>
    <path id="Path_262" data-name="Path 262" d="M1038.045,1502.573c1.638-1.609,1.866-1.8,2.045-2.353.715-2.232-1.016-5.289-3.286-6.041-.118-.039-1.641-.526-2.222.134-.494.561.233,1.336-.113,2.417-.323,1.012-1.2,1.088-2.827,2.416-1.34,1.093-2.172,1.773-2.364,2.729-.4,1.971,1.99,4.827,4.1,4.75C1034.138,1506.6,1034.345,1506.209,1038.045,1502.573Z" transform="translate(-988.865 -1489.343)" fill="url(#linear-gradient-26)"/>
    <g id="Group_270" data-name="Group 270" transform="translate(42.843 11.806)">
      <path id="Path_263" data-name="Path 263" d="M1053.7,1565.3a4.651,4.651,0,0,0,4.392,1.319c2.374-.583,1.768-6.032.031-6.9a3.08,3.08,0,0,0-2.425.115c-.468.225-.6.459-1.369.813-.712.326-.937.281-1.129.51-.24.287-.342.9.408,2.4a1.327,1.327,0,0,0-1.479-.21.832.832,0,0,0-.265.369C1051.641,1564.385,1052.342,1565.071,1053.7,1565.3Z" transform="translate(-1051.825 -1559.52)" fill="url(#linear-gradient-27)"/>
    </g>
    <g id="Group_271" data-name="Group 271" transform="translate(43.88 27.651)">
      <path id="Path_264" data-name="Path 264" d="M1066.688,1704.183q-.483,1.1-1.1,2.26c-.188.354-.377.7-.566,1.033-.778.106-1.556.216-2.334.322-.467-1.061-.935-2.13-1.4-3.195.546-.02,1.12-.047,1.709-.086.322.008.66,0,1.01-.02a15.065,15.065,0,0,0,1.737-.208C1066.063,1704.258,1066.378,1704.218,1066.688,1704.183Z" transform="translate(-1061.289 -1704.183)" fill="url(#linear-gradient-28)"/>
      <path id="Path_265" data-name="Path 265" d="M1067.35,1732.274s2.677,26.2,10.919,30.29c-.2.843.1,7.663.1,7.663s-7.663-2.2-8.1-2.042-9.432-14.329-5.234-35.372Z" transform="translate(-1063.637 -1729.198)" fill="url(#linear-gradient-29)"/>
    </g>
  </g>
  <g id="Filled_button" data-name="Filled button" transform="matrix(0.998, -0.07, 0.07, 0.998, 125.538, 223.096)">
    <g transform="matrix(1, 0.07, -0.07, 1, -109.67, -231.31)" filter="url(#button_bg)">
      <rect id="button_bg-2" data-name="button bg" width="134" height="40" rx="20" transform="matrix(1, -0.07, 0.07, 1, 125.54, 223.1)" fill="#9173ff"/>
    </g>
    <text id="Quick_Apply" data-name="Quick Apply" transform="translate(67 29)" fill="#fff" font-size="22" font-family="BarlowCondensed-Medium, Barlow Condensed" font-weight="500"><tspan x="-48.653" y="0">QUICK APPLY</tspan></text>
  </g>
</svg>
