<svg id="image_3" data-name="image 3" xmlns="http://www.w3.org/2000/svg" xmlns:xlink="http://www.w3.org/1999/xlink" width="247.977" height="247.976" viewBox="0 0 247.977 247.976">
  <defs>
    <linearGradient id="linear-gradient" x1="-0.82" y1="0.5" x2="0.18" y2="0.5" gradientUnits="objectBoundingBox">
      <stop offset="0" stop-color="#dae3fe"/>
      <stop offset="1" stop-color="#e9effd"/>
    </linearGradient>
    <linearGradient id="linear-gradient-2" x1="1.799" y1="-1.815" x2="0.63" y2="0.269" gradientUnits="objectBoundingBox">
      <stop offset="0" stop-color="#fe7062"/>
      <stop offset="1" stop-color="#ff928e"/>
    </linearGradient>
    <linearGradient id="linear-gradient-3" x1="1.452" y1="-0.484" x2="-0.945" y2="2.343" xlink:href="#linear-gradient-2"/>
    <linearGradient id="linear-gradient-4" x1="1.218" y1="-0.899" x2="0.029" y2="1.567" xlink:href="#linear-gradient-2"/>
    <linearGradient id="linear-gradient-5" x1="0.969" y1="0.019" x2="-0.255" y2="1.281" gradientUnits="objectBoundingBox">
      <stop offset="0" stop-color="#09005d"/>
      <stop offset="1" stop-color="#1a0f91"/>
    </linearGradient>
    <linearGradient id="linear-gradient-6" x1="0" y1="0.5" x2="1" y2="0.5" xlink:href="#linear-gradient"/>
    <linearGradient id="linear-gradient-7" x1="0" y1="0.5" x2="1" y2="0.5" xlink:href="#linear-gradient"/>
    <linearGradient id="linear-gradient-8" x1="-0.187" y1="1.215" x2="0.831" y2="0.14" gradientUnits="objectBoundingBox">
      <stop offset="0" stop-color="#4042e2"/>
      <stop offset="1" stop-color="#4f52ff"/>
    </linearGradient>
    <linearGradient id="linear-gradient-10" x1="1.099" y1="-0.392" x2="-2.674" y2="5.225" xlink:href="#linear-gradient-2"/>
    <linearGradient id="linear-gradient-11" x1="1.155" y1="-1.755" x2="-0.889" y2="6.276" xlink:href="#linear-gradient-2"/>
    <linearGradient id="linear-gradient-23" x1="2.578" y1="-2.211" x2="-1.787" y2="3.403" xlink:href="#linear-gradient-2"/>
    <linearGradient id="linear-gradient-26" x1="3.377" y1="-3.239" x2="-0.988" y2="2.375" xlink:href="#linear-gradient-2"/>
    <linearGradient id="linear-gradient-29" x1="4.049" y1="-3.235" x2="-1.695" y2="2.799" xlink:href="#linear-gradient-2"/>
    <linearGradient id="linear-gradient-32" x1="4.975" y1="-5.294" x2="0.61" y2="0.32" xlink:href="#linear-gradient-2"/>
    <linearGradient id="linear-gradient-33" x1="1.519" y1="-0.775" x2="-1.484" y2="2.907" xlink:href="#linear-gradient-5"/>
    <linearGradient id="linear-gradient-35" x1="1.004" y1="-2.464" x2="-0.074" y2="4.125" xlink:href="#linear-gradient-5"/>
    <linearGradient id="linear-gradient-38" x1="0.727" y1="-2.869" x2="0.282" y2="3.71" xlink:href="#linear-gradient-8"/>
    <linearGradient id="linear-gradient-39" x1="-0.281" y1="0.954" x2="1.881" y2="-0.303" xlink:href="#linear-gradient-8"/>
    <linearGradient id="linear-gradient-40" x1="0.507" y1="0.068" x2="0.761" y2="-21.397" xlink:href="#linear-gradient-8"/>
    <linearGradient id="linear-gradient-41" x1="0.34" y1="4.039" x2="0.537" y2="-0.315" xlink:href="#linear-gradient-8"/>
    <linearGradient id="linear-gradient-42" x1="0.712" y1="0.715" x2="0.854" y2="1.061" gradientUnits="objectBoundingBox">
      <stop offset="0" stop-color="#ff928e"/>
      <stop offset="1" stop-color="#feb3b1"/>
    </linearGradient>
    <linearGradient id="linear-gradient-43" x1="0.532" y1="0.006" x2="0.327" y2="3.202" xlink:href="#linear-gradient-5"/>
    <linearGradient id="linear-gradient-44" x1="0.258" y1="0.704" x2="0.871" y2="0.217" xlink:href="#linear-gradient-42"/>
    <linearGradient id="linear-gradient-45" x1="0" y1="0.5" x2="1" y2="0.5" xlink:href="#linear-gradient-5"/>
    <linearGradient id="linear-gradient-46" x1="0.554" y1="-2.158" x2="0.395" y2="6.275" xlink:href="#linear-gradient-5"/>
    <linearGradient id="linear-gradient-47" x1="0.958" y1="0.108" x2="0.417" y2="0.574" xlink:href="#linear-gradient-5"/>
    <linearGradient id="linear-gradient-48" x1="0.492" y1="0.677" x2="0.267" y2="1.767" xlink:href="#linear-gradient-2"/>
    <linearGradient id="linear-gradient-49" x1="0.268" y1="-0.098" x2="0.725" y2="1.234" xlink:href="#linear-gradient-42"/>
    <linearGradient id="linear-gradient-50" x1="-0.006" y1="0.333" x2="0.924" y2="0.733" xlink:href="#linear-gradient-42"/>
    <linearGradient id="linear-gradient-51" x1="-4.903" y1="2.288" x2="-5.834" y2="3.144" xlink:href="#linear-gradient-5"/>
    <linearGradient id="linear-gradient-52" x1="-2.645" y1="-0.595" x2="0.947" y2="0.669" xlink:href="#linear-gradient-42"/>
    <linearGradient id="linear-gradient-53" x1="1.73" y1="-0.13" x2="-1.657" y2="1.467" xlink:href="#linear-gradient-8"/>
    <linearGradient id="linear-gradient-54" x1="1.289" y1="0.127" x2="-2.098" y2="1.724" xlink:href="#linear-gradient-8"/>
    <linearGradient id="linear-gradient-55" x1="0.484" y1="1.179" x2="0.561" y2="-2.195" xlink:href="#linear-gradient-2"/>
    <linearGradient id="linear-gradient-56" x1="-11.7" y1="1.564" x2="-12.039" y2="2.918" xlink:href="#linear-gradient-42"/>
    <linearGradient id="linear-gradient-57" x1="0.981" y1="-0.227" x2="0.175" y2="0.832" xlink:href="#linear-gradient-8"/>
    <linearGradient id="linear-gradient-58" x1="0" y1="0.5" x2="1" y2="0.5" xlink:href="#linear-gradient-2"/>
    <linearGradient id="linear-gradient-59" x1="0.772" y1="-6.693" x2="0.499" y2="0.843" gradientUnits="objectBoundingBox">
      <stop offset="0" stop-color="#020039"/>
      <stop offset="1" stop-color="#090056"/>
    </linearGradient>
    <linearGradient id="linear-gradient-60" x1="0" y1="0.5" x2="1" y2="0.5" xlink:href="#linear-gradient-42"/>
    <linearGradient id="linear-gradient-62" x1="0.734" y1="-1.867" x2="0.424" y2="1.1" xlink:href="#linear-gradient-59"/>
    <linearGradient id="linear-gradient-63" x1="0.5" y1="-1.229" x2="0.5" y2="-0.49" xlink:href="#linear-gradient-59"/>
    <linearGradient id="linear-gradient-65" x1="-0.095" y1="2.406" x2="0.49" y2="0.529" xlink:href="#linear-gradient-5"/>
    <linearGradient id="linear-gradient-66" x1="0.896" y1="0.143" x2="-0.542" y2="1.535" xlink:href="#linear-gradient-8"/>
    <linearGradient id="linear-gradient-67" x1="0.635" y1="0.392" x2="0.098" y2="1.51" xlink:href="#linear-gradient-42"/>
    <linearGradient id="linear-gradient-68" x1="-13.162" y1="18.226" x2="-14.749" y2="19.599" xlink:href="#linear-gradient-42"/>
    <linearGradient id="linear-gradient-69" x1="-7.917" y1="11.511" x2="-6.838" y2="11.511" xlink:href="#linear-gradient-5"/>
    <linearGradient id="linear-gradient-70" x1="-37.347" y1="53.511" x2="-34.193" y2="51.086" xlink:href="#linear-gradient-42"/>
    <linearGradient id="linear-gradient-71" x1="0.506" y1="-1.243" x2="0.427" y2="24.46" xlink:href="#linear-gradient-8"/>
    <linearGradient id="linear-gradient-72" x1="1" y1="0.5" x2="0" y2="0.5" xlink:href="#linear-gradient-5"/>
    <linearGradient id="linear-gradient-74" x1="2.218" y1="1.584" x2="0.046" y2="0.207" xlink:href="#linear-gradient-42"/>
  </defs>
  <path id="Path_463" data-name="Path 463" d="M304.72,101.668c11.7,24.677,52.308-2.737,51.881,42.759-.5,53.272-17.6,79.916-8.248,120.708,8.723,38.05-20.586,65.09-72.515,64.3S149.3,281.652,169.427,230.614s6.717-53.655,5.735-76.212S179.9,82.37,220.115,123.63,275.09,39.179,304.72,101.668Z" transform="translate(-135.399 -83.904)" fill="url(#linear-gradient)"/>
  <g id="Group_350" data-name="Group 350" transform="translate(130.956 8.14)">
    <circle id="Ellipse_11" data-name="Ellipse 11" cx="14.667" cy="14.667" r="14.667" transform="translate(0 29.19) rotate(-84.345)" fill="#91b3fa"/>
    <circle id="Ellipse_12" data-name="Ellipse 12" cx="14.667" cy="14.667" r="14.667" transform="matrix(0.081, -0.997, 0.997, 0.081, 36.681, 29.466)" fill="#91b3fa"/>
    <circle id="Ellipse_13" data-name="Ellipse 13" cx="14.667" cy="14.667" r="14.667" transform="matrix(0.125, -0.992, 0.992, 0.125, 72.559, 29.242)" fill="#91b3fa"/>
    <g id="Group_348" data-name="Group 348" transform="translate(4.233 4.713)">
      <path id="Path_464" data-name="Path 464" d="M1622.724,362.708a9.421,9.421,0,1,1-8.715-5.841q.239,0,.475.012v-2.388c-.158-.006-.316-.01-.475-.01a11.8,11.8,0,1,0,10.905,7.276Z" transform="translate(-1602.202 -354.481)" fill="url(#linear-gradient-2)"/>
      <path id="Path_465" data-name="Path 465" d="M1835.943,374.259a9.42,9.42,0,1,1-5.02-17.391q.239,0,.475.012v-2.388c-.158-.006-.316-.01-.475-.01a11.807,11.807,0,1,0,6.2,21.854Z" transform="translate(-1782.825 -354.481)" fill="url(#linear-gradient-3)"/>
      <path id="Path_466" data-name="Path 466" d="M2057.964,371.585a9.421,9.421,0,1,1-7.791-14.717q.239,0,.475.012v-2.388c-.158-.006-.316-.01-.475-.01a11.807,11.807,0,1,0,9.725,18.5Z" transform="translate(-1965.394 -354.481)" fill="url(#linear-gradient-4)"/>
    </g>
    <g id="Group_349" data-name="Group 349" transform="translate(1.374 36.92)" opacity="0.64">
      <path id="Path_467" data-name="Path 467" d="M1611.727,546.983h-23.9a2.716,2.716,0,1,0,0,5.433h23.9a2.716,2.716,0,1,0,0-5.433Z" transform="translate(-1585.11 -546.983)" fill="#91b3fa"/>
      <path id="Path_468" data-name="Path 468" d="M1829.6,546.983h-23.9a2.716,2.716,0,1,0,0,5.433h23.9a2.716,2.716,0,0,0,0-5.433Z" transform="translate(-1766.53 -546.983)" fill="#91b3fa"/>
      <path id="Path_469" data-name="Path 469" d="M2023.568,552.416h23.9a2.716,2.716,0,0,0,0-5.433h-23.9a2.716,2.716,0,0,0,0,5.433Z" transform="translate(-1947.951 -546.983)" fill="#91b3fa"/>
      <rect id="Rectangle_106" data-name="Rectangle 106" width="29.333" height="21.429" rx="10.714" transform="translate(0 8.451)" fill="#91b3fa"/>
      <path id="Rectangle_107" data-name="Rectangle 107" d="M10.714,0h7.9A10.714,10.714,0,0,1,29.333,10.714v0A10.714,10.714,0,0,1,18.619,21.429h-7.9A10.714,10.714,0,0,1,0,10.714v0A10.714,10.714,0,0,1,10.714,0Z" transform="translate(36.451 8.451)" fill="#91b3fa"/>
      <rect id="Rectangle_108" data-name="Rectangle 108" width="29.333" height="21.429" rx="10.714" transform="translate(72.901 8.451)" fill="#91b3fa"/>
    </g>
  </g>
  <g id="Group_352" data-name="Group 352" transform="translate(9.225 64.373)">
    <path id="Path_472" data-name="Path 472" d="M362.577,508.375s-6.024-4.448-1.345-19.77c4.116-13.479,8.675-21.912,14.467-19.532s-3.8,30.437-10.984,39.188c0,0-14.188,135.141,93.137,133.286C457.852,641.547,357.15,661.634,362.577,508.375Z" transform="translate(-359.452 -468.672)" fill="#bdd0fb"/>
    <path id="Path_473" data-name="Path 473" d="M373.638,512.745a.511.511,0,0,1-.458-.283c-2.756-5.529,1.788-20.627,7.387-29.441.429-.676,3.306-3.232,4.529-2.847,1.239.39,1.328,1.922,1.028,3.116a25.25,25.25,0,0,1-3.5,7.884.511.511,0,0,1-.85-.568,24.234,24.234,0,0,0,3.355-7.566c.167-.664.213-1.716-.344-1.891-.53-.063-2.906,1.706-3.359,2.42-5.97,9.4-9.671,23.749-7.335,28.437a.512.512,0,0,1-.457.739Z" transform="translate(-370.194 -478.217)" fill="#dce5fe"/>
  </g>
  <g id="Group_353" data-name="Group 353" transform="translate(32.416 45.083)" opacity="0.91">
    <path id="Path_474" data-name="Path 474" d="M501.513,353.664c17.685,11.46,117.877,82.352,68.24,188.32,0,0-77.974-29.691-70.993-186.908A1.783,1.783,0,0,1,501.513,353.664Z" transform="translate(-498.318 -353.375)" fill="#bdd0fb"/>
    <path id="Path_475" data-name="Path 475" d="M558.953,473.083s5.694,8.345,13.727,21.187l3.118,5.017,3.3,5.394c2.245,3.713,4.6,7.635,6.984,11.726s4.819,8.333,7.257,12.665l3.634,6.568c1.191,2.216,2.411,4.427,3.586,6.662s2.37,4.461,3.508,6.7l1.72,3.349c.57,1.114,1.118,2.236,1.675,3.347l1.653,3.325,1.6,3.313c1.071,2.19,2.077,4.378,3.072,6.527,1.987,4.3,3.825,8.5,5.5,12.506s3.181,7.833,4.485,11.4c.681,1.771,1.261,3.495,1.824,5.131l.823,2.389c.257.778.485,1.541.718,2.277.452,1.475.908,2.846,1.271,4.131l.978,3.54.415,1.517.318,1.351.5,2.131.418,1.775a.681.681,0,1,1-1.326.312v0l-.007-.028-.4-1.758-.486-2.112-.308-1.339-.4-1.506-.952-3.515c-.354-1.277-.8-2.641-1.242-4.109-.228-.732-.45-1.491-.7-2.265l-.807-2.38c-.552-1.629-1.119-3.347-1.789-5.112-1.28-3.552-2.766-7.366-4.411-11.37s-3.46-8.2-5.422-12.495c-.983-2.148-1.975-4.336-3.033-6.526l-1.576-3.313-1.634-3.326c-.551-1.112-1.092-2.234-1.656-3.349l-1.7-3.352c-1.125-2.245-2.308-4.473-3.469-6.71s-2.37-4.451-3.549-6.67l-3.6-6.577c-2.414-4.339-4.812-8.6-7.187-12.686s-4.7-8.028-6.921-11.749l-3.267-5.4-3.091-5.028c-1.993-3.216-3.836-6.155-5.487-8.748s-3.1-4.846-4.3-6.7c-2.409-3.7-3.819-5.788-3.819-5.788a.289.289,0,0,1,.478-.324Z" transform="translate(-548.369 -452.95)" fill="#dce5fe"/>
  </g>
  <g id="Group_354" data-name="Group 354" transform="translate(134.268 73.962)">
    <path id="Path_476" data-name="Path 476" d="M1709.931,527.685c1.579,21.523,5.654,147.153-111.548,172.153,0,0-23.974-82.016,108.693-173.527A1.826,1.826,0,0,1,1709.931,527.685Z" transform="translate(-1596.693 -525.987)" fill="#bdd0fb"/>
    <path id="Path_477" data-name="Path 477" d="M1834.932,643.619s-3.293,9.808-8.81,24.306l-2.168,5.647-2.365,6.026c-1.643,4.128-3.388,8.478-5.255,12.952-1.851,4.481-3.823,9.086-5.853,13.754l-3.115,7.028c-1.073,2.342-2.123,4.705-3.221,7.047s-2.176,4.693-3.3,7.009l-1.671,3.475c-.557,1.154-1.134,2.3-1.7,3.437l-1.693,3.406-1.718,3.351c-1.126,2.228-2.29,4.4-3.43,6.544-2.282,4.281-4.573,8.376-6.81,12.222s-4.428,7.44-6.531,10.707c-1.024,1.651-2.074,3.19-3.061,4.661l-1.442,2.149c-.476.691-.958,1.349-1.414,1.994-.925,1.281-1.762,2.5-2.587,3.592l-2.285,2.986-.981,1.277-.906,1.1-1.43,1.727-1.19,1.438a.681.681,0,1,1-1.05-.869l0,0,.018-.022,1.185-1.418,1.424-1.7.9-1.08.979-1.262,2.281-2.951c.824-1.079,1.662-2.287,2.586-3.555.456-.638.938-1.289,1.415-1.974l1.444-2.13c.988-1.458,2.04-2.983,3.067-4.622,2.108-3.242,4.3-6.813,6.555-10.632s4.551-7.893,6.848-12.153c1.147-2.131,2.319-4.294,3.453-6.512l1.73-3.335,1.705-3.391c.567-1.137,1.148-2.273,1.71-3.423l1.684-3.461c1.137-2.307,2.224-4.65,3.333-6.982s2.168-4.688,3.25-7.021l3.145-7c2.049-4.653,4.042-9.244,5.912-13.712,1.886-4.461,3.651-8.8,5.312-12.915l2.392-6.01,2.193-5.633c1.394-3.616,2.653-6.937,3.748-9.889s2.038-5.53,2.805-7.655c1.531-4.254,2.364-6.7,2.364-6.7a.289.289,0,0,1,.547.186Z" transform="translate(-1733.333 -623.621)" fill="#dce5fe"/>
  </g>
  <g id="Group_355" data-name="Group 355" transform="translate(0 168.783)">
    <path id="Path_478" data-name="Path 478" d="M217.246,1094.228a1,1,0,0,1,1.444-1.3c8.344,5.652,30.689,19.786,48.655,22.121,29.253,3.8,62.2,22.278,64.314,44.5C331.659,1159.541,270.665,1194.463,217.246,1094.228Z" transform="translate(-217.123 -1092.747)" fill="#bdd0fb"/>
    <path id="Path_479" data-name="Path 479" d="M280.1,1155.746l.227.2.674.562c.6.5,1.5,1.21,2.643,2.118s2.545,1.991,4.169,3.214,3.471,2.583,5.486,4.066c2.027,1.467,4.227,3.05,6.587,4.676s4.868,3.313,7.473,5.041c2.616,1.711,5.328,3.467,8.126,5.182l2.1,1.294,2.134,1.272c1.421.86,2.872,1.679,4.315,2.513s2.913,1.619,4.357,2.438l4.362,2.347c1.461.744,2.9,1.508,4.341,2.216l2.152,1.053c.711.352,1.42.694,2.131,1.016,2.828,1.326,5.592,2.541,8.232,3.646s5.171,2.066,7.517,2.923l3.39,1.165c1.081.355,2.116.666,3.084.972l1.407.437,1.322.361,2.329.635c1.413.355,2.533.6,3.292.784l1.167.274.007,0a.17.17,0,0,1-.072.333l-1.179-.234c-.767-.16-1.9-.36-3.329-.685l-2.355-.578-1.338-.328-1.424-.4c-.979-.284-2.029-.564-3.123-.9l-3.426-1.117c-2.372-.823-4.932-1.746-7.6-2.819-2.676-1.057-5.458-2.271-8.306-3.589-.717-.32-1.431-.661-2.147-1.01l-2.167-1.046c-1.453-.7-2.9-1.464-4.372-2.2l-4.392-2.334c-1.455-.812-2.922-1.617-4.368-2.459s-2.9-1.673-4.319-2.542l-2.136-1.286-2.105-1.307c-2.8-1.733-5.512-3.506-8.128-5.234-2.6-1.752-5.093-3.474-7.43-5.147s-4.527-3.279-6.539-4.775c-4.007-3.015-7.264-5.635-9.522-7.494-1.127-.933-2-1.679-2.591-2.2-.294-.253-.528-.468-.681-.6l-.222-.213a.17.17,0,0,1,.231-.249Z" transform="translate(-269.314 -1145.159)" fill="#dce5fe"/>
  </g>
  <g id="Group_357" data-name="Group 357" transform="translate(158.202 75.42)">
    <path id="Path_480" data-name="Path 480" d="M1705.432,535.355a.872.872,0,0,0-1.692.01c-2.048,8.526-8.117,30.713-18.293,42.751-16.569,19.6-26.908,50.8-15.233,66.313C1670.214,644.428,1729.89,631.1,1705.432,535.355Z" transform="translate(-1665.223 -534.699)" fill="#91b3fa"/>
    <path id="Path_481" data-name="Path 481" d="M1746.222,610.115l-.017.267-.081.79c-.074.679-.2,1.672-.37,2.933-.358,2.52-.906,6.115-1.708,10.4-.412,2.142-.865,4.463-1.394,6.906s-1.107,5.017-1.749,7.669c-.667,2.645-1.37,5.376-2.152,8.133l-.586,2.076-.618,2.08c-.4,1.393-.851,2.778-1.284,4.168s-.9,2.768-1.364,4.143l-1.456,4.077c-.513,1.339-1,2.676-1.52,3.981s-1.022,2.6-1.568,3.852c-1.058,2.518-2.135,4.93-3.239,7.178s-2.2,4.349-3.24,6.269l-1.55,2.727c-.506.858-1.019,1.652-1.483,2.409l-.682,1.093-.669.995-1.178,1.751c-.729,1.045-1.344,1.837-1.744,2.39l-.622.841a.17.17,0,0,1-.278-.2l0-.006.586-.862c.378-.565.952-1.38,1.65-2.438l1.12-1.776.636-1.008.646-1.107c.441-.765.921-1.572,1.406-2.435l1.491-2.737c1-1.927,2.066-4.027,3.108-6.289s2.107-4.66,3.145-7.17c.536-1.248,1.016-2.544,1.537-3.841s.986-2.635,1.488-3.969l1.424-4.065c.446-1.373.934-2.738,1.37-4.121s.891-2.759,1.3-4.144l.626-2.069.594-2.065c.793-2.742,1.507-5.46,2.186-8.093.661-2.637,1.3-5.188,1.853-7.62.566-2.428,1.053-4.735,1.5-6.866.426-2.134.83-4.088,1.149-5.828s.59-3.257.8-4.509.368-2.237.462-2.909l.105-.754c.017-.174.026-.265.026-.265l0-.019a.17.17,0,0,1,.339.028Z" transform="translate(-1707.204 -597.347)" fill="#dce5fe"/>
  </g>
  <path id="Skin" d="M0,5.994,4.406,3.573Q5.334.044,6.623.022c.661-.307-.49,2.665.762,2.408S11.694-.1,12.221.361c.779.683.084,2.779-.734,3.822C9.957,6.132,8.69,6.8,5.56,7.671A17.21,17.21,0,0,0,.251,10.416Z" transform="translate(53.844 166.226) rotate(-4)" fill="#f09791" fill-rule="evenodd"/>
  <g id="Group_381" data-name="Group 381" transform="translate(16.355 74.357)">
    <path id="Path_563" data-name="Path 563" d="M508.907,956.581l-.633-.8a.517.517,0,1,1,.812-.64l0,0,.624.81a.511.511,0,0,1-.807.628Z" transform="translate(-499.67 -874.656)" fill="#7d97f4"/>
    <path id="Path_564" data-name="Path 564" d="M497.131,939.748l-.559-.856a.536.536,0,0,1,.9-.586l0,.005.549.862a.53.53,0,0,1-.891.575Z" transform="translate(-489.946 -860.602)" fill="#7d97f4"/>
    <path id="Path_565" data-name="Path 565" d="M486.866,921.957l-.483-.9a.555.555,0,0,1,.979-.525l0,.006.473.906a.55.55,0,0,1-.972.513Z" transform="translate(-481.48 -845.759)" fill="#7d97f4"/>
    <path id="Path_566" data-name="Path 566" d="M478.145,903.365l-.405-.938a.574.574,0,1,1,1.055-.455l0,.006.395.943a.569.569,0,0,1-1.047.445Z" transform="translate(-474.298 -830.26)" fill="#7d97f4"/>
    <path id="Path_567" data-name="Path 567" d="M470.975,884.126l-.328-.968a.594.594,0,0,1,1.125-.381l0,.006.317.972a.588.588,0,0,1-1.116.371Z" transform="translate(-468.405 -814.23)" fill="#7d97f4"/>
    <path id="Path_568" data-name="Path 568" d="M465.346,864.387l-.251-.991a.613.613,0,0,1,1.188-.3l0,.007.24.994a.607.607,0,0,1-1.179.292Z" transform="translate(-463.792 -797.791)" fill="#7d97f4"/>
    <path id="Path_569" data-name="Path 569" d="M461.233,844.281l-.176-1.007a.632.632,0,1,1,1.245-.217v.007l.164,1.009a.626.626,0,0,1-1.235.209Z" transform="translate(-460.438 -781.055)" fill="#7d97f4"/>
    <path id="Path_570" data-name="Path 570" d="M458.607,823.933l-.1-1.017a.651.651,0,1,1,1.3-.13v.007l.091,1.018a.645.645,0,0,1-1.285.122Z" transform="translate(-458.317 -764.123)" fill="#7d97f4"/>
    <path id="Path_571" data-name="Path 571" d="M457.432,803.454l-.03-1.022a.67.67,0,1,1,1.34-.04v.008l.019,1.022a.665.665,0,0,1-1.329.032Z" transform="translate(-457.401 -747.088)" fill="#7d97f4"/>
    <path id="Path_572" data-name="Path 572" d="M457.474,782.95l.04-1.021a.69.69,0,0,1,1.378.054v.008l-.052,1.021a.684.684,0,0,1-1.366-.061Z" transform="translate(-457.462 -730.038)" fill="#7d97f4"/>
    <path id="Path_573" data-name="Path 573" d="M458.762,762.517l.109-1.016a.709.709,0,0,1,1.409.151v.008l-.12,1.015a.7.7,0,0,1-1.4-.158Z" transform="translate(-458.531 -713.053)" fill="#7d97f4"/>
    <path id="Path_574" data-name="Path 574" d="M461.414,742.24l.177-1.008a.728.728,0,1,1,1.433.252v.008l-.188,1.006a.722.722,0,0,1-1.421-.258Z" transform="translate(-460.734 -696.201)" fill="#7d97f4"/>
    <path id="Path_575" data-name="Path 575" d="M465.451,722.27l.246-.992a.738.738,0,1,1,1.432.355v0l-.252.991a.735.735,0,0,1-1.425-.358Z" transform="translate(-464.086 -679.619)" fill="#7d97f4"/>
    <path id="Path_576" data-name="Path 576" d="M470.825,702.632l.312-.974a.748.748,0,0,1,1.424.456v0l-.318.972a.745.745,0,0,1-1.417-.458Z" transform="translate(-468.55 -663.316)" fill="#7d97f4"/>
    <path id="Path_577" data-name="Path 577" d="M477.51,683.424l.377-.95a.758.758,0,1,1,1.409.559l0,0-.382.948a.755.755,0,0,1-1.4-.561Z" transform="translate(-474.101 -647.375)" fill="#7d97f4"/>
    <path id="Path_578" data-name="Path 578" d="M485.489,664.734l.442-.923a.768.768,0,0,1,1.385.663l0,0-.448.921a.765.765,0,0,1-1.377-.665Z" transform="translate(-480.728 -631.87)" fill="#7d97f4"/>
    <path id="Path_579" data-name="Path 579" d="M494.759,646.674l.506-.889a.778.778,0,0,1,1.352.769l0,0-.511.887a.775.775,0,0,1-1.344-.77Z" transform="translate(-488.424 -616.896)" fill="#7d97f4"/>
    <path id="Path_580" data-name="Path 580" d="M505.3,629.349l.569-.85a.788.788,0,0,1,1.309.876l0,0-.574.846a.785.785,0,0,1-1.3-.877Z" transform="translate(-497.176 -602.539)" fill="#7d97f4"/>
    <path id="Path_581" data-name="Path 581" d="M517.073,612.857l.626-.808a.8.8,0,0,1,1.261.977l0,0-.631.8a.795.795,0,0,1-1.254-.977Z" transform="translate(-506.951 -588.874)" fill="#7d97f4"/>
    <path id="Path_582" data-name="Path 582" d="M529.931,597.2l.677-.766a.808.808,0,0,1,1.21,1.07l0,0-.681.762a.8.8,0,0,1-1.2-1.069Z" transform="translate(-517.629 -575.899)" fill="#7d97f4"/>
    <path id="Path_583" data-name="Path 583" d="M543.777,582.41l.724-.722a.818.818,0,1,1,1.155,1.158l0,0-.728.717a.815.815,0,0,1-1.147-1.157Z" transform="translate(-529.126 -563.652)" fill="#7d97f4"/>
    <path id="Path_584" data-name="Path 584" d="M558.53,568.529l.767-.676a.828.828,0,0,1,1.094,1.242l0,0-.771.671a.825.825,0,0,1-1.087-1.241Z" transform="translate(-541.378 -552.158)" fill="#7d97f4"/>
    <path id="Path_585" data-name="Path 585" d="M574.11,555.58l.806-.629a.838.838,0,1,1,1.031,1.321l0,0-.81.624a.835.835,0,0,1-1.023-1.319Z" transform="translate(-554.317 -541.438)" fill="#7d97f4"/>
    <path id="Path_586" data-name="Path 586" d="M590.436,543.579l.841-.581a.848.848,0,0,1,.964,1.395l0,0-.844.576a.845.845,0,0,1-.957-1.392Z" transform="translate(-567.876 -531.507)" fill="#7d97f4"/>
    <path id="Path_587" data-name="Path 587" d="M607.432,532.536,608.3,532a.858.858,0,0,1,.9,1.464l0,0-.875.528a.855.855,0,0,1-.887-1.461Z" transform="translate(-581.991 -522.372)" fill="#7d97f4"/>
    <path id="Path_588" data-name="Path 588" d="M625.014,522.469l.9-.484a.866.866,0,1,1,.819,1.526h0l-.9.482a.865.865,0,0,1-.816-1.525Z" transform="translate(-596.592 -514.05)" fill="#7d97f4"/>
    <path id="Path_589" data-name="Path 589" d="M643.171,513.4l.925-.435a.868.868,0,0,1,.738,1.571h0l-.926.434a.867.867,0,0,1-.737-1.57Z" transform="translate(-611.676 -506.555)" fill="#7d97f4"/>
    <path id="Path_590" data-name="Path 590" d="M661.793,505.291l.946-.387a.87.87,0,0,1,.658,1.611h0l-.947.386a.869.869,0,0,1-.657-1.61Z" transform="translate(-627.147 -499.858)" fill="#7d97f4"/>
    <path id="Path_591" data-name="Path 591" d="M680.815,498.146l.964-.338a.872.872,0,0,1,.578,1.646h0l-.964.337a.871.871,0,0,1-.576-1.645Z" transform="translate(-642.951 -493.962)" fill="#7d97f4"/>
    <path id="Path_592" data-name="Path 592" d="M700.171,491.96l.981-.291a.874.874,0,0,1,.5,1.676h0l-.981.289a.874.874,0,0,1-.5-1.675Z" transform="translate(-659.034 -488.861)" fill="#7d97f4"/>
    <path id="Path_593" data-name="Path 593" d="M719.83,486.73l.995-.243a.876.876,0,0,1,.416,1.7h0l-.995.242a.876.876,0,0,1-.415-1.7Z" transform="translate(-675.448 -484.555)" fill="#7d97f4"/>
    <path id="Path_594" data-name="Path 594" d="M739.737,482.461l1-.195a.879.879,0,0,1,.334,1.725h0l-1,.193a.878.878,0,0,1-.333-1.724Z" transform="translate(-691.995 -481.048)" fill="#7d97f4"/>
    <path id="Path_595" data-name="Path 595" d="M759.828,479.155l1.012-.146a.881.881,0,0,1,.252,1.743h0l-1.012.145a.88.88,0,0,1-.251-1.742Z" transform="translate(-708.694 -478.341)" fill="#7d97f4"/>
    <path id="Path_596" data-name="Path 596" d="M780.065,476.815l1.018-.1a.883.883,0,1,1,.169,1.757h0l-1.018.1a.882.882,0,0,1-.167-1.756Z" transform="translate(-725.515 -476.438)" fill="#7d97f4"/>
    <path id="Path_597" data-name="Path 597" d="M800.4,475.451l1.022-.049a.885.885,0,0,1,.084,1.768h0l-1.022.047a.884.884,0,0,1-.083-1.767Z" transform="translate(-742.419 -475.345)" fill="#7d97f4"/>
    <path id="Path_598" data-name="Path 598" d="M820.792,475.068h1.029a.887.887,0,1,1,0,1.774h-.009l-1.016,0h0a.886.886,0,0,1,0-1.773Z" transform="translate(-759.367 -475.068)" fill="#7d97f4"/>
    <path id="Path_599" data-name="Path 599" d="M841.2,475.405l1.021.046a.889.889,0,0,1-.08,1.776h0l-1.021-.047a.888.888,0,0,1,.081-1.775Z" transform="translate(-776.331 -475.348)" fill="#7d97f4"/>
    <path id="Path_600" data-name="Path 600" d="M861.556,476.633l1.018.09a.891.891,0,1,1-.156,1.775h0l-1.018-.091a.891.891,0,0,1,.157-1.774Z" transform="translate(-793.255 -476.368)" fill="#7d97f4"/>
    <path id="Path_601" data-name="Path 601" d="M881.842,478.723l1.014.132a.893.893,0,1,1-.231,1.772h0l-1.014-.133a.893.893,0,0,1,.232-1.77Z" transform="translate(-810.12 -478.105)" fill="#7d97f4"/>
    <path id="Path_602" data-name="Path 602" d="M902.022,481.649l1.008.173a.9.9,0,1,1-.3,1.765h0l-1.007-.174a.895.895,0,0,1,.3-1.764Z" transform="translate(-826.899 -480.537)" fill="#7d97f4"/>
    <path id="Path_603" data-name="Path 603" d="M922.068,485.379l1,.212a.9.9,0,1,1-.373,1.756h0l-1-.214a.9.9,0,0,1,.374-1.754Z" transform="translate(-843.566 -483.637)" fill="#7d97f4"/>
    <path id="Path_604" data-name="Path 604" d="M941.953,489.88l.991.25a.9.9,0,0,1-.44,1.745h0l-.991-.251a.9.9,0,0,1,.441-1.743Z" transform="translate(-860.1 -487.379)" fill="#7d97f4"/>
    <path id="Path_605" data-name="Path 605" d="M961.656,495.121l.981.286a.9.9,0,1,1-.5,1.732h0l-.981-.287a.9.9,0,0,1,.505-1.73Z" transform="translate(-876.484 -491.736)" fill="#7d97f4"/>
    <path id="Path_606" data-name="Path 606" d="M981.155,501.069l.971.32a.9.9,0,0,1-.566,1.717h0l-.97-.322a.9.9,0,0,1,.567-1.715Z" transform="translate(-892.7 -496.681)" fill="#7d97f4"/>
    <path id="Path_607" data-name="Path 607" d="M1000.426,507.69l.959.355a.9.9,0,0,1-.625,1.7l-.96-.352a.905.905,0,0,1,.624-1.7Z" transform="translate(-908.725 -502.185)" fill="#7d97f4"/>
    <path id="Path_608" data-name="Path 608" d="M1019.505,515l.945.386a.9.9,0,0,1-.677,1.666l-.946-.383A.9.9,0,0,1,1019.5,515Z" transform="translate(-924.6 -508.26)" fill="#7d97f4"/>
    <path id="Path_609" data-name="Path 609" d="M1038.329,522.911l.934.416a.894.894,0,0,1-.725,1.634l-.935-.413a.9.9,0,1,1,.724-1.638Z" transform="translate(-940.264 -514.842)" fill="#7d97f4"/>
    <path id="Path_610" data-name="Path 610" d="M1056.9,531.412l.921.445a.889.889,0,0,1-.77,1.6l-.923-.442a.891.891,0,1,1,.77-1.606Z" transform="translate(-955.721 -521.912)" fill="#7d97f4"/>
    <path id="Path_611" data-name="Path 611" d="M1075.215,540.471l.908.472a.884.884,0,0,1-.813,1.57l-.91-.469a.886.886,0,0,1,.812-1.574Z" transform="translate(-970.962 -529.446)" fill="#7d97f4"/>
    <path id="Path_612" data-name="Path 612" d="M1093.258,550.062l.895.5a.879.879,0,0,1-.853,1.537l-.9-.5a.881.881,0,1,1,.852-1.541Z" transform="translate(-985.98 -537.423)" fill="#7d97f4"/>
    <path id="Path_613" data-name="Path 613" d="M1111.026,560.161l.88.523a.874.874,0,0,1-.89,1.5l-.882-.52a.876.876,0,0,1,.889-1.508Z" transform="translate(-1000.768 -545.823)" fill="#7d97f4"/>
    <path id="Path_614" data-name="Path 614" d="M1128.508,570.745l.866.546a.869.869,0,0,1-.925,1.472l-.868-.544a.871.871,0,1,1,.925-1.476Z" transform="translate(-1015.32 -554.626)" fill="#7d97f4"/>
    <path id="Path_615" data-name="Path 615" d="M1145.7,581.791l.851.569a.864.864,0,0,1-.958,1.438l-.852-.566a.866.866,0,0,1,.958-1.442Z" transform="translate(-1029.63 -563.815)" fill="#7d97f4"/>
    <path id="Path_616" data-name="Path 616" d="M1162.59,593.279l.835.589a.859.859,0,0,1-.988,1.406l-.837-.587a.861.861,0,0,1,.988-1.41Z" transform="translate(-1043.693 -573.371)" fill="#7d97f4"/>
    <path id="Path_617" data-name="Path 617" d="M1179.192,605.157l.822.606A.854.854,0,0,1,1179,607.14l-.824-.6a.856.856,0,0,1,1.012-1.38Z" transform="translate(-1057.516 -583.253)" fill="#7d97f4"/>
    <path id="Path_618" data-name="Path 618" d="M1195.554,617.365l.811.621a.849.849,0,0,1-1.03,1.351l-.813-.619a.851.851,0,1,1,1.03-1.354Z" transform="translate(-1071.143 -593.412)" fill="#7d97f4"/>
    <path id="Path_619" data-name="Path 619" d="M1211.7,629.831l.8.632a.844.844,0,0,1-1.043,1.328l-.8-.63a.846.846,0,0,1,1.043-1.332Z" transform="translate(-1084.594 -603.787)" fill="#7d97f4"/>
    <path id="Path_620" data-name="Path 620" d="M1227.694,642.5l.8.641a.84.84,0,0,1-1.051,1.31l-.8-.638a.841.841,0,0,1,1.051-1.313Z" transform="translate(-1097.915 -614.336)" fill="#7d97f4"/>
    <path id="Path_621" data-name="Path 621" d="M1243.569,655.323l.792.646a.835.835,0,0,1-1.054,1.295l-.794-.644a.836.836,0,0,1,1.053-1.3Z" transform="translate(-1111.141 -625.009)" fill="#7d97f4"/>
    <path id="Path_622" data-name="Path 622" d="M1259.373,668.234l.79.649a.83.83,0,0,1-1.051,1.283l-.792-.647a.831.831,0,0,1,1.051-1.287Z" transform="translate(-1124.312 -635.759)" fill="#7d97f4"/>
    <path id="Path_623" data-name="Path 623" d="M1275.152,681.176l.79.649a.825.825,0,0,1-1.045,1.276l-.792-.647a.826.826,0,0,1,1.045-1.28Z" transform="translate(-1137.462 -646.537)" fill="#7d97f4"/>
    <path id="Path_624" data-name="Path 624" d="M1290.95,694.091l.793.646a.82.82,0,0,1-1.033,1.272l-.795-.644a.821.821,0,0,1,1.034-1.276Z" transform="translate(-1150.631 -657.294)" fill="#7d97f4"/>
    <path id="Path_625" data-name="Path 625" d="M1306.813,706.923l.8.64a.815.815,0,0,1-1.017,1.272l-.8-.638a.816.816,0,1,1,1.017-1.276Z" transform="translate(-1163.855 -667.983)" fill="#7d97f4"/>
    <path id="Path_626" data-name="Path 626" d="M1322.782,719.612l.8.631a.81.81,0,0,1-1,1.276l-.807-.629a.811.811,0,1,1,1-1.28Z" transform="translate(-1177.17 -678.555)" fill="#7d97f4"/>
    <path id="Path_627" data-name="Path 627" d="M1338.9,732.1l.812.618h0a.8.8,0,0,1-.973,1.282l-.817-.618a.806.806,0,1,1,.972-1.286h0Z" transform="translate(-1190.609 -688.958)" fill="#7d97f4"/>
    <path id="Path_628" data-name="Path 628" d="M1355.223,744.323l.825.6a.8.8,0,0,1-.942,1.293l-.827-.6a.8.8,0,0,1,.942-1.3Z" transform="translate(-1204.224 -699.147)" fill="#7d97f4"/>
    <path id="Path_629" data-name="Path 629" d="M1371.781,756.214l.839.585a.795.795,0,0,1-.907,1.305l-.84-.583a.8.8,0,1,1,.907-1.309Z" transform="translate(-1218.036 -709.058)" fill="#7d97f4"/>
    <path id="Path_630" data-name="Path 630" d="M1388.607,767.715l.853.564a.789.789,0,0,1-.868,1.319l-.855-.561a.791.791,0,0,1,.868-1.324Z" transform="translate(-1232.071 -718.644)" fill="#7d97f4"/>
    <path id="Path_631" data-name="Path 631" d="M1405.748,778.791l.868.54a.778.778,0,0,1-.818,1.324l-.871-.534a.781.781,0,1,1,.817-1.332Z" transform="translate(-1246.378 -727.879)" fill="#7d97f4"/>
    <path id="Path_632" data-name="Path 632" d="M1423.221,789.362l.885.512a.767.767,0,0,1-.764,1.33l-.888-.506a.77.77,0,0,1,.762-1.338Z" transform="translate(-1260.965 -736.693)" fill="#7d97f4"/>
    <path id="Path_633" data-name="Path 633" d="M1441.034,799.341l.9.48a.755.755,0,0,1-.7,1.336l-.906-.474a.759.759,0,1,1,.7-1.344Z" transform="translate(-1275.838 -745.015)" fill="#7d97f4"/>
    <path id="Path_634" data-name="Path 634" d="M1459.2,808.652l.922.444a.744.744,0,0,1-.641,1.343l-.925-.438a.747.747,0,0,1,.64-1.351Z" transform="translate(-1291.007 -752.781)" fill="#7d97f4"/>
    <path id="Path_635" data-name="Path 635" d="M1477.743,817.217l.939.4a.733.733,0,0,1-.574,1.348l-.942-.4a.736.736,0,0,1,.572-1.356Z" transform="translate(-1306.49 -759.924)" fill="#7d97f4"/>
    <path id="Path_636" data-name="Path 636" d="M1496.631,824.939l.956.358a.721.721,0,0,1-.5,1.352l-.959-.352a.725.725,0,0,1,.5-1.361Z" transform="translate(-1322.263 -766.366)" fill="#7d97f4"/>
    <path id="Path_637" data-name="Path 637" d="M1515.862,831.734l.973.309a.71.71,0,0,1-.425,1.354l-.975-.3a.713.713,0,0,1,.422-1.362Z" transform="translate(-1338.324 -772.035)" fill="#7d97f4"/>
    <path id="Path_638" data-name="Path 638" d="M1535.418,837.518l.99.255a.7.7,0,0,1-.345,1.354l-.991-.249a.7.7,0,1,1,.342-1.361Z" transform="translate(-1354.657 -776.86)" fill="#7d97f4"/>
    <path id="Path_639" data-name="Path 639" d="M1555.266,842.189l1,.194a.687.687,0,0,1-.256,1.35l-1.005-.187a.69.69,0,1,1,.253-1.357Z" transform="translate(-1371.237 -780.758)" fill="#7d97f4"/>
    <path id="Path_640" data-name="Path 640" d="M1575.367,845.6l1.014.13a.676.676,0,0,1-.167,1.341l-1.015-.123a.679.679,0,0,1,.163-1.348Z" transform="translate(-1388.106 -783.608)" fill="#7d97f4"/>
    <path id="Path_641" data-name="Path 641" d="M1595.642,847.727l1.02.064a.664.664,0,0,1-.078,1.326l-1.021-.057a.668.668,0,1,1,.074-1.333Z" transform="translate(-1405.035 -785.379)" fill="#7d97f4"/>
    <path id="Path_642" data-name="Path 642" d="M1616.008,848.5l1.022,0a.653.653,0,0,1,.011,1.306l-1.022.012A.656.656,0,1,1,1616,848.5Z" transform="translate(-1422.04 -786.016)" fill="#7d97f4"/>
    <path id="Path_643" data-name="Path 643" d="M1636.376,847.557l1.019-.076a.642.642,0,0,1,.1,1.279l-1.019.083a.645.645,0,1,1-.1-1.286Z" transform="translate(-1439.048 -785.173)" fill="#7d97f4"/>
    <path id="Path_644" data-name="Path 644" d="M1656.646,845.169l1.011-.15a.63.63,0,0,1,.189,1.246l-1.01.157a.634.634,0,1,1-.194-1.252Z" transform="translate(-1455.973 -783.119)" fill="#7d97f4"/>
    <path id="Path_645" data-name="Path 645" d="M1676.7,841.266l1-.228a.619.619,0,0,1,.28,1.206l-1,.234a.622.622,0,1,1-.285-1.211Z" transform="translate(-1472.723 -779.797)" fill="#7d97f4"/>
    <path id="Path_646" data-name="Path 646" d="M1696.416,835.784l.975-.308a.607.607,0,0,1,.37,1.157l-.973.315a.611.611,0,1,1-.376-1.162Z" transform="translate(-1489.184 -775.154)" fill="#7d97f4"/>
    <path id="Path_647" data-name="Path 647" d="M1715.625,828.673l.945-.391a.595.595,0,0,1,.46,1.1l-.941.4a.6.6,0,0,1-.468-1.1Z" transform="translate(-1505.226 -769.15)" fill="#7d97f4"/>
    <path id="Path_648" data-name="Path 648" d="M1734.193,819.922l.905-.475a.576.576,0,0,1,.541,1.017l-.9.485a.582.582,0,0,1-.552-1.024Z" transform="translate(-1520.737 -761.776)" fill="#7d97f4"/>
    <path id="Path_649" data-name="Path 649" d="M1751.9,809.489l.854-.559a.557.557,0,0,1,.615.929l-.848.568a.563.563,0,1,1-.626-.935Z" transform="translate(-1535.53 -752.998)" fill="#7d97f4"/>
    <path id="Path_650" data-name="Path 650" d="M1768.521,797.367l.791-.647a.538.538,0,0,1,.686.829l-.784.656a.544.544,0,0,1-.7-.834Z" transform="translate(-1549.415 -742.805)" fill="#7d97f4"/>
    <path id="Path_651" data-name="Path 651" d="M1783.75,783.51l.714-.731a.519.519,0,0,1,.747.722l-.706.739a.525.525,0,0,1-.76-.725Z" transform="translate(-1562.138 -731.167)" fill="#7d97f4"/>
    <path id="Path_652" data-name="Path 652" d="M1797.4,768.129l.632-.8a.5.5,0,0,1,.79.614l-.623.811a.506.506,0,1,1-.8-.617Z" transform="translate(-1573.542 -718.27)" fill="#7d97f4"/>
    <path id="Path_653" data-name="Path 653" d="M1809.377,751.441l.544-.866a.482.482,0,0,1,.818.508l-.534.872a.487.487,0,1,1-.831-.509Z" transform="translate(-1583.539 -704.294)" fill="#7d97f4"/>
    <path id="Path_654" data-name="Path 654" d="M1819.561,733.647l.45-.918a.463.463,0,0,1,.833.4l-.44.923a.468.468,0,0,1-.846-.4Z" transform="translate(-1592.042 -689.406)" fill="#7d97f4"/>
    <path id="Path_655" data-name="Path 655" d="M1827.834,714.934l.35-.961a.444.444,0,0,1,.836.3l-.339.965a.45.45,0,0,1-.848-.3Z" transform="translate(-1598.949 -673.76)" fill="#7d97f4"/>
    <path id="Path_656" data-name="Path 656" d="M1834.053,695.5l.241-.994a.425.425,0,0,1,.827.2l-.23,1a.431.431,0,1,1-.839-.194Z" transform="translate(-1604.139 -657.522)" fill="#7d97f4"/>
    <path id="Path_657" data-name="Path 657" d="M1838.046,675.553l.123-1.015a.406.406,0,0,1,.807.094l-.112,1.016a.412.412,0,0,1-.819-.09Z" transform="translate(-1607.472 -640.869)" fill="#7d97f4"/>
    <path id="Path_658" data-name="Path 658" d="M1839.606,655.356l0-1.022a.387.387,0,0,1,.775-.007l.016,1.022a.393.393,0,1,1-.786.012Z" transform="translate(-1608.77 -624.018)" fill="#7d97f4"/>
    <path id="Path_659" data-name="Path 659" d="M1837.911,635.228l-.141-1.013a.369.369,0,0,1,.729-.105l.152,1.011a.374.374,0,0,1-.74.111Z" transform="translate(-1607.242 -607.24)" fill="#7d97f4"/>
    <path id="Path_660" data-name="Path 660" d="M1833.442,615.541l-.282-.983a.35.35,0,0,1,.671-.2l.293.98a.355.355,0,0,1-.681.2Z" transform="translate(-1603.395 -590.85)" fill="#7d97f4"/>
  </g>
  <g id="Group_380" data-name="Group 380" transform="translate(24.004 24.765)">
    <g id="Group_360" data-name="Group 360" transform="translate(31.723)">
      <path id="Path_482" data-name="Path 482" d="M857.017,384.612H973.354a12.052,12.052,0,0,1,12.037,11.44l8.587,168.667a8.888,8.888,0,0,1-8.715,9.338L851.927,576.48a8.437,8.437,0,0,1-8.59-8.435V398.292A13.68,13.68,0,0,1,857.017,384.612Z" transform="translate(-843.337 -359.067)" fill="url(#linear-gradient-5)"/>
      <path id="Path_483" data-name="Path 483" d="M891.85,1354.023h0l-14.92-.193a9.2,9.2,0,0,1-9.047-9.165V1322.14a.319.319,0,1,1,.637,0v22.526a8.562,8.562,0,0,0,8.419,8.528l14.919.193a.319.319,0,0,1,0,.637Z" transform="translate(-863.773 -1139.477)" fill="url(#linear-gradient-6)"/>
      <path id="Path_484" data-name="Path 484" d="M868.2,1262.6a.319.319,0,0,1-.319-.319v-3.648a.319.319,0,1,1,.637,0v3.648A.319.319,0,0,1,868.2,1262.6Z" transform="translate(-863.773 -1086.593)" fill="url(#linear-gradient-7)"/>
      <g id="Group_359" data-name="Group 359" transform="translate(9.531 24.141)">
        <path id="Path_485" data-name="Path 485" d="M904.812,376.257c15.887,2.154,70.518,8.818,115.686,5.35a3.674,3.674,0,0,1,3.957,3.466l9,169.419a4.229,4.229,0,0,1-3.973,4.447c-19,1.124-97.232,5.47-125.137,2.547a3.35,3.35,0,0,1-3-3.316L900.3,380.221A3.974,3.974,0,0,1,904.812,376.257Z" transform="translate(-900.305 -376.221)" fill="url(#linear-gradient-8)"/>
        <path id="Path_486" data-name="Path 486" d="M915.827,402.533c15.289,2.073,67.862,8.485,111.33,5.149a3.536,3.536,0,0,1,3.808,3.335l8.665,163.039a4.07,4.07,0,0,1-3.823,4.28c-18.281,1.082-93.571,5.264-120.425,2.451A3.224,3.224,0,0,1,912.5,577.6L911.49,406.347A3.824,3.824,0,0,1,915.827,402.533Z" transform="translate(-909.618 -398.101)" fill="#bdd0fb"/>
        <path id="Path_487" data-name="Path 487" d="M996.072,488.334l1.624,34.954a2.222,2.222,0,0,0,2.157,2.12c6.474.183,26.645.675,38.035.081a2.481,2.481,0,0,0,2.35-2.4c.217-6.555.693-25.634-.8-33.61a2.8,2.8,0,0,0-2.659-2.278l-38.263-1.338A2.363,2.363,0,0,0,996.072,488.334Z" transform="translate(-980.048 -467.518)" fill="url(#linear-gradient-6)"/>
        <circle id="Ellipse_14" data-name="Ellipse 14" cx="7.514" cy="7.514" r="7.514" transform="translate(29.666 39.852) rotate(-82.982)" fill="url(#linear-gradient-10)"/>
        <path id="Path_488" data-name="Path 488" d="M1049.812,654.891h23.939a1.854,1.854,0,0,0,1.557-2.857c-2.033-3.182-6.288-7.856-13.656-7.645a16.689,16.689,0,0,0-13.426,7.453A1.937,1.937,0,0,0,1049.812,654.891Z" transform="translate(-1023.184 -599.517)" fill="url(#linear-gradient-11)"/>
        <path id="Path_489" data-name="Path 489" d="M1353.933,503.249a.648.648,0,0,0,.65-.669l-.029-1.007a.71.71,0,0,0-.689-.681l-43.346-.772a.435.435,0,0,0-.447.619l.662,1.879a1.015,1.015,0,0,0,.891.631Z" transform="translate(-1241.486 -479.391)" fill="url(#linear-gradient-6)"/>
        <path id="Path_490" data-name="Path 490" d="M1310.519,539.068a.435.435,0,0,0-.447.619l.662,1.879a1.015,1.015,0,0,0,.891.631h42.308a.648.648,0,0,0,.65-.669l-.029-1.007a.71.71,0,0,0-.689-.681Z" transform="translate(-1241.486 -511.823)" fill="url(#linear-gradient-6)"/>
        <path id="Path_491" data-name="Path 491" d="M1310.519,578.582a.435.435,0,0,0-.447.619l.662,1.879a1.014,1.014,0,0,0,.891.631h42.308a.648.648,0,0,0,.65-.669l-.029-1.007a.71.71,0,0,0-.689-.681Z" transform="translate(-1241.486 -544.726)" fill="url(#linear-gradient-6)"/>
        <path id="Path_492" data-name="Path 492" d="M1098.011,772.24a.62.62,0,0,0,.625-.668l-.067-1.01a.734.734,0,0,0-.713-.673l-99.685-.786c-.368,0-.482.23-.252.518l1.668,2.094a1.575,1.575,0,0,0,1.086.524Z" transform="translate(-981.489 -703.373)" fill="url(#linear-gradient-6)"/>
        <path id="Path_493" data-name="Path 493" d="M998.171,808.053c-.368,0-.482.23-.252.518l1.668,2.094a1.575,1.575,0,0,0,1.086.524h97.338a.62.62,0,0,0,.625-.668l-.067-1.01a.734.734,0,0,0-.713-.673Z" transform="translate(-981.489 -735.806)" fill="url(#linear-gradient-6)"/>
        <path id="Path_494" data-name="Path 494" d="M994.295,871.626c2.363-.181,6.789-.265,9.226-.3a2.208,2.208,0,0,1,2.18,1.689,35.993,35.993,0,0,1,1.037,8.92,1.961,1.961,0,0,1-1.978,1.92l-8.991-.1a2.159,2.159,0,0,1-2.126-1.958l-.791-8.458A1.573,1.573,0,0,1,994.295,871.626Z" transform="translate(-977.362 -788.493)" fill="url(#linear-gradient-6)"/>
        <path id="Path_495" data-name="Path 495" d="M1093.875,893.7a.533.533,0,0,0-.569.634l.424,2.822a.8.8,0,0,0,.769.662h23.223a.661.661,0,0,0,.661-.669l-.022-1.756a.717.717,0,0,0-.677-.7Z" transform="translate(-1061.01 -807.122)" fill="url(#linear-gradient-6)"/>
        <path id="Path_496" data-name="Path 496" d="M1287.053,871.626c2.363-.181,6.789-.265,9.226-.3a2.208,2.208,0,0,1,2.18,1.689,35.983,35.983,0,0,1,1.037,8.92,1.961,1.961,0,0,1-1.978,1.92l-8.991-.1a2.159,2.159,0,0,1-2.126-1.958l-.79-8.458A1.573,1.573,0,0,1,1287.053,871.626Z" transform="translate(-1221.141 -788.493)" fill="url(#linear-gradient-6)"/>
        <path id="Path_497" data-name="Path 497" d="M1386.633,893.7a.532.532,0,0,0-.569.634l.424,2.822a.8.8,0,0,0,.769.662h23.223a.661.661,0,0,0,.661-.669l-.022-1.756a.717.717,0,0,0-.677-.7Z" transform="translate(-1304.789 -807.122)" fill="url(#linear-gradient-6)"/>
        <g id="Group_358" data-name="Group 358" transform="translate(18.286 102.51)">
          <path id="Path_498" data-name="Path 498" d="M1020.932,1017.151h-.023l-8.3-.08a2.23,2.23,0,0,1-2.276-1.9l-.729-6.961a1.513,1.513,0,0,1,.357-1.138,1.823,1.823,0,0,1,1.269-.627h0c.7-.048,1.683-.132,2.725-.22,2.194-.187,4.925-.419,6.462-.438a2.318,2.318,0,0,1,2.323,1.625c.432,1.6.394,4.623.312,7.845A2.05,2.05,0,0,1,1020.932,1017.151Zm-9.654-10.065a1.179,1.179,0,0,0-.825.4.879.879,0,0,0-.212.661l.729,6.961a1.6,1.6,0,0,0,1.649,1.326l8.3.08h.016a1.413,1.413,0,0,0,1.488-1.269c.081-3.173.12-6.147-.29-7.663a1.711,1.711,0,0,0-1.7-1.154c-1.514.019-4.232.25-6.416.436-1.045.089-2.032.173-2.736.221Z" transform="translate(-1009.6 -1002.971)" fill="#fff"/>
          <path id="Path_499" data-name="Path 499" d="M1019.644,1015.2c1.743-.119,5.531-.5,7.327-.526a1.606,1.606,0,0,1,1.607,1.11,28.2,28.2,0,0,1,.241,6.2,1.38,1.38,0,0,1-1.459,1.263l-6.63-.064a1.532,1.532,0,0,1-1.568-1.288l-.583-5.563A1.077,1.077,0,0,1,1019.644,1015.2Z" transform="translate(-1017.073 -1010.371)" fill="url(#linear-gradient-6)"/>
          <path id="Path_500" data-name="Path 500" d="M1120.543,1033.2a2.06,2.06,0,0,0,2.009,1.535l76.76-.655a1.558,1.558,0,0,0-.006-3.115l-76.761-.35A2.06,2.06,0,0,0,1120.543,1033.2Z" transform="translate(-1101.925 -1023.639)" fill="url(#linear-gradient-6)"/>
          <path id="Path_501" data-name="Path 501" d="M1023.807,994.86h0a1.273,1.273,0,0,1,1.756.478l1.636,2.933a.409.409,0,0,0,.73-.032l4.059-9.036a.453.453,0,0,1,.866.2,17.838,17.838,0,0,1-5.191,12.415s-2.434-.946-4.393-5.25A1.336,1.336,0,0,1,1023.807,994.86Z" transform="translate(-1020.883 -988.936)" fill="url(#linear-gradient-23)"/>
          <path id="Path_502" data-name="Path 502" d="M1020.932,1123.427h-.023l-8.3-.079a2.23,2.23,0,0,1-2.276-1.9l-.729-6.961a1.513,1.513,0,0,1,.357-1.138,1.822,1.822,0,0,1,1.269-.626h0c.7-.048,1.683-.132,2.725-.22,2.194-.187,4.925-.419,6.462-.438h.033a2.313,2.313,0,0,1,2.29,1.625c.432,1.6.394,4.623.312,7.845A2.05,2.05,0,0,1,1020.932,1123.427Zm-9.654-10.065a1.179,1.179,0,0,0-.825.4.88.88,0,0,0-.212.661l.729,6.961a1.6,1.6,0,0,0,1.649,1.326l8.3.08h.016a1.413,1.413,0,0,0,1.488-1.269c.081-3.173.12-6.147-.29-7.662a1.7,1.7,0,0,0-1.7-1.154c-1.513.019-4.231.25-6.415.437-1.045.089-2.032.173-2.736.221Z" transform="translate(-1009.6 -1091.467)" fill="#fff"/>
          <path id="Path_503" data-name="Path 503" d="M1019.644,1121.481c1.743-.119,5.531-.5,7.327-.526a1.606,1.606,0,0,1,1.607,1.111,28.2,28.2,0,0,1,.241,6.2,1.38,1.38,0,0,1-1.459,1.262l-6.63-.064a1.531,1.531,0,0,1-1.568-1.288l-.583-5.562A1.077,1.077,0,0,1,1019.644,1121.481Z" transform="translate(-1017.073 -1098.868)" fill="url(#linear-gradient-6)"/>
          <path id="Path_504" data-name="Path 504" d="M1120.543,1139.475a2.06,2.06,0,0,0,2.009,1.534l76.76-.655a1.558,1.558,0,0,0-.006-3.115l-76.761-.35A2.06,2.06,0,0,0,1120.543,1139.475Z" transform="translate(-1101.925 -1112.137)" fill="url(#linear-gradient-6)"/>
          <path id="Path_505" data-name="Path 505" d="M1023.807,1101.138h0a1.273,1.273,0,0,1,1.756.478l1.636,2.933a.409.409,0,0,0,.73-.032l4.059-9.036a.453.453,0,0,1,.866.2,17.839,17.839,0,0,1-5.191,12.415s-2.434-.946-4.393-5.25A1.336,1.336,0,0,1,1023.807,1101.138Z" transform="translate(-1020.883 -1077.433)" fill="url(#linear-gradient-26)"/>
          <path id="Path_506" data-name="Path 506" d="M1020.932,1229.705h-.023l-8.3-.079a2.229,2.229,0,0,1-2.276-1.9l-.729-6.961a1.513,1.513,0,0,1,.357-1.138,1.822,1.822,0,0,1,1.269-.627h0c.7-.047,1.683-.131,2.725-.22,2.194-.187,4.925-.419,6.462-.438h.033a2.313,2.313,0,0,1,2.29,1.625c.432,1.6.394,4.623.312,7.845A2.05,2.05,0,0,1,1020.932,1229.705Zm-9.654-10.065a1.18,1.18,0,0,0-.825.4.88.88,0,0,0-.212.661l.729,6.961a1.6,1.6,0,0,0,1.648,1.326l8.3.08h.016a1.413,1.413,0,0,0,1.488-1.269c.081-3.174.12-6.147-.29-7.662a1.7,1.7,0,0,0-1.7-1.154c-1.513.019-4.231.25-6.415.437-1.045.089-2.032.173-2.736.221Z" transform="translate(-1009.6 -1179.964)" fill="#fff"/>
          <path id="Path_507" data-name="Path 507" d="M1019.644,1227.759c1.743-.119,5.531-.5,7.327-.526a1.606,1.606,0,0,1,1.607,1.11,28.2,28.2,0,0,1,.241,6.2,1.38,1.38,0,0,1-1.459,1.263l-6.63-.063a1.532,1.532,0,0,1-1.568-1.288l-.583-5.562A1.077,1.077,0,0,1,1019.644,1227.759Z" transform="translate(-1017.073 -1187.365)" fill="url(#linear-gradient-6)"/>
          <path id="Path_508" data-name="Path 508" d="M1120.543,1245.753a2.06,2.06,0,0,0,2.009,1.535l76.76-.655a1.558,1.558,0,0,0-.006-3.115l-76.761-.35A2.06,2.06,0,0,0,1120.543,1245.753Z" transform="translate(-1101.925 -1200.634)" fill="url(#linear-gradient-6)"/>
          <path id="Path_509" data-name="Path 509" d="M1023.807,1207.416h0a1.273,1.273,0,0,1,1.756.478l1.636,2.933a.409.409,0,0,0,.73-.031l4.059-9.036a.453.453,0,0,1,.866.2,17.839,17.839,0,0,1-5.191,12.415s-2.434-.946-4.393-5.25A1.336,1.336,0,0,1,1023.807,1207.416Z" transform="translate(-1020.883 -1165.93)" fill="url(#linear-gradient-29)"/>
          <path id="Path_510" data-name="Path 510" d="M1020.932,1335.983h-.023l-8.3-.08a2.229,2.229,0,0,1-2.276-1.9l-.729-6.961a1.513,1.513,0,0,1,.357-1.138,1.822,1.822,0,0,1,1.269-.626h0c.7-.047,1.683-.131,2.725-.22,2.194-.187,4.925-.419,6.462-.438h.033a2.313,2.313,0,0,1,2.29,1.625c.432,1.6.394,4.623.312,7.845A2.05,2.05,0,0,1,1020.932,1335.983Zm-9.654-10.065a1.178,1.178,0,0,0-.825.4.88.88,0,0,0-.212.661l.729,6.961a1.6,1.6,0,0,0,1.648,1.326l8.3.08h.016a1.413,1.413,0,0,0,1.488-1.269c.081-3.173.12-6.147-.29-7.663a1.7,1.7,0,0,0-1.7-1.154c-1.513.019-4.231.251-6.415.437-1.045.089-2.032.173-2.736.221Z" transform="translate(-1009.6 -1268.461)" fill="#fff"/>
          <path id="Path_511" data-name="Path 511" d="M1019.644,1334.038c1.743-.119,5.531-.5,7.327-.526a1.606,1.606,0,0,1,1.607,1.111,28.2,28.2,0,0,1,.241,6.2,1.38,1.38,0,0,1-1.459,1.263l-6.63-.063a1.532,1.532,0,0,1-1.568-1.288l-.583-5.562A1.077,1.077,0,0,1,1019.644,1334.038Z" transform="translate(-1017.073 -1275.863)" fill="url(#linear-gradient-6)"/>
          <path id="Path_512" data-name="Path 512" d="M1120.543,1352.032h0a2.06,2.06,0,0,0,2.009,1.534l76.76-.654a1.558,1.558,0,0,0-.006-3.115l-76.761-.35A2.06,2.06,0,0,0,1120.543,1352.032Z" transform="translate(-1101.925 -1289.132)" fill="url(#linear-gradient-6)"/>
          <path id="Path_513" data-name="Path 513" d="M1023.807,1313.694h0a1.273,1.273,0,0,1,1.756.478l1.636,2.933a.409.409,0,0,0,.73-.032l4.059-9.036a.453.453,0,0,1,.866.2,17.839,17.839,0,0,1-5.191,12.415s-2.434-.946-4.393-5.25A1.336,1.336,0,0,1,1023.807,1313.694Z" transform="translate(-1020.883 -1254.428)" fill="url(#linear-gradient-32)"/>
        </g>
      </g>
      <path id="Path_514" data-name="Path 514" d="M1245.767,234.474c-4.2-2.923-7.856-2.865-10.428-2.107a5.131,5.131,0,0,0-3.644,5.394l1.11,12.108,13.2,1.171S1254.008,240.207,1245.767,234.474Zm-5.8,9.768a3.291,3.291,0,1,1,3.291-3.291A3.291,3.291,0,0,1,1239.962,244.242Z" transform="translate(-1166.703 -231.926)" fill="url(#linear-gradient-33)"/>
      <path id="Path_515" data-name="Path 515" d="M1242.244,253.6a.318.318,0,0,1-.317-.29l-.177-1.928a.319.319,0,1,1,.634-.058l.177,1.928a.318.318,0,0,1-.288.346Zm-.346-3.779a.318.318,0,0,1-.317-.29l-.134-1.464a4.9,4.9,0,0,1,3.472-5.138,9.865,9.865,0,0,1,4.824-.2.318.318,0,0,1-.128.624,9.247,9.247,0,0,0-4.516.185,4.259,4.259,0,0,0-3.018,4.47l.134,1.464a.318.318,0,0,1-.288.346Z" transform="translate(-1174.824 -240.75)" fill="url(#linear-gradient-6)"/>
      <path id="Path_516" data-name="Path 516" d="M1130.752,337.158V331.07a3.715,3.715,0,0,1,3.842-3.712l41.97,1.438a3.613,3.613,0,0,1,3.482,3.394l.351,5.849Z" transform="translate(-1082.666 -311.39)" fill="url(#linear-gradient-35)"/>
      <path id="Path_517" data-name="Path 517" d="M1213.722,337.908h-1.805a.319.319,0,0,1,0-.637h1.805a.319.319,0,0,1,0,.637Z" transform="translate(-1149.987 -319.646)" fill="url(#linear-gradient-6)"/>
      <path id="Path_518" data-name="Path 518" d="M1142.745,343.5a.318.318,0,0,1-.318-.319v-2.463a3.454,3.454,0,0,1,3.45-3.451h6.636a.319.319,0,1,1,0,.637h-6.636a2.817,2.817,0,0,0-2.813,2.813v2.463A.318.318,0,0,1,1142.745,343.5Z" transform="translate(-1092.387 -319.646)" fill="url(#linear-gradient-6)"/>
      <path id="Path_519" data-name="Path 519" d="M1031.663,372.617l73.392,0a5.424,5.424,0,0,1,5.345,4.5l.062.359a4.659,4.659,0,0,1-4.59,5.453h-75.3a3.029,3.029,0,0,1-3.025-3.174l.162-3.37A3.955,3.955,0,0,1,1031.663,372.617Z" transform="translate(-996.728 -349.077)" fill="url(#linear-gradient-38)"/>
    </g>
    <g id="Group_361" data-name="Group 361" transform="translate(170.023 182.077)">
      <rect id="Rectangle_120" data-name="Rectangle 120" width="2.774" height="29.996" transform="translate(13.405 6.721)" fill="url(#linear-gradient-39)"/>
      <path id="Rectangle_121" data-name="Rectangle 121" d="M1.675,0H22.488a1.805,1.805,0,0,1,1.805,1.805v0a0,0,0,0,1,0,0H0a0,0,0,0,1,0,0v-.13A1.675,1.675,0,0,1,1.675,0Z" transform="translate(2.645 35.49)" fill="url(#linear-gradient-40)"/>
      <rect id="Rectangle_122" data-name="Rectangle 122" width="30.544" height="8.663" rx="4.331" fill="url(#linear-gradient-41)"/>
    </g>
    <g id="Group_365" data-name="Group 365" transform="translate(128.516 99.217)">
      <g id="Group_362" data-name="Group 362" transform="translate(0 63.947)">
        <path id="Path_520" data-name="Path 520" d="M1725.844,1240.852a24.143,24.143,0,0,0-8.755,3.737,2.31,2.31,0,0,0-1.019,2.208,97.936,97.936,0,0,0,10.359,32.516,3.5,3.5,0,0,1,.336,2.4l-1.307,6.083-2.424,2.273h6.243l4.157-11.249-1.777-.562a3.363,3.363,0,0,1-2.349-3.149l-.209-12.067a13.73,13.73,0,0,0-3.3-9.086l9.971-.485Z" transform="translate(-1690.022 -1235.219)" fill="url(#linear-gradient-42)"/>
        <path id="Path_521" data-name="Path 521" d="M1743.044,1477.191c-.569.744,6.12,1.726,9.5.1,0,0,4.684-8.15,4.684-12.346,0,0-.372-.856-3.122-.662,0,0-1.573,9.65-3.234,10.731s-4.646.109-4.646.109A9.781,9.781,0,0,0,1743.044,1477.191Z" transform="translate(-1712.471 -1421.245)" fill="url(#linear-gradient-43)"/>
        <path id="Path_522" data-name="Path 522" d="M1619.257,1261.841c-.053-.092-10.735-1.285-10.735-1.285a24.689,24.689,0,0,1-.743,7.719c-1.093,4.471-16.776,23.842-16.776,23.842l1.645,5.213a26.452,26.452,0,0,1-15.007.9l10.191-6.116s9.538-32.5,15.38-38.3l10.708-3.7Z" transform="translate(-1574.768 -1242.929)" fill="url(#linear-gradient-44)"/>
        <path id="Path_523" data-name="Path 523" d="M1771.022,1207.181s6.155,9.154,6.66,13.33-1.686,5.872-8.144,6.152-23.7.275-23.7.275l-14.713-12.575s10.723-3.826,13.51-4.908S1771.022,1207.181,1771.022,1207.181Z" transform="translate(-1702.576 -1207.181)" fill="url(#linear-gradient-45)"/>
        <path id="Path_524" data-name="Path 524" d="M1577.729,1521.857s1.77,1.715.575,3.623c0,0-14.025,2.486-17.833,1.358,0,0,.791-1.8,5.079-3.859l-.316.243a.512.512,0,0,0,.339.919C1568.4,1523.98,1574.244,1523.462,1577.729,1521.857Z" transform="translate(-1560.471 -1469.21)" fill="url(#linear-gradient-46)"/>
      </g>
      <g id="Group_364" data-name="Group 364" transform="translate(37.623)">
        <path id="Path_525" data-name="Path 525" d="M1846.438,882.695c.93.29,4.282,1.493,3.849,3.649a.394.394,0,0,0,.494.452c1.444-.389,4.635-.879,6.613,1.6,1.746,2.188.441,4.253-.623,5.387a.4.4,0,0,0,.332.671c2.656-.335,8.425-.416,9.37,4.99.88,5.04-2.628,6.462-4.709,6.863a.4.4,0,0,0-.132.723c1.038.659,2.241,2.019,1.755,4.7-.762,4.209-9.014,3.865-9.979,3.81a.388.388,0,0,1-.172-.051l-13.218-7.539a.4.4,0,0,1-.195-.277l-2.668-15.411a.4.4,0,0,1,.105-.343l6.621-9.515C1842.371,881.582,1846.294,882.65,1846.438,882.695Z" transform="translate(-1828.483 -872.536)" fill="url(#linear-gradient-47)"/>
        <path id="Path_526" data-name="Path 526" d="M1807.744,1025.424s-10.678-11.591-14.206-16.111a9.591,9.591,0,0,1-1.624-8.631c1.61-5.426,4.473-11.046,4.734-11.921.4-1.341,8.436-1.285,8.436-1.285s15.735,32.995,15.983,36.812Z" transform="translate(-1790.484 -960.286)" fill="url(#linear-gradient-48)"/>
        <path id="Path_527" data-name="Path 527" d="M1816.385,936.779c.084.279,2.181,7.232,2.345,7.376s4.6.383,6.688-1.044l-3.985-9.063Z" transform="translate(-1811.193 -915.798)" fill="url(#linear-gradient-49)"/>
        <g id="Group_363" data-name="Group 363">
          <path id="Path_528" data-name="Path 528" d="M1789.885,855.885s-3.236,2.535-4.288,8.489,1.465,7.89,3.887,7.592a11.3,11.3,0,0,0,8.655-5.706C1800.9,861.848,1794.139,852.766,1789.885,855.885Z" transform="translate(-1785.352 -850.179)" fill="url(#linear-gradient-50)"/>
          <path id="Path_529" data-name="Path 529" d="M1796.682,838.894s.661-8.474-6.214-6.707l-1.306,1.564s-3.675-3.6-.105-6.765,8.856-2.785,12.119,2.3,4.572,8.72,2.374,12.171-4.221.763-4.221.763.915-2.918-.093-4.073-2.066.856-2.066.856Z" transform="translate(-1787.138 -824.96)" fill="url(#linear-gradient-51)"/>
          <path id="Path_530" data-name="Path 530" d="M1843.381,904.679s.314-4.358,2.6-3.278-.514,4.086-1.65,5.122Z" transform="translate(-1833.672 -888.469)" fill="url(#linear-gradient-52)"/>
        </g>
      </g>
    </g>
    <g id="Group_366" data-name="Group 366" transform="translate(0 178.41)">
      <path id="Path_532" data-name="Path 532" d="M454.228,1333.377c-.8,1.178-3.961,27.859-4.457,37.713a1.165,1.165,0,0,0,1.167,1.222h0a1.168,1.168,0,0,0,1.154-.988l5.789-37.1Z" transform="translate(-449.438 -1327.51)" fill="url(#linear-gradient-53)"/>
      <path id="Path_533" data-name="Path 533" d="M610.339,1333.377c.8,1.178,3.961,27.859,4.457,37.713a1.165,1.165,0,0,1-1.167,1.222h0a1.168,1.168,0,0,1-1.154-.988l-5.789-37.1Z" transform="translate(-580.101 -1327.51)" fill="url(#linear-gradient-54)"/>
      <path id="Path_534" data-name="Path 534" d="M447.786,1302.094l0,.291a3.966,3.966,0,0,0,4.042,3.849l26.759.455a4,4,0,0,0,4.188-3.631l.014-.266a3.951,3.951,0,0,0-4.033-4l-26.77-.48A3.986,3.986,0,0,0,447.786,1302.094Z" transform="translate(-447.783 -1298.309)" fill="url(#linear-gradient-55)"/>
    </g>
    <g id="Group_371" data-name="Group 371" transform="translate(3.636 94.259)">
      <g id="Group_367" data-name="Group 367" transform="translate(23.642 17.791)">
        <path id="Path_535" data-name="Path 535" d="M740.428,909.312l-.7-1.134A2.521,2.521,0,0,0,737.893,907l-7.419-.92s-.329-.833,1.034-1.82a2.087,2.087,0,0,0,.558-2.593s-1.823,1.5-4.461,3.8a7.35,7.35,0,0,0-2.3,4.368l-1.188,2.6a3.447,3.447,0,0,0,3.245,1.2l.27-1.993A31.734,31.734,0,0,0,740.428,909.312Z" transform="translate(-705.166 -901.665)" fill="url(#linear-gradient-56)"/>
        <path id="Path_536" data-name="Path 536" d="M629.779,966.049l-4.408,9.662a4.229,4.229,0,0,1-5.314,2.212l-9.033-8.028-.2,16.118,9.414,1.885a9.312,9.312,0,0,0,11.057-7.881l1.729-12.766A3.447,3.447,0,0,1,629.779,966.049Z" transform="translate(-610.824 -955.277)" fill="url(#linear-gradient-57)"/>
      </g>
      <g id="Group_368" data-name="Group 368" transform="translate(40.573 121.901)">
        <path id="Path_537" data-name="Path 537" d="M720.116,1549.115c-4.757,0-6.861-.408-7.8-.78a1.8,1.8,0,0,0,1.758,1.4H730.9a.819.819,0,0,0,.789-1.034C729.77,1548.854,725.7,1549.115,720.116,1549.115Z" transform="translate(-712.266 -1544.255)" fill="url(#linear-gradient-58)"/>
        <path id="Path_538" data-name="Path 538" d="M731.45,1528.391a.792.792,0,0,0-.138-.286c-1.282-1.637-3.857-4.207-7.36-4.157-5.131.072-6.921.629-10.908.031l-.941,3.118a1.79,1.79,0,0,0-.028.93c.941.372,3.046.78,7.8.78C725.457,1528.807,729.531,1528.546,731.45,1528.391Z" transform="translate(-712.027 -1523.947)" fill="url(#linear-gradient-59)"/>
      </g>
      <path id="Path_539" data-name="Path 539" d="M719.262,1504.055l-1.155,3.927a6.789,6.789,0,0,0,4.808.23l.442-3.4Z" transform="translate(-676.517 -1385.482)" fill="url(#linear-gradient-60)"/>
      <g id="Group_369" data-name="Group 369" transform="translate(69.286 116.225)">
        <path id="Path_540" data-name="Path 540" d="M900.785,1500.534c-3.708,2.979-5.6,3.981-6.568,4.282a1.8,1.8,0,0,0,2.242-.016l13.118-10.54a.816.816,0,0,0-.029-1.3C908.148,1494.284,905.135,1497.039,900.785,1500.534Z" transform="translate(-892.449 -1492.47)" fill="url(#linear-gradient-58)"/>
        <path id="Path_541" data-name="Path 541" d="M900.747,1490.508a.789.789,0,0,0-.286-.136c-2.019-.467-5.629-.848-8.329,1.384-3.955,3.27-5,4.823-8.484,6.857l1.21,3.009a1.775,1.775,0,0,0,.558.74c.966-.3,2.861-1.3,6.569-4.282C896.335,1494.584,899.348,1491.829,900.747,1490.508Z" transform="translate(-883.649 -1490.015)" fill="url(#linear-gradient-62)"/>
      </g>
      <path id="Path_542" data-name="Path 542" d="M550.077,1236.612s28.479,2.325,34.321,5.076-4.768,41.3-4.768,41.3-1.59.766-5.129-.335c0,0,3.629-28.445.929-34.613l-30.835-5.044Z" transform="translate(-532.033 -1162.783)" fill="url(#linear-gradient-63)"/>
      <path id="Path_543" data-name="Path 543" d="M866.736,1500.682c.264.241,2.83,5.414,2.83,5.414s2.856-.618,3.438-2.425l-2.57-4.67Z" transform="translate(-800.279 -1381.274)" fill="url(#linear-gradient-60)"/>
      <path id="Path_544" data-name="Path 544" d="M470.406,1235.189a14.423,14.423,0,0,0-.89,5.2,7.808,7.808,0,0,0,7.451,7.639l33.667,1.535a1.615,1.615,0,0,1,1.491,1.214c.791,3.06,4.658,12.457,23.561,31.208a1.524,1.524,0,0,0,1.885.206l2.691-1.7a.62.62,0,0,0,.2-.837l-19.6-33.474a7.587,7.587,0,0,0-4.609-3.418l-28.694-7.335Z" transform="translate(-469.514 -1161.598)" fill="url(#linear-gradient-65)"/>
      <path id="Path_545" data-name="Path 545" d="M474.252,994.317a163.393,163.393,0,0,1,3-32.39,25.351,25.351,0,0,1,9.094-14.659l1.558-1.227,7.8,3.17,5.064,7.689a18.079,18.079,0,0,1,.85,14.185c-2.784,7.769-6.915,19.523-7.864,23.477C493.758,994.561,480.835,996.268,474.252,994.317Z" transform="translate(-473.451 -920.825)" fill="url(#linear-gradient-66)"/>
      <path id="Path_546" data-name="Path 546" d="M557.635,871.714l-6.1,14.142s1.951,4.389,8.778,2.682l2.438-9.753Z" transform="translate(-537.816 -858.934)" fill="url(#linear-gradient-67)"/>
      <g id="Group_370" data-name="Group 370" transform="translate(17.289 0)">
        <path id="Path_549" data-name="Path 549" d="M611.215,826.826c.073.2.235,14.13.235,14.13l-7.957-.077L601.378,827.7S609.985,823.519,611.215,826.826Z" transform="translate(-596.606 -820.495)" fill="url(#linear-gradient-68)"/>
        <path id="Path_550" data-name="Path 550" d="M579.96,805.06l.57,7.027a.973.973,0,0,0,.058.261c.192.519.985,2.256,2.712,1.337,1.567-.834,3.01-1.572,4.138-1.477a.984.984,0,0,1,.9.969,42.559,42.559,0,0,1-.4,6.6.982.982,0,0,1-1.043.819,31.726,31.726,0,0,1-7.278-1.291.985.985,0,0,1-.656-.765c-.3-1.74-1.232-7.026-1.719-8.458-.457-1.345-2.329-1.805-3.128-1.942a.967.967,0,0,1-.641-.415,2.553,2.553,0,0,1,.892-4,.986.986,0,0,0,.341-1.378,2.557,2.557,0,0,1,.654-3.758,3.608,3.608,0,0,1,4.427.1.985.985,0,0,0,1.258-.12.779.779,0,0,1,.873-.158.97.97,0,0,0,1.255-.7,2.94,2.94,0,0,1,2.98-2.386c3.525-.153,4.725,3.531,4.3,5.932s-4.251,2.35-6.322,1.633c-1.575-.545-3.189.732-3.872,1.376A.977.977,0,0,0,579.96,805.06Z" transform="translate(-572.853 -795.324)" fill="url(#linear-gradient-69)"/>
        <path id="Path_551" data-name="Path 551" d="M580.675,873.619s.552-4.216-1.091-4.864-3.662.309-2.581,3.043C578.348,875.2,580.675,873.619,580.675,873.619Z" transform="translate(-576.055 -856.308)" fill="url(#linear-gradient-70)"/>
      </g>
    </g>
    <g id="Group_379" data-name="Group 379" transform="translate(34.067 160.438)">
      <g id="Group_378" data-name="Group 378" transform="translate(5.905 1.449)">
        <g id="Group_372" data-name="Group 372" transform="translate(0 1.479)">
          <path id="Path_556" data-name="Path 556" d="M704.5,1208.391c-.126.523-12.188,45.758-15.245,57.226a2.073,2.073,0,0,0,1.984,2.62h0a2.059,2.059,0,0,0,1.993-1.576l13.389-54.284Z" transform="translate(-689.183 -1208.391)" fill="#7d97f4"/>
        </g>
        <g id="Group_373" data-name="Group 373" transform="translate(19.801 1.347)">
          <path id="Path_557" data-name="Path 557" d="M809.655,1207.6c.126.524,12.187,45.859,15.245,57.352a2.077,2.077,0,0,1-1.984,2.625h0a2.061,2.061,0,0,1-1.994-1.58l-13.389-54.4Z" transform="translate(-807.534 -1207.601)" fill="#7d97f4"/>
        </g>
        <g id="Group_374" data-name="Group 374" transform="translate(14.913)">
          <path id="Path_558" data-name="Path 558" d="M785.831,1199.55h-7.512v6.032a1.561,1.561,0,0,0,1.551,1.57h1.03v13.55a1.181,1.181,0,0,0,1.174,1.188h0a1.182,1.182,0,0,0,1.174-1.188v-13.55h.523a2.071,2.071,0,0,0,2.059-2.083Z" transform="translate(-778.319 -1199.55)" fill="#7d97f4"/>
        </g>
        <g id="Group_375" data-name="Group 375" transform="translate(108.315 1.479)">
          <path id="Path_559" data-name="Path 559" d="M1693.959,1208.391c-.126.523-12.187,45.758-15.245,57.226a2.073,2.073,0,0,0,1.984,2.62h0a2.06,2.06,0,0,0,1.994-1.576l13.389-54.284Z" transform="translate(-1678.641 -1208.391)" fill="#7d97f4"/>
        </g>
        <g id="Group_376" data-name="Group 376" transform="translate(128.115 1.479)">
          <path id="Path_560" data-name="Path 560" d="M1799.113,1208.391c.126.523,12.187,45.758,15.245,57.226a2.073,2.073,0,0,1-1.984,2.62h0a2.06,2.06,0,0,1-1.994-1.576l-13.389-54.284Z" transform="translate(-1796.992 -1208.391)" fill="#7d97f4"/>
        </g>
        <g id="Group_377" data-name="Group 377" transform="translate(123.228)">
          <path id="Path_561" data-name="Path 561" d="M1775.289,1199.55h-7.511v6.032a1.56,1.56,0,0,0,1.551,1.57h1.03v13.55a1.181,1.181,0,0,0,1.174,1.188h0a1.182,1.182,0,0,0,1.174-1.188v-13.55h.523a2.071,2.071,0,0,0,2.059-2.083Z" transform="translate(-1767.778 -1199.55)" fill="#7d97f4"/>
        </g>
      </g>
      <path id="Path_562" data-name="Path 562" d="M655.206,1190.889H809.88c.43,0,.805.4.913.976l.43,2.3c.154.826-.3,1.631-.918,1.626l-155.477-.25c-.612,0-1.058-.8-.909-1.619l.374-2.046C654.4,1191.294,654.774,1190.889,655.206,1190.889Z" transform="translate(-653.889 -1190.889)" fill="url(#linear-gradient-71)"/>
    </g>
    <path id="Path_732" data-name="Path 732" d="M725.271,1017.557c0-.244-7.8-26.333-7.8-26.333l-8.534-1.463,10.24,28.527Z" transform="translate(-558.53 -860.754)" fill="#de7f6e"/>
    <path id="Path_733" data-name="Path 733" d="M721.624,1014.647c-.488.488-5.364.488-5.364.488l-10.24-29.746,8.046,1.707Z" transform="translate(-554.543 -857.113)" fill="#4d4ff0"/>
    <path id="Path_734" data-name="Path 734" d="M518.977,1017.96c15.47,10.7,22.044-13.707,22.207-13.842,10.016-8.274,9.538,6.746,8.274,8.492-12.8,19.948-27.654,14.153-32.243,8.031A4.977,4.977,0,0,0,518.977,1017.96Z" transform="translate(-366.717 -867.684)" fill="#f87564"/>
    <path id="Path_735" data-name="Path 735" d="M576.586,1037.442a.456.456,0,0,0,.294-.107c3.853-3.241,6.33-8.637,7.731-12.593a.457.457,0,0,0-.861-.3c-1.115,3.151-3.567,8.926-7.458,12.2a.457.457,0,0,0,.294.806Z" transform="translate(-410.033 -886.811)" fill="url(#linear-gradient-72)"/>
    <path id="Path_736" data-name="Path 736" d="M517.607,1083.852a.457.457,0,0,0,.176-.036c4.936-2.067,9.488-6.309,13.529-12.609a.457.457,0,0,0-.769-.493c-3.939,6.141-8.351,10.266-13.113,12.26a.457.457,0,0,0,.177.878Z" transform="translate(-347.968 -926.254)" fill="url(#linear-gradient-72)"/>
    <path id="Path_737" data-name="Path 737" d="M725.681,1056.162a13,13,0,0,0,1.665,2.708c1.524,2.178,3.266,3.7,2.4,1.089s.218-3.484,1.254-.639a16.88,16.88,0,0,0,2.012,4.122c.406.319.806.614,1.2.887a4.977,4.977,0,0,1-1.762,2.68c-.623-.445-.963-.736-.963-.736s-5.008-2.613-5.444-5.226A27.588,27.588,0,0,1,725.681,1056.162Z" transform="translate(-581.931 -914.054)" fill="url(#linear-gradient-74)"/>
    <path id="Path_1362" data-name="Path 1362" d="M734.2,1056.162a13,13,0,0,1-1.665,2.708c-1.524,2.177-3.266,3.7-2.4,1.089s-.218-3.484-1.254-.639a16.884,16.884,0,0,1-2.012,4.123c-.406.32-.806.614-1.2.887a4.978,4.978,0,0,0,1.762,2.68c.623-.445.963-.736.963-.736s5.008-2.613,5.444-5.226A27.589,27.589,0,0,0,734.2,1056.162Z" transform="translate(-682.418 -916.485)" fill="#f09791"/>
    <path id="Path_738" data-name="Path 738" d="M553.478,1020.64c-18.011,12.456-25.665-15.959-25.855-16.117-11.662-9.634-11.1,7.854-9.634,9.887,14.9,23.225,32.2,16.479,37.54,9.35A5.794,5.794,0,0,1,553.478,1020.64Z" transform="translate(-508.533 -874.185)" fill="#4244e3"/>
    <path id="Path_739" data-name="Path 739" d="M585.5,1039.629a.531.531,0,0,1-.342-.125c-4.485-3.774-7.37-10.056-9-14.662a.531.531,0,0,1,1-.355c1.3,3.669,4.153,10.392,8.683,14.2a.532.532,0,0,1-.342.938Z" transform="translate(-557.198 -892.76)" fill="url(#linear-gradient-45)"/>
    <path id="Path_740" data-name="Path 740" d="M533.191,1086.045a.534.534,0,0,1-.205-.041c-5.746-2.407-11.046-7.346-15.751-14.681a.531.531,0,1,1,.895-.574c4.587,7.15,9.723,11.952,15.268,14.274a.532.532,0,0,1-.206,1.022Z" transform="translate(-508.479 -931.064)" fill="url(#linear-gradient-45)"/>
  </g>
</svg>
