<svg id="Image_2" data-name="Image 2" xmlns="http://www.w3.org/2000/svg" xmlns:xlink="http://www.w3.org/1999/xlink" width="245.708" height="245.708" viewBox="0 0 245.708 245.708">
  <defs>
    <linearGradient id="linear-gradient" x1="1.003" y1="1.087" x2="0.095" y2="0.056" gradientUnits="objectBoundingBox">
      <stop offset="0" stop-color="#dae3fe"/>
      <stop offset="1" stop-color="#e9effd"/>
    </linearGradient>
    <linearGradient id="linear-gradient-2" x1="3.614" y1="-3.257" x2="-0.159" y2="2.36" gradientUnits="objectBoundingBox">
      <stop offset="0" stop-color="#fdf53f"/>
      <stop offset="1" stop-color="#d93c65"/>
    </linearGradient>
    <linearGradient id="linear-gradient-3" x1="2.711" y1="-4.664" x2="0.627" y2="1.782" xlink:href="#linear-gradient-2"/>
    <linearGradient id="linear-gradient-4" x1="7.173" y1="-5.873" x2="3.287" y2="0.341" gradientUnits="objectBoundingBox">
      <stop offset="0" stop-color="#a737d5"/>
      <stop offset="1" stop-color="#ef497a"/>
    </linearGradient>
    <linearGradient id="linear-gradient-5" x1="8.221" y1="-6.977" x2="4.335" y2="-0.764" xlink:href="#linear-gradient-4"/>
    <linearGradient id="linear-gradient-6" x1="9.156" y1="-6.941" x2="4.042" y2="-0.262" xlink:href="#linear-gradient-4"/>
    <linearGradient id="linear-gradient-7" x1="10.317" y1="-9.187" x2="6.43" y2="-2.973" xlink:href="#linear-gradient-4"/>
    <linearGradient id="linear-gradient-8" x1="-2.509" y1="-3.677" x2="-7.471" y2="1.65" xlink:href="#linear-gradient-4"/>
    <linearGradient id="linear-gradient-9" x1="0.5" y1="0.941" x2="0.429" y2="-0.71" gradientUnits="objectBoundingBox">
      <stop offset="0" stop-color="#09005d"/>
      <stop offset="1" stop-color="#1a0f91"/>
    </linearGradient>
    <linearGradient id="linear-gradient-10" x1="-0.196" y1="-0.712" x2="2.177" y2="3.418" gradientUnits="objectBoundingBox">
      <stop offset="0" stop-color="#ff928e"/>
      <stop offset="1" stop-color="#fe7062"/>
    </linearGradient>
    <linearGradient id="linear-gradient-11" x1="-0.196" y1="-2.376" x2="1.09" y2="3.529" xlink:href="#linear-gradient-10"/>
    <linearGradient id="linear-gradient-12" x1="-0.897" y1="-0.736" x2="7.16" y2="6.41" gradientUnits="objectBoundingBox">
      <stop offset="0" stop-color="#4f52ff"/>
      <stop offset="1" stop-color="#4042e2"/>
    </linearGradient>
    <linearGradient id="linear-gradient-13" x1="-3.047" y1="-2.642" x2="5.01" y2="4.503" xlink:href="#linear-gradient-12"/>
    <linearGradient id="linear-gradient-14" x1="2.578" y1="-2.211" x2="-1.787" y2="3.403" xlink:href="#linear-gradient-12"/>
    <linearGradient id="linear-gradient-15" x1="3.377" y1="-3.239" x2="-0.988" y2="2.375" xlink:href="#linear-gradient-12"/>
    <linearGradient id="linear-gradient-16" x1="4.049" y1="-3.235" x2="-1.695" y2="2.799" xlink:href="#linear-gradient-12"/>
    <linearGradient id="linear-gradient-17" x1="4.975" y1="-5.294" x2="0.61" y2="0.32" xlink:href="#linear-gradient-12"/>
    <linearGradient id="linear-gradient-18" x1="1.519" y1="-0.775" x2="-1.484" y2="2.907" gradientUnits="objectBoundingBox">
      <stop offset="0" stop-color="#2b3582"/>
      <stop offset="1" stop-color="#150e42"/>
    </linearGradient>
    <linearGradient id="linear-gradient-19" x1="1.004" y1="-2.464" x2="-0.074" y2="4.125" xlink:href="#linear-gradient-18"/>
    <linearGradient id="linear-gradient-20" x1="-0.301" y1="1.165" x2="2.009" y2="-0.739" xlink:href="#linear-gradient-10"/>
    <linearGradient id="linear-gradient-21" x1="0.727" y1="-2.869" x2="0.282" y2="3.71" xlink:href="#linear-gradient-12"/>
    <linearGradient id="linear-gradient-22" x1="-6.599" y1="-30.48" x2="-7.046" y2="-23.882" xlink:href="#linear-gradient-9"/>
    <linearGradient id="linear-gradient-23" x1="-39.416" y1="0.5" x2="-38.416" y2="0.5" gradientUnits="objectBoundingBox">
      <stop offset="0" stop-color="#ff928e"/>
      <stop offset="1" stop-color="#feb3b1"/>
    </linearGradient>
    <linearGradient id="linear-gradient-24" x1="-0.648" y1="0.989" x2="1.73" y2="-0.23" xlink:href="#linear-gradient-9"/>
    <linearGradient id="linear-gradient-25" x1="-23.12" y1="-36.334" x2="-24.228" y2="-28.607" xlink:href="#linear-gradient-9"/>
    <linearGradient id="linear-gradient-26" x1="-54.159" y1="0.5" x2="-53.159" y2="0.5" xlink:href="#linear-gradient-23"/>
    <linearGradient id="linear-gradient-27" x1="-0.337" y1="1.024" x2="1.338" y2="-0.173" xlink:href="#linear-gradient-9"/>
    <linearGradient id="linear-gradient-28" x1="-0.146" y1="-1.249" x2="0.583" y2="0.385" xlink:href="#linear-gradient-10"/>
    <linearGradient id="linear-gradient-29" x1="-5.3" y1="0.5" x2="-4.3" y2="0.5" xlink:href="#linear-gradient-23"/>
    <linearGradient id="linear-gradient-30" x1="3.591" y1="2.672" x2="-0.018" y2="0.239" xlink:href="#linear-gradient-23"/>
    <linearGradient id="linear-gradient-31" x1="-30.416" y1="0.706" x2="-28.397" y2="-1.072" xlink:href="#linear-gradient-23"/>
    <linearGradient id="linear-gradient-32" x1="-1.477" y1="-3.81" x2="0.352" y2="0.37" xlink:href="#linear-gradient-10"/>
    <linearGradient id="linear-gradient-33" x1="-0.264" y1="0.488" x2="0.951" y2="0.502" xlink:href="#linear-gradient-23"/>
    <linearGradient id="linear-gradient-34" x1="-4.777" y1="0.545" x2="-4.259" y2="3.03" gradientUnits="objectBoundingBox">
      <stop offset="0" stop-color="#4042e2"/>
      <stop offset="1" stop-color="#4f52ff"/>
    </linearGradient>
    <linearGradient id="linear-gradient-35" x1="2.827" y1="-4.496" x2="1.357" y2="-1.332" xlink:href="#linear-gradient-23"/>
    <linearGradient id="linear-gradient-36" x1="0.359" y1="-0.083" x2="0.702" y2="1.525" xlink:href="#linear-gradient-23"/>
    <linearGradient id="linear-gradient-37" x1="-52.58" y1="-13.721" x2="-52.048" y2="-15.265" xlink:href="#linear-gradient-23"/>
    <linearGradient id="linear-gradient-38" x1="-39.187" y1="-14.416" x2="-38.982" y2="-13.237" xlink:href="#linear-gradient-9"/>
    <linearGradient id="linear-gradient-39" x1="-174.522" y1="-69.503" x2="-172.789" y2="-76.984" xlink:href="#linear-gradient-23"/>
  </defs>
  <path id="Path_266" data-name="Path 266" d="M704.042,666.013C659.628,713.279,591.4,699.3,581.32,697.049c-12.7-2.831-42.931-9.566-65.487-36.159-34.533-40.713-31.046-104.341-4.376-147.239,7.76-12.482,33.875-49.576,82.918-57.641,2.866-.471,54.078-8.043,95.282,26.822a113.473,113.473,0,0,1,22.383,25.61C736.421,546.9,747.959,619.276,704.042,666.013Z" transform="translate(-487.961 -455)" fill="url(#linear-gradient)"/>
  <g id="Group_291" data-name="Group 291" transform="translate(81.388 9.371)">
    <path id="Path_267" data-name="Path 267" d="M1435.789,563.721a4.157,4.157,0,0,1,5.469-3.085c15.8,5.633,70.28,24.239,117.262,30.434a3.844,3.844,0,0,1,3.3,4.4l-27.333,175.36a4.423,4.423,0,0,1-5.026,3.695c-19.688-2.948-100.707-15.377-128.64-24.389a3.5,3.5,0,0,1-2.353-4.04Z" transform="translate(-1398.399 -560.393)" fill="#91b3fa"/>
    <path id="Path_268" data-name="Path 268" d="M1461.457,618.419a4,4,0,0,1,5.263-2.968c15.2,5.42,67.634,23.326,112.847,29.288a3.7,3.7,0,0,1,3.178,4.235l-26.3,168.757a4.257,4.257,0,0,1-4.837,3.556c-18.946-2.836-96.915-14.8-123.8-23.47a3.372,3.372,0,0,1-2.264-3.888Z" transform="translate(-1423.068 -610.342)" fill="#fff" opacity="0.6"/>
    <path id="Path_269" data-name="Path 269" d="M1905.057,807.008a2.472,2.472,0,0,0-3.034,2l-5.879,36.129a2.324,2.324,0,0,0,1.75,2.635c6.587,1.583,27.129,6.439,38.915,8.288a2.6,2.6,0,0,0,2.924-1.948c1.636-6.663,6.239-26.09,6.43-34.577a2.929,2.929,0,0,0-2.229-2.905Z" transform="translate(-1851.858 -785.013)" fill="#fff" opacity="0.78"/>
    <circle id="Ellipse_6" data-name="Ellipse 6" cx="7.86" cy="7.86" r="7.86" transform="matrix(0.361, -0.932, 0.932, 0.361, 59.837, 46.029)" fill="url(#linear-gradient-2)"/>
    <path id="Path_270" data-name="Path 270" d="M1984.305,1166.829l24.5,5.164a1.939,1.939,0,0,0,2.21-2.589c-1.4-3.7-4.741-9.4-12.329-10.771a17.458,17.458,0,0,0-15.351,4.733A2.027,2.027,0,0,0,1984.305,1166.829Z" transform="translate(-1930.741 -1105.17)" fill="url(#linear-gradient-3)"/>
    <g id="Group_279" data-name="Group 279" transform="translate(103.934 35.471)" opacity="0.6">
      <path id="Path_271" data-name="Path 271" d="M2610.84,971.6a1.3,1.3,0,0,0,1.613-.913,1.42,1.42,0,0,0-1.172-1.526l-42.788-9.817a.927.927,0,0,0-1.2,1.095l.083.627a2.163,2.163,0,0,0,1.581,1.708Z" transform="translate(-2567.278 -959.311)" fill="#fff"/>
    </g>
    <g id="Group_280" data-name="Group 280" transform="translate(102.528 42.141)" opacity="0.6">
      <path id="Path_272" data-name="Path 272" d="M2552.684,1034.361a.926.926,0,0,0-1.2,1.095l.083.627a2.162,2.162,0,0,0,1.581,1.708l41.886,8.828a1.3,1.3,0,0,0,1.613-.913,1.42,1.42,0,0,0-1.172-1.527Z" transform="translate(-2551.469 -1034.325)" fill="#fff"/>
    </g>
    <g id="Group_281" data-name="Group 281" transform="translate(101.102 48.908)" opacity="0.6">
      <path id="Path_273" data-name="Path 273" d="M2536.644,1110.464a.927.927,0,0,0-1.2,1.095l.083.627a2.162,2.162,0,0,0,1.581,1.708l41.886,8.828a1.3,1.3,0,0,0,1.613-.914,1.42,1.42,0,0,0-1.172-1.527Z" transform="translate(-2535.428 -1110.429)" fill="#fff"/>
    </g>
    <g id="Group_282" data-name="Group 282" transform="translate(40.965 70.234)" opacity="0.6">
      <path id="Path_274" data-name="Path 274" d="M1960.1,1374.751a1.24,1.24,0,0,0,1.569-.923,1.467,1.467,0,0,0-1.219-1.522l-100.45-22c-.766-.168-1.105.269-.754.97l.6,1.206a3.358,3.358,0,0,0,2.034,1.569Z" transform="translate(-1859.106 -1350.271)" fill="#fff"/>
    </g>
    <g id="Group_283" data-name="Group 283" transform="translate(39.559 76.904)" opacity="0.6">
      <path id="Path_275" data-name="Path 275" d="M1844.188,1425.321c-.766-.168-1.105.268-.754.969l.6,1.206a3.357,3.357,0,0,0,2.034,1.569l98.215,20.7a1.24,1.24,0,0,0,1.569-.923,1.467,1.467,0,0,0-1.219-1.522Z" transform="translate(-1843.296 -1425.285)" fill="#fff"/>
    </g>
    <path id="Path_276" data-name="Path 276" d="M1792.341,1549.713c2.458.324,7.007,1.193,9.508,1.684a2.31,2.31,0,0,1,1.867,2.2,37.677,37.677,0,0,1-.863,9.355,2.052,2.052,0,0,1-2.439,1.538l-9.182-2.039a2.257,2.257,0,0,1-1.754-2.463l1.015-8.828A1.645,1.645,0,0,1,1792.341,1549.713Z" transform="translate(-1754.691 -1461.732)" fill="#fff" opacity="0.6"/>
    <g id="Group_284" data-name="Group 284" transform="translate(52.362 95.08)" opacity="0.6">
      <path id="Path_277" data-name="Path 277" d="M1988.839,1629.74a1.134,1.134,0,0,0-1.465,1.071l-.09,1.531a1.713,1.713,0,0,0,1.312,1.718l22.351,4.711a1.409,1.409,0,0,0,1.672-1.1l.075-.378a1.527,1.527,0,0,0-1.1-1.751Z" transform="translate(-1987.282 -1629.697)" fill="#fff"/>
    </g>
    <path id="Path_278" data-name="Path 278" d="M2356.185,1668.547c2.459.325,7.007,1.194,9.509,1.684a2.31,2.31,0,0,1,1.867,2.2,37.638,37.638,0,0,1-.863,9.354,2.05,2.05,0,0,1-2.439,1.538l-9.182-2.039a2.259,2.259,0,0,1-1.754-2.463l1.016-8.828A1.646,1.646,0,0,1,2356.185,1668.547Z" transform="translate(-2268.399 -1569.999)" fill="#fff" opacity="0.6"/>
    <g id="Group_285" data-name="Group 285" transform="translate(102.498 105.646)" opacity="0.6">
      <path id="Path_279" data-name="Path 279" d="M2552.684,1748.574a1.135,1.135,0,0,0-1.466,1.072l-.09,1.531a1.712,1.712,0,0,0,1.312,1.717l22.35,4.711a1.409,1.409,0,0,0,1.672-1.1l.075-.378a1.526,1.526,0,0,0-1.105-1.751Z" transform="translate(-2551.126 -1748.531)" fill="#fff"/>
    </g>
    <g id="Group_290" data-name="Group 290" transform="translate(21.459 110.58)">
      <path id="Path_280" data-name="Path 280" d="M1779.584,1833.067l-.023,0-8.475-1.871a2.333,2.333,0,0,1-1.92-2.433l.755-7.282a1.581,1.581,0,0,1,.611-1.087,1.906,1.906,0,0,1,1.434-.367h0c.726.1,1.752.229,2.837.363,2.286.282,5.131.633,6.708.945a2.426,2.426,0,0,1,2.027,2.164c.1,1.729-.594,4.816-1.373,8.1A2.144,2.144,0,0,1,1779.584,1833.067Zm-7.71-12.385a1.235,1.235,0,0,0-.931.232.922.922,0,0,0-.359.631l-.755,7.282a1.669,1.669,0,0,0,1.4,1.713l8.475,1.871.017,0a1.479,1.479,0,0,0,1.8-.979c.767-3.231,1.448-6.266,1.356-7.906a1.791,1.791,0,0,0-1.491-1.548c-1.554-.307-4.385-.656-6.661-.937-1.089-.134-2.117-.261-2.848-.364Z" transform="translate(-1757.647 -1818.581)" fill="#fff"/>
      <path id="Path_281" data-name="Path 281" d="M1788.351,1837.943c1.81.254,5.77.678,7.614,1.042a1.68,1.68,0,0,1,1.406,1.484,29.482,29.482,0,0,1-1.09,6.394,1.444,1.444,0,0,1-1.766.978l-6.773-1.5a1.6,1.6,0,0,1-1.327-1.657l.6-5.819A1.127,1.127,0,0,1,1788.351,1837.943Z" transform="translate(-1773.366 -1834.915)" fill="#fff" opacity="0.6"/>
      <g id="Group_286" data-name="Group 286" transform="translate(30.39 9.063)" opacity="0.6">
        <path id="Path_282" data-name="Path 282" d="M1981.514,1908.213a2.155,2.155,0,0,0,1.726,2l78.712,15.89a1.629,1.629,0,0,0,.666-3.19l-78.5-16.918A2.155,2.155,0,0,0,1981.514,1908.213Z" transform="translate(-1981.512 -1905.949)" fill="#fff"/>
      </g>
      <path id="Path_283" data-name="Path 283" d="M1799.938,1808.242h0a1.332,1.332,0,0,1,1.695.868l1.042,3.356a.428.428,0,0,0,.754.125l6.1-8.373a.474.474,0,0,1,.845.387,18.663,18.663,0,0,1-7.992,11.589s-2.287-1.494-3.365-6.321A1.4,1.4,0,0,1,1799.938,1808.242Z" transform="translate(-1784.827 -1804.02)" fill="url(#linear-gradient-4)"/>
      <path id="Path_284" data-name="Path 284" d="M1736.444,2037.755l-.023,0-8.475-1.871a2.333,2.333,0,0,1-1.921-2.433l.755-7.283a1.583,1.583,0,0,1,.611-1.087,1.908,1.908,0,0,1,1.434-.367h0c.726.1,1.751.228,2.837.362,2.286.282,5.132.633,6.709.945l.034.007a2.421,2.421,0,0,1,1.993,2.157c.1,1.729-.594,4.817-1.373,8.1A2.145,2.145,0,0,1,1736.444,2037.755Zm-7.71-12.385a1.234,1.234,0,0,0-.931.232.923.923,0,0,0-.359.631l-.755,7.282a1.669,1.669,0,0,0,1.4,1.714l8.474,1.871.017,0a1.478,1.478,0,0,0,1.8-.978c.767-3.231,1.449-6.266,1.356-7.906a1.782,1.782,0,0,0-1.492-1.548c-1.553-.307-4.385-.657-6.661-.937-1.089-.134-2.117-.261-2.848-.364Z" transform="translate(-1718.342 -2005.069)" fill="#fff"/>
      <path id="Path_285" data-name="Path 285" d="M1745.211,2042.633c1.81.254,5.77.677,7.614,1.042a1.68,1.68,0,0,1,1.406,1.484,29.513,29.513,0,0,1-1.09,6.394,1.443,1.443,0,0,1-1.766.978l-6.772-1.5a1.6,1.6,0,0,1-1.328-1.656l.6-5.819A1.126,1.126,0,0,1,1745.211,2042.633Z" transform="translate(-1734.061 -2021.404)" fill="#fff" opacity="0.6"/>
      <g id="Group_287" data-name="Group 287" transform="translate(26.554 27.264)" opacity="0.6">
        <path id="Path_286" data-name="Path 286" d="M1938.375,2112.9a2.155,2.155,0,0,0,1.726,2l78.713,15.89a1.629,1.629,0,0,0,.666-3.19l-78.5-16.918A2.155,2.155,0,0,0,1938.375,2112.9Z" transform="translate(-1938.372 -2110.637)" fill="#fff"/>
      </g>
      <path id="Path_287" data-name="Path 287" d="M1756.8,2012.931h0a1.331,1.331,0,0,1,1.694.868l1.042,3.355a.428.428,0,0,0,.755.125l6.1-8.373a.474.474,0,0,1,.844.387,18.664,18.664,0,0,1-7.992,11.588s-2.287-1.493-3.365-6.322A1.4,1.4,0,0,1,1756.8,2012.931Z" transform="translate(-1745.523 -1990.509)" fill="url(#linear-gradient-5)"/>
      <path id="Path_288" data-name="Path 288" d="M1693.3,2242.444l-.023,0-8.475-1.871a2.333,2.333,0,0,1-1.921-2.433l.755-7.282a1.582,1.582,0,0,1,.611-1.088,1.907,1.907,0,0,1,1.434-.367h0c.726.1,1.751.229,2.837.362,2.286.282,5.132.634,6.708.945l.034.007a2.42,2.42,0,0,1,1.993,2.157c.1,1.729-.594,4.817-1.373,8.1A2.144,2.144,0,0,1,1693.3,2242.444Zm-7.71-12.385a1.232,1.232,0,0,0-.931.232.922.922,0,0,0-.359.631l-.755,7.283a1.668,1.668,0,0,0,1.4,1.712l8.475,1.871.017,0a1.478,1.478,0,0,0,1.8-.978c.767-3.231,1.448-6.267,1.356-7.906a1.778,1.778,0,0,0-1.491-1.548c-1.553-.307-4.385-.656-6.661-.937-1.088-.134-2.117-.261-2.848-.363Z" transform="translate(-1679.038 -2191.557)" fill="#fff"/>
      <path id="Path_289" data-name="Path 289" d="M1702.071,2247.322c1.81.254,5.77.677,7.614,1.042a1.68,1.68,0,0,1,1.406,1.483,29.5,29.5,0,0,1-1.09,6.395,1.444,1.444,0,0,1-1.766.978l-6.773-1.5a1.6,1.6,0,0,1-1.327-1.656l.6-5.82A1.127,1.127,0,0,1,1702.071,2247.322Z" transform="translate(-1694.757 -2207.892)" fill="#fff" opacity="0.6"/>
      <g id="Group_288" data-name="Group 288" transform="translate(22.718 45.464)" opacity="0.6">
        <path id="Path_290" data-name="Path 290" d="M1895.235,2317.59a2.155,2.155,0,0,0,1.726,2l78.713,15.889a1.629,1.629,0,0,0,.666-3.19l-78.5-16.918A2.155,2.155,0,0,0,1895.235,2317.59Z" transform="translate(-1895.233 -2315.326)" fill="#fff"/>
      </g>
      <path id="Path_291" data-name="Path 291" d="M1713.659,2217.62h0a1.331,1.331,0,0,1,1.695.868l1.042,3.355a.427.427,0,0,0,.754.125l6.1-8.373a.474.474,0,0,1,.844.387,18.664,18.664,0,0,1-7.992,11.588s-2.287-1.494-3.365-6.322A1.4,1.4,0,0,1,1713.659,2217.62Z" transform="translate(-1706.219 -2176.997)" fill="url(#linear-gradient-6)"/>
      <path id="Path_292" data-name="Path 292" d="M1650.164,2447.132l-.023,0-8.475-1.872a2.332,2.332,0,0,1-1.921-2.432l.755-7.282a1.581,1.581,0,0,1,.611-1.088,1.906,1.906,0,0,1,1.434-.367h0c.726.1,1.751.228,2.837.363,2.286.281,5.132.633,6.709.945l.034.006a2.422,2.422,0,0,1,1.993,2.158c.1,1.729-.594,4.816-1.373,8.1A2.144,2.144,0,0,1,1650.164,2447.132Zm-7.71-12.386a1.235,1.235,0,0,0-.931.232.92.92,0,0,0-.359.631l-.755,7.283a1.668,1.668,0,0,0,1.4,1.713l8.475,1.871.017,0a1.478,1.478,0,0,0,1.8-.979c.767-3.231,1.449-6.267,1.356-7.906a1.775,1.775,0,0,0-1.491-1.548c-1.553-.307-4.385-.657-6.661-.937-1.089-.134-2.117-.261-2.848-.364Z" transform="translate(-1639.734 -2378.045)" fill="#fff"/>
      <path id="Path_293" data-name="Path 293" d="M1658.932,2452.011c1.81.253,5.77.677,7.614,1.042a1.68,1.68,0,0,1,1.406,1.483,29.508,29.508,0,0,1-1.09,6.394,1.443,1.443,0,0,1-1.766.977l-6.773-1.5a1.6,1.6,0,0,1-1.327-1.656l.6-5.819A1.126,1.126,0,0,1,1658.932,2452.011Z" transform="translate(-1655.454 -2394.381)" fill="#fff" opacity="0.6"/>
      <g id="Group_289" data-name="Group 289" transform="translate(18.882 63.665)" opacity="0.6">
        <path id="Path_294" data-name="Path 294" d="M1852.1,2522.279h0a2.155,2.155,0,0,0,1.726,2l78.712,15.89a1.629,1.629,0,0,0,.666-3.19l-78.5-16.919A2.155,2.155,0,0,0,1852.1,2522.279Z" transform="translate(-1852.092 -2520.015)" fill="#fff"/>
      </g>
      <path id="Path_295" data-name="Path 295" d="M1670.519,2422.309h0a1.332,1.332,0,0,1,1.695.868l1.042,3.355a.428.428,0,0,0,.754.125l6.1-8.374a.474.474,0,0,1,.845.388,18.663,18.663,0,0,1-7.992,11.588s-2.287-1.493-3.365-6.321A1.4,1.4,0,0,1,1670.519,2422.309Z" transform="translate(-1666.916 -2363.486)" fill="url(#linear-gradient-7)"/>
    </g>
  </g>
  <g id="Group_304" data-name="Group 304" transform="translate(2.327 12.6)">
    <path id="Path_296" data-name="Path 296" d="M486.23,620.462a4.157,4.157,0,0,1,3.8-5c16.735-1.1,74.128-5.644,119.711-18.6a3.844,3.844,0,0,1,4.778,2.729l44.507,171.806a4.423,4.423,0,0,1-3.147,5.386c-19.241,5.108-98.539,25.853-127.755,28.667a3.5,3.5,0,0,1-3.763-2.775Z" transform="translate(-486.141 -596.709)" fill="#91b3fa"/>
    <path id="Path_297" data-name="Path 297" d="M517.782,674.192a4,4,0,0,1,3.652-4.813c16.1-1.058,71.336-5.431,115.2-17.9a3.7,3.7,0,0,1,4.6,2.626l42.831,165.337a4.257,4.257,0,0,1-3.028,5.183c-18.516,4.916-94.829,24.88-122.944,27.588a3.373,3.373,0,0,1-3.622-2.67Z" transform="translate(-514.89 -646.476)" fill="#fff" opacity="0.6"/>
    <path id="Path_298" data-name="Path 298" d="M710.5,921.033l8.943,35.5a2.324,2.324,0,0,0,2.652,1.724c6.674-1.161,27.456-4.856,39.009-7.837a2.6,2.6,0,0,0,1.91-2.949c-1.142-6.765-4.628-26.423-7.82-34.289a2.93,2.93,0,0,0-3.2-1.782l-39.5,6.6A2.472,2.472,0,0,0,710.5,921.033Z" transform="translate(-690.481 -883.378)" fill="#fff" opacity="0.78"/>
    <circle id="Ellipse_7" data-name="Ellipse 7" cx="7.86" cy="7.86" r="7.86" transform="matrix(0.068, -0.998, 0.998, 0.068, 36.815, 53.19)" fill="#91b3fa"/>
    <path id="Path_299" data-name="Path 299" d="M889.528,1253.748l24.541-4.984a1.939,1.939,0,0,0,1-3.253c-2.747-2.838-8.082-6.745-15.591-4.994a17.457,17.457,0,0,0-12.212,10.436A2.026,2.026,0,0,0,889.528,1253.748Z" transform="translate(-851.444 -1182.874)" fill="#91b3fa"/>
    <g id="Group_292" data-name="Group 292" transform="translate(74.207 18.399)" opacity="0.6">
      <path id="Path_300" data-name="Path 300" d="M1365.278,806.077a1.3,1.3,0,0,0,1.118-1.479,1.42,1.42,0,0,0-1.681-.936l-43.17,7.97a.927.927,0,0,0-.67,1.483l.324.543a2.163,2.163,0,0,0,2.13.94Z" transform="translate(-1320.697 -803.635)" fill="#fff"/>
    </g>
    <g id="Group_293" data-name="Group 293" transform="translate(75.564 25.08)" opacity="0.6">
      <path id="Path_301" data-name="Path 301" d="M1336.8,886.76a.927.927,0,0,0-.67,1.483l.325.542a2.162,2.162,0,0,0,2.129.94l41.949-8.52a1.3,1.3,0,0,0,1.119-1.479,1.42,1.42,0,0,0-1.682-.936Z" transform="translate(-1335.956 -878.763)" fill="#fff"/>
    </g>
    <g id="Group_294" data-name="Group 294" transform="translate(76.94 31.857)" opacity="0.6">
      <path id="Path_302" data-name="Path 302" d="M1352.286,962.979a.927.927,0,0,0-.67,1.483l.325.543a2.162,2.162,0,0,0,2.129.94l41.949-8.52a1.3,1.3,0,0,0,1.118-1.479,1.42,1.42,0,0,0-1.682-.936Z" transform="translate(-1351.437 -954.982)" fill="#fff"/>
    </g>
    <g id="Group_295" data-name="Group 295" transform="translate(30.076 63.72)" opacity="0.6">
      <path id="Path_303" data-name="Path 303" d="M926.652,1315.746a1.24,1.24,0,0,0,1.074-1.47,1.467,1.467,0,0,0-1.723-.913l-100.931,19.673c-.77.15-.908.685-.307,1.189l1.033.867a3.359,3.359,0,0,0,2.49.633Z" transform="translate(-824.391 -1313.333)" fill="#fff"/>
    </g>
    <g id="Group_296" data-name="Group 296" transform="translate(31.433 70.401)" opacity="0.6">
      <path id="Path_304" data-name="Path 304" d="M840.331,1408.164c-.77.15-.908.685-.307,1.189l1.033.867a3.358,3.358,0,0,0,2.49.633l98.364-19.979a1.24,1.24,0,0,0,1.074-1.47,1.467,1.467,0,0,0-1.723-.913Z" transform="translate(-839.649 -1388.46)" fill="#fff"/>
    </g>
    <path id="Path_305" data-name="Path 305" d="M855.446,1713.162c2.385-.678,6.9-1.686,9.4-2.228a2.31,2.31,0,0,1,2.586,1.277,37.652,37.652,0,0,1,2.921,8.929,2.051,2.051,0,0,1-1.629,2.38l-9.237,1.773a2.258,2.258,0,0,1-2.588-1.565l-2.571-8.506A1.645,1.645,0,0,1,855.446,1713.162Z" transform="translate(-821.521 -1611.811)" fill="#fff" opacity="0.6"/>
    <g id="Group_297" data-name="Group 297" transform="translate(50.691 97.723)" opacity="0.6">
      <path id="Path_306" data-name="Path 306" d="M1057.227,1699.463a1.135,1.135,0,0,0-.92,1.565l.525,1.441a1.713,1.713,0,0,0,1.885,1.056l22.385-4.546a1.409,1.409,0,0,0,1.1-1.677l-.081-.377a1.528,1.528,0,0,0-1.709-1.169Z" transform="translate(-1056.226 -1695.737)" fill="#fff"/>
    </g>
    <path id="Path_307" data-name="Path 307" d="M1420.146,1598.467c2.385-.678,6.9-1.686,9.4-2.228a2.31,2.31,0,0,1,2.586,1.277,37.635,37.635,0,0,1,2.921,8.928,2.051,2.051,0,0,1-1.629,2.38l-9.237,1.772a2.258,2.258,0,0,1-2.588-1.564l-2.571-8.506A1.645,1.645,0,0,1,1420.146,1598.467Z" transform="translate(-1336.01 -1507.314)" fill="#fff" opacity="0.6"/>
    <g id="Group_298" data-name="Group 298" transform="translate(100.902 87.525)" opacity="0.6">
      <path id="Path_308" data-name="Path 308" d="M1621.928,1584.768a1.135,1.135,0,0,0-.92,1.565l.525,1.441a1.713,1.713,0,0,0,1.885,1.056l22.384-4.546a1.409,1.409,0,0,0,1.1-1.678l-.081-.377a1.527,1.527,0,0,0-1.709-1.168Z" transform="translate(-1620.926 -1581.042)" fill="#fff"/>
    </g>
    <g id="Group_303" data-name="Group 303" transform="translate(40.375 108.132)">
      <path id="Path_309" data-name="Path 309" d="M953.753,1974.861l-.023,0-8.521,1.646a2.333,2.333,0,0,1-2.728-1.471l-2.2-6.984a1.582,1.582,0,0,1,.129-1.24,1.9,1.9,0,0,1,1.171-.906h0c.707-.195,1.7-.486,2.748-.793,2.21-.649,4.962-1.455,6.533-1.8a2.425,2.425,0,0,1,2.72,1.182c.776,1.548,1.367,4.657,1.953,7.977A2.144,2.144,0,0,1,953.753,1974.861Zm-11.993-8.308a1.234,1.234,0,0,0-.763.582.922.922,0,0,0-.079.722l2.2,6.984a1.669,1.669,0,0,0,1.966,1.016l8.521-1.646.017,0a1.478,1.478,0,0,0,1.261-1.611c-.578-3.27-1.157-6.327-1.893-7.795a1.791,1.791,0,0,0-1.983-.829c-1.548.334-4.286,1.138-6.486,1.783-1.053.309-2.047.6-2.759.8Z" transform="translate(-940.211 -1949.883)" fill="#fff"/>
      <path id="Path_310" data-name="Path 310" d="M960.373,1984.866c1.762-.485,5.565-1.668,7.4-2.065a1.68,1.68,0,0,1,1.879.8,29.511,29.511,0,0,1,1.537,6.3,1.444,1.444,0,0,1-1.233,1.6l-6.81,1.315a1.6,1.6,0,0,1-1.875-.994l-1.756-5.581A1.126,1.126,0,0,1,960.373,1984.866Z" transform="translate(-957.759 -1967.646)" fill="#fff" opacity="0.6"/>
      <g id="Group_299" data-name="Group 299" transform="translate(19.825)" opacity="0.6">
        <path id="Path_311" data-name="Path 311" d="M1163.4,1831.526a2.155,2.155,0,0,0,2.38,1.155l78.554-16.654a1.629,1.629,0,0,0-.655-3.192l-78.766,15.624A2.155,2.155,0,0,0,1163.4,1831.526Z" transform="translate(-1163.175 -1812.803)" fill="#fff"/>
      </g>
      <path id="Path_312" data-name="Path 312" d="M995.39,2179.836l-.023,0-8.522,1.646a2.333,2.333,0,0,1-2.728-1.471l-2.2-6.984a1.581,1.581,0,0,1,.129-1.24,1.908,1.908,0,0,1,1.171-.907h0c.707-.194,1.7-.485,2.748-.793,2.211-.648,4.961-1.455,6.533-1.795l.034-.008a2.421,2.421,0,0,1,2.686,1.189c.776,1.548,1.367,4.657,1.953,7.977A2.145,2.145,0,0,1,995.39,2179.836Zm-11.992-8.309a1.236,1.236,0,0,0-.763.583.921.921,0,0,0-.079.722l2.2,6.984a1.669,1.669,0,0,0,1.966,1.017l8.521-1.646.017,0a1.478,1.478,0,0,0,1.261-1.611c-.578-3.27-1.157-6.327-1.893-7.795a1.782,1.782,0,0,0-1.983-.829c-1.548.334-4.286,1.138-6.486,1.783-1.052.308-2.047.6-2.759.8Z" transform="translate(-978.146 -2136.629)" fill="#fff"/>
      <path id="Path_313" data-name="Path 313" d="M1002.01,2189.866c1.762-.485,5.565-1.668,7.4-2.065a1.68,1.68,0,0,1,1.879.8,29.483,29.483,0,0,1,1.537,6.3,1.444,1.444,0,0,1-1.233,1.6l-6.81,1.315a1.6,1.6,0,0,1-1.876-.994l-1.756-5.581A1.127,1.127,0,0,1,1002.01,2189.866Z" transform="translate(-995.694 -2154.417)" fill="#fff" opacity="0.6"/>
      <g id="Group_300" data-name="Group 300" transform="translate(23.528 18.228)" opacity="0.6">
        <path id="Path_314" data-name="Path 314" d="M1205.036,2036.526a2.155,2.155,0,0,0,2.379,1.154l78.554-16.654a1.629,1.629,0,0,0-.655-3.192l-78.766,15.625A2.154,2.154,0,0,0,1205.036,2036.526Z" transform="translate(-1204.812 -2017.803)" fill="#fff"/>
      </g>
      <path id="Path_315" data-name="Path 315" d="M1037.027,2384.836l-.023,0-8.521,1.645a2.331,2.331,0,0,1-2.728-1.47l-2.2-6.984a1.584,1.584,0,0,1,.129-1.241,1.906,1.906,0,0,1,1.171-.907h0c.706-.194,1.7-.485,2.748-.793,2.211-.648,4.961-1.455,6.533-1.795l.034-.007a2.42,2.42,0,0,1,2.686,1.189c.776,1.548,1.367,4.657,1.953,7.977A2.145,2.145,0,0,1,1037.027,2384.836Zm-11.993-8.309a1.236,1.236,0,0,0-.763.582.923.923,0,0,0-.079.722l2.2,6.984a1.669,1.669,0,0,0,1.966,1.016l8.522-1.646.017,0a1.479,1.479,0,0,0,1.261-1.611c-.578-3.27-1.157-6.327-1.893-7.794a1.779,1.779,0,0,0-1.983-.83c-1.547.335-4.286,1.138-6.486,1.784-1.052.309-2.047.6-2.758.8Z" transform="translate(-1016.081 -2323.401)" fill="#fff"/>
      <path id="Path_316" data-name="Path 316" d="M1043.647,2394.865c1.762-.486,5.565-1.668,7.4-2.066a1.681,1.681,0,0,1,1.879.8,29.487,29.487,0,0,1,1.537,6.3,1.444,1.444,0,0,1-1.233,1.6l-6.81,1.315a1.6,1.6,0,0,1-1.876-.994l-1.756-5.581A1.127,1.127,0,0,1,1043.647,2394.865Z" transform="translate(-1033.629 -2341.188)" fill="#fff" opacity="0.6"/>
      <g id="Group_301" data-name="Group 301" transform="translate(27.23 36.456)" opacity="0.6">
        <path id="Path_317" data-name="Path 317" d="M1246.673,2241.525a2.155,2.155,0,0,0,2.38,1.155l78.554-16.653a1.63,1.63,0,0,0-.655-3.193l-78.766,15.625A2.154,2.154,0,0,0,1246.673,2241.525Z" transform="translate(-1246.449 -2222.802)" fill="#fff"/>
      </g>
      <path id="Path_318" data-name="Path 318" d="M1078.664,2589.834l-.023,0-8.521,1.646a2.332,2.332,0,0,1-2.728-1.471l-2.2-6.984a1.579,1.579,0,0,1,.129-1.24,1.908,1.908,0,0,1,1.171-.907h0c.707-.194,1.7-.485,2.748-.793,2.21-.649,4.961-1.456,6.532-1.8l.034-.007a2.421,2.421,0,0,1,2.686,1.189c.776,1.548,1.367,4.657,1.953,7.977A2.145,2.145,0,0,1,1078.664,2589.834Zm-11.993-8.308a1.232,1.232,0,0,0-.762.583.919.919,0,0,0-.079.722l2.2,6.984a1.67,1.67,0,0,0,1.966,1.016l8.521-1.646.017,0a1.479,1.479,0,0,0,1.261-1.612c-.578-3.27-1.157-6.325-1.893-7.794a1.777,1.777,0,0,0-1.983-.829c-1.548.334-4.286,1.138-6.486,1.783-1.052.308-2.047.6-2.758.8Z" transform="translate(-1054.016 -2510.172)" fill="#fff"/>
      <path id="Path_319" data-name="Path 319" d="M1085.284,2599.865c1.762-.485,5.565-1.668,7.4-2.065a1.681,1.681,0,0,1,1.879.8,29.523,29.523,0,0,1,1.537,6.3,1.444,1.444,0,0,1-1.233,1.6l-6.81,1.315a1.6,1.6,0,0,1-1.875-.993l-1.756-5.581A1.126,1.126,0,0,1,1085.284,2599.865Z" transform="translate(-1071.563 -2527.961)" fill="#fff" opacity="0.6"/>
      <g id="Group_302" data-name="Group 302" transform="translate(30.932 54.684)" opacity="0.6">
        <path id="Path_320" data-name="Path 320" d="M1288.31,2446.524h0a2.155,2.155,0,0,0,2.38,1.155l78.554-16.654a1.63,1.63,0,0,0-.655-3.193l-78.766,15.625A2.155,2.155,0,0,0,1288.31,2446.524Z" transform="translate(-1288.086 -2427.802)" fill="#fff"/>
      </g>
      <path id="Path_321" data-name="Path 321" d="M1096.409,2552.57h0a1.331,1.331,0,0,1,1.9.125l2.288,2.666a.428.428,0,0,0,.742-.184l2.279-10.108a.474.474,0,0,1,.929.021,18.661,18.661,0,0,1-2.737,13.808s-2.691-.463-5.6-4.467A1.4,1.4,0,0,1,1096.409,2552.57Z" transform="translate(-1082.099 -2479.62)" fill="url(#linear-gradient-8)"/>
    </g>
  </g>
  <g id="Group_307" data-name="Group 307" transform="translate(0 108.71)">
    <g id="Group_305" data-name="Group 305" transform="translate(5.209)">
      <path id="Path_322" data-name="Path 322" d="M566.707,1753.88a227.429,227.429,0,0,0,4.812,28.332H572.9a154.6,154.6,0,0,1-4.694-44.43c.778-17.915,5.165-39.667-3.016-50.057-6.809-8.648-35.7-9.94-45.205-10.131a1.4,1.4,0,0,0-1.128,2.273c3.643,4.583,11.27,15.2,11.935,24.467.876,12.217,10.371,21.806,19.806,25.8S565.115,1737.169,566.707,1753.88Z" transform="translate(-518.552 -1677.594)" fill="#91b3fa"/>
      <path id="Path_323" data-name="Path 323" d="M665.623,1762.463a45.558,45.558,0,0,1,16.209,7.8,35.651,35.651,0,0,1,6.512,6.342,30.83,30.83,0,0,1,4.538,7.911l.4,1.072c.132.358.231.727.348,1.091s.23.732.325,1.094l.289,1.086q.582,2.17,1.136,4.348,1.105,4.356,2.073,8.746c1.293,5.852,2.406,11.742,3.157,17.7a.261.261,0,0,1-.515.08v-.008c-.533-2.932-1.124-5.864-1.769-8.779s-1.3-5.83-2-8.733l-1.063-4.351-1.112-4.339q-.554-2.17-1.145-4.33l-.291-1.081c-.1-.361-.213-.7-.318-1.055s-.2-.7-.328-1.047l-.382-1.029a30.608,30.608,0,0,0-4.3-7.632,33.88,33.88,0,0,0-2.911-3.308l-.388-.393-.4-.378c-.27-.25-.533-.508-.808-.754-.557-.483-1.108-.973-1.691-1.427a45.684,45.684,0,0,0-7.447-4.813,47.5,47.5,0,0,0-8.218-3.406l-.013,0a.209.209,0,0,1,.112-.4Z" transform="translate(-652.308 -1754.911)" fill="#fff" opacity="0.5"/>
    </g>
    <g id="Group_306" data-name="Group 306" transform="translate(0 57.165)">
      <path id="Path_324" data-name="Path 324" d="M513.606,2350.7c4.942,7.256,4.307,11.315,4.459,14.753.027.61.06,1.474.131,2.493h1.349a29.59,29.59,0,0,1-.541-4.194c-.48-9.5-2.623-25.7-10.812-35.4s-17.157-10.58-28.457-1.766c-9.417,7.345-15.29,11.052-18.735,11.741a1.3,1.3,0,0,0-.873,1.9c2.209,4.069,8.456,13.415,18.944,12.757C492.451,2352.14,508.665,2343.443,513.606,2350.7Z" transform="translate(-459.969 -2320.49)" fill="#91b3fa"/>
      <path id="Path_325" data-name="Path 325" d="M724.659,2447.949a26.891,26.891,0,0,1,2.333-1.952c.809-.611,1.642-1.192,2.51-1.723a25.158,25.158,0,0,1,5.541-2.608,17.432,17.432,0,0,1,3.031-.681,12.958,12.958,0,0,1,3.144-.012c.261.043.525.068.784.126s.523.11.772.181l1.475.458,1.443.561,1.4.672a17.614,17.614,0,0,1,4.872,3.81,21.884,21.884,0,0,1,3.374,5.131l.336.688c.115.227.2.469.3.7.19.472.4.938.572,1.414l.5,1.439c.176.476.288.972.43,1.457a53.056,53.056,0,0,1,1.281,5.916.2.2,0,0,1-.4.083v-.007c-.471-1.947-.924-3.9-1.573-5.781-.294-.953-.667-1.875-1.013-2.8-.187-.459-.4-.907-.6-1.361-.1-.224-.193-.457-.311-.673l-.345-.656a22.284,22.284,0,0,0-3.343-4.822,17.131,17.131,0,0,0-4.615-3.522l-1.319-.626-1.367-.523-1.4-.427c-.233-.066-.462-.11-.693-.167s-.468-.077-.7-.117a11.743,11.743,0,0,0-2.864-.007,16.352,16.352,0,0,0-2.85.578,27.394,27.394,0,0,0-5.426,2.312c-.866.481-1.724.985-2.557,1.53s-1.651,1.122-2.433,1.727l-.005,0a.212.212,0,0,1-.275-.321Z" transform="translate(-701.064 -2430.178)" fill="#fff" opacity="0.5"/>
    </g>
  </g>
  <g id="Group_321" data-name="Group 321" transform="translate(52.805 15.366)">
    <path id="Path_326" data-name="Path 326" d="M1066.328,923.946a13.461,13.461,0,0,1,13.461-13.461h114.469a11.859,11.859,0,0,1,11.844,11.256l8.45,165.959a8.745,8.745,0,0,1-8.575,9.188l-131.2,2.385a8.3,8.3,0,0,1-8.452-8.3Z" transform="translate(-1066.328 -885.35)" fill="url(#linear-gradient-9)"/>
    <g id="Group_320" data-name="Group 320" transform="translate(9.378 23.753)">
      <path id="Path_327" data-name="Path 327" d="M1171.794,898.885a3.91,3.91,0,0,1,4.435-3.9c15.632,2.12,69.386,8.676,113.828,5.264a3.616,3.616,0,0,1,3.894,3.41l8.86,166.7a4.16,4.16,0,0,1-3.908,4.375c-18.692,1.106-95.671,5.382-123.128,2.506a3.3,3.3,0,0,1-2.95-3.262Z" transform="translate(-1171.794 -894.949)" fill="#91b3fa"/>
      <path id="Path_328" data-name="Path 328" d="M1192.5,947.384a3.763,3.763,0,0,1,4.268-3.753c15.043,2.04,66.773,8.349,109.542,5.066a3.479,3.479,0,0,1,3.747,3.281l8.526,160.421a4,4,0,0,1-3.761,4.211c-17.988,1.064-92.068,5.18-118.492,2.412a3.173,3.173,0,0,1-2.838-3.139Z" transform="translate(-1190.661 -939.271)" fill="#fff" opacity="0.6"/>
      <path id="Path_329" data-name="Path 329" d="M1349.091,1100.365l1.6,34.393a2.186,2.186,0,0,0,2.122,2.086c6.37.18,26.217.664,37.425.079a2.442,2.442,0,0,0,2.313-2.36c.213-6.45.681-25.223-.789-33.071a2.756,2.756,0,0,0-2.616-2.242l-37.649-1.317A2.325,2.325,0,0,0,1349.091,1100.365Z" transform="translate(-1333.324 -1079.884)" fill="#fff" opacity="0.78"/>
      <circle id="Ellipse_8" data-name="Ellipse 8" cx="7.393" cy="7.393" r="7.393" transform="translate(28.537 38.275) rotate(-76.717)" fill="url(#linear-gradient-10)"/>
      <path id="Path_330" data-name="Path 330" d="M1446.9,1401.748h23.555a1.824,1.824,0,0,0,1.532-2.812c-2-3.13-6.187-7.73-13.436-7.522a16.421,16.421,0,0,0-13.21,7.334A1.906,1.906,0,0,0,1446.9,1401.748Z" transform="translate(-1420.702 -1347.264)" fill="url(#linear-gradient-11)"/>
      <g id="Group_308" data-name="Group 308" transform="translate(67.639 20.408)" opacity="0.6">
        <path id="Path_331" data-name="Path 331" d="M1974.809,1127.532a1.218,1.218,0,0,0,1.307-1.154,1.335,1.335,0,0,0-1.374-1.177l-41.285-.736a.872.872,0,0,0-.9,1.241l.2.561a2.034,2.034,0,0,0,1.787,1.265Z" transform="translate(-1932.49 -1124.465)" fill="#fff"/>
      </g>
      <g id="Group_309" data-name="Group 309" transform="translate(67.639 26.82)" opacity="0.6">
        <path id="Path_332" data-name="Path 332" d="M1933.457,1196.572a.872.872,0,0,0-.9,1.241l.2.561a2.034,2.034,0,0,0,1.787,1.265h40.262a1.218,1.218,0,0,0,1.307-1.154,1.335,1.335,0,0,0-1.374-1.178Z" transform="translate(-1932.49 -1196.571)" fill="#fff"/>
      </g>
      <g id="Group_310" data-name="Group 310" transform="translate(67.639 33.324)" opacity="0.6">
        <path id="Path_333" data-name="Path 333" d="M1933.457,1269.728a.872.872,0,0,0-.9,1.241l.2.561a2.034,2.034,0,0,0,1.787,1.265h40.262a1.218,1.218,0,0,0,1.307-1.154,1.335,1.335,0,0,0-1.374-1.177Z" transform="translate(-1932.49 -1269.728)" fill="#fff"/>
      </g>
      <g id="Group_311" data-name="Group 311" transform="translate(16.354 64.681)" opacity="0.6">
        <path id="Path_334" data-name="Path 334" d="M1453.33,1625.454a1.166,1.166,0,0,0,1.265-1.154,1.38,1.38,0,0,0-1.417-1.164l-96.719-.762c-.738-.006-.965.461-.505,1.039l.79.992a3.158,3.158,0,0,0,2.177,1.049Z" transform="translate(-1355.716 -1622.374)" fill="#fff"/>
      </g>
      <g id="Group_312" data-name="Group 312" transform="translate(16.354 71.092)" opacity="0.6">
        <path id="Path_335" data-name="Path 335" d="M1356.459,1694.48c-.738-.006-.965.462-.505,1.039l.79.992a3.159,3.159,0,0,0,2.177,1.049h94.41a1.166,1.166,0,0,0,1.265-1.154,1.38,1.38,0,0,0-1.417-1.164Z" transform="translate(-1355.716 -1694.48)" fill="#fff"/>
      </g>
      <path id="Path_336" data-name="Path 336" d="M1344.546,1811.857c2.326-.178,6.68-.261,9.078-.294a2.172,2.172,0,0,1,2.145,1.661,35.409,35.409,0,0,1,1.021,8.777,1.93,1.93,0,0,1-1.947,1.889l-8.846-.1a2.125,2.125,0,0,1-2.092-1.927l-.778-8.322A1.547,1.547,0,0,1,1344.546,1811.857Z" transform="translate(-1327.885 -1730.06)" fill="url(#linear-gradient-12)"/>
      <g id="Group_313" data-name="Group 313" transform="translate(31.864 85.214)" opacity="0.6">
        <path id="Path_337" data-name="Path 337" d="M1531.306,1853.295a1.067,1.067,0,0,0-1.141,1.27l.214,1.427a1.611,1.611,0,0,0,1.54,1.326H1553.4a1.325,1.325,0,0,0,1.325-1.341l0-.363a1.436,1.436,0,0,0-1.357-1.4Z" transform="translate(-1530.151 -1853.294)" fill="#fff"/>
      </g>
      <path id="Path_338" data-name="Path 338" d="M1886.543,1811.857c2.326-.178,6.68-.261,9.078-.294a2.171,2.171,0,0,1,2.144,1.661,35.412,35.412,0,0,1,1.021,8.777,1.93,1.93,0,0,1-1.947,1.889l-8.846-.1a2.124,2.124,0,0,1-2.092-1.927l-.778-8.322A1.548,1.548,0,0,1,1886.543,1811.857Z" transform="translate(-1821.689 -1730.06)" fill="url(#linear-gradient-13)"/>
      <g id="Group_314" data-name="Group 314" transform="translate(80.057 85.214)" opacity="0.6">
        <path id="Path_339" data-name="Path 339" d="M2073.3,1853.295a1.068,1.068,0,0,0-1.141,1.27l.214,1.427a1.611,1.611,0,0,0,1.54,1.326H2095.4a1.326,1.326,0,0,0,1.324-1.341l0-.363a1.437,1.437,0,0,0-1.357-1.4Z" transform="translate(-2072.148 -1853.294)" fill="#fff"/>
      </g>
      <g id="Group_319" data-name="Group 319" transform="translate(17.992 100.864)">
        <path id="Path_340" data-name="Path 340" d="M1385.289,2071.68h-.022l-8.163-.079a2.194,2.194,0,0,1-2.239-1.867l-.717-6.849a1.487,1.487,0,0,1,.351-1.119,1.793,1.793,0,0,1,1.249-.617h0c.688-.047,1.656-.13,2.681-.216,2.159-.184,4.846-.413,6.358-.432a2.282,2.282,0,0,1,2.286,1.6c.425,1.572.388,4.549.307,7.719A2.018,2.018,0,0,1,1385.289,2071.68Zm-9.5-9.9a1.162,1.162,0,0,0-.812.395.867.867,0,0,0-.208.65l.717,6.849a1.57,1.57,0,0,0,1.622,1.3l8.163.078h.016a1.391,1.391,0,0,0,1.464-1.249c.08-3.122.117-6.048-.286-7.539a1.684,1.684,0,0,0-1.673-1.135c-1.49.019-4.164.246-6.313.429-1.028.087-2,.17-2.692.217Z" transform="translate(-1374.139 -2057.727)" fill="#fff"/>
        <path id="Path_341" data-name="Path 341" d="M1391.807,2077.472c1.715-.117,5.442-.5,7.209-.517a1.58,1.58,0,0,1,1.581,1.093,27.74,27.74,0,0,1,.237,6.1,1.358,1.358,0,0,1-1.436,1.242l-6.523-.062a1.508,1.508,0,0,1-1.543-1.267l-.573-5.473A1.06,1.06,0,0,1,1391.807,2077.472Z" transform="translate(-1389.277 -2072.717)" fill="#fff" opacity="0.6"/>
        <g id="Group_315" data-name="Group 315" transform="translate(18.252 6.861)" opacity="0.6">
          <path id="Path_342" data-name="Path 342" d="M1579.474,2109a2.027,2.027,0,0,0,1.977,1.51l75.527-.644a1.533,1.533,0,0,0-.006-3.066l-75.529-.344A2.027,2.027,0,0,0,1579.474,2109Z" transform="translate(-1579.406 -2106.455)" fill="#fff"/>
        </g>
        <path id="Path_343" data-name="Path 343" d="M1399.87,2035.126h0a1.253,1.253,0,0,1,1.728.471l1.61,2.886a.4.4,0,0,0,.718-.031l3.994-8.891a.446.446,0,0,1,.852.193,17.553,17.553,0,0,1-5.107,12.216s-2.395-.931-4.323-5.165A1.314,1.314,0,0,1,1399.87,2035.126Z" transform="translate(-1396.993 -2029.297)" fill="url(#linear-gradient-14)"/>
        <path id="Path_344" data-name="Path 344" d="M1385.289,2268.435h-.022l-8.163-.079a2.194,2.194,0,0,1-2.239-1.866l-.717-6.849a1.488,1.488,0,0,1,.351-1.119,1.793,1.793,0,0,1,1.249-.616h0c.688-.047,1.656-.129,2.681-.216,2.159-.185,4.846-.413,6.358-.432h.033a2.276,2.276,0,0,1,2.253,1.6c.425,1.572.388,4.548.307,7.719A2.017,2.017,0,0,1,1385.289,2268.435Zm-9.5-9.9a1.161,1.161,0,0,0-.812.394.866.866,0,0,0-.208.65l.717,6.849a1.571,1.571,0,0,0,1.622,1.306l8.163.077h.016a1.39,1.39,0,0,0,1.464-1.249c.08-3.122.117-6.048-.286-7.54a1.676,1.676,0,0,0-1.673-1.136c-1.489.02-4.164.247-6.312.43-1.028.087-2,.17-2.692.217Z" transform="translate(-1374.139 -2236.988)" fill="#fff"/>
        <path id="Path_345" data-name="Path 345" d="M1391.807,2274.23c1.715-.117,5.442-.5,7.209-.518a1.58,1.58,0,0,1,1.581,1.092,27.749,27.749,0,0,1,.237,6.1,1.359,1.359,0,0,1-1.436,1.242l-6.523-.063a1.508,1.508,0,0,1-1.543-1.267l-.573-5.473A1.059,1.059,0,0,1,1391.807,2274.23Z" transform="translate(-1389.277 -2251.98)" fill="#fff" opacity="0.6"/>
        <g id="Group_316" data-name="Group 316" transform="translate(18.252 24.356)" opacity="0.6">
          <path id="Path_346" data-name="Path 346" d="M1579.474,2305.757a2.027,2.027,0,0,0,1.977,1.51l75.527-.644a1.533,1.533,0,0,0-.006-3.065l-75.529-.344A2.027,2.027,0,0,0,1579.474,2305.757Z" transform="translate(-1579.406 -2303.213)" fill="#fff"/>
        </g>
        <path id="Path_347" data-name="Path 347" d="M1399.87,2231.884h0a1.253,1.253,0,0,1,1.728.47l1.61,2.886a.4.4,0,0,0,.718-.031l3.994-8.891a.446.446,0,0,1,.852.193,17.553,17.553,0,0,1-5.107,12.216s-2.395-.931-4.323-5.166A1.314,1.314,0,0,1,1399.87,2231.884Z" transform="translate(-1396.993 -2208.56)" fill="url(#linear-gradient-15)"/>
        <path id="Path_348" data-name="Path 348" d="M1385.289,2465.191h-.022l-8.163-.078a2.194,2.194,0,0,1-2.239-1.866l-.717-6.85a1.49,1.49,0,0,1,.351-1.12,1.794,1.794,0,0,1,1.249-.616h0c.688-.047,1.656-.13,2.681-.217,2.159-.184,4.846-.412,6.358-.431h.033a2.277,2.277,0,0,1,2.253,1.6c.425,1.572.388,4.548.307,7.719A2.017,2.017,0,0,1,1385.289,2465.191Zm-9.5-9.9a1.165,1.165,0,0,0-.812.395.867.867,0,0,0-.208.651l.717,6.849a1.57,1.57,0,0,0,1.622,1.3l8.163.079h.016a1.391,1.391,0,0,0,1.464-1.249c.08-3.122.117-6.048-.286-7.54a1.674,1.674,0,0,0-1.673-1.136c-1.489.019-4.164.247-6.312.43-1.028.088-2,.17-2.692.218Z" transform="translate(-1374.139 -2416.248)" fill="#fff"/>
        <path id="Path_349" data-name="Path 349" d="M1391.807,2470.987c1.715-.117,5.442-.5,7.209-.518a1.58,1.58,0,0,1,1.581,1.093,27.742,27.742,0,0,1,.237,6.1,1.358,1.358,0,0,1-1.436,1.242l-6.523-.062a1.508,1.508,0,0,1-1.543-1.267l-.573-5.474A1.059,1.059,0,0,1,1391.807,2470.987Z" transform="translate(-1389.277 -2431.241)" fill="#fff" opacity="0.6"/>
        <g id="Group_317" data-name="Group 317" transform="translate(18.252 41.851)" opacity="0.6">
          <path id="Path_350" data-name="Path 350" d="M1579.474,2502.514a2.027,2.027,0,0,0,1.977,1.51l75.527-.644a1.533,1.533,0,0,0-.006-3.065l-75.529-.344A2.026,2.026,0,0,0,1579.474,2502.514Z" transform="translate(-1579.406 -2499.971)" fill="#fff"/>
        </g>
        <path id="Path_351" data-name="Path 351" d="M1399.87,2428.643h0a1.253,1.253,0,0,1,1.728.47l1.61,2.886a.4.4,0,0,0,.718-.031l3.994-8.891a.446.446,0,0,1,.852.192,17.553,17.553,0,0,1-5.107,12.216s-2.395-.931-4.323-5.165A1.314,1.314,0,0,1,1399.87,2428.643Z" transform="translate(-1396.993 -2387.822)" fill="url(#linear-gradient-16)"/>
        <path id="Path_352" data-name="Path 352" d="M1385.289,2661.949h-.022l-8.163-.078a2.194,2.194,0,0,1-2.239-1.866l-.717-6.849a1.487,1.487,0,0,1,.351-1.119,1.8,1.8,0,0,1,1.249-.617h0c.688-.047,1.656-.129,2.681-.216,2.159-.184,4.846-.413,6.358-.432h.033a2.277,2.277,0,0,1,2.253,1.6c.425,1.572.388,4.548.307,7.719A2.017,2.017,0,0,1,1385.289,2661.949Zm-9.5-9.9a1.161,1.161,0,0,0-.812.394.868.868,0,0,0-.208.651l.717,6.849a1.569,1.569,0,0,0,1.622,1.3l8.163.079h.016a1.391,1.391,0,0,0,1.464-1.249c.08-3.122.117-6.048-.286-7.539a1.67,1.67,0,0,0-1.673-1.136c-1.489.019-4.164.246-6.312.43-1.028.087-2,.17-2.692.218Z" transform="translate(-1374.139 -2595.511)" fill="#fff"/>
        <path id="Path_353" data-name="Path 353" d="M1391.807,2667.745c1.715-.117,5.442-.5,7.209-.518a1.579,1.579,0,0,1,1.581,1.093,27.742,27.742,0,0,1,.237,6.1,1.359,1.359,0,0,1-1.436,1.243l-6.523-.063a1.508,1.508,0,0,1-1.543-1.267l-.573-5.473A1.06,1.06,0,0,1,1391.807,2667.745Z" transform="translate(-1389.277 -2610.504)" fill="#fff" opacity="0.6"/>
        <g id="Group_318" data-name="Group 318" transform="translate(18.252 59.346)" opacity="0.6">
          <path id="Path_354" data-name="Path 354" d="M1579.474,2699.273h0a2.027,2.027,0,0,0,1.977,1.51l75.527-.644a1.532,1.532,0,0,0-.006-3.065l-75.529-.344A2.027,2.027,0,0,0,1579.474,2699.273Z" transform="translate(-1579.406 -2696.729)" fill="#fff"/>
        </g>
        <path id="Path_355" data-name="Path 355" d="M1399.87,2625.4h0a1.253,1.253,0,0,1,1.728.47l1.61,2.885a.4.4,0,0,0,.718-.03l3.994-8.891a.446.446,0,0,1,.852.193,17.552,17.552,0,0,1-5.107,12.216s-2.395-.931-4.323-5.165A1.314,1.314,0,0,1,1399.87,2625.4Z" transform="translate(-1396.993 -2567.085)" fill="url(#linear-gradient-17)"/>
      </g>
    </g>
    <path id="Path_356" data-name="Path 356" d="M1799.14,630.317c-4.135-2.876-7.73-2.819-10.261-2.073a5.048,5.048,0,0,0-3.585,5.307l1.091,11.913,12.988,1.153S1807.249,635.958,1799.14,630.317Zm-5.711,9.611a3.239,3.239,0,1,1,3.238-3.239A3.239,3.239,0,0,1,1793.429,639.928Z" transform="translate(-1721.345 -627.809)" fill="url(#linear-gradient-18)"/>
    <path id="Path_357" data-name="Path 357" d="M1804.134,658.327a.313.313,0,0,1-.312-.285l-.174-1.9a.313.313,0,1,1,.624-.057l.174,1.9a.314.314,0,0,1-.284.341Zm-.341-3.718a.314.314,0,0,1-.312-.285l-.132-1.44a4.819,4.819,0,0,1,3.417-5.056,9.708,9.708,0,0,1,4.747-.2.313.313,0,0,1-.126.614,9.1,9.1,0,0,0-4.444.182,4.191,4.191,0,0,0-2.969,4.4l.132,1.44a.313.313,0,0,1-.283.341Z" transform="translate(-1737.796 -645.684)" fill="#fff"/>
    <path id="Path_358" data-name="Path 358" d="M1598.432,814.128v-5.99a3.655,3.655,0,0,1,3.78-3.653l41.3,1.415a3.555,3.555,0,0,1,3.427,3.34l.345,5.755Z" transform="translate(-1551.119 -788.774)" fill="url(#linear-gradient-19)"/>
    <path id="Path_359" data-name="Path 359" d="M1750.2,823.467h-1.776a.313.313,0,1,1,0-.627h1.776a.313.313,0,1,1,0,.627Z" transform="translate(-1687.486 -805.498)" fill="#fff"/>
    <path id="Path_360" data-name="Path 360" d="M1620.359,828.971a.313.313,0,0,1-.313-.313v-2.423a3.4,3.4,0,0,1,3.4-3.4h6.529a.313.313,0,1,1,0,.627h-6.529a2.772,2.772,0,0,0-2.769,2.768v2.423A.313.313,0,0,1,1620.359,828.971Z" transform="translate(-1570.81 -805.498)" fill="#fff"/>
    <path id="Path_361" data-name="Path 361" d="M2071.524,999.466l-9.721-7.927-9.722,7.927a166.512,166.512,0,0,0,.727-24.8q-.2-4.313-.591-8.349a1.23,1.23,0,0,1,1.226-1.348h16.916a1.23,1.23,0,0,1,1.229,1.165q.324,6.195.4,12.813C2072.066,986.137,2071.887,992.99,2071.524,999.466Z" transform="translate(-1964.43 -934.988)" fill="url(#linear-gradient-20)"/>
    <path id="Path_362" data-name="Path 362" d="M1407.529,891.981a3.891,3.891,0,0,1,3.887-3.7l72.213,0a5.337,5.337,0,0,1,5.259,4.427l.061.353a4.584,4.584,0,0,1-4.517,5.366h-74.087a2.98,2.98,0,0,1-2.977-3.123Z" transform="translate(-1377.042 -865.114)" fill="url(#linear-gradient-21)"/>
  </g>
  <g id="Group_325" data-name="Group 325" transform="translate(34.836 88.162)">
    <path id="Path_383" data-name="Path 383" d="M1055.107,1446.946l-1.4,1.774-.005.006a.3.3,0,1,1-.468-.37l0-.005,1.453-1.752a.271.271,0,0,1,.421.341Z" transform="translate(-1035.259 -1446.501)" fill="#fff"/>
    <path id="Path_384" data-name="Path 384" d="M989.5,1518.209,987.125,1522l-.011.018a.41.41,0,1,1-.7-.436l0-.007,2.47-3.775a.367.367,0,0,1,.618.4Z" transform="translate(-974.387 -1511.307)" fill="#fff"/>
    <path id="Path_385" data-name="Path 385" d="M934.572,1616.425l-1.9,4.039-.011.024a.5.5,0,1,1-.907-.428l0-.008,2-4.051a.461.461,0,0,1,.831.4Z" transform="translate(-924.592 -1600.696)" fill="#fff"/>
    <path id="Path_386" data-name="Path 386" d="M892.607,1721.035l-1.382,4.239-.01.032a.593.593,0,1,1-1.127-.367l0-.01,1.479-4.275a.552.552,0,0,1,1.047.351Z" transform="translate(-886.652 -1695.938)" fill="#fff"/>
    <path id="Path_387" data-name="Path 387" d="M865.236,1830.734l-.825,4.375-.007.038a.659.659,0,1,1-1.3-.244v-.007l.887-4.441a.635.635,0,0,1,1.247.242Z" transform="translate(-862.087 -1795.849)" fill="#fff"/>
    <path id="Path_388" data-name="Path 388" d="M853.4,1944.075l-.218,4.443,0,.043a.715.715,0,0,1-1.429-.07v-.008l.271-4.525a.691.691,0,0,1,1.379.075Z" transform="translate(-851.752 -1899.134)" fill="#fff"/>
    <path id="Path_389" data-name="Path 389" d="M853.835,2058.751l.394,4.428,0,.046a.771.771,0,0,1-1.536.137v-.009l-.353-4.523a.746.746,0,0,1,1.487-.124Z" transform="translate(-852.289 -2003.651)" fill="#fff"/>
    <path id="Path_390" data-name="Path 390" d="M867.316,2172.579l1,4.33.011.048a.827.827,0,0,1-1.611.37l0-.009-.969-4.435a.8.8,0,0,1,1.565-.352Z" transform="translate(-864.479 -2107.407)" fill="#fff"/>
    <path id="Path_391" data-name="Path 391" d="M896.219,2283.41l1.552,4.162.018.046a.869.869,0,1,1-1.628.607l0,0-1.566-4.263a.858.858,0,0,1,1.61-.592Z" transform="translate(-890.735 -2208.443)" fill="#fff"/>
    <path id="Path_392" data-name="Path 392" d="M939.953,2389.747l2.075,3.927.023.044a.888.888,0,0,1-1.569.83l0,0-2.107-4.022a.879.879,0,1,1,1.558-.816Z" transform="translate(-930.58 -2305.409)" fill="#fff"/>
    <path id="Path_393" data-name="Path 393" d="M997.019,2489.614l2.552,3.635.028.041a.906.906,0,0,1-1.483,1.041l0,0-2.6-3.726a.9.9,0,0,1,1.473-1.026Z" transform="translate(-982.589 -2396.478)" fill="#fff"/>
    <path id="Path_394" data-name="Path 394" d="M1066.163,2581.514l2.986,3.286.034.039a.924.924,0,1,1-1.368,1.243l0,0-3.043-3.373a.916.916,0,0,1,1.361-1.228Z" transform="translate(-1045.614 -2480.284)" fill="#fff"/>
    <path id="Path_395" data-name="Path 395" d="M1146.344,2663.921l3.385,2.865.044.037a.943.943,0,0,1-1.218,1.439l0,0-3.461-2.95a.935.935,0,0,1,1.213-1.422Z" transform="translate(-1118.71 -2555.437)" fill="#fff"/>
    <path id="Path_396" data-name="Path 396" d="M1236.832,2734.791l1.877,1.17.938.585c.315.192.621.4.943.576a.962.962,0,0,1-.929,1.684l0,0-.025-.014c-.332-.186-.647-.4-.971-.6l-.965-.606-1.929-1.213a.953.953,0,1,1,1.015-1.613Z" transform="translate(-1201.217 -2620.078)" fill="#fff"/>
    <path id="Path_397" data-name="Path 397" d="M1337.363,2791.022q2.01.919,4.082,1.7a.967.967,0,0,1-.68,1.811q-2.134-.8-4.21-1.743a.972.972,0,0,1,.807-1.768Z" transform="translate(-1292.93 -2671.39)" fill="#fff"/>
    <path id="Path_398" data-name="Path 398" d="M1445.359,2830.566l4.3,1.066.058.015a.953.953,0,0,1-.456,1.852l-4.42-1.084a.959.959,0,1,1,.457-1.864h0Z" transform="translate(-1391.438 -2707.459)" fill="#fff"/>
    <path id="Path_399" data-name="Path 399" d="M1558.381,2853.9l4.412.469.053.006a.939.939,0,0,1-.2,1.868l-4.52-.466a.946.946,0,1,1,.194-1.883h0Z" transform="translate(-1494.546 -2728.744)" fill="#fff"/>
    <path id="Path_400" data-name="Path 400" d="M1673.676,2861.4l4.443-.072h.046a.9.9,0,0,1,.036,1.8l-4.537.107a.917.917,0,1,1-.043-1.834h.055Z" transform="translate(-1599.726 -2735.523)" fill="#fff"/>
    <path id="Path_401" data-name="Path 401" d="M1789.237,2850.609l4.413-.572.04,0a.861.861,0,0,1,.228,1.707l-4.49.618a.879.879,0,0,1-.24-1.741h.007Z" transform="translate(-1705.143 -2725.227)" fill="#fff"/>
    <path id="Path_402" data-name="Path 402" d="M1903.666,2828.1l4.34-1.011.033-.008a.785.785,0,0,1,.368,1.527l-4.392,1.091a.819.819,0,0,1-.4-1.589l.008,0Z" transform="translate(-1809.524 -2704.309)" fill="#fff"/>
    <path id="Path_403" data-name="Path 403" d="M2015.828,2794.64l4.228-1.424.027-.009a.71.71,0,0,1,.463,1.343l-4.262,1.505a.743.743,0,1,1-.5-1.4l.006,0Z" transform="translate(-1911.833 -2673.427)" fill="#fff"/>
    <path id="Path_404" data-name="Path 404" d="M2124.7,2751.213l4.088-1.8.022-.01a.634.634,0,0,1,.52,1.157l-4.106,1.881a.668.668,0,1,1-.556-1.214l.006,0Z" transform="translate(-2011.126 -2633.502)" fill="#fff"/>
    <path id="Path_405" data-name="Path 405" d="M2229.77,2699.157l3.934-2.126.017-.009a.519.519,0,0,1,.5.907l-3.916,2.241a.574.574,0,1,1-.57-1l.009-.005Z" transform="translate(-2106.949 -2585.771)" fill="#fff"/>
    <path id="Path_406" data-name="Path 406" d="M2330.644,2638.939l3.752-2.442.011-.007a.4.4,0,0,1,.44.657l-3.717,2.548a.45.45,0,1,1-.509-.742l.007-.005Z" transform="translate(-2198.946 -2530.621)" fill="#fff"/>
    <path id="Path_407" data-name="Path 407" d="M2426.9,2585.337l1.813-1.358,0,0a.271.271,0,0,1,.332.429l-1.776,1.422a.308.308,0,1,1-.385-.48l.007,0Z" transform="translate(-2286.727 -2482.784)" fill="#fff"/>
  </g>
  <g id="Group_346" data-name="Group 346" transform="translate(163.123 97.892)">
    <path id="Path_445" data-name="Path 445" d="M2640.249,3127.6s.457,2.582.68,5.138a1.761,1.761,0,0,1-1.685,1.908c-3.4.142-10.685.417-13.3.3a.573.573,0,0,1-.5-.785h0a1.283,1.283,0,0,1,.656-.691l12.027-5.528Z" transform="translate(-2600.133 -3003.848)" fill="url(#linear-gradient-22)"/>
    <path id="Path_446" data-name="Path 446" d="M2775.3,3102.335l-.367,3.089s-2.107.981-3.546-.123l.873-3.442Z" transform="translate(-2734.812 -2980.101)" fill="url(#linear-gradient-23)"/>
    <path id="Path_447" data-name="Path 447" d="M2778.043,2358.44c.158.807.85,40.25-3.367,57.926a.6.6,0,0,0,.352.7,10.45,10.45,0,0,0,3.434.7,1.034,1.034,0,0,0,1.025-.741c1.205-4.1,6.98-24.649,7.733-44.277.842-21.932,0-.746,0-.746l-.494-13.558Z" transform="translate(-2737.828 -2294.272)" fill="url(#linear-gradient-24)"/>
    <path id="Path_448" data-name="Path 448" d="M2938.2,3144.99a18.6,18.6,0,0,1,1.428,4.767,1.074,1.074,0,0,1-.945,1.287c-1.124.11-2.854.253-4.241.243a1.07,1.07,0,0,1-1.06-1.195,9.035,9.035,0,0,1,2.109-4.956Z" transform="translate(-2884.245 -3019.891)" fill="url(#linear-gradient-25)"/>
    <path id="Path_449" data-name="Path 449" d="M2963.666,3091.548l-.856,4.671a3.022,3.022,0,0,1-2.521.173l.409-5.025Z" transform="translate(-2909.077 -2970.421)" fill="url(#linear-gradient-26)"/>
    <path id="Path_450" data-name="Path 450" d="M2830.87,2348.089c3.448,20.811-.749,51.435-2.163,57.429a.936.936,0,0,1-.755.71,6.279,6.279,0,0,1-2.7-.108.856.856,0,0,1-.616-.789c-.19-4.846.152-34.595-3.061-46.352a2.675,2.675,0,0,0-1.031-1.473l-6.235-4.433-.479-7.167Z" transform="translate(-2773.967 -2282.709)" fill="url(#linear-gradient-27)"/>
    <g id="Group_342" data-name="Group 342" transform="translate(4.406 9.943)">
      <path id="Path_451" data-name="Path 451" d="M2572.472,1844.959c10.334-.171,21.736,2.713,21.736,2.713,3.081,17.973.539,38.7.539,38.7-8,2.1-17.025-1.282-17.025-1.282-1.33-7.512-7.534-28.655-7.534-28.655a34.033,34.033,0,0,1-12.634-4.009,22.153,22.153,0,0,0,4.379-9.16A34.669,34.669,0,0,0,2572.472,1844.959Z" transform="translate(-2541.948 -1828.955)" fill="url(#linear-gradient-28)"/>
      <path id="Path_452" data-name="Path 452" d="M2356.093,1659.267a1.978,1.978,0,0,1,2.3-.646c1.52,6.424,9.494,11.632,17.686,14.178a22.147,22.147,0,0,1-4.379,9.16C2358.1,1674.315,2356.093,1659.267,2356.093,1659.267Z" transform="translate(-2356.093 -1658.484)" fill="url(#linear-gradient-29)"/>
    </g>
    <g id="Group_343" data-name="Group 343">
      <path id="Path_453" data-name="Path 453" d="M2303.876,1541.173c-.106.338,1.124.852,1.848-.529.025-.662.428-3.5.032-4.037a52.836,52.836,0,0,0-6.19-6.472.972.972,0,0,0-.122,1.35l1.981,2.064a9.6,9.6,0,0,0-1.157,2.287,2.775,2.775,0,0,0,.277,2.043c.348.626.823,1.441,1.271,2.078A2.741,2.741,0,0,0,2303.876,1541.173Z" transform="translate(-2299.225 -1530.135)" fill="url(#linear-gradient-30)"/>
      <path id="Path_454" data-name="Path 454" d="M2334.073,1591.491l1.805,1.531.567,1.524-1.61,1.786a20.787,20.787,0,0,0-.944-3.678C2333.49,1592,2333.7,1591.682,2334.073,1591.491Z" transform="translate(-2331.005 -1586.738)" fill="url(#linear-gradient-31)"/>
    </g>
    <path id="Path_455" data-name="Path 455" d="M2979.532,1910.107l3.963-10.006s9.653,6.559,11.24,14.874a22.846,22.846,0,0,0-8.391,2.249C2985.631,1913.3,2979.532,1910.107,2979.532,1910.107Z" transform="translate(-2926.83 -1871.44)" fill="url(#linear-gradient-32)"/>
    <path id="Path_456" data-name="Path 456" d="M2853.568,2096.647s10.837,6.124,14.494.895a4.111,4.111,0,0,0,.753-3.194,22.839,22.839,0,0,1,8.391-2.249,11.471,11.471,0,0,1-1.247,7.867c-6.405,11.718-23.825-.647-23.825-.647Z" transform="translate(-2809.301 -2048.565)" fill="url(#linear-gradient-33)"/>
    <g id="Group_344" data-name="Group 344" transform="translate(18.81 33.46)">
      <path id="Path_457" data-name="Path 457" d="M2568.8,1984.42l-5.915-20.655a.6.6,0,0,0-.509-.434c-1.072-.125-4.177-.476-7.762-.779a99.831,99.831,0,0,0-11.469-.464,1.162,1.162,0,0,0-.982,1.679c2.144,4.312,8.335,16.562,11.675,21.078a1.172,1.172,0,0,0,.954.471l13.433-.125A.605.605,0,0,0,2568.8,1984.42Z" transform="translate(-2542.038 -1962.049)" fill="url(#linear-gradient-34)"/>
      <path id="Path_458" data-name="Path 458" d="M2781.969,2102.546s.824-3.388.492-4.59-.977-2.747-3.124-2.4a31.4,31.4,0,0,0-4.677,1.248,1.229,1.229,0,0,0,1.76,1.061l-1.012.783s.146,1.253,1.522.583l-.94,1.038a1.1,1.1,0,0,0,1.605.369C2778.608,2099.974,2779.094,2102.954,2781.969,2102.546Z" transform="translate(-2756.639 -2085.166)" fill="url(#linear-gradient-35)"/>
    </g>
    <path id="Path_459" data-name="Path 459" d="M2805.535,1756.78l3.288,9.509a.343.343,0,0,1-.156.413,7.73,7.73,0,0,1-8.017-.539,1.612,1.612,0,0,1-.743-1.152l-1.065-8.23Z" transform="translate(-2760.137 -1739.222)" fill="url(#linear-gradient-36)"/>
    <g id="Group_345" data-name="Group 345" transform="translate(35.054 3.81)">
      <path id="Path_460" data-name="Path 460" d="M2754.909,1643.115s-3.61,6.8-3.147,9.542,4.937,2.548,8.845.319l2.73-7.339Z" transform="translate(-2751.72 -1638.173)" fill="url(#linear-gradient-37)"/>
      <path id="Path_461" data-name="Path 461" d="M2776.393,1590.521a.28.28,0,0,1-.123-.41,7.3,7.3,0,0,0,1-2.133s.649-.416-1.652-.966-5.733-1.406-6.454-3.365c-.7-1.909,1.144-6.712,4.092-2.885a.28.28,0,0,0,.444,0,2.888,2.888,0,0,1,3.518-1.143,2.649,2.649,0,0,1,1.814,2.56.278.278,0,0,0,.33.285,3.231,3.231,0,0,1,3.772,1.759c.77,1.692.269,2.65-.187,3.119a.279.279,0,0,0,.119.464,1.681,1.681,0,0,1,1.186,1.918c-.1,1.776-2.084,1.62-2.65,1.539a.28.28,0,0,0-.249.088c-.485.536-2.67,2.815-5.034,3.089a.282.282,0,0,1-.3-.373l1.023-2.975a.281.281,0,0,0-.152-.349Z" transform="translate(-2767.679 -1579.323)" fill="url(#linear-gradient-38)"/>
      <path id="Path_462" data-name="Path 462" d="M2849.407,1718.927s2.571-1.764,2.758-.278-2.315,2.151-3.554,1.6Z" transform="translate(-2841.105 -1707.307)" fill="url(#linear-gradient-39)"/>
    </g>
  </g>
</svg>
