<svg xmlns="http://www.w3.org/2000/svg" xmlns:xlink="http://www.w3.org/1999/xlink" width="306" height="305.999" viewBox="0 0 306 305.999">
  <defs>
    <linearGradient id="linear-gradient" x1="-0.82" y1="0.5" x2="0.18" y2="0.5" gradientUnits="objectBoundingBox">
      <stop offset="0" stop-color="#dae3fe"/>
      <stop offset="1" stop-color="#e9effd"/>
    </linearGradient>
    <linearGradient id="linear-gradient-2" x1="1.799" y1="-1.815" x2="0.63" y2="0.269" gradientUnits="objectBoundingBox">
      <stop offset="0" stop-color="#fe7062"/>
      <stop offset="1" stop-color="#ff928e"/>
    </linearGradient>
    <linearGradient id="linear-gradient-3" x1="1.452" y1="-0.484" x2="-0.945" y2="2.343" xlink:href="#linear-gradient-2"/>
    <linearGradient id="linear-gradient-4" x1="1.218" y1="-0.899" x2="0.029" y2="1.567" xlink:href="#linear-gradient-2"/>
    <linearGradient id="linear-gradient-5" x1="0.969" y1="0.019" x2="-0.255" y2="1.281" gradientUnits="objectBoundingBox">
      <stop offset="0" stop-color="#09005d"/>
      <stop offset="1" stop-color="#1a0f91"/>
    </linearGradient>
    <linearGradient id="linear-gradient-6" x1="0" y1="0.5" x2="1" y2="0.5" xlink:href="#linear-gradient"/>
    <linearGradient id="linear-gradient-7" x1="0" y1="0.5" x2="1" y2="0.5" xlink:href="#linear-gradient"/>
    <linearGradient id="linear-gradient-8" x1="-0.187" y1="1.215" x2="0.831" y2="0.14" gradientUnits="objectBoundingBox">
      <stop offset="0" stop-color="#4042e2"/>
      <stop offset="1" stop-color="#4f52ff"/>
    </linearGradient>
    <linearGradient id="linear-gradient-10" x1="1.099" y1="-0.392" x2="-2.674" y2="5.225" xlink:href="#linear-gradient-2"/>
    <linearGradient id="linear-gradient-11" x1="1.155" y1="-1.755" x2="-0.889" y2="6.276" xlink:href="#linear-gradient-2"/>
    <linearGradient id="linear-gradient-23" x1="2.578" y1="-2.211" x2="-1.787" y2="3.403" xlink:href="#linear-gradient-2"/>
    <linearGradient id="linear-gradient-26" x1="3.377" y1="-3.239" x2="-0.988" y2="2.375" xlink:href="#linear-gradient-2"/>
    <linearGradient id="linear-gradient-29" x1="4.049" y1="-3.235" x2="-1.695" y2="2.799" xlink:href="#linear-gradient-2"/>
    <linearGradient id="linear-gradient-32" x1="4.975" y1="-5.294" x2="0.61" y2="0.32" xlink:href="#linear-gradient-2"/>
    <linearGradient id="linear-gradient-33" x1="1.519" y1="-0.775" x2="-1.484" y2="2.907" xlink:href="#linear-gradient-5"/>
    <linearGradient id="linear-gradient-35" x1="1.004" y1="-2.464" x2="-0.074" y2="4.125" xlink:href="#linear-gradient-5"/>
    <linearGradient id="linear-gradient-38" x1="0.727" y1="-2.869" x2="0.282" y2="3.71" xlink:href="#linear-gradient-8"/>
    <linearGradient id="linear-gradient-39" x1="-0.281" y1="0.954" x2="1.881" y2="-0.303" xlink:href="#linear-gradient-8"/>
    <linearGradient id="linear-gradient-40" x1="0.507" y1="0.068" x2="0.761" y2="-21.397" xlink:href="#linear-gradient-8"/>
    <linearGradient id="linear-gradient-41" x1="0.34" y1="4.039" x2="0.537" y2="-0.315" xlink:href="#linear-gradient-8"/>
    <linearGradient id="linear-gradient-42" x1="0.712" y1="0.715" x2="0.854" y2="1.061" gradientUnits="objectBoundingBox">
      <stop offset="0" stop-color="#ff928e"/>
      <stop offset="1" stop-color="#feb3b1"/>
    </linearGradient>
    <linearGradient id="linear-gradient-43" x1="0.532" y1="0.006" x2="0.327" y2="3.202" xlink:href="#linear-gradient-5"/>
    <linearGradient id="linear-gradient-44" x1="0.258" y1="0.704" x2="0.871" y2="0.217" xlink:href="#linear-gradient-42"/>
    <linearGradient id="linear-gradient-45" x1="0" y1="0.5" x2="1" y2="0.5" xlink:href="#linear-gradient-5"/>
    <linearGradient id="linear-gradient-46" x1="0.554" y1="-2.158" x2="0.395" y2="6.275" xlink:href="#linear-gradient-5"/>
    <linearGradient id="linear-gradient-47" x1="0.958" y1="0.108" x2="0.417" y2="0.574" xlink:href="#linear-gradient-5"/>
    <linearGradient id="linear-gradient-48" x1="0.492" y1="0.677" x2="0.267" y2="1.767" xlink:href="#linear-gradient-2"/>
    <linearGradient id="linear-gradient-49" x1="0.268" y1="-0.098" x2="0.725" y2="1.234" xlink:href="#linear-gradient-42"/>
    <linearGradient id="linear-gradient-50" x1="-0.006" y1="0.333" x2="0.924" y2="0.733" xlink:href="#linear-gradient-42"/>
    <linearGradient id="linear-gradient-51" x1="-4.903" y1="2.288" x2="-5.834" y2="3.144" xlink:href="#linear-gradient-5"/>
    <linearGradient id="linear-gradient-52" x1="-2.645" y1="-0.595" x2="0.947" y2="0.669" xlink:href="#linear-gradient-42"/>
    <linearGradient id="linear-gradient-53" x1="1.73" y1="-0.13" x2="-1.657" y2="1.467" xlink:href="#linear-gradient-8"/>
    <linearGradient id="linear-gradient-54" x1="1.289" y1="0.127" x2="-2.098" y2="1.724" xlink:href="#linear-gradient-8"/>
    <linearGradient id="linear-gradient-55" x1="0.484" y1="1.179" x2="0.561" y2="-2.195" xlink:href="#linear-gradient-2"/>
    <linearGradient id="linear-gradient-56" x1="-11.7" y1="1.564" x2="-12.039" y2="2.918" xlink:href="#linear-gradient-42"/>
    <linearGradient id="linear-gradient-57" x1="0.981" y1="-0.227" x2="0.175" y2="0.832" xlink:href="#linear-gradient-8"/>
    <linearGradient id="linear-gradient-58" x1="0" y1="0.5" x2="1" y2="0.5" xlink:href="#linear-gradient-2"/>
    <linearGradient id="linear-gradient-59" x1="0.772" y1="-6.693" x2="0.499" y2="0.843" gradientUnits="objectBoundingBox">
      <stop offset="0" stop-color="#020039"/>
      <stop offset="1" stop-color="#090056"/>
    </linearGradient>
    <linearGradient id="linear-gradient-60" x1="0" y1="0.5" x2="1" y2="0.5" xlink:href="#linear-gradient-42"/>
    <linearGradient id="linear-gradient-62" x1="0.734" y1="-1.867" x2="0.424" y2="1.1" xlink:href="#linear-gradient-59"/>
    <linearGradient id="linear-gradient-63" x1="0.5" y1="-1.229" x2="0.5" y2="-0.49" xlink:href="#linear-gradient-59"/>
    <linearGradient id="linear-gradient-65" x1="-0.095" y1="2.406" x2="0.49" y2="0.529" xlink:href="#linear-gradient-5"/>
    <linearGradient id="linear-gradient-66" x1="0.896" y1="0.143" x2="-0.542" y2="1.535" xlink:href="#linear-gradient-8"/>
    <linearGradient id="linear-gradient-67" x1="0.635" y1="0.392" x2="0.098" y2="1.51" xlink:href="#linear-gradient-42"/>
    <linearGradient id="linear-gradient-68" x1="-13.162" y1="18.226" x2="-14.749" y2="19.599" xlink:href="#linear-gradient-42"/>
    <linearGradient id="linear-gradient-69" x1="-7.917" y1="11.511" x2="-6.838" y2="11.511" xlink:href="#linear-gradient-5"/>
    <linearGradient id="linear-gradient-70" x1="-37.347" y1="53.511" x2="-34.193" y2="51.086" xlink:href="#linear-gradient-42"/>
    <linearGradient id="linear-gradient-71" x1="0.506" y1="-1.243" x2="0.427" y2="24.46" xlink:href="#linear-gradient-8"/>
    <linearGradient id="linear-gradient-72" x1="1" y1="0.5" x2="0" y2="0.5" xlink:href="#linear-gradient-5"/>
    <linearGradient id="linear-gradient-74" x1="2.218" y1="1.584" x2="0.046" y2="0.207" xlink:href="#linear-gradient-42"/>
  </defs>
  <g id="Image_3" data-name="Image 3" transform="translate(0 0)">
    <path id="Path_463" data-name="Path 463" d="M337.164,105.824c14.439,30.451,64.547-3.378,64.02,52.763-.617,65.737-21.718,98.615-10.178,148.951,10.764,46.953-25.4,80.32-89.483,79.345S145.379,327.922,170.214,264.943s8.288-66.21,7.077-94.044,5.842-88.888,55.471-37.973S300.6,28.714,337.164,105.824Z" transform="translate(-128.224 -83.904)" fill="url(#linear-gradient)"/>
    <g id="Group_350" data-name="Group 350" transform="translate(161.598 10.045)">
      <circle id="Ellipse_11" data-name="Ellipse 11" cx="18.098" cy="18.098" r="18.098" transform="translate(0 36.02) rotate(-84.345)" fill="#91b3fa"/>
      <circle id="Ellipse_12" data-name="Ellipse 12" cx="18.098" cy="18.098" r="18.098" transform="matrix(0.081, -0.997, 0.997, 0.081, 45.263, 36.36)" fill="#91b3fa"/>
      <circle id="Ellipse_13" data-name="Ellipse 13" cx="18.098" cy="18.098" r="18.098" transform="matrix(0.125, -0.992, 0.992, 0.125, 89.537, 36.084)" fill="#91b3fa"/>
      <g id="Group_348" data-name="Group 348" transform="translate(5.224 5.816)">
        <path id="Path_464" data-name="Path 464" d="M1627.526,364.633a11.626,11.626,0,1,1-10.754-7.208q.295,0,.586.015v-2.947c-.194-.008-.39-.013-.586-.013a14.561,14.561,0,1,0,13.457,8.978Z" transform="translate(-1602.202 -354.481)" fill="url(#linear-gradient-2)"/>
        <path id="Path_465" data-name="Path 465" d="M1839.88,378.886a11.624,11.624,0,1,1-6.194-21.461q.3,0,.586.015v-2.947c-.195-.008-.39-.013-.586-.013a14.57,14.57,0,1,0,7.655,26.968Z" transform="translate(-1774.334 -354.481)" fill="url(#linear-gradient-3)"/>
        <path id="Path_466" data-name="Path 466" d="M2062.55,375.587a11.625,11.625,0,1,1-9.614-18.161q.3,0,.587.015v-2.947c-.2-.008-.39-.013-.587-.013a14.57,14.57,0,1,0,12,22.833Z" transform="translate(-1948.32 -354.481)" fill="url(#linear-gradient-4)"/>
      </g>
      <g id="Group_349" data-name="Group 349" transform="translate(1.695 45.558)" opacity="0.64">
        <path id="Path_467" data-name="Path 467" d="M1617.955,546.983h-29.493a3.352,3.352,0,0,0,0,6.7h29.493a3.352,3.352,0,1,0,0-6.7Z" transform="translate(-1585.11 -546.983)" fill="#91b3fa"/>
        <path id="Path_468" data-name="Path 468" d="M1835.826,546.983h-29.493a3.352,3.352,0,0,0,0,6.7h29.493a3.352,3.352,0,0,0,0-6.7Z" transform="translate(-1758.001 -546.983)" fill="#91b3fa"/>
        <path id="Path_469" data-name="Path 469" d="M2024.2,553.687H2053.7a3.352,3.352,0,0,0,0-6.7H2024.2a3.352,3.352,0,1,0,0,6.7Z" transform="translate(-1930.893 -546.983)" fill="#91b3fa"/>
        <rect id="Rectangle_106" data-name="Rectangle 106" width="36.197" height="26.443" rx="13.221" transform="translate(0 10.428)" fill="#91b3fa"/>
        <path id="Rectangle_107" data-name="Rectangle 107" d="M13.221,0h9.754A13.221,13.221,0,0,1,36.2,13.221v0A13.221,13.221,0,0,1,22.975,26.443H13.221A13.221,13.221,0,0,1,0,13.221v0A13.221,13.221,0,0,1,13.221,0Z" transform="translate(44.98 10.428)" fill="#91b3fa"/>
        <rect id="Rectangle_108" data-name="Rectangle 108" width="36.197" height="26.443" rx="13.221" transform="translate(89.959 10.428)" fill="#91b3fa"/>
      </g>
    </g>
    <g id="Group_352" data-name="Group 352" transform="translate(11.384 79.436)">
      <path id="Path_472" data-name="Path 472" d="M363.308,517.665s-7.433-5.489-1.66-24.4c5.079-16.632,10.705-27.039,17.852-24.1s-4.686,37.558-13.554,48.358c0,0-17.507,166.762,114.929,164.473C480.876,682,356.611,706.784,363.308,517.665Z" transform="translate(-359.452 -468.672)" fill="#bdd0fb"/>
      <path id="Path_473" data-name="Path 473" d="M373.939,520.376a.63.63,0,0,1-.565-.349c-3.4-6.822,2.206-25.453,9.115-36.33.53-.834,4.08-3.988,5.589-3.513,1.529.482,1.639,2.372,1.269,3.845a31.158,31.158,0,0,1-4.314,9.729.631.631,0,0,1-1.049-.7,29.9,29.9,0,0,0,4.14-9.336c.206-.82.263-2.117-.424-2.334-.654-.077-3.586,2.106-4.145,2.986-7.367,11.6-11.935,29.306-9.051,35.09a.631.631,0,0,1-.564.912Z" transform="translate(-369.689 -477.769)" fill="#dce5fe"/>
    </g>
    <g id="Group_353" data-name="Group 353" transform="translate(40.001 55.632)" opacity="0.91">
      <path id="Path_474" data-name="Path 474" d="M502.26,353.732c21.823,14.141,145.458,101.622,84.207,232.385,0,0-96.219-36.639-87.6-230.642A2.2,2.2,0,0,1,502.26,353.732Z" transform="translate(-498.318 -353.375)" fill="#bdd0fb"/>
      <path id="Path_475" data-name="Path 475" d="M559.076,473.113s7.026,10.3,16.939,26.144l3.848,6.19,4.068,6.656c2.77,4.582,5.679,9.422,8.618,14.47,2.958,5.037,5.946,10.282,8.955,15.628l4.484,8.1c1.469,2.734,2.975,5.462,4.425,8.22s2.925,5.5,4.329,8.273l2.122,4.133c.7,1.375,1.38,2.759,2.067,4.131l2.04,4.1,1.969,4.088c1.321,2.7,2.562,5.4,3.791,8.055,2.452,5.307,4.72,10.486,6.786,15.433s3.925,9.666,5.534,14.063c.841,2.185,1.556,4.313,2.251,6.331l1.015,2.948c.318.96.6,1.9.886,2.809.558,1.82,1.12,3.511,1.568,5.1l1.206,4.368.512,1.872.393,1.667.619,2.63.515,2.19a.841.841,0,1,1-1.637.385v0l-.008-.035-.5-2.17-.6-2.606-.38-1.653-.5-1.858-1.175-4.338c-.436-1.576-.987-3.259-1.532-5.07-.281-.9-.556-1.839-.867-2.795l-1-2.936c-.681-2.01-1.381-4.13-2.208-6.309-1.58-4.383-3.413-9.09-5.443-14.031s-4.27-10.114-6.69-15.419c-1.212-2.651-2.437-5.351-3.743-8.053l-1.945-4.088-2.016-4.1c-.679-1.372-1.348-2.757-2.043-4.133l-2.1-4.136c-1.388-2.771-2.847-5.519-4.281-8.28s-2.925-5.493-4.379-8.23l-4.439-8.116c-2.978-5.354-5.938-10.607-8.869-15.654-2.912-5.057-5.794-9.907-8.54-14.5l-4.032-6.67-3.815-6.2c-2.459-3.969-4.733-7.595-6.771-10.794s-3.828-5.98-5.312-8.264c-2.972-4.565-4.712-7.143-4.712-7.143a.356.356,0,0,1,.59-.4Z" transform="translate(-546.016 -448.269)" fill="#dce5fe"/>
    </g>
    <g id="Group_354" data-name="Group 354" transform="translate(165.685 91.268)">
      <path id="Path_476" data-name="Path 476" d="M1736.427,528.082c1.948,26.56,6.977,181.585-137.648,212.435,0,0-29.583-101.207,134.126-214.13A2.253,2.253,0,0,1,1736.427,528.082Z" transform="translate(-1596.693 -525.987)" fill="#bdd0fb"/>
      <path id="Path_477" data-name="Path 477" d="M1852.281,643.708s-4.063,12.1-10.871,29.993l-2.675,6.969-2.919,7.436c-2.028,5.094-4.181,10.461-6.485,15.982-2.284,5.529-4.718,11.212-7.223,16.973l-3.844,8.672c-1.323,2.89-2.62,5.806-3.975,8.7s-2.685,5.791-4.078,8.649l-2.062,4.288c-.688,1.424-1.4,2.832-2.094,4.241l-2.089,4.2-2.12,4.135c-1.389,2.749-2.826,5.432-4.232,8.075-2.816,5.283-5.643,10.336-8.4,15.081s-5.464,9.18-8.059,13.212c-1.264,2.037-2.559,3.936-3.777,5.751l-1.779,2.652c-.587.853-1.182,1.664-1.745,2.46-1.141,1.581-2.174,3.085-3.193,4.432l-2.82,3.685-1.211,1.575-1.118,1.351-1.764,2.131-1.469,1.774a.841.841,0,1,1-1.3-1.072l0,0,.023-.028,1.462-1.75,1.757-2.1,1.114-1.333,1.208-1.557,2.815-3.642c1.017-1.331,2.05-2.822,3.191-4.386.563-.788,1.158-1.591,1.746-2.436l1.782-2.628c1.22-1.8,2.517-3.681,3.785-5.7,2.6-4,5.31-8.408,8.089-13.12s5.616-9.74,8.45-15c1.415-2.629,2.861-5.3,4.26-8.035l2.135-4.116,2.1-4.185c.7-1.4,1.417-2.8,2.111-4.223l2.078-4.271c1.4-2.847,2.745-5.738,4.112-8.616s2.675-5.785,4.011-8.664l3.88-8.643c2.529-5.742,4.987-11.407,7.3-16.92,2.328-5.5,4.5-10.856,6.555-15.937l2.952-7.416,2.706-6.951c1.72-4.462,3.273-8.56,4.625-12.2s2.514-6.823,3.462-9.447c1.889-5.25,2.917-8.264,2.917-8.264a.356.356,0,0,1,.675.229Z" transform="translate(-1726.909 -619.031)" fill="#dce5fe"/>
    </g>
    <g id="Group_355" data-name="Group 355" transform="translate(0 208.276)">
      <path id="Path_478" data-name="Path 478" d="M217.275,1094.574a1.237,1.237,0,0,1,1.782-1.608c10.3,6.974,37.87,24.415,60.04,27.3,36.1,4.691,76.76,27.491,79.362,54.908C358.458,1175.17,283.193,1218.263,217.275,1094.574Z" transform="translate(-217.123 -1092.747)" fill="#bdd0fb"/>
      <path id="Path_479" data-name="Path 479" d="M280.167,1155.759l.28.253.831.693c.74.616,1.851,1.494,3.261,2.614s3.141,2.457,5.145,3.967,4.284,3.187,6.77,5.017c2.5,1.81,5.216,3.764,8.129,5.77,2.9,2.024,6.008,4.088,9.222,6.221,3.228,2.112,6.575,4.278,10.028,6.394l2.6,1.6,2.634,1.57c1.753,1.061,3.544,2.072,5.324,3.1s3.595,2,5.376,3.009l5.382,2.9c1.8.918,3.577,1.861,5.357,2.735l2.655,1.3c.877.434,1.752.857,2.63,1.254,3.49,1.636,6.9,3.135,10.158,4.5s6.381,2.55,9.276,3.607l4.183,1.437c1.335.438,2.611.822,3.805,1.2l1.736.539,1.631.445,2.874.784c1.744.438,3.126.739,4.063.967l1.44.339.009,0a.21.21,0,0,1-.089.411l-1.455-.289c-.947-.2-2.346-.444-4.108-.845l-2.907-.713-1.651-.405-1.758-.5c-1.209-.351-2.5-.7-3.853-1.112l-4.228-1.379c-2.927-1.016-6.086-2.154-9.381-3.479-3.3-1.3-6.735-2.8-10.249-4.429-.884-.4-1.765-.815-2.649-1.247l-2.674-1.291c-1.793-.869-3.579-1.806-5.4-2.719l-5.42-2.88c-1.8-1-3.606-2-5.39-3.034s-3.576-2.064-5.33-3.136l-2.636-1.587-2.6-1.613c-3.455-2.139-6.8-4.326-10.03-6.458-3.208-2.162-6.285-4.288-9.168-6.352s-5.587-4.046-8.069-5.893c-4.945-3.721-8.963-6.954-11.75-9.248-1.39-1.152-2.469-2.072-3.2-2.711-.363-.312-.651-.578-.84-.746l-.274-.262a.21.21,0,0,1,.285-.307Z" transform="translate(-266.86 -1142.695)" fill="#dce5fe"/>
    </g>
    <g id="Group_357" data-name="Group 357" transform="translate(195.219 93.067)">
      <path id="Path_480" data-name="Path 480" d="M1714.84,535.508a1.076,1.076,0,0,0-2.088.012c-2.527,10.521-10.016,37.9-22.573,52.754-20.446,24.185-33.2,62.685-18.8,81.83C1671.381,670.1,1745.022,653.653,1714.84,535.508Z" transform="translate(-1665.223 -534.699)" fill="#91b3fa"/>
      <path id="Path_481" data-name="Path 481" d="M1753.378,610.157l-.021.33c-.023.221-.057.548-.1.975-.092.838-.242,2.063-.457,3.619-.442,3.109-1.118,7.546-2.108,12.84-.509,2.644-1.067,5.507-1.721,8.522s-1.366,6.191-2.158,9.463c-.823,3.264-1.69,6.634-2.655,10.036l-.723,2.562-.762,2.567c-.5,1.719-1.05,3.428-1.584,5.144s-1.116,3.415-1.683,5.113l-1.8,5.031c-.633,1.652-1.232,3.3-1.875,4.912s-1.261,3.208-1.935,4.753c-1.306,3.107-2.635,6.084-4,8.858-1.344,2.783-2.711,5.367-4,7.735l-1.913,3.365c-.625,1.059-1.257,2.039-1.83,2.973l-.841,1.349-.826,1.228-1.454,2.161c-.9,1.29-1.658,2.267-2.152,2.949l-.768,1.037a.21.21,0,0,1-.343-.243l.005-.008.724-1.063c.466-.7,1.175-1.7,2.036-3.008l1.382-2.192.785-1.244.8-1.365c.544-.944,1.137-1.94,1.735-3l1.84-3.378c1.238-2.378,2.55-4.969,3.835-7.76s2.6-5.751,3.881-8.848c.661-1.54,1.253-3.139,1.9-4.739s1.217-3.251,1.836-4.9l1.758-5.017c.551-1.694,1.153-3.379,1.691-5.085s1.1-3.4,1.6-5.114l.773-2.553.733-2.548c.979-3.384,1.86-6.737,2.7-9.987.816-3.255,1.607-6.4,2.286-9.4.7-3,1.3-5.843,1.848-8.472.526-2.634,1.025-5.045,1.418-7.191s.728-4.019.989-5.564.454-2.761.57-3.59l.13-.93.032-.327,0-.023a.21.21,0,0,1,.418.034Z" transform="translate(-1705.231 -594.402)" fill="#dce5fe"/>
    </g>
    <path id="Skin" d="M0,7.4,5.437,4.409Q6.582.055,8.173.028c.815-.379-.6,3.289.941,2.971S14.431-.125,15.08.445c.961.843.1,3.43-.906,4.717-1.888,2.405-3.451,3.228-7.314,4.3A21.237,21.237,0,0,0,.31,12.853Z" transform="translate(66.442 205.12) rotate(-4)" fill="#f09791" fill-rule="evenodd"/>
    <g id="Group_381" data-name="Group 381" transform="translate(20.182 91.756)">
      <path id="Path_563" data-name="Path 563" d="M509.081,956.965l-.781-.991a.638.638,0,1,1,1-.79l0,.006.77,1a.631.631,0,0,1-1,.775Z" transform="translate(-497.683 -855.871)" fill="#7d97f4"/>
      <path id="Path_564" data-name="Path 564" d="M497.282,940.142l-.69-1.056a.662.662,0,0,1,1.108-.724l0,.006.678,1.064a.655.655,0,0,1-1.1.71Z" transform="translate(-488.416 -842.477)" fill="#7d97f4"/>
      <path id="Path_565" data-name="Path 565" d="M486.994,922.359l-.6-1.112a.685.685,0,0,1,1.208-.647l0,.007.583,1.119a.678.678,0,0,1-1.2.634Z" transform="translate(-480.348 -828.332)" fill="#7d97f4"/>
      <path id="Path_566" data-name="Path 566" d="M478.251,903.773l-.5-1.158a.709.709,0,1,1,1.3-.562l0,.007.487,1.164a.7.7,0,0,1-1.292.549Z" transform="translate(-473.503 -813.562)" fill="#7d97f4"/>
      <path id="Path_567" data-name="Path 567" d="M471.059,884.536l-.4-1.2a.733.733,0,0,1,1.388-.47l0,.008.391,1.2a.725.725,0,0,1-1.377.458Z" transform="translate(-467.888 -798.285)" fill="#7d97f4"/>
      <path id="Path_568" data-name="Path 568" d="M465.409,864.8l-.31-1.223a.756.756,0,0,1,1.466-.372l0,.008.3,1.226a.749.749,0,0,1-1.454.36Z" transform="translate(-463.491 -782.62)" fill="#7d97f4"/>
      <path id="Path_569" data-name="Path 569" d="M461.277,844.69l-.217-1.243a.78.78,0,1,1,1.537-.268v.008l.2,1.245a.773.773,0,0,1-1.524.257Z" transform="translate(-460.295 -766.67)" fill="#7d97f4"/>
      <path id="Path_570" data-name="Path 570" d="M458.631,824.338l-.126-1.255a.8.8,0,1,1,1.6-.161v.009l.112,1.257a.8.8,0,0,1-1.586.15Z" transform="translate(-458.274 -750.534)" fill="#7d97f4"/>
      <path id="Path_571" data-name="Path 571" d="M457.439,803.855l-.037-1.261a.827.827,0,1,1,1.654-.049v.009l.023,1.261a.82.82,0,0,1-1.64.039Z" transform="translate(-457.401 -734.3)" fill="#7d97f4"/>
      <path id="Path_572" data-name="Path 572" d="M457.474,783.344l.05-1.26a.851.851,0,0,1,1.7.067v.01l-.064,1.26a.844.844,0,0,1-1.686-.076Z" transform="translate(-457.459 -718.051)" fill="#7d97f4"/>
      <path id="Path_573" data-name="Path 573" d="M458.763,762.9l.134-1.254a.875.875,0,0,1,1.739.187v.01l-.149,1.252a.867.867,0,0,1-1.724-.195Z" transform="translate(-458.478 -701.865)" fill="#7d97f4"/>
      <path id="Path_574" data-name="Path 574" d="M461.417,742.617l.219-1.243a.9.9,0,1,1,1.769.311l0,.01-.232,1.241a.891.891,0,0,1-1.754-.318Z" transform="translate(-460.577 -685.805)" fill="#7d97f4"/>
      <path id="Path_575" data-name="Path 575" d="M465.456,722.633l.3-1.224a.91.91,0,1,1,1.767.438v.005l-.311,1.223a.906.906,0,0,1-1.758-.442Z" transform="translate(-463.772 -670.003)" fill="#7d97f4"/>
      <path id="Path_576" data-name="Path 576" d="M470.834,702.981l.385-1.2a.923.923,0,0,1,1.757.563l0,.005-.392,1.2a.919.919,0,0,1-1.748-.566Z" transform="translate(-468.026 -654.466)" fill="#7d97f4"/>
      <path id="Path_577" data-name="Path 577" d="M477.522,683.758l.465-1.173a.935.935,0,1,1,1.738.689l0,.005-.472,1.17a.931.931,0,0,1-1.729-.692Z" transform="translate(-473.316 -639.275)" fill="#7d97f4"/>
      <path id="Path_578" data-name="Path 578" d="M485.507,665.053l.546-1.139a.947.947,0,0,1,1.709.818l0,.005-.552,1.136a.944.944,0,0,1-1.7-.82Z" transform="translate(-479.631 -624.499)" fill="#7d97f4"/>
      <path id="Path_579" data-name="Path 579" d="M494.783,646.974l.624-1.1a.96.96,0,1,1,1.668.949l0,0-.631,1.094a.956.956,0,0,1-1.659-.95Z" transform="translate(-486.966 -610.228)" fill="#7d97f4"/>
      <path id="Path_580" data-name="Path 580" d="M505.33,629.63l.7-1.049a.972.972,0,0,1,1.616,1.081l0,0-.708,1.044a.968.968,0,0,1-1.606-1.082Z" transform="translate(-495.306 -596.546)" fill="#7d97f4"/>
      <path id="Path_581" data-name="Path 581" d="M517.112,613.118l.773-1a.984.984,0,0,1,1.556,1.205l0,0-.778.993a.981.981,0,0,1-1.547-1.205Z" transform="translate(-504.622 -583.524)" fill="#7d97f4"/>
      <path id="Path_582" data-name="Path 582" d="M529.978,597.44l.835-.945a1,1,0,0,1,1.494,1.32l0,0-.841.94a.993.993,0,0,1-1.484-1.319Z" transform="translate(-514.797 -571.159)" fill="#7d97f4"/>
      <path id="Path_583" data-name="Path 583" d="M543.833,582.635l.893-.89a1.009,1.009,0,1,1,1.425,1.429l0,0-.9.885a1.005,1.005,0,0,1-1.415-1.428Z" transform="translate(-525.755 -559.487)" fill="#7d97f4"/>
      <path id="Path_584" data-name="Path 584" d="M558.6,568.736l.946-.834a1.021,1.021,0,1,1,1.351,1.533l0,0-.951.828a1.018,1.018,0,0,1-1.341-1.531Z" transform="translate(-537.43 -548.534)" fill="#7d97f4"/>
      <path id="Path_585" data-name="Path 585" d="M574.185,555.768l.995-.776a1.034,1.034,0,1,1,1.272,1.63l-.005,0-1,.77a1.03,1.03,0,0,1-1.263-1.628Z" transform="translate(-549.761 -538.318)" fill="#7d97f4"/>
      <path id="Path_586" data-name="Path 586" d="M590.522,543.75l1.038-.717a1.046,1.046,0,0,1,1.19,1.721l-.005,0-1.042.711a1.042,1.042,0,0,1-1.18-1.718Z" transform="translate(-562.682 -528.854)" fill="#7d97f4"/>
      <path id="Path_587" data-name="Path 587" d="M607.528,532.69l1.076-.658a1.059,1.059,0,0,1,1.1,1.806l-.005,0-1.08.652a1.055,1.055,0,0,1-1.1-1.8Z" transform="translate(-576.134 -520.148)" fill="#7d97f4"/>
      <path id="Path_588" data-name="Path 588" d="M625.121,522.606l1.112-.6a1.068,1.068,0,0,1,1.011,1.883h0l-1.113.594a1.067,1.067,0,0,1-1.007-1.881Z" transform="translate(-590.048 -512.218)" fill="#7d97f4"/>
      <path id="Path_589" data-name="Path 589" d="M643.288,513.52l1.142-.537a1.071,1.071,0,0,1,.911,1.939h0l-1.143.535a1.07,1.07,0,0,1-.909-1.937Z" transform="translate(-604.423 -505.074)" fill="#7d97f4"/>
      <path id="Path_590" data-name="Path 590" d="M661.92,505.4l1.168-.477a1.074,1.074,0,0,1,.812,1.988h0l-1.169.476a1.073,1.073,0,0,1-.81-1.987Z" transform="translate(-619.167 -498.693)" fill="#7d97f4"/>
      <path id="Path_591" data-name="Path 591" d="M680.951,498.237l1.189-.417a1.076,1.076,0,0,1,.713,2.031h0l-1.19.416a1.075,1.075,0,0,1-.711-2.03Z" transform="translate(-634.228 -493.074)" fill="#7d97f4"/>
      <path id="Path_592" data-name="Path 592" d="M700.318,492.036l1.21-.359a1.079,1.079,0,0,1,.613,2.069h0l-1.21.357a1.078,1.078,0,0,1-.612-2.067Z" transform="translate(-649.555 -488.213)" fill="#7d97f4"/>
      <path id="Path_593" data-name="Path 593" d="M719.987,486.792l1.227-.3a1.082,1.082,0,1,1,.513,2.1h0l-1.228.3a1.081,1.081,0,0,1-.512-2.1Z" transform="translate(-665.22 -484.109)" fill="#7d97f4"/>
      <path id="Path_594" data-name="Path 594" d="M739.9,482.51l1.239-.24a1.084,1.084,0,0,1,.413,2.129h0l-1.239.239a1.083,1.083,0,0,1-.411-2.127Z" transform="translate(-680.99 -480.767)" fill="#7d97f4"/>
      <path id="Path_595" data-name="Path 595" d="M760,479.191l1.249-.18a1.087,1.087,0,0,1,.311,2.151h0l-1.249.179a1.086,1.086,0,0,1-.309-2.15Z" transform="translate(-696.906 -478.188)" fill="#7d97f4"/>
      <path id="Path_596" data-name="Path 596" d="M780.252,476.839l1.256-.121a1.089,1.089,0,1,1,.208,2.169h0l-1.256.119a1.088,1.088,0,0,1-.207-2.167Z" transform="translate(-712.938 -476.374)" fill="#7d97f4"/>
      <path id="Path_597" data-name="Path 597" d="M800.6,475.462l1.262-.06a1.092,1.092,0,1,1,.1,2.181h0l-1.262.058a1.091,1.091,0,0,1-.1-2.18Z" transform="translate(-729.049 -475.332)" fill="#7d97f4"/>
      <path id="Path_598" data-name="Path 598" d="M821,475.068h1.269a1.095,1.095,0,1,1,0,2.189h-.011l-1.254,0H821a1.094,1.094,0,0,1,0-2.188Z" transform="translate(-745.202 -475.068)" fill="#7d97f4"/>
      <path id="Path_599" data-name="Path 599" d="M841.416,475.405l1.26.057a1.1,1.1,0,0,1-.1,2.192h0l-1.26-.058a1.1,1.1,0,0,1,.1-2.19Z" transform="translate(-761.37 -475.335)" fill="#7d97f4"/>
      <path id="Path_600" data-name="Path 600" d="M861.783,476.634l1.257.111a1.1,1.1,0,1,1-.193,2.191h0l-1.256-.113a1.1,1.1,0,0,1,.194-2.189Z" transform="translate(-777.5 -476.307)" fill="#7d97f4"/>
      <path id="Path_601" data-name="Path 601" d="M882.078,478.725l1.251.163a1.1,1.1,0,1,1-.285,2.186h0l-1.251-.165a1.1,1.1,0,0,1,.286-2.184Z" transform="translate(-793.574 -477.963)" fill="#7d97f4"/>
      <path id="Path_602" data-name="Path 602" d="M902.267,481.652l1.243.213a1.1,1.1,0,1,1-.374,2.178h0l-1.243-.215a1.1,1.1,0,0,1,.375-2.176Z" transform="translate(-809.566 -480.28)" fill="#7d97f4"/>
      <path id="Path_603" data-name="Path 603" d="M922.321,485.383l1.234.262a1.108,1.108,0,1,1-.46,2.167h0l-1.234-.263a1.107,1.107,0,0,1,.461-2.165Z" transform="translate(-825.451 -483.234)" fill="#7d97f4"/>
      <path id="Path_604" data-name="Path 604" d="M942.215,489.886l1.223.308a1.11,1.11,0,1,1-.543,2.153h0l-1.223-.31a1.109,1.109,0,0,1,.544-2.151Z" transform="translate(-841.21 -486.8)" fill="#7d97f4"/>
      <path id="Path_605" data-name="Path 605" d="M961.926,495.13l1.211.353a1.113,1.113,0,1,1-.622,2.137h0l-1.211-.354a1.112,1.112,0,0,1,.623-2.135Z" transform="translate(-856.825 -490.952)" fill="#7d97f4"/>
      <path id="Path_606" data-name="Path 606" d="M981.433,501.08l1.2.4a1.115,1.115,0,0,1-.7,2.119h0l-1.2-.4a1.115,1.115,0,0,1,.7-2.117Z" transform="translate(-872.28 -495.665)" fill="#7d97f4"/>
      <path id="Path_607" data-name="Path 607" d="M1000.712,507.7l1.183.438a1.115,1.115,0,0,1-.772,2.093l-1.184-.435a1.117,1.117,0,0,1,.77-2.1Z" transform="translate(-887.553 -500.91)" fill="#7d97f4"/>
      <path id="Path_608" data-name="Path 608" d="M1019.8,515.012l1.166.476a1.109,1.109,0,0,1-.835,2.055l-1.168-.473a1.111,1.111,0,0,1,.834-2.06Z" transform="translate(-902.684 -506.7)" fill="#7d97f4"/>
      <path id="Path_609" data-name="Path 609" d="M1038.624,522.93l1.152.513a1.1,1.1,0,0,1-.895,2.017l-1.153-.51a1.1,1.1,0,1,1,.893-2.021Z" transform="translate(-917.613 -512.973)" fill="#7d97f4"/>
      <path id="Path_610" data-name="Path 610" d="M1057.2,531.433l1.137.549a1.1,1.1,0,0,1-.951,1.977l-1.138-.545a1.1,1.1,0,1,1,.95-1.982Z" transform="translate(-932.345 -519.709)" fill="#7d97f4"/>
      <path id="Path_611" data-name="Path 611" d="M1075.518,540.494l1.121.582a1.091,1.091,0,0,1-1,1.938l-1.122-.579a1.093,1.093,0,0,1,1-1.942Z" transform="translate(-946.871 -526.889)" fill="#7d97f4"/>
      <path id="Path_612" data-name="Path 612" d="M1093.565,550.088l1.1.614a1.085,1.085,0,0,1-1.052,1.9l-1.106-.611a1.087,1.087,0,1,1,1.051-1.9Z" transform="translate(-961.184 -534.491)" fill="#7d97f4"/>
      <path id="Path_613" data-name="Path 613" d="M1111.335,560.19l1.086.645a1.079,1.079,0,0,1-1.1,1.857l-1.088-.642a1.08,1.08,0,0,1,1.1-1.861Z" transform="translate(-975.279 -542.497)" fill="#7d97f4"/>
      <path id="Path_614" data-name="Path 614" d="M1128.82,570.776l1.068.674a1.073,1.073,0,0,1-1.142,1.816l-1.071-.671a1.074,1.074,0,1,1,1.141-1.821Z" transform="translate(-989.148 -550.885)" fill="#7d97f4"/>
      <path id="Path_615" data-name="Path 615" d="M1146.014,581.826l1.05.7a1.066,1.066,0,0,1-1.183,1.775l-1.052-.7a1.068,1.068,0,1,1,1.182-1.78Z" transform="translate(-1002.787 -559.642)" fill="#7d97f4"/>
      <path id="Path_616" data-name="Path 616" d="M1162.908,593.316l1.031.727a1.06,1.06,0,0,1-1.22,1.735l-1.033-.724a1.062,1.062,0,1,1,1.219-1.74Z" transform="translate(-1016.19 -568.75)" fill="#7d97f4"/>
      <path id="Path_617" data-name="Path 617" d="M1179.511,605.2l1.014.748a1.054,1.054,0,0,1-1.249,1.7l-1.017-.745a1.056,1.056,0,0,1,1.249-1.7Z" transform="translate(-1029.365 -578.167)" fill="#7d97f4"/>
      <path id="Path_618" data-name="Path 618" d="M1195.874,617.406l1,.766a1.048,1.048,0,0,1-1.271,1.667l-1-.763a1.05,1.05,0,1,1,1.271-1.671Z" transform="translate(-1042.352 -587.848)" fill="#7d97f4"/>
      <path id="Path_619" data-name="Path 619" d="M1212.024,629.873l.99.78a1.042,1.042,0,0,1-1.287,1.639l-.993-.777a1.044,1.044,0,0,1,1.287-1.644Z" transform="translate(-1055.172 -597.736)" fill="#7d97f4"/>
      <path id="Path_620" data-name="Path 620" d="M1228.014,642.547l.982.791a1.036,1.036,0,0,1-1.3,1.616l-.985-.788a1.038,1.038,0,0,1,1.3-1.621Z" transform="translate(-1067.868 -607.789)" fill="#7d97f4"/>
      <path id="Path_621" data-name="Path 621" d="M1243.888,655.368l.977.8a1.03,1.03,0,0,1-1.3,1.6l-.979-.8a1.032,1.032,0,1,1,1.3-1.6Z" transform="translate(-1080.474 -617.96)" fill="#7d97f4"/>
      <path id="Path_622" data-name="Path 622" d="M1259.691,668.278l.975.8a1.024,1.024,0,0,1-1.3,1.584l-.977-.8a1.025,1.025,0,0,1,1.3-1.588Z" transform="translate(-1093.027 -628.205)" fill="#7d97f4"/>
      <path id="Path_623" data-name="Path 623" d="M1275.468,681.219l.975.8a1.018,1.018,0,0,1-1.289,1.575l-.978-.8a1.019,1.019,0,0,1,1.289-1.58Z" transform="translate(-1105.561 -638.476)" fill="#7d97f4"/>
      <path id="Path_624" data-name="Path 624" d="M1291.264,694.135l.978.8a1.011,1.011,0,0,1-1.275,1.57l-.981-.794a1.013,1.013,0,1,1,1.275-1.575Z" transform="translate(-1118.112 -648.727)" fill="#7d97f4"/>
      <path id="Path_625" data-name="Path 625" d="M1307.123,706.965l.984.789a1.005,1.005,0,0,1-1.255,1.57l-.987-.787a1.007,1.007,0,1,1,1.255-1.575Z" transform="translate(-1130.715 -658.914)" fill="#7d97f4"/>
      <path id="Path_626" data-name="Path 626" d="M1323.089,719.653l.993.778a1,1,0,0,1-1.231,1.575l-1-.776a1,1,0,1,1,1.231-1.579Z" transform="translate(-1143.406 -668.989)" fill="#7d97f4"/>
      <path id="Path_627" data-name="Path 627" d="M1339.2,732.136l1,.762h0a.993.993,0,0,1-1.2,1.583L1338,733.72a.995.995,0,1,1,1.2-1.587l0,0Z" transform="translate(-1156.214 -678.902)" fill="#7d97f4"/>
      <path id="Path_628" data-name="Path 628" d="M1355.521,744.359l1.019.744a.987.987,0,0,1-1.163,1.6l-1.021-.742a.989.989,0,0,1,1.162-1.6Z" transform="translate(-1169.191 -688.612)" fill="#7d97f4"/>
      <path id="Path_629" data-name="Path 629" d="M1372.074,756.247l1.035.722a.981.981,0,0,1-1.12,1.611l-1.037-.719a.983.983,0,1,1,1.12-1.615Z" transform="translate(-1182.354 -698.057)" fill="#7d97f4"/>
      <path id="Path_630" data-name="Path 630" d="M1388.894,767.746l1.052.7a.974.974,0,0,1-1.071,1.627l-1.055-.692a.977.977,0,0,1,1.071-1.633Z" transform="translate(-1195.732 -707.193)" fill="#7d97f4"/>
      <path id="Path_631" data-name="Path 631" d="M1406.028,778.819l1.071.667a.96.96,0,0,1-1.009,1.634l-1.075-.66a.964.964,0,1,1,1.008-1.644Z" transform="translate(-1209.367 -715.994)" fill="#7d97f4"/>
      <path id="Path_632" data-name="Path 632" d="M1423.492,789.386l1.092.632a.946.946,0,0,1-.942,1.641l-1.1-.624a.95.95,0,0,1,.941-1.651Z" transform="translate(-1223.27 -724.393)" fill="#7d97f4"/>
      <path id="Path_633" data-name="Path 633" d="M1441.3,799.362l1.114.592a.932.932,0,0,1-.87,1.649l-1.118-.585a.936.936,0,1,1,.868-1.659Z" transform="translate(-1237.445 -732.324)" fill="#7d97f4"/>
      <path id="Path_634" data-name="Path 634" d="M1459.453,808.67l1.138.548a.918.918,0,0,1-.792,1.657l-1.141-.541a.922.922,0,0,1,.79-1.667Z" transform="translate(-1251.903 -739.725)" fill="#7d97f4"/>
      <path id="Path_635" data-name="Path 635" d="M1477.983,817.231l1.159.5a.9.9,0,0,1-.708,1.664l-1.162-.49a.908.908,0,0,1,.705-1.674Z" transform="translate(-1266.659 -746.533)" fill="#7d97f4"/>
      <path id="Path_636" data-name="Path 636" d="M1496.86,824.95l1.18.442a.89.89,0,0,1-.618,1.669l-1.183-.434a.894.894,0,1,1,.616-1.679Z" transform="translate(-1281.692 -752.671)" fill="#7d97f4"/>
      <path id="Path_637" data-name="Path 637" d="M1516.079,831.742l1.2.381a.876.876,0,0,1-.524,1.671l-1.2-.373a.88.88,0,0,1,.521-1.681Z" transform="translate(-1297 -758.074)" fill="#7d97f4"/>
      <path id="Path_638" data-name="Path 638" d="M1535.623,837.523l1.221.315a.862.862,0,0,1-.425,1.67l-1.223-.307a.866.866,0,0,1,.422-1.68Z" transform="translate(-1312.567 -762.672)" fill="#7d97f4"/>
      <path id="Path_639" data-name="Path 639" d="M1555.458,842.192l1.238.24a.848.848,0,0,1-.316,1.666l-1.24-.231a.852.852,0,1,1,.313-1.675Z" transform="translate(-1328.369 -766.387)" fill="#7d97f4"/>
      <path id="Path_640" data-name="Path 640" d="M1575.546,845.606l1.251.16a.834.834,0,0,1-.206,1.655l-1.252-.151a.838.838,0,0,1,.2-1.664Z" transform="translate(-1344.468 -769.103)" fill="#7d97f4"/>
      <path id="Path_641" data-name="Path 641" d="M1595.808,847.727l1.259.078a.82.82,0,0,1-.1,1.637l-1.26-.07a.824.824,0,1,1,.091-1.645Z" transform="translate(-1360.602 -770.79)" fill="#7d97f4"/>
      <path id="Path_642" data-name="Path 642" d="M1616.161,848.5l1.262-.006a.806.806,0,0,1,.013,1.611l-1.262.014a.81.81,0,1,1-.018-1.62Z" transform="translate(-1376.807 -771.398)" fill="#7d97f4"/>
      <path id="Path_643" data-name="Path 643" d="M1636.516,847.575l1.258-.094a.792.792,0,0,1,.123,1.578l-1.257.1a.8.8,0,1,1-.129-1.586Z" transform="translate(-1393.015 -770.595)" fill="#7d97f4"/>
      <path id="Path_644" data-name="Path 644" d="M1656.773,845.206l1.248-.185a.778.778,0,0,1,.234,1.537l-1.247.194a.782.782,0,1,1-.24-1.545Z" transform="translate(-1409.145 -768.637)" fill="#7d97f4"/>
      <path id="Path_645" data-name="Path 645" d="M1676.817,841.323l1.23-.281a.764.764,0,0,1,.345,1.488l-1.228.289a.768.768,0,1,1-.352-1.494Z" transform="translate(-1425.107 -765.471)" fill="#7d97f4"/>
      <path id="Path_646" data-name="Path 646" d="M1696.516,835.863l1.2-.381a.749.749,0,0,1,.457,1.427l-1.2.389a.754.754,0,1,1-.464-1.434Z" transform="translate(-1440.795 -761.046)" fill="#7d97f4"/>
      <path id="Path_647" data-name="Path 647" d="M1715.711,828.775l1.166-.482a.734.734,0,0,1,.567,1.354l-1.161.493a.74.74,0,0,1-.578-1.362Z" transform="translate(-1456.083 -755.325)" fill="#7d97f4"/>
      <path id="Path_648" data-name="Path 648" d="M1734.266,820.049l1.117-.586a.711.711,0,0,1,.667,1.255l-1.11.6a.718.718,0,0,1-.681-1.264Z" transform="translate(-1470.864 -748.297)" fill="#7d97f4"/>
      <path id="Path_649" data-name="Path 649" d="M1751.96,809.641l1.054-.69a.687.687,0,0,1,.759,1.146l-1.047.7a.694.694,0,1,1-.773-1.153Z" transform="translate(-1484.961 -739.932)" fill="#7d97f4"/>
      <path id="Path_650" data-name="Path 650" d="M1768.568,797.547l.977-.8a.664.664,0,0,1,.846,1.023l-.968.809a.671.671,0,0,1-.861-1.029Z" transform="translate(-1498.194 -730.218)" fill="#7d97f4"/>
      <path id="Path_651" data-name="Path 651" d="M1783.785,783.718l.881-.9a.641.641,0,0,1,.922.89l-.871.912a.648.648,0,0,1-.937-.895Z" transform="translate(-1510.319 -719.128)" fill="#7d97f4"/>
      <path id="Path_652" data-name="Path 652" d="M1797.429,768.361l.78-.992a.618.618,0,0,1,.975.758l-.769,1a.625.625,0,1,1-.991-.761Z" transform="translate(-1521.187 -706.836)" fill="#7d97f4"/>
      <path id="Path_653" data-name="Path 653" d="M1809.394,751.7l.671-1.068a.594.594,0,0,1,1.01.627l-.659,1.075a.6.6,0,1,1-1.025-.628Z" transform="translate(-1530.714 -693.518)" fill="#7d97f4"/>
      <path id="Path_654" data-name="Path 654" d="M1819.572,733.922l.556-1.133a.571.571,0,0,1,1.028.5l-.543,1.139a.578.578,0,1,1-1.043-.5Z" transform="translate(-1538.817 -679.329)" fill="#7d97f4"/>
      <path id="Path_655" data-name="Path 655" d="M1827.841,715.227l.432-1.185a.548.548,0,0,1,1.031.369l-.418,1.19a.555.555,0,0,1-1.047-.368Z" transform="translate(-1545.399 -664.419)" fill="#7d97f4"/>
      <path id="Path_656" data-name="Path 656" d="M1834.056,695.807l.3-1.226a.525.525,0,0,1,1.021.242l-.284,1.229a.531.531,0,1,1-1.036-.239Z" transform="translate(-1550.345 -648.944)" fill="#7d97f4"/>
      <path id="Path_657" data-name="Path 657" d="M1838.047,675.874l.152-1.253a.5.5,0,0,1,1,.115l-.138,1.254a.508.508,0,1,1-1.01-.111Z" transform="translate(-1553.522 -633.074)" fill="#7d97f4"/>
      <path id="Path_658" data-name="Path 658" d="M1839.607,655.687l-.005-1.261a.478.478,0,0,1,.956-.009l.019,1.261a.485.485,0,1,1-.97.015Z" transform="translate(-1554.759 -617.016)" fill="#7d97f4"/>
      <path id="Path_659" data-name="Path 659" d="M1837.945,635.563l-.173-1.25a.455.455,0,0,1,.9-.13l.187,1.248a.462.462,0,0,1-.913.137Z" transform="translate(-1553.302 -601.026)" fill="#7d97f4"/>
      <path id="Path_660" data-name="Path 660" d="M1833.511,615.876l-.348-1.213a.432.432,0,0,1,.828-.242l.361,1.209a.439.439,0,0,1-.84.251Z" transform="translate(-1549.636 -585.407)" fill="#7d97f4"/>
    </g>
    <g id="Group_380" data-name="Group 380" transform="translate(29.62 30.559)">
      <g id="Group_360" data-name="Group 360" transform="translate(39.145)">
        <path id="Path_482" data-name="Path 482" d="M860.218,384.612h143.558a14.872,14.872,0,0,1,14.853,14.117l10.6,208.133a10.967,10.967,0,0,1-10.754,11.523l-164.536,2.99a10.411,10.411,0,0,1-10.6-10.409V401.493A16.881,16.881,0,0,1,860.218,384.612Z" transform="translate(-843.337 -353.09)" fill="url(#linear-gradient-5)"/>
        <path id="Path_483" data-name="Path 483" d="M897.459,1361.558h-.005l-18.411-.238a11.354,11.354,0,0,1-11.164-11.31v-27.8a.393.393,0,0,1,.786,0v27.8a10.565,10.565,0,0,0,10.388,10.524l18.41.238a.393.393,0,0,1,0,.786Z" transform="translate(-862.812 -1096.812)" fill="url(#linear-gradient-6)"/>
        <path id="Path_484" data-name="Path 484" d="M868.272,1263.6a.393.393,0,0,1-.393-.393v-4.5a.393.393,0,1,1,.786,0v4.5A.393.393,0,0,1,868.272,1263.6Z" transform="translate(-862.812 -1046.413)" fill="url(#linear-gradient-7)"/>
        <g id="Group_359" data-name="Group 359" transform="translate(11.761 29.79)">
          <path id="Path_485" data-name="Path 485" d="M905.866,376.266c19.6,2.659,87.018,10.881,142.755,6.6a4.534,4.534,0,0,1,4.883,4.276l11.111,209.061a5.218,5.218,0,0,1-4.9,5.487c-23.442,1.387-119.983,6.75-154.418,3.143a4.134,4.134,0,0,1-3.7-4.091L900.3,381.157A4.9,4.9,0,0,1,905.866,376.266Z" transform="translate(-900.305 -376.221)" fill="url(#linear-gradient-8)"/>
          <path id="Path_486" data-name="Path 486" d="M916.842,402.541c18.866,2.558,83.741,10.471,137.379,6.354a4.364,4.364,0,0,1,4.7,4.115L1069.613,614.2a5.022,5.022,0,0,1-4.718,5.281c-22.559,1.335-115.465,6.5-148.6,3.025a3.978,3.978,0,0,1-3.56-3.937L911.49,407.248A4.719,4.719,0,0,1,916.842,402.541Z" transform="translate(-909.18 -397.073)" fill="#bdd0fb"/>
          <path id="Path_487" data-name="Path 487" d="M996.073,488.912l2,43.133a2.742,2.742,0,0,0,2.661,2.616c7.988.225,32.88.832,46.935.1a3.062,3.062,0,0,0,2.9-2.96c.268-8.089.855-31.633-.989-41.474a3.456,3.456,0,0,0-3.281-2.811l-47.216-1.651A2.916,2.916,0,0,0,996.073,488.912Z" transform="translate(-976.299 -463.226)" fill="url(#linear-gradient-6)"/>
          <circle id="Ellipse_14" data-name="Ellipse 14" cx="9.272" cy="9.272" r="9.272" transform="translate(36.607 49.177) rotate(-82.982)" fill="url(#linear-gradient-10)"/>
          <path id="Path_488" data-name="Path 488" d="M1050.266,657.35h29.54a2.287,2.287,0,0,0,1.921-3.526c-2.509-3.926-7.759-9.694-16.851-9.434a20.594,20.594,0,0,0-16.568,9.2A2.39,2.39,0,0,0,1050.266,657.35Z" transform="translate(-1017.407 -589.02)" fill="url(#linear-gradient-11)"/>
          <path id="Path_489" data-name="Path 489" d="M1364.2,503.981a.8.8,0,0,0,.8-.825l-.036-1.243a.877.877,0,0,0-.85-.84l-53.488-.953a.537.537,0,0,0-.552.764l.817,2.319a1.252,1.252,0,0,0,1.1.779Z" transform="translate(-1225.447 -474.54)" fill="url(#linear-gradient-6)"/>
          <path id="Path_490" data-name="Path 490" d="M1310.631,539.068a.537.537,0,0,0-.552.764l.817,2.319a1.252,1.252,0,0,0,1.1.779H1364.2a.8.8,0,0,0,.8-.826l-.036-1.243a.876.876,0,0,0-.85-.84Z" transform="translate(-1225.447 -505.448)" fill="url(#linear-gradient-6)"/>
          <path id="Path_491" data-name="Path 491" d="M1310.631,578.582a.537.537,0,0,0-.552.764l.817,2.319a1.252,1.252,0,0,0,1.1.779H1364.2a.8.8,0,0,0,.8-.825l-.036-1.243a.877.877,0,0,0-.85-.84Z" transform="translate(-1225.447 -536.805)" fill="url(#linear-gradient-6)"/>
          <path id="Path_492" data-name="Path 492" d="M1121.459,772.974a.765.765,0,0,0,.771-.824l-.082-1.246a.906.906,0,0,0-.88-.831l-123.01-.97c-.454,0-.594.284-.311.64l2.058,2.585a1.944,1.944,0,0,0,1.34.646Z" transform="translate(-977.672 -687.993)" fill="url(#linear-gradient-6)"/>
          <path id="Path_493" data-name="Path 493" d="M998.258,808.053c-.454,0-.594.284-.311.64l2.058,2.584a1.944,1.944,0,0,0,1.34.646h120.114a.765.765,0,0,0,.771-.824l-.082-1.246a.906.906,0,0,0-.88-.831Z" transform="translate(-977.672 -718.901)" fill="url(#linear-gradient-6)"/>
          <path id="Path_494" data-name="Path 494" d="M994.634,871.7c2.916-.224,8.378-.327,11.384-.369a2.725,2.725,0,0,1,2.69,2.084,44.416,44.416,0,0,1,1.28,11.007,2.419,2.419,0,0,1-2.441,2.369l-11.094-.12a2.664,2.664,0,0,1-2.624-2.416l-.975-10.437A1.941,1.941,0,0,1,994.634,871.7Z" transform="translate(-973.74 -769.112)" fill="url(#linear-gradient-6)"/>
          <path id="Path_495" data-name="Path 495" d="M1094.01,893.7a.657.657,0,0,0-.7.782l.523,3.483a.992.992,0,0,0,.948.816h28.657a.816.816,0,0,0,.816-.826l-.027-2.167a.885.885,0,0,0-.836-.86Z" transform="translate(-1053.455 -786.865)" fill="url(#linear-gradient-6)"/>
          <path id="Path_496" data-name="Path 496" d="M1287.393,871.7c2.916-.224,8.378-.327,11.384-.369a2.725,2.725,0,0,1,2.69,2.084,44.409,44.409,0,0,1,1.28,11.007,2.42,2.42,0,0,1-2.441,2.369l-11.094-.12a2.664,2.664,0,0,1-2.624-2.416l-.975-10.437A1.941,1.941,0,0,1,1287.393,871.7Z" transform="translate(-1206.058 -769.112)" fill="url(#linear-gradient-6)"/>
          <path id="Path_497" data-name="Path 497" d="M1386.768,893.7a.657.657,0,0,0-.7.782l.523,3.483a.992.992,0,0,0,.948.816h28.657a.816.816,0,0,0,.815-.826l-.027-2.167a.884.884,0,0,0-.835-.86Z" transform="translate(-1285.773 -786.865)" fill="url(#linear-gradient-6)"/>
          <g id="Group_358" data-name="Group 358" transform="translate(22.564 126.495)">
            <path id="Path_498" data-name="Path 498" d="M1023.584,1019.809h-.028l-10.237-.1a2.752,2.752,0,0,1-2.809-2.341l-.9-8.589a1.866,1.866,0,0,1,.441-1.4,2.249,2.249,0,0,1,1.567-.773h0c.862-.059,2.077-.162,3.363-.272,2.708-.231,6.078-.517,7.974-.541a2.86,2.86,0,0,1,2.867,2.005c.534,1.972.487,5.7.385,9.68A2.53,2.53,0,0,1,1023.584,1019.809Zm-11.913-12.421a1.455,1.455,0,0,0-1.018.494,1.085,1.085,0,0,0-.261.815l.9,8.59a1.969,1.969,0,0,0,2.034,1.636l10.237.1h.02a1.744,1.744,0,0,0,1.836-1.566c.1-3.916.147-7.585-.358-9.456a2.112,2.112,0,0,0-2.1-1.424c-1.868.023-5.222.309-7.917.539-1.289.11-2.507.213-3.376.273Z" transform="translate(-1009.6 -1002.311)" fill="#fff"/>
            <path id="Path_499" data-name="Path 499" d="M1019.894,1015.327c2.151-.147,6.825-.622,9.042-.649a1.981,1.981,0,0,1,1.983,1.37c.428,1.582.371,4.735.3,7.646a1.7,1.7,0,0,1-1.8,1.558l-8.181-.079a1.89,1.89,0,0,1-1.935-1.589l-.719-6.864A1.329,1.329,0,0,1,1019.894,1015.327Z" transform="translate(-1016.722 -1009.363)" fill="url(#linear-gradient-6)"/>
            <path id="Path_500" data-name="Path 500" d="M1120.56,1033.8a2.542,2.542,0,0,0,2.48,1.894l94.72-.808a1.922,1.922,0,0,0-.008-3.844l-94.723-.432A2.542,2.542,0,0,0,1120.56,1033.8Z" transform="translate(-1097.584 -1022.008)" fill="url(#linear-gradient-6)"/>
            <path id="Path_501" data-name="Path 501" d="M1023.961,996.246h0a1.571,1.571,0,0,1,2.167.59l2.019,3.62a.5.5,0,0,0,.9-.039l5.008-11.15a.559.559,0,0,1,1.069.242,22.012,22.012,0,0,1-6.405,15.32s-3-1.167-5.422-6.478A1.648,1.648,0,0,1,1023.961,996.246Z" transform="translate(-1020.353 -988.936)" fill="url(#linear-gradient-23)"/>
            <path id="Path_502" data-name="Path 502" d="M1023.584,1126.085h-.028l-10.237-.1a2.752,2.752,0,0,1-2.809-2.341l-.9-8.59a1.867,1.867,0,0,1,.441-1.4,2.248,2.248,0,0,1,1.567-.773h0c.862-.059,2.077-.162,3.363-.272,2.708-.23,6.078-.517,7.974-.541H1023a2.855,2.855,0,0,1,2.825,2.005c.534,1.972.487,5.7.385,9.68A2.53,2.53,0,0,1,1023.584,1126.085Zm-11.913-12.42a1.456,1.456,0,0,0-1.018.494,1.086,1.086,0,0,0-.261.816l.9,8.589a1.969,1.969,0,0,0,2.034,1.637l10.237.1h.02a1.744,1.744,0,0,0,1.836-1.566c.1-3.916.147-7.585-.358-9.455a2.1,2.1,0,0,0-2.1-1.424c-1.868.024-5.222.309-7.916.539-1.289.109-2.507.213-3.376.273Z" transform="translate(-1009.6 -1086.647)" fill="#fff"/>
            <path id="Path_503" data-name="Path 503" d="M1019.894,1121.6c2.151-.147,6.825-.621,9.042-.649a1.982,1.982,0,0,1,1.983,1.37c.428,1.582.371,4.735.3,7.646a1.7,1.7,0,0,1-1.8,1.558l-8.181-.079a1.89,1.89,0,0,1-1.935-1.589l-.719-6.864A1.329,1.329,0,0,1,1019.894,1121.6Z" transform="translate(-1016.722 -1093.7)" fill="url(#linear-gradient-6)"/>
            <path id="Path_504" data-name="Path 504" d="M1120.56,1140.08a2.542,2.542,0,0,0,2.48,1.894l94.72-.808a1.922,1.922,0,0,0-.008-3.844l-94.723-.432A2.542,2.542,0,0,0,1120.56,1140.08Z" transform="translate(-1097.584 -1106.345)" fill="url(#linear-gradient-6)"/>
            <path id="Path_505" data-name="Path 505" d="M1023.961,1102.524h0a1.571,1.571,0,0,1,2.167.59l2.019,3.62a.5.5,0,0,0,.9-.039l5.008-11.15a.559.559,0,0,1,1.069.242,22.013,22.013,0,0,1-6.405,15.32s-3-1.168-5.422-6.478A1.648,1.648,0,0,1,1023.961,1102.524Z" transform="translate(-1020.353 -1073.273)" fill="url(#linear-gradient-26)"/>
            <path id="Path_506" data-name="Path 506" d="M1023.584,1232.363h-.028l-10.237-.1a2.751,2.751,0,0,1-2.809-2.34l-.9-8.589a1.867,1.867,0,0,1,.441-1.4,2.249,2.249,0,0,1,1.566-.773h0c.862-.059,2.077-.162,3.363-.272,2.708-.231,6.078-.517,7.974-.541H1023a2.855,2.855,0,0,1,2.825,2.005c.534,1.972.487,5.7.385,9.68A2.53,2.53,0,0,1,1023.584,1232.363Zm-11.913-12.42a1.456,1.456,0,0,0-1.018.494,1.086,1.086,0,0,0-.261.816l.9,8.59a1.969,1.969,0,0,0,2.034,1.636l10.238.1h.02a1.744,1.744,0,0,0,1.836-1.566c.1-3.916.147-7.585-.358-9.455a2.1,2.1,0,0,0-2.1-1.424c-1.868.023-5.222.309-7.916.539-1.289.11-2.507.213-3.376.273Z" transform="translate(-1009.6 -1170.983)" fill="#fff"/>
            <path id="Path_507" data-name="Path 507" d="M1019.894,1227.883c2.151-.147,6.825-.622,9.042-.649a1.982,1.982,0,0,1,1.983,1.37c.428,1.582.371,4.735.3,7.646a1.7,1.7,0,0,1-1.8,1.558l-8.181-.078a1.89,1.89,0,0,1-1.935-1.589l-.719-6.864A1.329,1.329,0,0,1,1019.894,1227.883Z" transform="translate(-1016.722 -1178.037)" fill="url(#linear-gradient-6)"/>
            <path id="Path_508" data-name="Path 508" d="M1120.56,1246.358a2.542,2.542,0,0,0,2.48,1.894l94.72-.808a1.922,1.922,0,0,0-.008-3.844l-94.723-.432A2.542,2.542,0,0,0,1120.56,1246.358Z" transform="translate(-1097.584 -1190.681)" fill="url(#linear-gradient-6)"/>
            <path id="Path_509" data-name="Path 509" d="M1023.961,1208.8h0a1.571,1.571,0,0,1,2.167.59l2.019,3.62a.5.5,0,0,0,.9-.039l5.008-11.15a.559.559,0,0,1,1.069.242,22.013,22.013,0,0,1-6.405,15.32s-3-1.167-5.422-6.478A1.648,1.648,0,0,1,1023.961,1208.8Z" transform="translate(-1020.353 -1157.609)" fill="url(#linear-gradient-29)"/>
            <path id="Path_510" data-name="Path 510" d="M1023.584,1338.641h-.028l-10.237-.1a2.751,2.751,0,0,1-2.809-2.34l-.9-8.589a1.867,1.867,0,0,1,.441-1.4,2.248,2.248,0,0,1,1.566-.773h0c.862-.059,2.077-.162,3.363-.272,2.708-.231,6.078-.517,7.974-.541H1023a2.855,2.855,0,0,1,2.825,2.005c.534,1.972.487,5.7.385,9.681A2.53,2.53,0,0,1,1023.584,1338.641Zm-11.913-12.42a1.455,1.455,0,0,0-1.018.494,1.086,1.086,0,0,0-.261.816l.9,8.589a1.969,1.969,0,0,0,2.034,1.636l10.238.1h.02a1.744,1.744,0,0,0,1.836-1.566c.1-3.916.147-7.585-.358-9.455a2.094,2.094,0,0,0-2.1-1.424c-1.868.024-5.222.309-7.916.539-1.289.11-2.507.213-3.376.273Z" transform="translate(-1009.6 -1255.32)" fill="#fff"/>
            <path id="Path_511" data-name="Path 511" d="M1019.894,1334.161c2.151-.147,6.825-.622,9.042-.649a1.982,1.982,0,0,1,1.983,1.37c.428,1.582.371,4.735.3,7.646a1.7,1.7,0,0,1-1.8,1.558l-8.181-.078a1.891,1.891,0,0,1-1.935-1.589l-.719-6.864A1.329,1.329,0,0,1,1019.894,1334.161Z" transform="translate(-1016.722 -1262.374)" fill="url(#linear-gradient-6)"/>
            <path id="Path_512" data-name="Path 512" d="M1120.56,1352.637h0a2.542,2.542,0,0,0,2.48,1.894l94.72-.807a1.922,1.922,0,0,0-.008-3.844l-94.723-.432A2.542,2.542,0,0,0,1120.56,1352.637Z" transform="translate(-1097.584 -1275.019)" fill="url(#linear-gradient-6)"/>
            <path id="Path_513" data-name="Path 513" d="M1023.961,1315.08h0a1.571,1.571,0,0,1,2.167.59l2.019,3.62a.5.5,0,0,0,.9-.039l5.008-11.15a.559.559,0,0,1,1.069.241,22.013,22.013,0,0,1-6.405,15.32s-3-1.167-5.422-6.478A1.648,1.648,0,0,1,1023.961,1315.08Z" transform="translate(-1020.353 -1241.946)" fill="url(#linear-gradient-32)"/>
          </g>
        </g>
        <path id="Path_514" data-name="Path 514" d="M1249.064,235.07c-5.186-3.608-9.694-3.536-12.869-2.6a6.331,6.331,0,0,0-4.5,6.656l1.369,14.941,16.288,1.446S1259.234,242.145,1249.064,235.07Zm-7.163,12.054a4.061,4.061,0,1,1,4.062-4.062A4.061,4.061,0,0,1,1241.9,247.124Z" transform="translate(-1151.5 -231.926)" fill="url(#linear-gradient-33)"/>
        <path id="Path_515" data-name="Path 515" d="M1242.435,256.192a.393.393,0,0,1-.391-.357l-.218-2.379a.393.393,0,1,1,.783-.071l.218,2.379a.393.393,0,0,1-.355.427Zm-.427-4.663a.393.393,0,0,1-.391-.357l-.166-1.806a6.043,6.043,0,0,1,4.284-6.341,12.174,12.174,0,0,1,5.953-.244.393.393,0,0,1-.158.77,11.41,11.41,0,0,0-5.573.228,5.256,5.256,0,0,0-3.724,5.515l.166,1.806a.393.393,0,0,1-.355.427Z" transform="translate(-1159.24 -240.335)" fill="url(#linear-gradient-6)"/>
        <path id="Path_516" data-name="Path 516" d="M1130.752,339.451V331.94a4.584,4.584,0,0,1,4.741-4.581l51.79,1.774a4.458,4.458,0,0,1,4.3,4.188l.433,7.218Z" transform="translate(-1071.415 -307.654)" fill="url(#linear-gradient-35)"/>
        <path id="Path_517" data-name="Path 517" d="M1214.219,338.057h-2.227a.393.393,0,0,1,0-.786h2.227a.393.393,0,0,1,0,.786Z" transform="translate(-1135.571 -315.522)" fill="url(#linear-gradient-6)"/>
        <path id="Path_518" data-name="Path 518" d="M1142.819,344.961a.393.393,0,0,1-.393-.393v-3.039a4.263,4.263,0,0,1,4.258-4.258h8.188a.393.393,0,0,1,0,.786h-8.188a3.476,3.476,0,0,0-3.472,3.472v3.039A.393.393,0,0,1,1142.819,344.961Z" transform="translate(-1080.679 -315.522)" fill="url(#linear-gradient-6)"/>
        <path id="Path_519" data-name="Path 519" d="M1032.626,372.617l90.564,0a6.694,6.694,0,0,1,6.6,5.552l.077.443a5.749,5.749,0,0,1-5.664,6.729h-92.914a3.738,3.738,0,0,1-3.733-3.917l.2-4.159A4.88,4.88,0,0,1,1032.626,372.617Z" transform="translate(-989.517 -343.57)" fill="url(#linear-gradient-38)"/>
      </g>
      <g id="Group_361" data-name="Group 361" transform="translate(209.805 224.68)">
        <rect id="Rectangle_120" data-name="Rectangle 120" width="3.423" height="37.014" transform="translate(16.542 8.294)" fill="url(#linear-gradient-39)"/>
        <path id="Rectangle_121" data-name="Rectangle 121" d="M2.067,0H27.75a2.228,2.228,0,0,1,2.228,2.228v0a0,0,0,0,1,0,0H0a0,0,0,0,1,0,0V2.067A2.067,2.067,0,0,1,2.067,0Z" transform="translate(3.264 43.794)" fill="url(#linear-gradient-40)"/>
        <rect id="Rectangle_122" data-name="Rectangle 122" width="37.691" height="10.69" rx="5.345" fill="url(#linear-gradient-41)"/>
      </g>
      <g id="Group_365" data-name="Group 365" transform="translate(158.587 122.432)">
        <g id="Group_362" data-name="Group 362" transform="translate(0 78.91)">
          <path id="Path_520" data-name="Path 520" d="M1728.136,1240.852a29.794,29.794,0,0,0-10.8,4.611,2.851,2.851,0,0,0-1.258,2.724,120.851,120.851,0,0,0,12.784,40.125,4.317,4.317,0,0,1,.414,2.962l-1.613,7.506-2.991,2.8h7.7l5.13-13.881-2.193-.694a4.15,4.15,0,0,1-2.9-3.885l-.258-14.891a16.942,16.942,0,0,0-4.068-11.212l12.3-.6Z" transform="translate(-1683.932 -1233.901)" fill="url(#linear-gradient-42)"/>
          <path id="Path_521" data-name="Path 521" d="M1743.052,1480.219c-.7.918,7.552,2.13,11.721.122,0,0,5.78-10.057,5.78-15.235,0,0-.459-1.056-3.853-.816,0,0-1.941,11.908-3.99,13.241s-5.733.135-5.733.135S1744.088,1478.864,1743.052,1480.219Z" transform="translate(-1705.325 -1411.181)" fill="url(#linear-gradient-43)"/>
          <path id="Path_522" data-name="Path 522" d="M1628.995,1264.586c-.065-.113-13.247-1.585-13.247-1.585a30.467,30.467,0,0,1-.917,9.525c-1.348,5.517-20.7,29.421-20.7,29.421l2.029,6.433a32.641,32.641,0,0,1-18.519,1.114l12.576-7.547s11.77-40.109,18.979-47.264l13.213-4.572Z" transform="translate(-1574.096 -1241.248)" fill="url(#linear-gradient-44)"/>
          <path id="Path_523" data-name="Path 523" d="M1780.356,1207.181s7.595,11.3,8.218,16.448-2.08,7.246-10.049,7.592-29.241.34-29.241.34l-18.156-15.517s13.231-4.721,16.671-6.056S1780.356,1207.181,1780.356,1207.181Z" transform="translate(-1695.896 -1207.181)" fill="url(#linear-gradient-45)"/>
          <path id="Path_524" data-name="Path 524" d="M1581.768,1521.857s2.185,2.116.709,4.471c0,0-17.307,3.068-22.006,1.676,0,0,.976-2.227,6.267-4.762l-.39.3a.632.632,0,0,0,.418,1.134C1570.251,1524.476,1577.467,1523.838,1581.768,1521.857Z" transform="translate(-1560.471 -1456.892)" fill="url(#linear-gradient-46)"/>
        </g>
        <g id="Group_364" data-name="Group 364" transform="translate(46.427)">
          <path id="Path_525" data-name="Path 525" d="M1848.611,882.835c1.148.358,5.284,1.843,4.75,4.5a.487.487,0,0,0,.609.558c1.782-.48,5.719-1.084,8.16,1.974,2.155,2.7.545,5.248-.768,6.647a.49.49,0,0,0,.409.828c3.277-.414,10.4-.513,11.562,6.157,1.086,6.22-3.243,7.974-5.811,8.469a.487.487,0,0,0-.162.892c1.281.813,2.765,2.492,2.166,5.806-.94,5.194-11.123,4.769-12.314,4.7a.479.479,0,0,1-.212-.063l-16.311-9.3a.492.492,0,0,1-.24-.342l-3.293-19.018a.49.49,0,0,1,.13-.424l8.17-11.741C1843.593,881.462,1848.434,882.78,1848.611,882.835Z" transform="translate(-1826.455 -870.299)" fill="url(#linear-gradient-47)"/>
          <path id="Path_526" data-name="Path 526" d="M1811.541,1034.3s-13.177-14.3-17.53-19.881a11.835,11.835,0,0,1-2-10.651c1.987-6.7,5.52-13.631,5.842-14.711.494-1.654,10.41-1.586,10.41-1.586s19.417,40.715,19.723,45.426Z" transform="translate(-1790.243 -953.924)" fill="url(#linear-gradient-48)"/>
          <path id="Path_527" data-name="Path 527" d="M1816.385,937.418c.1.344,2.692,8.924,2.894,9.1s5.676.473,8.253-1.288l-4.917-11.183Z" transform="translate(-1809.978 -911.527)" fill="url(#linear-gradient-49)"/>
          <g id="Group_363" data-name="Group 363">
            <path id="Path_528" data-name="Path 528" d="M1790.946,856.034s-3.993,3.128-5.291,10.476,1.808,9.736,4.8,9.368,7.272-1.6,10.68-7.041S1796.2,852.186,1790.946,856.034Z" transform="translate(-1785.352 -848.993)" fill="url(#linear-gradient-50)"/>
            <path id="Path_529" data-name="Path 529" d="M1798.832,842.154s.815-10.457-7.667-8.276l-1.612,1.93s-4.536-4.444-.13-8.348,10.928-3.437,14.955,2.833,5.642,10.76,2.929,15.019-5.208.942-5.208.942,1.13-3.6-.115-5.026-2.549,1.056-2.549,1.056Z" transform="translate(-1787.055 -824.96)" fill="url(#linear-gradient-51)"/>
            <path id="Path_530" data-name="Path 530" d="M1843.381,905.486s.388-5.378,3.213-4.045-.634,5.042-2.036,6.32Z" transform="translate(-1831.401 -885.483)" fill="url(#linear-gradient-52)"/>
          </g>
        </g>
      </g>
      <g id="Group_366" data-name="Group 366" transform="translate(0 220.156)">
        <path id="Path_532" data-name="Path 532" d="M455.272,1333.377c-.983,1.454-4.888,34.377-5.5,46.537a1.438,1.438,0,0,0,1.44,1.508h0a1.441,1.441,0,0,0,1.424-1.219l7.144-45.779Z" transform="translate(-449.36 -1326.137)" fill="url(#linear-gradient-53)"/>
        <path id="Path_533" data-name="Path 533" d="M611.194,1333.377c.983,1.454,4.888,34.377,5.5,46.537a1.438,1.438,0,0,1-1.44,1.508h0a1.441,1.441,0,0,1-1.424-1.219l-7.144-45.779Z" transform="translate(-573.88 -1326.137)" fill="url(#linear-gradient-54)"/>
        <path id="Path_534" data-name="Path 534" d="M447.787,1302.98l0,.359a4.894,4.894,0,0,0,4.988,4.749l33.02.562a4.937,4.937,0,0,0,5.169-4.481l.017-.328A4.876,4.876,0,0,0,486,1298.9l-33.034-.592A4.918,4.918,0,0,0,447.787,1302.98Z" transform="translate(-447.783 -1298.31)" fill="url(#linear-gradient-55)"/>
      </g>
      <g id="Group_371" data-name="Group 371" transform="translate(4.486 116.314)">
        <g id="Group_367" data-name="Group 367" transform="translate(29.173 21.954)">
          <path id="Path_535" data-name="Path 535" d="M744.244,911.1l-.86-1.4a3.111,3.111,0,0,0-2.267-1.458l-9.155-1.135s-.406-1.028,1.276-2.245a2.576,2.576,0,0,0,.688-3.2s-2.25,1.846-5.505,4.689a9.07,9.07,0,0,0-2.833,5.39l-1.466,3.213a4.254,4.254,0,0,0,4,1.483l.333-2.459A39.159,39.159,0,0,0,744.244,911.1Z" transform="translate(-700.731 -901.665)" fill="url(#linear-gradient-56)"/>
          <path id="Path_536" data-name="Path 536" d="M634.214,966.049l-5.439,11.923a5.219,5.219,0,0,1-6.558,2.729l-11.146-9.907-.247,19.89,11.617,2.327a11.491,11.491,0,0,0,13.644-9.725l2.134-15.753A4.254,4.254,0,0,1,634.214,966.049Z" transform="translate(-610.824 -952.757)" fill="url(#linear-gradient-57)"/>
        </g>
        <g id="Group_368" data-name="Group 368" transform="translate(50.067 150.425)">
          <path id="Path_537" data-name="Path 537" d="M721.942,1549.3c-5.87,0-8.467-.5-9.628-.963a2.227,2.227,0,0,0,2.169,1.725h20.765a1.01,1.01,0,0,0,.973-1.276C733.855,1548.975,728.828,1549.3,721.942,1549.3Z" transform="translate(-712.255 -1543.3)" fill="url(#linear-gradient-58)"/>
          <path id="Path_538" data-name="Path 538" d="M735.994,1529.432a.977.977,0,0,0-.17-.353c-1.582-2.02-4.759-5.191-9.082-5.13-6.332.089-8.54.776-13.46.039l-1.161,3.848a2.21,2.21,0,0,0-.035,1.148c1.161.459,3.758.963,9.628.963C728.6,1529.945,733.627,1529.622,735.994,1529.432Z" transform="translate(-712.027 -1523.947)" fill="url(#linear-gradient-59)"/>
        </g>
        <path id="Path_539" data-name="Path 539" d="M719.533,1504.055l-1.425,4.846s3.157,1.437,5.933.283l.545-4.2Z" transform="translate(-666.786 -1357.737)" fill="url(#linear-gradient-60)"/>
        <g id="Group_369" data-name="Group 369" transform="translate(85.498 143.42)">
          <path id="Path_540" data-name="Path 540" d="M902.322,1502.306c-4.576,3.677-6.914,4.913-8.105,5.284a2.224,2.224,0,0,0,2.766-.02l16.188-13.006a1.007,1.007,0,0,0-.036-1.6C911.408,1494.593,907.69,1497.993,902.322,1502.306Z" transform="translate(-892.035 -1492.354)" fill="url(#linear-gradient-58)"/>
          <path id="Path_541" data-name="Path 541" d="M904.748,1490.624a.972.972,0,0,0-.353-.167c-2.492-.576-6.946-1.047-10.278,1.708-4.881,4.035-6.173,5.951-10.469,8.461l1.493,3.713a2.19,2.19,0,0,0,.688.912c1.191-.371,3.53-1.607,8.106-5.284C899.3,1495.654,903.022,1492.254,904.748,1490.624Z" transform="translate(-883.649 -1490.015)" fill="url(#linear-gradient-62)"/>
        </g>
        <path id="Path_542" data-name="Path 542" d="M551.359,1236.612s35.142,2.869,42.351,6.263-5.883,50.958-5.883,50.958-1.963.945-6.33-.413c0,0,4.478-35.1,1.146-42.712l-38.05-6.224Z" transform="translate(-529.094 -1145.508)" fill="url(#linear-gradient-63)"/>
        <path id="Path_543" data-name="Path 543" d="M866.736,1501.075c.326.3,3.492,6.681,3.492,6.681s3.524-.762,4.242-2.993L871.3,1499Z" transform="translate(-784.729 -1353.727)" fill="url(#linear-gradient-60)"/>
        <path id="Path_544" data-name="Path 544" d="M470.614,1235.189a17.8,17.8,0,0,0-1.1,6.417,9.635,9.635,0,0,0,9.194,9.426l41.544,1.894a1.993,1.993,0,0,1,1.839,1.5c.976,3.776,5.748,15.372,29.073,38.51a1.881,1.881,0,0,0,2.327.254l3.32-2.1a.765.765,0,0,0,.252-1.033l-24.189-41.306a9.362,9.362,0,0,0-5.688-4.218l-35.408-9.051Z" transform="translate(-469.514 -1144.379)" fill="url(#linear-gradient-65)"/>
        <path id="Path_545" data-name="Path 545" d="M474.254,1005.613s-.412-20.591,3.7-39.969a31.283,31.283,0,0,1,11.222-18.09l1.922-1.515,9.628,3.911,6.248,9.488a22.309,22.309,0,0,1,1.048,17.5c-3.436,9.587-8.533,24.091-9.7,28.97C498.324,1005.914,482.378,1008.02,474.254,1005.613Z" transform="translate(-473.266 -914.925)" fill="url(#linear-gradient-66)"/>
        <path id="Path_546" data-name="Path 546" d="M559.061,871.714l-7.522,17.451s2.407,5.416,10.831,3.31l3.009-12.035Z" transform="translate(-534.605 -855.943)" fill="url(#linear-gradient-67)"/>
        <g id="Group_370" data-name="Group 370" transform="translate(21.334 0)">
          <path id="Path_549" data-name="Path 549" d="M613.517,827.124c.091.244.29,17.436.29,17.436l-9.819-.095-2.61-16.267S612,823.044,613.517,827.124Z" transform="translate(-595.489 -819.312)" fill="url(#linear-gradient-68)"/>
          <path id="Path_550" data-name="Path 550" d="M581.622,807.338l.7,8.671a1.2,1.2,0,0,0,.071.323c.237.64,1.215,2.783,3.347,1.649,1.934-1.029,3.715-1.939,5.106-1.822a1.214,1.214,0,0,1,1.114,1.2,52.512,52.512,0,0,1-.5,8.138,1.212,1.212,0,0,1-1.287,1.011,39.15,39.15,0,0,1-8.981-1.593,1.215,1.215,0,0,1-.81-.944c-.37-2.147-1.52-8.669-2.121-10.437-.564-1.659-2.874-2.227-3.86-2.4a1.194,1.194,0,0,1-.791-.512c-.648-.962-1.754-3.274,1.1-4.936a1.217,1.217,0,0,0,.421-1.7,3.156,3.156,0,0,1,.807-4.637,4.452,4.452,0,0,1,5.462.129,1.216,1.216,0,0,0,1.553-.148.961.961,0,0,1,1.077-.195,1.2,1.2,0,0,0,1.548-.86,3.628,3.628,0,0,1,3.677-2.944c4.35-.188,5.83,4.357,5.312,7.32s-5.246,2.9-7.8,2.015c-1.944-.673-3.935.9-4.779,1.7A1.206,1.206,0,0,0,581.622,807.338Z" transform="translate(-572.853 -795.324)" fill="url(#linear-gradient-69)"/>
          <path id="Path_551" data-name="Path 551" d="M581.606,874.8s.681-5.2-1.347-6-4.519.382-3.185,3.755C578.734,876.752,581.606,874.8,581.606,874.8Z" transform="translate(-575.905 -853.441)" fill="url(#linear-gradient-70)"/>
        </g>
      </g>
      <g id="Group_379" data-name="Group 379" transform="translate(42.038 197.979)">
        <g id="Group_378" data-name="Group 378" transform="translate(7.286 1.788)">
          <g id="Group_372" data-name="Group 372" transform="translate(0 1.825)">
            <path id="Path_556" data-name="Path 556" d="M708.085,1208.391c-.156.646-15.039,56.465-18.813,70.616a2.558,2.558,0,0,0,2.449,3.232h0a2.541,2.541,0,0,0,2.46-1.945l16.522-66.986Z" transform="translate(-689.183 -1208.391)" fill="#7d97f4"/>
          </g>
          <g id="Group_373" data-name="Group 373" transform="translate(24.434 1.662)">
            <path id="Path_557" data-name="Path 557" d="M810.152,1207.6c.156.647,15.039,56.589,18.813,70.772a2.563,2.563,0,0,1-2.449,3.24h0a2.543,2.543,0,0,1-2.46-1.949l-16.521-67.133Z" transform="translate(-807.534 -1207.601)" fill="#7d97f4"/>
          </g>
          <g id="Group_374" data-name="Group 374" transform="translate(18.402)">
            <path id="Path_558" data-name="Path 558" d="M787.588,1199.55h-9.269v7.444a1.926,1.926,0,0,0,1.914,1.937H781.5v16.72a1.458,1.458,0,0,0,1.449,1.467h0a1.458,1.458,0,0,0,1.449-1.467v-16.72h.645a2.556,2.556,0,0,0,2.54-2.571Z" transform="translate(-778.319 -1199.55)" fill="#7d97f4"/>
          </g>
          <g id="Group_375" data-name="Group 375" transform="translate(133.659 1.825)">
            <path id="Path_559" data-name="Path 559" d="M1697.543,1208.391c-.156.646-15.039,56.465-18.812,70.616a2.558,2.558,0,0,0,2.449,3.232h0a2.542,2.542,0,0,0,2.46-1.945l16.521-66.986Z" transform="translate(-1678.641 -1208.391)" fill="#7d97f4"/>
          </g>
          <g id="Group_376" data-name="Group 376" transform="translate(158.092 1.825)">
            <path id="Path_560" data-name="Path 560" d="M1799.61,1208.391c.156.646,15.039,56.465,18.813,70.616a2.558,2.558,0,0,1-2.449,3.232h0a2.542,2.542,0,0,1-2.46-1.945l-16.521-66.986Z" transform="translate(-1796.992 -1208.391)" fill="#7d97f4"/>
          </g>
          <g id="Group_377" data-name="Group 377" transform="translate(152.061)">
            <path id="Path_561" data-name="Path 561" d="M1777.047,1199.55h-9.269v7.444a1.925,1.925,0,0,0,1.914,1.937h1.271v16.72a1.458,1.458,0,0,0,1.449,1.467h0a1.458,1.458,0,0,0,1.449-1.467v-16.72h.645a2.556,2.556,0,0,0,2.54-2.571Z" transform="translate(-1767.778 -1199.55)" fill="#7d97f4"/>
          </g>
        </g>
        <path id="Path_562" data-name="Path 562" d="M655.514,1190.889H846.38c.531,0,.994.5,1.126,1.2l.53,2.833c.191,1.02-.37,2.012-1.133,2.006l-191.857-.309c-.755-.006-1.306-.987-1.121-2l.461-2.525C654.516,1191.389,654.981,1190.889,655.514,1190.889Z" transform="translate(-653.889 -1190.889)" fill="url(#linear-gradient-71)"/>
      </g>
      <path id="Path_732" data-name="Path 732" d="M729.093,1024.061c0-.3-9.628-32.494-9.628-32.494l-10.531-1.805,12.637,35.2Z" transform="translate(-523.337 -830.568)" fill="#de7f6e"/>
      <path id="Path_733" data-name="Path 733" d="M725.276,1021.494c-.6.6-6.619.6-6.619.6L706.02,985.389l9.929,2.106Z" transform="translate(-519.1 -827.098)" fill="#4d4ff0"/>
      <path id="Path_734" data-name="Path 734" d="M519.39,1021.777c19.089,13.2,27.2-16.914,27.4-17.081,12.36-10.21,11.77,8.324,10.21,10.479-15.791,24.615-34.124,17.465-39.788,9.91A6.141,6.141,0,0,0,519.39,1021.777Z" transform="translate(-331.502 -836.339)" fill="#f87564"/>
      <path id="Path_735" data-name="Path 735" d="M576.693,1040.556a.563.563,0,0,0,.363-.132c4.754-4,7.812-10.658,9.539-15.539a.563.563,0,0,0-1.062-.376c-1.376,3.888-4.4,11.014-9.2,15.053a.563.563,0,0,0,.363.995Z" transform="translate(-371.168 -854.679)" fill="url(#linear-gradient-72)"/>
      <path id="Path_736" data-name="Path 736" d="M517.714,1086.975a.565.565,0,0,0,.218-.044c6.09-2.551,11.707-7.786,16.694-15.559a.563.563,0,0,0-.948-.608c-4.861,7.578-10.306,12.668-16.182,15.128a.563.563,0,0,0,.218,1.083Z" transform="translate(-308.382 -892.501)" fill="url(#linear-gradient-72)"/>
      <path id="Path_737" data-name="Path 737" d="M725.683,1056.162a16.041,16.041,0,0,0,2.054,3.342c1.881,2.687,4.03,4.568,2.956,1.344s.269-4.3,1.548-.788a20.833,20.833,0,0,0,2.483,5.087c.5.394.994.758,1.481,1.094a6.142,6.142,0,0,1-2.174,3.307c-.769-.549-1.188-.909-1.188-.909s-6.18-3.224-6.717-6.449A34.045,34.045,0,0,1,725.683,1056.162Z" transform="translate(-548.297 -880.803)" fill="url(#linear-gradient-74)"/>
      <path id="Path_1362" data-name="Path 1362" d="M736.2,1056.162a16.045,16.045,0,0,1-2.054,3.342c-1.881,2.687-4.03,4.568-2.956,1.344s-.269-4.3-1.548-.788a20.834,20.834,0,0,1-2.483,5.087q-.751.591-1.481,1.094a6.142,6.142,0,0,0,2.174,3.307c.769-.549,1.188-.909,1.188-.909s6.18-3.224,6.717-6.449A34.048,34.048,0,0,0,736.2,1056.162Z" transform="translate(-672.296 -883.803)" fill="#f09791"/>
      <path id="Path_738" data-name="Path 738" d="M561.963,1025.084c-22.225,15.371-31.67-19.693-31.905-19.888-14.39-11.888-13.7,9.692-11.888,12.2,18.385,28.659,39.73,20.334,46.324,11.538A7.15,7.15,0,0,1,561.963,1025.084Z" transform="translate(-506.502 -844.361)" fill="#4244e3"/>
      <path id="Path_739" data-name="Path 739" d="M587.7,1043.255a.655.655,0,0,1-.422-.154c-5.535-4.657-9.095-12.409-11.107-18.092a.656.656,0,0,1,1.237-.437c1.6,4.527,5.125,12.824,10.715,17.526a.656.656,0,0,1-.423,1.158Z" transform="translate(-552.769 -862.02)" fill="url(#linear-gradient-45)"/>
      <path id="Path_740" data-name="Path 740" d="M536.944,1089.681a.657.657,0,0,1-.253-.051c-7.091-2.97-13.631-9.065-19.437-18.116a.656.656,0,0,1,1.1-.708c5.66,8.823,12,14.749,18.84,17.614a.656.656,0,0,1-.254,1.261Z" transform="translate(-506.45 -898.437)" fill="url(#linear-gradient-45)"/>
    </g>
  </g>
</svg>
