<svg width="44" height="32" viewBox="0 0 44 32" fill="none" xmlns="http://www.w3.org/2000/svg">
<rect x="0.5" width="43" height="32" rx="6.31" fill="white"/>
<path d="M18.9844 23.9538L25.3496 27.8593C25.4968 27.9486 25.665 27.9971 25.8371 28C26.0092 28.0029 26.1789 27.9601 26.329 27.8759C26.4791 27.7917 26.6042 27.6692 26.6914 27.5208C26.7786 27.3724 26.8249 27.2035 26.8254 27.0314V20.8462L19.0264 23.9358L18.9844 23.9538Z" fill="#4D36BF"/>
<path d="M31.1579 6.08163V18.4641C31.1591 18.6568 31.1026 18.8455 30.9957 19.0059C30.8888 19.1662 30.7363 19.2909 30.5579 19.364L26.8264 20.8398L19.0273 23.9414V14.9425C19.9225 14.9423 20.8041 14.7229 21.5949 14.3036C22.3858 13.8842 23.062 13.2776 23.5644 12.5367C24.0668 11.7958 24.3802 10.9431 24.4772 10.0532C24.5741 9.16331 24.4518 8.26318 24.1207 7.43146L29.826 5.20574C29.9714 5.14771 30.1286 5.12565 30.2843 5.14142C30.44 5.1572 30.5896 5.21034 30.7204 5.29634C30.8511 5.38234 30.9592 5.49864 31.0354 5.63536C31.1115 5.77209 31.1536 5.92518 31.1579 6.08163Z" fill="#6648FF"/>
<path d="M24.078 7.45557C23.7095 6.52994 23.0959 5.72218 22.303 5.11904C21.51 4.51591 20.5677 4.1402 19.5774 4.03227C18.587 3.92435 17.5859 4.08828 16.6816 4.50647C15.7774 4.92466 15.0042 5.5813 14.445 6.40585C13.8859 7.23039 13.562 8.1917 13.508 9.18649C13.4541 10.1813 13.6722 11.172 14.1389 12.0521C14.6057 12.9323 15.3034 13.6687 16.1571 14.1822C17.0108 14.6957 17.9883 14.9669 18.9846 14.9666V9.47132L24.078 7.45557Z" fill="#F9B019"/>
<path d="M24.4677 9.48882C24.4645 10.9416 23.8856 12.3338 22.8578 13.3605C21.83 14.3872 20.4371 14.9646 18.9844 14.9661V9.47083L24.0778 7.45508C24.3364 8.10186 24.4688 8.79222 24.4677 9.48882Z" fill="#59EDF7"/>
</svg>
