<svg width="40" height="40" viewBox="0 0 40 40" fill="none" xmlns="http://www.w3.org/2000/svg">
<path fill-rule="evenodd" clip-rule="evenodd" d="M10.4167 13.3335C10.4167 12.6431 10.9764 12.0835 11.6667 12.0835H20.0001C20.6904 12.0835 21.2501 12.6431 21.2501 13.3335C21.2501 14.0239 20.6904 14.5835 20.0001 14.5835H11.6667C10.9764 14.5835 10.4167 14.0239 10.4167 13.3335ZM10.4167 20.0002C10.4167 19.3098 10.9764 18.7502 11.6667 18.7502H28.3334C29.0238 18.7502 29.5834 19.3098 29.5834 20.0002C29.5834 20.6905 29.0238 21.2502 28.3334 21.2502H11.6667C10.9764 21.2502 10.4167 20.6905 10.4167 20.0002ZM20.0001 25.4168C19.3097 25.4168 18.7501 25.9765 18.7501 26.6668C18.7501 27.3572 19.3097 27.9168 20.0001 27.9168H28.3334C29.0238 27.9168 29.5834 27.3572 29.5834 26.6668C29.5834 25.9765 29.0238 25.4168 28.3334 25.4168H20.0001Z" fill="#28303F"/>
</svg>
