<svg width="48" height="48" viewBox="0 0 48 48" fill="none" xmlns="http://www.w3.org/2000/svg">
<circle cx="24" cy="24" r="24" fill="#E6E1FF"/>
<path fill-rule="evenodd" clip-rule="evenodd" d="M32.2344 22.6163V23.603C32.2344 24.8292 31.2403 25.8233 30.014 25.8233C28.7878 25.8233 27.7937 24.8292 27.7937 23.603V22.6163L29.3377 23.3025C29.7683 23.4939 30.2598 23.4939 30.6904 23.3025L32.2344 22.6163ZM26.406 21.9995V24.4357C26.406 24.6656 26.2196 24.852 25.9896 24.852C25.7597 24.852 25.5733 24.6656 25.5733 24.4357V21.6289C25.5784 21.6315 25.5836 21.634 25.5889 21.6364L26.406 21.9995Z" fill="#6648FF"/>
<path opacity="0.4" d="M34.4406 21.129L30.6918 19.4629C30.2613 19.2715 29.7698 19.2715 29.3392 19.4629L25.5904 21.129C25.3706 21.2267 25.3706 21.5386 25.5904 21.6362L29.3392 23.3024C29.7698 23.4938 30.2613 23.4938 30.6918 23.3024L34.4406 21.6362C34.6604 21.5386 34.6604 21.2267 34.4406 21.129Z" fill="#6648FF"/>
<path opacity="0.4" fill-rule="evenodd" clip-rule="evenodd" d="M28.3155 30.2639H33.3469C33.96 30.2639 34.457 29.7668 34.457 29.1537C34.457 27.9507 33.3708 26.9162 31.8137 26.4583C31.6279 26.4036 31.429 26.4623 31.2928 26.6001L30.411 27.4917C30.1937 27.7114 29.8389 27.7114 29.6216 27.4917L28.7399 26.6001C28.6037 26.4623 28.4048 26.4036 28.219 26.4583C27.6735 26.6187 27.1858 26.8499 26.7823 27.1343C27.7435 28.0138 28.3116 29.0949 28.3155 30.2639Z" fill="#6648FF"/>
<path opacity="0.4" fill-rule="evenodd" clip-rule="evenodd" d="M23.7812 20.3085V21.8139C23.7812 23.6846 22.2647 25.2011 20.394 25.2011C18.5233 25.2011 17.0068 23.6846 17.0068 21.8139V20.3085L19.3623 21.3554C20.0191 21.6473 20.7689 21.6473 21.4258 21.3554L23.7812 20.3085ZM14.8898 19.3676V23.0841C14.8898 23.4349 14.6055 23.7192 14.2547 23.7192C13.9039 23.7192 13.6196 23.4349 13.6196 23.0841V18.8022C13.6273 18.8062 13.6352 18.81 13.6433 18.8136L14.8898 19.3676Z" fill="#6648FF"/>
<path d="M27.1431 18.04L21.4242 15.4983C20.7673 15.2063 20.0175 15.2063 19.3606 15.4983L13.6417 18.04C13.3064 18.189 13.3064 18.6648 13.6417 18.8138L19.3606 21.3556C20.0175 21.6475 20.7673 21.6475 21.4242 21.3556L27.1431 18.8138C27.4783 18.6648 27.4783 18.189 27.1431 18.04Z" fill="#6648FF"/>
<path d="M18.4463 26.3864L19.7914 27.7466C20.1229 28.0818 20.6642 28.0818 20.9956 27.7466L22.3408 26.3864C22.5486 26.1763 22.852 26.0867 23.1355 26.1701C25.5109 26.8686 27.168 28.4469 27.168 30.2821C27.168 31.2174 26.4097 31.9757 25.4744 31.9757H15.3127C14.3773 31.9757 13.6191 31.2174 13.6191 30.2821C13.6191 28.4469 15.2762 26.8686 17.6516 26.1701C17.9351 26.0867 18.2385 26.1763 18.4463 26.3864Z" fill="#6648FF"/>
</svg>
