<svg width="48" height="48" viewBox="0 0 48 48" fill="none" xmlns="http://www.w3.org/2000/svg">
<rect width="48" height="48" rx="24" fill="#E6E1FF"/>
<path opacity="0.4" d="M19 17V26C19 27.1046 19.8954 28 21 28H32C33.1046 28 34 27.1046 34 26V17C34 15.8954 33.1046 15 32 15H21C19.8954 15 19 15.8954 19 17Z" fill="#6648FF"/>
<path d="M14 30C14 28.8954 14.8954 28 16 28H16.1716C16.702 28 17.2107 28.2107 17.5858 28.5858C18.3668 29.3668 19.6332 29.3668 20.4142 28.5858C20.7893 28.2107 21.298 28 21.8284 28H22C23.1046 28 24 28.8954 24 30V31C24 32.1046 23.1046 33 22 33H16C14.8954 33 14 32.1046 14 31V30Z" fill="#6648FF"/>
<path d="M21.5 24.5C21.5 25.8807 20.3807 27 19 27C17.6193 27 16.5 25.8807 16.5 24.5C16.5 23.1193 17.6193 22 19 22C20.3807 22 21.5 23.1193 21.5 24.5Z" fill="#6648FF"/>
<path fill-rule="evenodd" clip-rule="evenodd" d="M22.25 19.5C22.25 19.0858 22.5858 18.75 23 18.75L30 18.75C30.4142 18.75 30.75 19.0858 30.75 19.5C30.75 19.9142 30.4142 20.25 30 20.25L23 20.25C22.5858 20.25 22.25 19.9142 22.25 19.5Z" fill="#6648FF"/>
<path fill-rule="evenodd" clip-rule="evenodd" d="M25.25 23.5C25.25 23.0858 25.5858 22.75 26 22.75H30C30.4142 22.75 30.75 23.0858 30.75 23.5C30.75 23.9142 30.4142 24.25 30 24.25H26C25.5858 24.25 25.25 23.9142 25.25 23.5Z" fill="#6648FF"/>
</svg>
