<svg width="48" height="48" viewBox="0 0 48 48" fill="none" xmlns="http://www.w3.org/2000/svg">
<circle cx="24" cy="24" r="24" fill="#F2F4F7"/>
<path d="M31 14H33C33.5523 14 34 14.4477 34 15V17M33 15C25.0585 21.3914 20.9421 23.1129 14 24M30 22V32C30 33.1046 30.8954 34 32 34C33.1046 34 34 33.1046 34 32V22C34 20.8954 33.1046 20 32 20C30.8954 20 30 20.8954 30 22ZM14 30L14 32C14 33.1046 14.8954 34 16 34C17.1046 34 18 33.1046 18 32L18 30C18 28.8954 17.1046 28 16 28C14.8954 28 14 28.8954 14 30ZM22 26V32C22 33.1046 22.8954 34 24 34C25.1046 34 26 33.1046 26 32V26C26 24.8954 25.1046 24 24 24C22.8954 24 22 24.8954 22 26Z" stroke="#1D2939" stroke-width="1.5" stroke-linecap="round" stroke-linejoin="round"/>
</svg>
