<svg width="48" height="48" viewBox="0 0 48 48" fill="none" xmlns="http://www.w3.org/2000/svg">
<circle cx="24" cy="24" r="24" fill="#E6E1FF"/>
<path opacity="0.4" d="M32 20C33.1046 20 34 20.8954 34 22L34 32C34 33.1046 33.1046 34 32 34C30.8954 34 30 33.1046 30 32L30 22C30 20.8954 30.8954 20 32 20Z" fill="#6648FF"/>
<path opacity="0.4" d="M16 28C17.1046 28 18 28.8954 18 30V32C18 33.1046 17.1046 34 16 34C14.8954 34 14 33.1046 14 32L14 30C14 28.8954 14.8954 28 16 28Z" fill="#6648FF"/>
<path opacity="0.4" d="M24 24C25.1046 24 26 24.8954 26 26L26 32C26 33.1046 25.1046 34 24 34C22.8954 34 22 33.1046 22 32L22 26C22 24.8954 22.8954 24 24 24Z" fill="#6648FF"/>
<path fill-rule="evenodd" clip-rule="evenodd" d="M30.2501 14C30.2501 13.5858 30.5859 13.25 31.0001 13.25H33.0001C33.9666 13.25 34.7501 14.0335 34.7501 15V17C34.7501 17.4142 34.4143 17.75 34.0001 17.75C33.5859 17.75 33.2501 17.4142 33.2501 17V15.7611C29.3671 18.8716 26.3562 20.8923 23.4409 22.2445C20.4592 23.6274 17.6136 24.2944 14.0951 24.744C13.6843 24.7965 13.3086 24.5059 13.2561 24.0951C13.2036 23.6842 13.4941 23.3085 13.905 23.256C17.3287 22.8186 20.0123 22.1812 22.8097 20.8837C25.5189 19.6272 28.3682 17.7362 32.1126 14.75H31.0001C30.5859 14.75 30.2501 14.4142 30.2501 14Z" fill="#6648FF"/>
</svg>
