<?xml version="1.0" encoding="UTF-8"?>
<svg xmlns="http://www.w3.org/2000/svg" xmlns:xlink="http://www.w3.org/1999/xlink" width="20px" height="20px" viewBox="0 0 20 20" version="1.1">
<g id="surface1">
<path style=" stroke:none;fill-rule:nonzero;fill:rgb(0%,0%,0%);fill-opacity:1;" d="M 7.332031 14.644531 L 12.667969 14.644531 C 12.804688 14.644531 12.921875 14.601562 13.011719 14.511719 C 13.101562 14.421875 13.144531 14.304688 13.144531 14.167969 C 13.144531 14.027344 13.101562 13.914062 13.011719 13.824219 C 12.921875 13.734375 12.804688 13.6875 12.667969 13.6875 L 7.332031 13.6875 C 7.195312 13.6875 7.078125 13.734375 6.988281 13.824219 C 6.898438 13.914062 6.855469 14.027344 6.855469 14.167969 C 6.855469 14.304688 6.898438 14.421875 6.988281 14.511719 C 7.078125 14.601562 7.195312 14.644531 7.332031 14.644531 Z M 7.332031 11.144531 L 12.667969 11.144531 C 12.804688 11.144531 12.921875 11.101562 13.011719 11.011719 C 13.101562 10.921875 13.144531 10.804688 13.144531 10.667969 C 13.144531 10.542969 13.101562 10.433594 13.011719 10.34375 C 12.921875 10.253906 12.804688 10.207031 12.667969 10.207031 L 7.332031 10.207031 C 7.195312 10.207031 7.078125 10.253906 6.988281 10.34375 C 6.898438 10.433594 6.855469 10.546875 6.855469 10.6875 C 6.855469 10.828125 6.898438 10.9375 6.988281 11.019531 C 7.078125 11.105469 7.195312 11.144531 7.332031 11.144531 Z M 4.957031 17.917969 C 4.625 17.917969 4.339844 17.796875 4.105469 17.5625 C 3.867188 17.328125 3.75 17.042969 3.75 16.707031 L 3.75 3.292969 C 3.75 2.957031 3.867188 2.671875 4.105469 2.4375 C 4.339844 2.203125 4.625 2.082031 4.957031 2.082031 L 11.6875 2.082031 C 11.867188 2.082031 12.03125 2.117188 12.175781 2.1875 C 12.324219 2.257812 12.453125 2.339844 12.5625 2.4375 L 15.894531 5.769531 C 15.992188 5.882812 16.078125 6.011719 16.144531 6.15625 C 16.214844 6.300781 16.25 6.464844 16.25 6.644531 L 16.25 16.707031 C 16.25 17.042969 16.132812 17.328125 15.894531 17.5625 C 15.660156 17.796875 15.375 17.917969 15.042969 17.917969 Z M 11.730469 5.980469 L 11.730469 3.019531 L 4.957031 3.019531 C 4.890625 3.019531 4.828125 3.046875 4.769531 3.105469 C 4.714844 3.160156 4.6875 3.222656 4.6875 3.292969 L 4.6875 16.707031 C 4.6875 16.777344 4.714844 16.839844 4.769531 16.894531 C 4.828125 16.953125 4.890625 16.980469 4.957031 16.980469 L 15.042969 16.980469 C 15.109375 16.980469 15.171875 16.953125 15.230469 16.894531 C 15.285156 16.839844 15.3125 16.777344 15.3125 16.707031 L 15.3125 6.5625 L 12.3125 6.5625 C 12.144531 6.5625 12.007812 6.503906 11.894531 6.386719 C 11.785156 6.265625 11.730469 6.132812 11.730469 5.980469 Z M 4.6875 3.019531 L 4.6875 6.5625 L 4.6875 3.019531 L 4.6875 16.980469 Z M 4.6875 3.019531 "/>
</g>
</svg>
