<?xml version="1.0" encoding="UTF-8"?>
<svg xmlns="http://www.w3.org/2000/svg" xmlns:xlink="http://www.w3.org/1999/xlink" width="20px" height="20px" viewBox="0 0 20 20" version="1.1">
<g id="surface1">
<path style=" stroke:none;fill-rule:nonzero;fill:rgb(0%,0%,0%);fill-opacity:1;" d="M 5.6875 11.480469 L 10.894531 11.480469 C 11.019531 11.480469 11.128906 11.429688 11.21875 11.332031 C 11.308594 11.234375 11.355469 11.125 11.355469 11 C 11.355469 10.859375 11.308594 10.746094 11.21875 10.65625 C 11.128906 10.566406 11.015625 10.519531 10.875 10.519531 L 5.667969 10.519531 C 5.542969 10.519531 5.433594 10.570312 5.34375 10.667969 C 5.253906 10.765625 5.207031 10.875 5.207031 11 C 5.207031 11.140625 5.253906 11.253906 5.34375 11.34375 C 5.433594 11.433594 5.546875 11.480469 5.6875 11.480469 Z M 5.6875 8.8125 L 14.332031 8.8125 C 14.457031 8.8125 14.566406 8.765625 14.65625 8.675781 C 14.746094 8.585938 14.792969 8.472656 14.792969 8.332031 C 14.792969 8.207031 14.746094 8.101562 14.65625 8.011719 C 14.566406 7.921875 14.453125 7.875 14.3125 7.875 L 5.667969 7.875 C 5.542969 7.875 5.433594 7.921875 5.34375 8.011719 C 5.253906 8.101562 5.207031 8.214844 5.207031 8.355469 C 5.207031 8.492188 5.253906 8.605469 5.34375 8.6875 C 5.433594 8.769531 5.546875 8.8125 5.6875 8.8125 Z M 5.6875 6.167969 L 14.332031 6.167969 C 14.457031 6.167969 14.566406 6.121094 14.65625 6.03125 C 14.746094 5.941406 14.792969 5.828125 14.792969 5.6875 C 14.792969 5.546875 14.746094 5.4375 14.65625 5.355469 C 14.566406 5.269531 14.453125 5.230469 14.3125 5.230469 L 5.667969 5.230469 C 5.542969 5.230469 5.433594 5.273438 5.34375 5.363281 C 5.253906 5.453125 5.207031 5.570312 5.207031 5.707031 C 5.207031 5.832031 5.253906 5.941406 5.34375 6.03125 C 5.433594 6.121094 5.546875 6.167969 5.6875 6.167969 Z M 2.082031 16.082031 L 2.082031 3.292969 C 2.082031 2.972656 2.203125 2.691406 2.4375 2.449219 C 2.671875 2.203125 2.957031 2.082031 3.292969 2.082031 L 16.707031 2.082031 C 17.027344 2.082031 17.308594 2.203125 17.550781 2.449219 C 17.796875 2.691406 17.917969 2.972656 17.917969 3.292969 L 17.917969 13.375 C 17.917969 13.695312 17.796875 13.976562 17.550781 14.21875 C 17.308594 14.460938 17.027344 14.582031 16.707031 14.582031 L 5.042969 14.582031 L 3.105469 16.5 C 2.910156 16.695312 2.691406 16.738281 2.449219 16.636719 C 2.203125 16.53125 2.082031 16.347656 2.082031 16.082031 Z M 3.019531 15.25 L 4.625 13.644531 L 16.707031 13.644531 C 16.792969 13.644531 16.859375 13.621094 16.90625 13.574219 C 16.953125 13.523438 16.980469 13.457031 16.980469 13.375 L 16.980469 3.292969 C 16.980469 3.207031 16.953125 3.140625 16.90625 3.09375 C 16.859375 3.046875 16.792969 3.019531 16.707031 3.019531 L 3.292969 3.019531 C 3.207031 3.019531 3.140625 3.046875 3.09375 3.09375 C 3.046875 3.140625 3.019531 3.207031 3.019531 3.292969 Z M 3.019531 3.292969 L 3.019531 3.019531 L 3.019531 15.25 Z M 3.019531 3.292969 "/>
</g>
</svg>
