<?xml version="1.0" encoding="UTF-8"?>
<svg xmlns="http://www.w3.org/2000/svg" xmlns:xlink="http://www.w3.org/1999/xlink" width="24px" height="24px" viewBox="0 0 24 24" version="1.1">
<g id="surface1">
<path style=" stroke:none;fill-rule:nonzero;fill:rgb(0%,0%,0%);fill-opacity:1;" d="M 4.824219 18.875 C 4.660156 18.875 4.519531 18.816406 4.414062 18.699219 C 4.304688 18.582031 4.25 18.449219 4.25 18.300781 C 4.25 18.132812 4.304688 17.996094 4.414062 17.886719 C 4.519531 17.777344 4.660156 17.726562 4.824219 17.726562 L 6.324219 17.726562 L 6.324219 10 C 6.324219 8.683594 6.738281 7.484375 7.5625 6.398438 C 8.386719 5.316406 9.476562 4.648438 10.824219 4.398438 L 10.824219 3.675781 C 10.824219 3.339844 10.9375 3.070312 11.164062 2.863281 C 11.386719 2.652344 11.667969 2.550781 12 2.550781 C 12.332031 2.550781 12.613281 2.652344 12.835938 2.863281 C 13.0625 3.070312 13.175781 3.339844 13.175781 3.675781 L 13.175781 4.398438 C 14.523438 4.648438 15.617188 5.316406 16.449219 6.398438 C 17.285156 7.484375 17.699219 8.683594 17.699219 10 L 17.699219 17.726562 L 19.175781 17.726562 C 19.339844 17.726562 19.480469 17.777344 19.585938 17.886719 C 19.695312 17.996094 19.75 18.132812 19.75 18.300781 C 19.75 18.464844 19.695312 18.605469 19.585938 18.710938 C 19.480469 18.820312 19.339844 18.875 19.175781 18.875 Z M 12 11.699219 Z M 12 21.800781 C 11.515625 21.800781 11.097656 21.625 10.738281 21.273438 C 10.378906 20.925781 10.199219 20.5 10.199219 20 L 13.800781 20 C 13.800781 20.5 13.625 20.925781 13.273438 21.273438 C 12.925781 21.625 12.5 21.800781 12 21.800781 Z M 7.449219 17.726562 L 16.550781 17.726562 L 16.550781 10 C 16.550781 8.734375 16.113281 7.652344 15.238281 6.761719 C 14.363281 5.871094 13.292969 5.425781 12.023438 5.425781 C 10.757812 5.425781 9.679688 5.871094 8.789062 6.761719 C 7.894531 7.652344 7.449219 8.734375 7.449219 10 Z M 7.449219 17.726562 "/>
</g>
</svg>
