<?xml version="1.0" encoding="UTF-8"?>
<svg xmlns="http://www.w3.org/2000/svg" xmlns:xlink="http://www.w3.org/1999/xlink" width="20px" height="20px" viewBox="0 0 20 20" version="1.1">
<g id="surface1">
<path style=" stroke:none;fill-rule:nonzero;fill:rgb(0%,0%,0%);fill-opacity:1;" d="M 3.894531 17.292969 C 3.5625 17.292969 3.277344 17.171875 3.042969 16.9375 C 2.804688 16.703125 2.6875 16.417969 2.6875 16.082031 L 2.6875 9.125 C 2.296875 8.804688 2.042969 8.417969 1.917969 7.957031 C 1.792969 7.5 1.796875 7.035156 1.9375 6.5625 L 2.792969 3.832031 C 2.902344 3.472656 3.089844 3.195312 3.355469 3 C 3.617188 2.804688 3.929688 2.707031 4.292969 2.707031 L 15.625 2.707031 C 16 2.707031 16.324219 2.804688 16.59375 3 C 16.863281 3.195312 17.054688 3.464844 17.167969 3.8125 L 18.0625 6.5625 C 18.203125 7.035156 18.203125 7.503906 18.074219 7.96875 C 17.941406 8.433594 17.679688 8.820312 17.292969 9.125 L 17.292969 16.082031 C 17.292969 16.417969 17.171875 16.703125 16.9375 16.9375 C 16.703125 17.171875 16.417969 17.292969 16.082031 17.292969 Z M 11.855469 8.6875 C 12.339844 8.6875 12.726562 8.546875 13.011719 8.261719 C 13.296875 7.976562 13.417969 7.652344 13.375 7.292969 L 12.8125 3.644531 L 10.480469 3.644531 L 10.480469 7.207031 C 10.480469 7.597656 10.609375 7.941406 10.875 8.238281 C 11.140625 8.539062 11.464844 8.6875 11.855469 8.6875 Z M 8 8.6875 C 8.429688 8.6875 8.792969 8.542969 9.082031 8.25 C 9.375 7.957031 9.519531 7.609375 9.519531 7.207031 L 9.519531 3.644531 L 7.1875 3.644531 L 6.625 7.332031 C 6.582031 7.652344 6.695312 7.957031 6.957031 8.25 C 7.222656 8.542969 7.570312 8.6875 8 8.6875 Z M 4.230469 8.6875 C 4.605469 8.6875 4.921875 8.5625 5.1875 8.3125 C 5.453125 8.0625 5.605469 7.757812 5.644531 7.394531 L 6.207031 3.644531 L 4.105469 3.644531 C 4.019531 3.644531 3.949219 3.667969 3.886719 3.707031 C 3.824219 3.75 3.785156 3.8125 3.769531 3.894531 L 2.875 6.792969 C 2.722656 7.25 2.78125 7.679688 3.050781 8.082031 C 3.324219 8.484375 3.714844 8.6875 4.230469 8.6875 Z M 15.75 8.6875 C 16.222656 8.6875 16.609375 8.496094 16.90625 8.113281 C 17.203125 7.734375 17.277344 7.292969 17.125 6.792969 L 16.207031 3.875 C 16.195312 3.792969 16.160156 3.734375 16.105469 3.699219 C 16.046875 3.664062 15.972656 3.644531 15.875 3.644531 L 13.792969 3.644531 L 14.332031 7.394531 C 14.390625 7.757812 14.546875 8.0625 14.8125 8.3125 C 15.078125 8.5625 15.390625 8.6875 15.75 8.6875 Z M 3.894531 16.355469 L 16.082031 16.355469 C 16.152344 16.355469 16.214844 16.328125 16.269531 16.28125 C 16.328125 16.234375 16.355469 16.167969 16.355469 16.082031 L 16.355469 9.582031 C 16.3125 9.609375 16.234375 9.628906 16.113281 9.636719 C 15.996094 9.640625 15.875 9.644531 15.75 9.644531 C 15.390625 9.644531 15.054688 9.570312 14.75 9.417969 C 14.445312 9.265625 14.152344 9.027344 13.875 8.707031 C 13.652344 8.984375 13.378906 9.210938 13.050781 9.386719 C 12.726562 9.558594 12.339844 9.644531 11.894531 9.644531 C 11.507812 9.644531 11.167969 9.578125 10.875 9.4375 C 10.582031 9.296875 10.292969 9.082031 10 8.792969 C 9.765625 9.070312 9.480469 9.28125 9.144531 9.425781 C 8.8125 9.574219 8.464844 9.644531 8.105469 9.644531 C 7.703125 9.644531 7.332031 9.574219 7 9.425781 C 6.667969 9.28125 6.382812 9.042969 6.144531 8.707031 C 5.769531 9.054688 5.421875 9.296875 5.09375 9.4375 C 4.765625 9.578125 4.480469 9.644531 4.230469 9.644531 C 4.117188 9.644531 4.007812 9.640625 3.894531 9.636719 C 3.785156 9.628906 3.695312 9.609375 3.625 9.582031 L 3.625 16.082031 C 3.625 16.167969 3.652344 16.234375 3.707031 16.28125 C 3.765625 16.328125 3.828125 16.355469 3.894531 16.355469 Z M 16.082031 16.355469 L 3.894531 16.355469 Z M 16.082031 16.355469 "/>
</g>
</svg>
