<svg xmlns="http://www.w3.org/2000/svg" width="32" height="44" viewBox="0 0 32 44">
  <g id="phone_icon" data-name="phone icon" transform="translate(-715 -658)">
    <g id="Ellipse_16" data-name="Ellipse 16" transform="translate(715 658)" fill="rgba(0,0,0,0.73)" stroke="#262626" stroke-width="1">
      <circle cx="4" cy="4" r="4" stroke="none"/>
      <circle cx="4" cy="4" r="3.5" fill="none"/>
    </g>
    <g id="Ellipse_16-2" data-name="Ellipse 16" transform="translate(727 658)" fill="rgba(0,0,0,0.73)" stroke="#262626" stroke-width="1">
      <circle cx="4" cy="4" r="4" stroke="none"/>
      <circle cx="4" cy="4" r="3.5" fill="none"/>
    </g>
    <g id="Ellipse_16-3" data-name="Ellipse 16" transform="translate(739 658)" fill="rgba(0,0,0,0.73)" stroke="#262626" stroke-width="1">
      <circle cx="4" cy="4" r="4" stroke="none"/>
      <circle cx="4" cy="4" r="3.5" fill="none"/>
    </g>
    <g id="Ellipse_16-4" data-name="Ellipse 16" transform="translate(715 670)" fill="rgba(0,0,0,0.73)" stroke="#262626" stroke-width="1">
      <circle cx="4" cy="4" r="4" stroke="none"/>
      <circle cx="4" cy="4" r="3.5" fill="none"/>
    </g>
    <g id="Ellipse_16-5" data-name="Ellipse 16" transform="translate(727 670)" fill="rgba(0,0,0,0.73)" stroke="#262626" stroke-width="1">
      <circle cx="4" cy="4" r="4" stroke="none"/>
      <circle cx="4" cy="4" r="3.5" fill="none"/>
    </g>
    <g id="Ellipse_16-6" data-name="Ellipse 16" transform="translate(739 670)" fill="rgba(0,0,0,0.73)" stroke="#262626" stroke-width="1">
      <circle cx="4" cy="4" r="4" stroke="none"/>
      <circle cx="4" cy="4" r="3.5" fill="none"/>
    </g>
    <g id="Ellipse_16-7" data-name="Ellipse 16" transform="translate(715 682)" fill="rgba(0,0,0,0.73)" stroke="#262626" stroke-width="1">
      <circle cx="4" cy="4" r="4" stroke="none"/>
      <circle cx="4" cy="4" r="3.5" fill="none"/>
    </g>
    <g id="Ellipse_16-8" data-name="Ellipse 16" transform="translate(727 682)" fill="rgba(0,0,0,0.73)" stroke="#262626" stroke-width="1">
      <circle cx="4" cy="4" r="4" stroke="none"/>
      <circle cx="4" cy="4" r="3.5" fill="none"/>
    </g>
    <g id="Ellipse_16-9" data-name="Ellipse 16" transform="translate(739 682)" fill="rgba(0,0,0,0.73)" stroke="#262626" stroke-width="1">
      <circle cx="4" cy="4" r="4" stroke="none"/>
      <circle cx="4" cy="4" r="3.5" fill="none"/>
    </g>
    <g id="Ellipse_16-10" data-name="Ellipse 16" transform="translate(727 694)" fill="rgba(0,0,0,0.73)" stroke="#262626" stroke-width="1">
      <circle cx="4" cy="4" r="4" stroke="none"/>
      <circle cx="4" cy="4" r="3.5" fill="none"/>
    </g>
  </g>
</svg>
